%TF.GenerationSoftware,KiCad,Pcbnew,7.0.10*%
%TF.CreationDate,2024-03-15T22:51:16-04:00*%
%TF.ProjectId,DW1000 BU-01,44573130-3030-4204-9255-2d30312e6b69,rev?*%
%TF.SameCoordinates,Original*%
%TF.FileFunction,Drillmap*%
%TF.FilePolarity,Positive*%
%FSLAX45Y45*%
G04 Gerber Fmt 4.5, Leading zero omitted, Abs format (unit mm)*
G04 Created by KiCad (PCBNEW 7.0.10) date 2024-03-15 22:51:16*
%MOMM*%
%LPD*%
G01*
G04 APERTURE LIST*
%ADD10C,0.100000*%
%ADD11C,0.200000*%
G04 APERTURE END LIST*
D10*
X-25000Y-25000D02*
X2371000Y-25000D01*
X2371000Y-4025000D01*
X-25000Y-4025000D01*
X-25000Y-25000D01*
D11*
X230777Y-16826484D02*
X230777Y-16626484D01*
X230777Y-16626484D02*
X278396Y-16626484D01*
X278396Y-16626484D02*
X306967Y-16636008D01*
X306967Y-16636008D02*
X326015Y-16655055D01*
X326015Y-16655055D02*
X335539Y-16674103D01*
X335539Y-16674103D02*
X345063Y-16712198D01*
X345063Y-16712198D02*
X345063Y-16740769D01*
X345063Y-16740769D02*
X335539Y-16778865D01*
X335539Y-16778865D02*
X326015Y-16797912D01*
X326015Y-16797912D02*
X306967Y-16816960D01*
X306967Y-16816960D02*
X278396Y-16826484D01*
X278396Y-16826484D02*
X230777Y-16826484D01*
X430777Y-16826484D02*
X430777Y-16693150D01*
X430777Y-16731246D02*
X440301Y-16712198D01*
X440301Y-16712198D02*
X449824Y-16702674D01*
X449824Y-16702674D02*
X468872Y-16693150D01*
X468872Y-16693150D02*
X487920Y-16693150D01*
X554586Y-16826484D02*
X554586Y-16693150D01*
X554586Y-16626484D02*
X545063Y-16636008D01*
X545063Y-16636008D02*
X554586Y-16645531D01*
X554586Y-16645531D02*
X564110Y-16636008D01*
X564110Y-16636008D02*
X554586Y-16626484D01*
X554586Y-16626484D02*
X554586Y-16645531D01*
X678396Y-16826484D02*
X659348Y-16816960D01*
X659348Y-16816960D02*
X649824Y-16797912D01*
X649824Y-16797912D02*
X649824Y-16626484D01*
X783158Y-16826484D02*
X764110Y-16816960D01*
X764110Y-16816960D02*
X754586Y-16797912D01*
X754586Y-16797912D02*
X754586Y-16626484D01*
X1011729Y-16826484D02*
X1011729Y-16626484D01*
X1011729Y-16626484D02*
X1078396Y-16769341D01*
X1078396Y-16769341D02*
X1145063Y-16626484D01*
X1145063Y-16626484D02*
X1145063Y-16826484D01*
X1326015Y-16826484D02*
X1326015Y-16721722D01*
X1326015Y-16721722D02*
X1316491Y-16702674D01*
X1316491Y-16702674D02*
X1297444Y-16693150D01*
X1297444Y-16693150D02*
X1259348Y-16693150D01*
X1259348Y-16693150D02*
X1240301Y-16702674D01*
X1326015Y-16816960D02*
X1306967Y-16826484D01*
X1306967Y-16826484D02*
X1259348Y-16826484D01*
X1259348Y-16826484D02*
X1240301Y-16816960D01*
X1240301Y-16816960D02*
X1230777Y-16797912D01*
X1230777Y-16797912D02*
X1230777Y-16778865D01*
X1230777Y-16778865D02*
X1240301Y-16759817D01*
X1240301Y-16759817D02*
X1259348Y-16750293D01*
X1259348Y-16750293D02*
X1306967Y-16750293D01*
X1306967Y-16750293D02*
X1326015Y-16740769D01*
X1421253Y-16693150D02*
X1421253Y-16893150D01*
X1421253Y-16702674D02*
X1440301Y-16693150D01*
X1440301Y-16693150D02*
X1478396Y-16693150D01*
X1478396Y-16693150D02*
X1497443Y-16702674D01*
X1497443Y-16702674D02*
X1506967Y-16712198D01*
X1506967Y-16712198D02*
X1516491Y-16731246D01*
X1516491Y-16731246D02*
X1516491Y-16788389D01*
X1516491Y-16788389D02*
X1506967Y-16807436D01*
X1506967Y-16807436D02*
X1497443Y-16816960D01*
X1497443Y-16816960D02*
X1478396Y-16826484D01*
X1478396Y-16826484D02*
X1440301Y-16826484D01*
X1440301Y-16826484D02*
X1421253Y-16816960D01*
X1602205Y-16807436D02*
X1611729Y-16816960D01*
X1611729Y-16816960D02*
X1602205Y-16826484D01*
X1602205Y-16826484D02*
X1592682Y-16816960D01*
X1592682Y-16816960D02*
X1602205Y-16807436D01*
X1602205Y-16807436D02*
X1602205Y-16826484D01*
X1602205Y-16702674D02*
X1611729Y-16712198D01*
X1611729Y-16712198D02*
X1602205Y-16721722D01*
X1602205Y-16721722D02*
X1592682Y-16712198D01*
X1592682Y-16712198D02*
X1602205Y-16702674D01*
X1602205Y-16702674D02*
X1602205Y-16721722D01*
M02*
