%TF.GenerationSoftware,KiCad,Pcbnew,7.0.10*%
%TF.CreationDate,2024-03-15T22:51:05-04:00*%
%TF.ProjectId,DW1000 BU-01,44573130-3030-4204-9255-2d30312e6b69,rev?*%
%TF.SameCoordinates,Original*%
%TF.FileFunction,Paste,Top*%
%TF.FilePolarity,Positive*%
%FSLAX46Y46*%
G04 Gerber Fmt 4.6, Leading zero omitted, Abs format (unit mm)*
G04 Created by KiCad (PCBNEW 7.0.10) date 2024-03-15 22:51:05*
%MOMM*%
%LPD*%
G01*
G04 APERTURE LIST*
G04 Aperture macros list*
%AMRoundRect*
0 Rectangle with rounded corners*
0 $1 Rounding radius*
0 $2 $3 $4 $5 $6 $7 $8 $9 X,Y pos of 4 corners*
0 Add a 4 corners polygon primitive as box body*
4,1,4,$2,$3,$4,$5,$6,$7,$8,$9,$2,$3,0*
0 Add four circle primitives for the rounded corners*
1,1,$1+$1,$2,$3*
1,1,$1+$1,$4,$5*
1,1,$1+$1,$6,$7*
1,1,$1+$1,$8,$9*
0 Add four rect primitives between the rounded corners*
20,1,$1+$1,$2,$3,$4,$5,0*
20,1,$1+$1,$4,$5,$6,$7,0*
20,1,$1+$1,$6,$7,$8,$9,0*
20,1,$1+$1,$8,$9,$2,$3,0*%
G04 Aperture macros list end*
%ADD10RoundRect,0.237500X0.250000X0.237500X-0.250000X0.237500X-0.250000X-0.237500X0.250000X-0.237500X0*%
%ADD11RoundRect,0.250000X-0.325000X-0.650000X0.325000X-0.650000X0.325000X0.650000X-0.325000X0.650000X0*%
%ADD12RoundRect,0.237500X-0.237500X0.250000X-0.237500X-0.250000X0.237500X-0.250000X0.237500X0.250000X0*%
%ADD13R,1.000000X2.450000*%
%ADD14R,2.450000X1.000000*%
%ADD15RoundRect,0.237500X-0.250000X-0.237500X0.250000X-0.237500X0.250000X0.237500X-0.250000X0.237500X0*%
G04 APERTURE END LIST*
D10*
%TO.C,R5*%
X3198500Y-10160000D03*
X1373500Y-10160000D03*
%TD*%
D11*
%TO.C,C2*%
X7275000Y-28750000D03*
X10225000Y-28750000D03*
%TD*%
%TO.C,C1*%
X7300000Y-31250000D03*
X10250000Y-31250000D03*
%TD*%
D12*
%TO.C,R7*%
X3000000Y-31837500D03*
X3000000Y-33662500D03*
%TD*%
D10*
%TO.C,R3*%
X15287000Y-6096000D03*
X13462000Y-6096000D03*
%TD*%
D13*
%TO.C,DWM1*%
X451200Y-26050000D03*
X1851200Y-26050000D03*
X3251200Y-26050000D03*
X4651200Y-26050000D03*
X6051200Y-26050000D03*
X7451200Y-26050000D03*
X8851200Y-26050000D03*
X10251200Y-26050000D03*
D14*
X12546200Y-24650000D03*
X12546200Y-23250000D03*
X12546200Y-21850000D03*
X12546200Y-20450000D03*
X12546200Y-19050000D03*
X12546200Y-17650000D03*
X12546200Y-16250000D03*
X12546200Y-14850000D03*
D13*
X10250000Y-13450000D03*
X8850000Y-13450000D03*
X7451200Y-13450000D03*
X6051200Y-13450000D03*
X4651200Y-13450000D03*
X3251200Y-13450000D03*
X1851200Y-13450000D03*
X451200Y-13450000D03*
%TD*%
D10*
%TO.C,R2*%
X10818500Y-6096000D03*
X8993500Y-6096000D03*
%TD*%
D15*
%TO.C,R4*%
X16994500Y-6000000D03*
X18819500Y-6000000D03*
%TD*%
D10*
%TO.C,R1*%
X5865500Y-6096000D03*
X4040500Y-6096000D03*
%TD*%
D12*
%TO.C,R6*%
X750000Y-31837500D03*
X750000Y-33662500D03*
%TD*%
%TO.C,R8*%
X5250000Y-31837500D03*
X5250000Y-33662500D03*
%TD*%
M02*
