%TF.GenerationSoftware,KiCad,Pcbnew,7.0.10*%
%TF.CreationDate,2024-03-15T22:51:05-04:00*%
%TF.ProjectId,DW1000 BU-01,44573130-3030-4204-9255-2d30312e6b69,rev?*%
%TF.SameCoordinates,Original*%
%TF.FileFunction,Copper,L1,Top*%
%TF.FilePolarity,Positive*%
%FSLAX46Y46*%
G04 Gerber Fmt 4.6, Leading zero omitted, Abs format (unit mm)*
G04 Created by KiCad (PCBNEW 7.0.10) date 2024-03-15 22:51:05*
%MOMM*%
%LPD*%
G01*
G04 APERTURE LIST*
G04 Aperture macros list*
%AMRoundRect*
0 Rectangle with rounded corners*
0 $1 Rounding radius*
0 $2 $3 $4 $5 $6 $7 $8 $9 X,Y pos of 4 corners*
0 Add a 4 corners polygon primitive as box body*
4,1,4,$2,$3,$4,$5,$6,$7,$8,$9,$2,$3,0*
0 Add four circle primitives for the rounded corners*
1,1,$1+$1,$2,$3*
1,1,$1+$1,$4,$5*
1,1,$1+$1,$6,$7*
1,1,$1+$1,$8,$9*
0 Add four rect primitives between the rounded corners*
20,1,$1+$1,$2,$3,$4,$5,0*
20,1,$1+$1,$4,$5,$6,$7,0*
20,1,$1+$1,$6,$7,$8,$9,0*
20,1,$1+$1,$8,$9,$2,$3,0*%
G04 Aperture macros list end*
%TA.AperFunction,SMDPad,CuDef*%
%ADD10RoundRect,0.237500X0.250000X0.237500X-0.250000X0.237500X-0.250000X-0.237500X0.250000X-0.237500X0*%
%TD*%
%TA.AperFunction,ComponentPad*%
%ADD11R,1.800000X1.800000*%
%TD*%
%TA.AperFunction,ComponentPad*%
%ADD12C,1.800000*%
%TD*%
%TA.AperFunction,SMDPad,CuDef*%
%ADD13RoundRect,0.250000X-0.325000X-0.650000X0.325000X-0.650000X0.325000X0.650000X-0.325000X0.650000X0*%
%TD*%
%TA.AperFunction,SMDPad,CuDef*%
%ADD14RoundRect,0.237500X-0.237500X0.250000X-0.237500X-0.250000X0.237500X-0.250000X0.237500X0.250000X0*%
%TD*%
%TA.AperFunction,ComponentPad*%
%ADD15R,1.700000X1.700000*%
%TD*%
%TA.AperFunction,ComponentPad*%
%ADD16O,1.700000X1.700000*%
%TD*%
%TA.AperFunction,ComponentPad*%
%ADD17R,1.600000X1.600000*%
%TD*%
%TA.AperFunction,ComponentPad*%
%ADD18C,1.600000*%
%TD*%
%TA.AperFunction,SMDPad,CuDef*%
%ADD19R,1.000000X2.450000*%
%TD*%
%TA.AperFunction,SMDPad,CuDef*%
%ADD20R,2.450000X1.000000*%
%TD*%
%TA.AperFunction,SMDPad,CuDef*%
%ADD21RoundRect,0.237500X-0.250000X-0.237500X0.250000X-0.237500X0.250000X0.237500X-0.250000X0.237500X0*%
%TD*%
%TA.AperFunction,ViaPad*%
%ADD22C,0.800000*%
%TD*%
%TA.AperFunction,Conductor*%
%ADD23C,1.000000*%
%TD*%
%TA.AperFunction,Conductor*%
%ADD24C,0.750000*%
%TD*%
%TA.AperFunction,Conductor*%
%ADD25C,0.250000*%
%TD*%
G04 APERTURE END LIST*
D10*
%TO.P,R5,1*%
%TO.N,Net-(DWM1-IRQ{slash}GPIO8)*%
X3198500Y-10160000D03*
%TO.P,R5,2*%
%TO.N,GND*%
X1373500Y-10160000D03*
%TD*%
D11*
%TO.P,D4,1,K*%
%TO.N,GND*%
X16475000Y-3000000D03*
D12*
%TO.P,D4,2,A*%
%TO.N,Net-(D4-A)*%
X19015000Y-3000000D03*
%TD*%
D13*
%TO.P,C2,1*%
%TO.N,+3.3V*%
X7275000Y-28750000D03*
%TO.P,C2,2*%
%TO.N,GND*%
X10225000Y-28750000D03*
%TD*%
D11*
%TO.P,D3,1,K*%
%TO.N,GND*%
X11475000Y-3000000D03*
D12*
%TO.P,D3,2,A*%
%TO.N,Net-(D3-A)*%
X14015000Y-3000000D03*
%TD*%
D13*
%TO.P,C1,1*%
%TO.N,+3.3V*%
X7300000Y-31250000D03*
%TO.P,C1,2*%
%TO.N,GND*%
X10250000Y-31250000D03*
%TD*%
D14*
%TO.P,R7,1*%
%TO.N,WAKEUP*%
X3000000Y-31837500D03*
%TO.P,R7,2*%
%TO.N,Net-(J1-Pin_4)*%
X3000000Y-33662500D03*
%TD*%
D15*
%TO.P,J1,1,Pin_1*%
%TO.N,+3.3V*%
X21500000Y-9210000D03*
D16*
%TO.P,J1,2,Pin_2*%
%TO.N,GND*%
X21500000Y-11750000D03*
%TO.P,J1,3,Pin_3*%
%TO.N,Net-(J1-Pin_3)*%
X21500000Y-14290000D03*
%TO.P,J1,4,Pin_4*%
%TO.N,Net-(J1-Pin_4)*%
X21500000Y-16830000D03*
%TO.P,J1,5,Pin_5*%
%TO.N,Net-(J1-Pin_5)*%
X21500000Y-19370000D03*
%TO.P,J1,6,Pin_6*%
%TO.N,Net-(DWM1-SPICSn)*%
X21500000Y-21910000D03*
%TO.P,J1,7,Pin_7*%
%TO.N,Net-(DWM1-SPIMOSI)*%
X21500000Y-24450000D03*
%TO.P,J1,8,Pin_8*%
%TO.N,Net-(DWM1-SPIMISO)*%
X21500000Y-26990000D03*
%TO.P,J1,9,Pin_9*%
%TO.N,Net-(DWM1-SPICLK)*%
X21500000Y-29530000D03*
%TO.P,J1,10,Pin_10*%
%TO.N,Net-(DWM1-IRQ{slash}GPIO8)*%
X21500000Y-32070000D03*
%TD*%
D11*
%TO.P,D1,1,K*%
%TO.N,GND*%
X1475000Y-3000000D03*
D12*
%TO.P,D1,2,A*%
%TO.N,Net-(D1-A)*%
X4015000Y-3000000D03*
%TD*%
D10*
%TO.P,R3,1*%
%TO.N,Net-(DWM1-GPIO2{slash}RXLED)*%
X15287000Y-6096000D03*
%TO.P,R3,2*%
%TO.N,Net-(D3-A)*%
X13462000Y-6096000D03*
%TD*%
D17*
%TO.P,C3,1*%
%TO.N,+3.3V*%
X14732000Y-33059380D03*
D18*
%TO.P,C3,2*%
%TO.N,GND*%
X14732000Y-30559380D03*
%TD*%
D19*
%TO.P,DWM1,1,EXTON*%
%TO.N,EXTON*%
X451200Y-26050000D03*
%TO.P,DWM1,2,WAKEUP*%
%TO.N,WAKEUP*%
X1851200Y-26050000D03*
%TO.P,DWM1,3,RSTn*%
%TO.N,RSTn*%
X3251200Y-26050000D03*
%TO.P,DWM1,4,GPIO7*%
%TO.N,unconnected-(DWM1-GPIO7-Pad4)*%
X4651200Y-26050000D03*
%TO.P,DWM1,5,VDDAON*%
%TO.N,+3.3V*%
X6051200Y-26050000D03*
%TO.P,DWM1,6,VDD3V3*%
X7451200Y-26050000D03*
%TO.P,DWM1,7,VDD3V3*%
X8851200Y-26050000D03*
%TO.P,DWM1,8,VSS*%
%TO.N,GND*%
X10251200Y-26050000D03*
D20*
%TO.P,DWM1,9,GPIO6/EXTRXE/SPIHA*%
%TO.N,unconnected-(DWM1-GPIO6{slash}EXTRXE{slash}SPIHA-Pad9)*%
X12546200Y-24650000D03*
%TO.P,DWM1,10,GPIO5/EXTTXE/SPIPOL*%
%TO.N,unconnected-(DWM1-GPIO5{slash}EXTTXE{slash}SPIPOL-Pad10)*%
X12546200Y-23250000D03*
%TO.P,DWM1,11,GPIO4/EXTPA*%
%TO.N,unconnected-(DWM1-GPIO4{slash}EXTPA-Pad11)*%
X12546200Y-21850000D03*
%TO.P,DWM1,12,GPIO3/TXLED*%
%TO.N,Net-(DWM1-GPIO3{slash}TXLED)*%
X12546200Y-20450000D03*
%TO.P,DWM1,13,GPIO2/RXLED*%
%TO.N,Net-(DWM1-GPIO2{slash}RXLED)*%
X12546200Y-19050000D03*
%TO.P,DWM1,14,GPIO1/SFDLED*%
%TO.N,Net-(DWM1-GPIO1{slash}SFDLED)*%
X12546200Y-17650000D03*
%TO.P,DWM1,15,GPIO0/RXOKLED*%
%TO.N,Net-(DWM1-GPIO0{slash}RXOKLED)*%
X12546200Y-16250000D03*
%TO.P,DWM1,16,VSS*%
%TO.N,GND*%
X12546200Y-14850000D03*
D19*
%TO.P,DWM1,17,SPICSn*%
%TO.N,Net-(DWM1-SPICSn)*%
X10250000Y-13450000D03*
%TO.P,DWM1,18,SPIMOSI*%
%TO.N,Net-(DWM1-SPIMOSI)*%
X8850000Y-13450000D03*
%TO.P,DWM1,19,SPIMISO*%
%TO.N,Net-(DWM1-SPIMISO)*%
X7451200Y-13450000D03*
%TO.P,DWM1,20,SPICLK*%
%TO.N,Net-(DWM1-SPICLK)*%
X6051200Y-13450000D03*
%TO.P,DWM1,21,VSS*%
%TO.N,GND*%
X4651200Y-13450000D03*
%TO.P,DWM1,22,IRQ/GPIO8*%
%TO.N,Net-(DWM1-IRQ{slash}GPIO8)*%
X3251200Y-13450000D03*
%TO.P,DWM1,23,VSS*%
%TO.N,GND*%
X1851200Y-13450000D03*
%TO.P,DWM1,24,VSS*%
X451200Y-13450000D03*
%TD*%
D11*
%TO.P,D2,1,K*%
%TO.N,GND*%
X6475000Y-3000000D03*
D12*
%TO.P,D2,2,A*%
%TO.N,Net-(D2-A)*%
X9015000Y-3000000D03*
%TD*%
D10*
%TO.P,R2,1*%
%TO.N,Net-(DWM1-GPIO1{slash}SFDLED)*%
X10818500Y-6096000D03*
%TO.P,R2,2*%
%TO.N,Net-(D2-A)*%
X8993500Y-6096000D03*
%TD*%
D21*
%TO.P,R4,1*%
%TO.N,Net-(DWM1-GPIO3{slash}TXLED)*%
X16994500Y-6000000D03*
%TO.P,R4,2*%
%TO.N,Net-(D4-A)*%
X18819500Y-6000000D03*
%TD*%
D10*
%TO.P,R1,1*%
%TO.N,Net-(DWM1-GPIO0{slash}RXOKLED)*%
X5865500Y-6096000D03*
%TO.P,R1,2*%
%TO.N,Net-(D1-A)*%
X4040500Y-6096000D03*
%TD*%
D14*
%TO.P,R6,1*%
%TO.N,EXTON*%
X750000Y-31837500D03*
%TO.P,R6,2*%
%TO.N,Net-(J1-Pin_5)*%
X750000Y-33662500D03*
%TD*%
%TO.P,R8,1*%
%TO.N,RSTn*%
X5250000Y-31837500D03*
%TO.P,R8,2*%
%TO.N,Net-(J1-Pin_3)*%
X5250000Y-33662500D03*
%TD*%
D22*
%TO.N,GND*%
X14351000Y-7747000D03*
X14859000Y-21590000D03*
X19500000Y-38500000D03*
X2921000Y-30099000D03*
X15875000Y-20066000D03*
X6858000Y-33274000D03*
X14605000Y-23876000D03*
X13000000Y-38500000D03*
X2667000Y-35179000D03*
X16510000Y-18161000D03*
X11938000Y-8890000D03*
X4572000Y-28575000D03*
X6750000Y-38500000D03*
%TO.N,Net-(DWM1-SPICSn)*%
X11500000Y-13500000D03*
%TO.N,Net-(DWM1-SPIMOSI)*%
X9250000Y-15250000D03*
%TO.N,Net-(DWM1-SPIMISO)*%
X7500000Y-16500000D03*
%TO.N,Net-(DWM1-SPICLK)*%
X6000000Y-18250000D03*
%TO.N,Net-(DWM1-IRQ{slash}GPIO8)*%
X3250000Y-20750000D03*
%TD*%
D23*
%TO.N,+3.3V*%
X7275000Y-28750000D02*
X7275000Y-31225000D01*
X7451200Y-26050000D02*
X7451200Y-28573800D01*
X6051200Y-26050000D02*
X7451200Y-26050000D01*
X7275000Y-31225000D02*
X7300000Y-31250000D01*
X7300000Y-31250000D02*
X9109380Y-33059380D01*
D24*
X17526000Y-30265380D02*
X14732000Y-33059380D01*
D23*
X8851200Y-26050000D02*
X7451200Y-26050000D01*
D24*
X17526000Y-13184000D02*
X17526000Y-30265380D01*
D23*
X9109380Y-33059380D02*
X14732000Y-33059380D01*
X7451200Y-28573800D02*
X7275000Y-28750000D01*
D24*
X21500000Y-9210000D02*
X17526000Y-13184000D01*
D25*
%TO.N,GND*%
X2085000Y-13216200D02*
X1851200Y-13450000D01*
%TO.N,Net-(D1-A)*%
X4015000Y-3000000D02*
X4015000Y-5930000D01*
X4015000Y-5930000D02*
X4085000Y-6000000D01*
%TO.N,Net-(D2-A)*%
X8775000Y-3240000D02*
X8775000Y-6000000D01*
X9015000Y-3000000D02*
X8775000Y-3240000D01*
%TO.N,Net-(D3-A)*%
X14015000Y-5416000D02*
X13462000Y-5969000D01*
X14015000Y-3000000D02*
X14015000Y-5416000D01*
%TO.N,Net-(D4-A)*%
X19015000Y-5945000D02*
X19070000Y-6000000D01*
X18430000Y-6000000D02*
X18430000Y-6070000D01*
X19015000Y-3000000D02*
X19015000Y-5945000D01*
%TO.N,EXTON*%
X750000Y-31837500D02*
X750000Y-26348800D01*
X750000Y-26348800D02*
X451200Y-26050000D01*
%TO.N,WAKEUP*%
X2525000Y-31837500D02*
X3000000Y-31837500D01*
X1851200Y-31163700D02*
X2525000Y-31837500D01*
X1851200Y-26050000D02*
X1851200Y-31163700D01*
%TO.N,RSTn*%
X3251200Y-26050000D02*
X3251200Y-29026505D01*
X5250000Y-31025305D02*
X5250000Y-31837500D01*
X3251200Y-29026505D02*
X5250000Y-31025305D01*
%TO.N,Net-(DWM1-GPIO3{slash}TXLED)*%
X14021200Y-20450000D02*
X15748000Y-18723200D01*
X12546200Y-20450000D02*
X14021200Y-20450000D01*
X15748000Y-18723200D02*
X15748000Y-7246500D01*
X15748000Y-7246500D02*
X16994500Y-6000000D01*
%TO.N,Net-(DWM1-GPIO2{slash}RXLED)*%
X15287000Y-5969000D02*
X15240000Y-6016000D01*
X15240000Y-17831200D02*
X14021200Y-19050000D01*
X14021200Y-19050000D02*
X12546200Y-19050000D01*
X15240000Y-6016000D02*
X15240000Y-17831200D01*
%TO.N,Net-(DWM1-GPIO1{slash}SFDLED)*%
X14021200Y-17650000D02*
X12546200Y-17650000D01*
X14732000Y-16939200D02*
X14021200Y-17650000D01*
X14732000Y-9882500D02*
X14732000Y-16939200D01*
X10818500Y-5969000D02*
X14732000Y-9882500D01*
%TO.N,Net-(DWM1-GPIO0{slash}RXOKLED)*%
X14224000Y-15776000D02*
X13750000Y-16250000D01*
X14224000Y-13224000D02*
X14224000Y-15776000D01*
X5865500Y-6000000D02*
X7000000Y-6000000D01*
X13750000Y-16250000D02*
X12546200Y-16250000D01*
X7000000Y-6000000D02*
X14224000Y-13224000D01*
%TO.N,Net-(DWM1-SPICSn)*%
X11450000Y-13450000D02*
X11500000Y-13500000D01*
X10250000Y-13450000D02*
X11450000Y-13450000D01*
%TO.N,Net-(DWM1-SPIMOSI)*%
X8850000Y-13450000D02*
X8850000Y-14850000D01*
X8850000Y-14850000D02*
X9250000Y-15250000D01*
%TO.N,Net-(DWM1-SPIMISO)*%
X7451200Y-13450000D02*
X7451200Y-16451200D01*
X7451200Y-16451200D02*
X7500000Y-16500000D01*
%TO.N,Net-(DWM1-SPICLK)*%
X6051200Y-13450000D02*
X6051200Y-18198800D01*
X6051200Y-18198800D02*
X6000000Y-18250000D01*
%TO.N,Net-(DWM1-IRQ{slash}GPIO8)*%
X3198500Y-10160000D02*
X3198500Y-13397300D01*
X3251200Y-13450000D02*
X3251200Y-20748800D01*
X3251200Y-20748800D02*
X3250000Y-20750000D01*
X3198500Y-13397300D02*
X3251200Y-13450000D01*
%TO.N,Net-(J1-Pin_3)*%
X5250000Y-33662500D02*
X5662500Y-33662500D01*
X15594380Y-34447000D02*
X18415000Y-31626380D01*
X5662500Y-33662500D02*
X6447000Y-34447000D01*
X18415000Y-31626380D02*
X18415000Y-17375000D01*
X18415000Y-17375000D02*
X21500000Y-14290000D01*
X6447000Y-34447000D02*
X15594380Y-34447000D01*
%TO.N,Net-(J1-Pin_4)*%
X3000000Y-33662500D02*
X4837500Y-35500000D01*
X19177000Y-31877000D02*
X19177000Y-19153000D01*
X19177000Y-19153000D02*
X21500000Y-16830000D01*
X15554000Y-35500000D02*
X19177000Y-31877000D01*
X4837500Y-35500000D02*
X15554000Y-35500000D01*
%TO.N,Net-(J1-Pin_5)*%
X2083000Y-36500000D02*
X15697000Y-36500000D01*
X750000Y-35167000D02*
X2083000Y-36500000D01*
X15697000Y-36500000D02*
X19939000Y-32258000D01*
X750000Y-33662500D02*
X750000Y-35167000D01*
X19939000Y-20931000D02*
X21500000Y-19370000D01*
X19939000Y-32258000D02*
X19939000Y-20931000D01*
%TD*%
%TA.AperFunction,Conductor*%
%TO.N,GND*%
G36*
X9949334Y-6773870D02*
G01*
X9993681Y-6802371D01*
X10107650Y-6916340D01*
X10254484Y-7006908D01*
X10418247Y-7061174D01*
X10519323Y-7071500D01*
X10985047Y-7071499D01*
X11052086Y-7091183D01*
X11072728Y-7107818D01*
X14070181Y-10105271D01*
X14103666Y-10166594D01*
X14106500Y-10192952D01*
X14106500Y-11922547D01*
X14086815Y-11989586D01*
X14034011Y-12035341D01*
X13964853Y-12045285D01*
X13901297Y-12016260D01*
X13894819Y-12010228D01*
X9167771Y-7283180D01*
X9134286Y-7221857D01*
X9139270Y-7152165D01*
X9181142Y-7096232D01*
X9246606Y-7071815D01*
X9255452Y-7071499D01*
X9292670Y-7071499D01*
X9292676Y-7071499D01*
X9393753Y-7061174D01*
X9557516Y-7006908D01*
X9704350Y-6916340D01*
X9818319Y-6802371D01*
X9879642Y-6768886D01*
X9949334Y-6773870D01*
G37*
%TD.AperFunction*%
%TA.AperFunction,Conductor*%
G36*
X14417834Y-6773870D02*
G01*
X14462181Y-6802371D01*
X14578181Y-6918371D01*
X14611666Y-6979694D01*
X14614500Y-7006052D01*
X14614500Y-8581047D01*
X14594815Y-8648086D01*
X14542011Y-8693841D01*
X14472853Y-8703785D01*
X14409297Y-8674760D01*
X14402819Y-8668728D01*
X13011406Y-7277315D01*
X12977921Y-7215992D01*
X12982905Y-7146300D01*
X13024777Y-7090367D01*
X13090241Y-7065950D01*
X13111687Y-7066275D01*
X13162823Y-7071500D01*
X13761176Y-7071499D01*
X13761184Y-7071498D01*
X13761187Y-7071498D01*
X13816530Y-7065844D01*
X13862253Y-7061174D01*
X14026016Y-7006908D01*
X14172850Y-6916340D01*
X14286819Y-6802371D01*
X14348142Y-6768886D01*
X14417834Y-6773870D01*
G37*
%TD.AperFunction*%
%TA.AperFunction,Conductor*%
G36*
X11277547Y-3410016D02*
G01*
X11407173Y-3450000D01*
X11508724Y-3450000D01*
X11609138Y-3434865D01*
X11725000Y-3379068D01*
X11725000Y-4400000D01*
X12422828Y-4400000D01*
X12422844Y-4399999D01*
X12482372Y-4393598D01*
X12482379Y-4393596D01*
X12617086Y-4343354D01*
X12617093Y-4343350D01*
X12732187Y-4257190D01*
X12732190Y-4257187D01*
X12818350Y-4142093D01*
X12818355Y-4142084D01*
X12847075Y-4065081D01*
X12888945Y-4009147D01*
X12954409Y-3984729D01*
X13022682Y-3999580D01*
X13054484Y-4024428D01*
X13063216Y-4033913D01*
X13063219Y-4033915D01*
X13063222Y-4033918D01*
X13246365Y-4176464D01*
X13246376Y-4176471D01*
X13324517Y-4218759D01*
X13374108Y-4267978D01*
X13389500Y-4327814D01*
X13389500Y-4996500D01*
X13369815Y-5063539D01*
X13317011Y-5109294D01*
X13265501Y-5120500D01*
X13162831Y-5120500D01*
X13162812Y-5120501D01*
X13061747Y-5130825D01*
X12897984Y-5185092D01*
X12897981Y-5185093D01*
X12751148Y-5275661D01*
X12629161Y-5397648D01*
X12538593Y-5544481D01*
X12538592Y-5544484D01*
X12484326Y-5708247D01*
X12484326Y-5708248D01*
X12484325Y-5708248D01*
X12474000Y-5809315D01*
X12474000Y-6382669D01*
X12474002Y-6382689D01*
X12479224Y-6433813D01*
X12466454Y-6502505D01*
X12418573Y-6553389D01*
X12350782Y-6570309D01*
X12284606Y-6547892D01*
X12268185Y-6534094D01*
X11842818Y-6108727D01*
X11809333Y-6047404D01*
X11806499Y-6021046D01*
X11806499Y-5809330D01*
X11806498Y-5809313D01*
X11796174Y-5708247D01*
X11765676Y-5616212D01*
X11741908Y-5544484D01*
X11651340Y-5397650D01*
X11529350Y-5275660D01*
X11418500Y-5207287D01*
X11382518Y-5185093D01*
X11382513Y-5185091D01*
X11335574Y-5169537D01*
X11218753Y-5130826D01*
X11218751Y-5130825D01*
X11117678Y-5120500D01*
X10519330Y-5120500D01*
X10519312Y-5120501D01*
X10418247Y-5130825D01*
X10254484Y-5185092D01*
X10254481Y-5185093D01*
X10107648Y-5275661D01*
X9993681Y-5389629D01*
X9932358Y-5423114D01*
X9862666Y-5418130D01*
X9818319Y-5389629D01*
X9704351Y-5275661D01*
X9704350Y-5275660D01*
X9557516Y-5185092D01*
X9557514Y-5185091D01*
X9557512Y-5185090D01*
X9557511Y-5185089D01*
X9485495Y-5161225D01*
X9428050Y-5121452D01*
X9401228Y-5056936D01*
X9400500Y-5043520D01*
X9400500Y-4436921D01*
X9420185Y-4369882D01*
X9472989Y-4324127D01*
X9484218Y-4319646D01*
X9579503Y-4286936D01*
X9783626Y-4176470D01*
X9929977Y-4062560D01*
X9994968Y-4036919D01*
X10063508Y-4050485D01*
X10113833Y-4098953D01*
X10122318Y-4117080D01*
X10131644Y-4142083D01*
X10131649Y-4142093D01*
X10217809Y-4257187D01*
X10217812Y-4257190D01*
X10332906Y-4343350D01*
X10332913Y-4343354D01*
X10467620Y-4393596D01*
X10467627Y-4393598D01*
X10527155Y-4399999D01*
X10527172Y-4400000D01*
X11225000Y-4400000D01*
X11225000Y-3374189D01*
X11277547Y-3410016D01*
G37*
%TD.AperFunction*%
%TA.AperFunction,Conductor*%
G36*
X6277547Y-3410016D02*
G01*
X6407173Y-3450000D01*
X6508724Y-3450000D01*
X6609138Y-3434865D01*
X6725000Y-3379068D01*
X6725000Y-4400000D01*
X7422828Y-4400000D01*
X7422844Y-4399999D01*
X7482372Y-4393598D01*
X7482379Y-4393596D01*
X7617086Y-4343354D01*
X7617093Y-4343350D01*
X7732187Y-4257190D01*
X7732190Y-4257187D01*
X7818350Y-4142093D01*
X7818355Y-4142084D01*
X7847075Y-4065081D01*
X7888945Y-4009147D01*
X7954409Y-3984729D01*
X8022682Y-3999580D01*
X8054484Y-4024428D01*
X8063216Y-4033913D01*
X8063219Y-4033915D01*
X8063221Y-4033918D01*
X8101661Y-4063836D01*
X8142475Y-4120546D01*
X8149500Y-4161690D01*
X8149500Y-5380576D01*
X8131039Y-5445672D01*
X8070095Y-5544477D01*
X8070092Y-5544484D01*
X8015826Y-5708247D01*
X8015826Y-5708248D01*
X8015825Y-5708248D01*
X8005500Y-5809315D01*
X8005500Y-5821547D01*
X7985815Y-5888586D01*
X7933011Y-5934341D01*
X7863853Y-5944285D01*
X7800297Y-5915260D01*
X7793819Y-5909228D01*
X7500803Y-5616212D01*
X7490980Y-5603950D01*
X7490759Y-5604134D01*
X7485786Y-5598122D01*
X7436771Y-5552094D01*
X7433972Y-5549381D01*
X7414477Y-5529885D01*
X7414471Y-5529880D01*
X7411286Y-5527409D01*
X7402434Y-5519848D01*
X7370582Y-5489938D01*
X7370580Y-5489936D01*
X7370577Y-5489935D01*
X7353029Y-5480288D01*
X7336763Y-5469604D01*
X7320932Y-5457324D01*
X7280849Y-5439978D01*
X7270363Y-5434841D01*
X7232094Y-5413803D01*
X7232092Y-5413802D01*
X7212693Y-5408822D01*
X7194281Y-5402518D01*
X7175898Y-5394562D01*
X7175892Y-5394560D01*
X7132760Y-5387729D01*
X7121322Y-5385361D01*
X7079020Y-5374500D01*
X7079019Y-5374500D01*
X7058984Y-5374500D01*
X7039586Y-5372973D01*
X7032162Y-5371797D01*
X7019805Y-5369840D01*
X7019804Y-5369840D01*
X6976325Y-5373950D01*
X6964656Y-5374500D01*
X6726552Y-5374500D01*
X6659513Y-5354815D01*
X6638871Y-5338181D01*
X6576351Y-5275661D01*
X6576350Y-5275660D01*
X6465500Y-5207287D01*
X6429518Y-5185093D01*
X6429513Y-5185091D01*
X6382574Y-5169537D01*
X6265753Y-5130826D01*
X6265751Y-5130825D01*
X6164678Y-5120500D01*
X5566330Y-5120500D01*
X5566312Y-5120501D01*
X5465247Y-5130825D01*
X5301484Y-5185092D01*
X5301481Y-5185093D01*
X5154648Y-5275661D01*
X5040681Y-5389629D01*
X4979358Y-5423114D01*
X4909666Y-5418130D01*
X4865319Y-5389629D01*
X4751351Y-5275661D01*
X4751350Y-5275660D01*
X4705352Y-5247288D01*
X4699401Y-5243617D01*
X4652678Y-5191668D01*
X4640500Y-5138079D01*
X4640500Y-4327814D01*
X4660185Y-4260775D01*
X4705483Y-4218759D01*
X4714200Y-4214041D01*
X4783626Y-4176470D01*
X4929977Y-4062560D01*
X4994968Y-4036919D01*
X5063508Y-4050485D01*
X5113833Y-4098953D01*
X5122318Y-4117080D01*
X5131644Y-4142083D01*
X5131649Y-4142093D01*
X5217809Y-4257187D01*
X5217812Y-4257190D01*
X5332906Y-4343350D01*
X5332913Y-4343354D01*
X5467620Y-4393596D01*
X5467627Y-4393598D01*
X5527155Y-4399999D01*
X5527172Y-4400000D01*
X6225000Y-4400000D01*
X6225000Y-3374189D01*
X6277547Y-3410016D01*
G37*
%TD.AperFunction*%
%TA.AperFunction,Conductor*%
G36*
X16277547Y-3410016D02*
G01*
X16407173Y-3450000D01*
X16508724Y-3450000D01*
X16609138Y-3434865D01*
X16725000Y-3379068D01*
X16725000Y-4400000D01*
X17422828Y-4400000D01*
X17422844Y-4399999D01*
X17482372Y-4393598D01*
X17482379Y-4393596D01*
X17617086Y-4343354D01*
X17617093Y-4343350D01*
X17732187Y-4257190D01*
X17732190Y-4257187D01*
X17818350Y-4142093D01*
X17818355Y-4142084D01*
X17847075Y-4065081D01*
X17888945Y-4009147D01*
X17954409Y-3984729D01*
X18022682Y-3999580D01*
X18054484Y-4024428D01*
X18063216Y-4033913D01*
X18063219Y-4033915D01*
X18063222Y-4033918D01*
X18246365Y-4176464D01*
X18246376Y-4176471D01*
X18324517Y-4218759D01*
X18374108Y-4267978D01*
X18389500Y-4327814D01*
X18389500Y-4955142D01*
X18369815Y-5022181D01*
X18317011Y-5067936D01*
X18304505Y-5072848D01*
X18255484Y-5089092D01*
X18108648Y-5179661D01*
X17994681Y-5293629D01*
X17933358Y-5327114D01*
X17863666Y-5322130D01*
X17819319Y-5293629D01*
X17705351Y-5179661D01*
X17705350Y-5179660D01*
X17558516Y-5089092D01*
X17394753Y-5034826D01*
X17394751Y-5034825D01*
X17293678Y-5024500D01*
X16695330Y-5024500D01*
X16695312Y-5024501D01*
X16594247Y-5034825D01*
X16430484Y-5089092D01*
X16430481Y-5089093D01*
X16283648Y-5179661D01*
X16180431Y-5282879D01*
X16119108Y-5316364D01*
X16049416Y-5311380D01*
X16005069Y-5282879D01*
X15997851Y-5275661D01*
X15997850Y-5275660D01*
X15887000Y-5207287D01*
X15851018Y-5185093D01*
X15851013Y-5185091D01*
X15804074Y-5169537D01*
X15687253Y-5130826D01*
X15687251Y-5130825D01*
X15586178Y-5120500D01*
X14987830Y-5120500D01*
X14987812Y-5120501D01*
X14886747Y-5130825D01*
X14886744Y-5130826D01*
X14803504Y-5158410D01*
X14733676Y-5160812D01*
X14673634Y-5125080D01*
X14642441Y-5062560D01*
X14640500Y-5040704D01*
X14640500Y-4327814D01*
X14660185Y-4260775D01*
X14705483Y-4218759D01*
X14714200Y-4214041D01*
X14783626Y-4176470D01*
X14929977Y-4062560D01*
X14994968Y-4036919D01*
X15063508Y-4050485D01*
X15113833Y-4098953D01*
X15122318Y-4117080D01*
X15131644Y-4142083D01*
X15131649Y-4142093D01*
X15217809Y-4257187D01*
X15217812Y-4257190D01*
X15332906Y-4343350D01*
X15332913Y-4343354D01*
X15467620Y-4393596D01*
X15467627Y-4393598D01*
X15527155Y-4399999D01*
X15527172Y-4400000D01*
X16225000Y-4400000D01*
X16225000Y-3374189D01*
X16277547Y-3410016D01*
G37*
%TD.AperFunction*%
%TA.AperFunction,Conductor*%
G36*
X22964375Y-250502D02*
G01*
X22967410Y-250518D01*
X23498662Y-253343D01*
X23565593Y-273384D01*
X23611067Y-326430D01*
X23622000Y-377341D01*
X23622000Y-40008658D01*
X23602315Y-40075697D01*
X23549511Y-40121452D01*
X23498660Y-40132656D01*
X1532376Y-40249498D01*
X1531716Y-40249500D01*
X-125500Y-40249500D01*
X-192539Y-40229815D01*
X-238294Y-40177011D01*
X-249500Y-40125500D01*
X-249500Y-34493552D01*
X-229815Y-34426513D01*
X-177011Y-34380758D01*
X-107853Y-34370814D01*
X-44297Y-34399839D01*
X-37819Y-34405871D01*
X51650Y-34495340D01*
X63920Y-34502908D01*
X65596Y-34503942D01*
X112321Y-34555890D01*
X124500Y-34609481D01*
X124500Y-35084255D01*
X122775Y-35099872D01*
X123061Y-35099899D01*
X122326Y-35107665D01*
X124439Y-35174872D01*
X124500Y-35178767D01*
X124500Y-35206357D01*
X125003Y-35210335D01*
X125918Y-35221967D01*
X127290Y-35265624D01*
X127291Y-35265627D01*
X132880Y-35284867D01*
X136824Y-35303911D01*
X139336Y-35323792D01*
X155414Y-35364403D01*
X159197Y-35375452D01*
X171381Y-35417388D01*
X181580Y-35434634D01*
X190138Y-35452103D01*
X197514Y-35470732D01*
X223181Y-35506060D01*
X229593Y-35515821D01*
X251828Y-35553417D01*
X251833Y-35553424D01*
X265990Y-35567580D01*
X278628Y-35582376D01*
X290405Y-35598586D01*
X290406Y-35598587D01*
X324057Y-35626425D01*
X332698Y-35634288D01*
X1582194Y-36883784D01*
X1592019Y-36896048D01*
X1592240Y-36895866D01*
X1597210Y-36901874D01*
X1646239Y-36947915D01*
X1649036Y-36950626D01*
X1668530Y-36970120D01*
X1671695Y-36972575D01*
X1680571Y-36980156D01*
X1712418Y-37010062D01*
X1712422Y-37010064D01*
X1729973Y-37019713D01*
X1746231Y-37030392D01*
X1762064Y-37042674D01*
X1797410Y-37057968D01*
X1802155Y-37060022D01*
X1812635Y-37065155D01*
X1850908Y-37086197D01*
X1870312Y-37091179D01*
X1888710Y-37097478D01*
X1907105Y-37105438D01*
X1950254Y-37112271D01*
X1961680Y-37114638D01*
X2003981Y-37125500D01*
X2024016Y-37125500D01*
X2043413Y-37127026D01*
X2063196Y-37130160D01*
X2106675Y-37126050D01*
X2118344Y-37125500D01*
X15614257Y-37125500D01*
X15629877Y-37127224D01*
X15629904Y-37126939D01*
X15637660Y-37127671D01*
X15637667Y-37127673D01*
X15704873Y-37125561D01*
X15708768Y-37125500D01*
X15736346Y-37125500D01*
X15736350Y-37125500D01*
X15740324Y-37124997D01*
X15751963Y-37124080D01*
X15795627Y-37122709D01*
X15814869Y-37117117D01*
X15833912Y-37113174D01*
X15853792Y-37110664D01*
X15894401Y-37094585D01*
X15905444Y-37090803D01*
X15947390Y-37078618D01*
X15964629Y-37068422D01*
X15982103Y-37059862D01*
X16000727Y-37052488D01*
X16000727Y-37052487D01*
X16000732Y-37052486D01*
X16036083Y-37026800D01*
X16045814Y-37020408D01*
X16083420Y-36998170D01*
X16097589Y-36983999D01*
X16112379Y-36971368D01*
X16128587Y-36959594D01*
X16156438Y-36925926D01*
X16164279Y-36917309D01*
X20224684Y-32856905D01*
X20286003Y-32823423D01*
X20355695Y-32828407D01*
X20411628Y-32870279D01*
X20413935Y-32873465D01*
X20461505Y-32941401D01*
X20628599Y-33108495D01*
X20725384Y-33176265D01*
X20822165Y-33244032D01*
X20822167Y-33244033D01*
X20822170Y-33244035D01*
X21036337Y-33343903D01*
X21264592Y-33405063D01*
X21452918Y-33421539D01*
X21499999Y-33425659D01*
X21500000Y-33425659D01*
X21500001Y-33425659D01*
X21539234Y-33422226D01*
X21735408Y-33405063D01*
X21963663Y-33343903D01*
X22177830Y-33244035D01*
X22371401Y-33108495D01*
X22538495Y-32941401D01*
X22674035Y-32747830D01*
X22773903Y-32533663D01*
X22835063Y-32305408D01*
X22855659Y-32070000D01*
X22835063Y-31834592D01*
X22773903Y-31606337D01*
X22674035Y-31392171D01*
X22590932Y-31273486D01*
X22538494Y-31198597D01*
X22371402Y-31031506D01*
X22371396Y-31031501D01*
X22185842Y-30901575D01*
X22142217Y-30846998D01*
X22135023Y-30777500D01*
X22166546Y-30715145D01*
X22185842Y-30698425D01*
X22270869Y-30638888D01*
X22371401Y-30568495D01*
X22538495Y-30401401D01*
X22674035Y-30207830D01*
X22773903Y-29993663D01*
X22835063Y-29765408D01*
X22855659Y-29530000D01*
X22835063Y-29294592D01*
X22773903Y-29066337D01*
X22674035Y-28852171D01*
X22649464Y-28817079D01*
X22538494Y-28658597D01*
X22371402Y-28491506D01*
X22371396Y-28491501D01*
X22185842Y-28361575D01*
X22142217Y-28306998D01*
X22135023Y-28237500D01*
X22166546Y-28175145D01*
X22185842Y-28158425D01*
X22208026Y-28142891D01*
X22371401Y-28028495D01*
X22538495Y-27861401D01*
X22674035Y-27667830D01*
X22773903Y-27453663D01*
X22835063Y-27225408D01*
X22855659Y-26990000D01*
X22835063Y-26754592D01*
X22773903Y-26526337D01*
X22674035Y-26312171D01*
X22538495Y-26118599D01*
X22538494Y-26118597D01*
X22371402Y-25951506D01*
X22371396Y-25951501D01*
X22185842Y-25821575D01*
X22142217Y-25766998D01*
X22135023Y-25697500D01*
X22166546Y-25635145D01*
X22185842Y-25618425D01*
X22221020Y-25593793D01*
X22371401Y-25488495D01*
X22538495Y-25321401D01*
X22674035Y-25127830D01*
X22773903Y-24913663D01*
X22835063Y-24685408D01*
X22855659Y-24450000D01*
X22835063Y-24214592D01*
X22773903Y-23986337D01*
X22674035Y-23772171D01*
X22538495Y-23578599D01*
X22538494Y-23578597D01*
X22371402Y-23411506D01*
X22371396Y-23411501D01*
X22185842Y-23281575D01*
X22142217Y-23226998D01*
X22135023Y-23157500D01*
X22166546Y-23095145D01*
X22185842Y-23078425D01*
X22208026Y-23062891D01*
X22371401Y-22948495D01*
X22538495Y-22781401D01*
X22674035Y-22587830D01*
X22773903Y-22373663D01*
X22835063Y-22145408D01*
X22855659Y-21910000D01*
X22835063Y-21674592D01*
X22773903Y-21446337D01*
X22674035Y-21232171D01*
X22646842Y-21193334D01*
X22538494Y-21038597D01*
X22371402Y-20871506D01*
X22371396Y-20871501D01*
X22185842Y-20741575D01*
X22142217Y-20686998D01*
X22135023Y-20617500D01*
X22166546Y-20555145D01*
X22185842Y-20538425D01*
X22208026Y-20522891D01*
X22371401Y-20408495D01*
X22538495Y-20241401D01*
X22674035Y-20047830D01*
X22773903Y-19833663D01*
X22835063Y-19605408D01*
X22855659Y-19370000D01*
X22835063Y-19134592D01*
X22773903Y-18906337D01*
X22674035Y-18692171D01*
X22540966Y-18502127D01*
X22538494Y-18498597D01*
X22371402Y-18331506D01*
X22371396Y-18331501D01*
X22185842Y-18201575D01*
X22142217Y-18146998D01*
X22135023Y-18077500D01*
X22166546Y-18015145D01*
X22185842Y-17998425D01*
X22208026Y-17982891D01*
X22371401Y-17868495D01*
X22538495Y-17701401D01*
X22674035Y-17507830D01*
X22773903Y-17293663D01*
X22835063Y-17065408D01*
X22855659Y-16830000D01*
X22835063Y-16594592D01*
X22773903Y-16366337D01*
X22674035Y-16152171D01*
X22659713Y-16131716D01*
X22538494Y-15958597D01*
X22371402Y-15791506D01*
X22371396Y-15791501D01*
X22185842Y-15661575D01*
X22142217Y-15606998D01*
X22135023Y-15537500D01*
X22166546Y-15475145D01*
X22185842Y-15458425D01*
X22280058Y-15392454D01*
X22371401Y-15328495D01*
X22538495Y-15161401D01*
X22674035Y-14967830D01*
X22773903Y-14753663D01*
X22835063Y-14525408D01*
X22855659Y-14290000D01*
X22835063Y-14054592D01*
X22773903Y-13826337D01*
X22674035Y-13612171D01*
X22602722Y-13510324D01*
X22538494Y-13418597D01*
X22371402Y-13251506D01*
X22371401Y-13251505D01*
X22185405Y-13121269D01*
X22141781Y-13066692D01*
X22134588Y-12997193D01*
X22166110Y-12934839D01*
X22185405Y-12918119D01*
X22371082Y-12788105D01*
X22538105Y-12621082D01*
X22673600Y-12427578D01*
X22773429Y-12213492D01*
X22773432Y-12213486D01*
X22830636Y-12000000D01*
X21933686Y-12000000D01*
X21959493Y-11959844D01*
X22000000Y-11821889D01*
X22000000Y-11678111D01*
X21959493Y-11540156D01*
X21933686Y-11500000D01*
X22830636Y-11500000D01*
X22830635Y-11499999D01*
X22773432Y-11286513D01*
X22773429Y-11286507D01*
X22673600Y-11072422D01*
X22673599Y-11072420D01*
X22538113Y-10878926D01*
X22538108Y-10878920D01*
X22416053Y-10756865D01*
X22382568Y-10695542D01*
X22387552Y-10625850D01*
X22429424Y-10569917D01*
X22460400Y-10553002D01*
X22592331Y-10503796D01*
X22707546Y-10417546D01*
X22793796Y-10302331D01*
X22844091Y-10167483D01*
X22850500Y-10107873D01*
X22850499Y-8312128D01*
X22844091Y-8252517D01*
X22793796Y-8117669D01*
X22793795Y-8117668D01*
X22793793Y-8117664D01*
X22707547Y-8002455D01*
X22707544Y-8002452D01*
X22592335Y-7916206D01*
X22592328Y-7916202D01*
X22457482Y-7865908D01*
X22457483Y-7865908D01*
X22397883Y-7859501D01*
X22397881Y-7859500D01*
X22397873Y-7859500D01*
X22397864Y-7859500D01*
X20602129Y-7859500D01*
X20602123Y-7859501D01*
X20542516Y-7865908D01*
X20407671Y-7916202D01*
X20407664Y-7916206D01*
X20292455Y-8002452D01*
X20292452Y-8002455D01*
X20206206Y-8117664D01*
X20206202Y-8117671D01*
X20155908Y-8252517D01*
X20149501Y-8312116D01*
X20149501Y-8312123D01*
X20149500Y-8312135D01*
X20149500Y-9270993D01*
X20129815Y-9338032D01*
X20113181Y-9358674D01*
X16935653Y-12536201D01*
X16928250Y-12543026D01*
X16886641Y-12578370D01*
X16837203Y-12643405D01*
X16835135Y-12646050D01*
X16783970Y-12709701D01*
X16783968Y-12709704D01*
X16783879Y-12709885D01*
X16771529Y-12729796D01*
X16771400Y-12729964D01*
X16771400Y-12729965D01*
X16737093Y-12804117D01*
X16735644Y-12807141D01*
X16699358Y-12880308D01*
X16699354Y-12880319D01*
X16699309Y-12880503D01*
X16691527Y-12902609D01*
X16691441Y-12902794D01*
X16691435Y-12902810D01*
X16673872Y-12982595D01*
X16673107Y-12985860D01*
X16653399Y-13065111D01*
X16653394Y-13065310D01*
X16650545Y-13088575D01*
X16650500Y-13088778D01*
X16650500Y-13170462D01*
X16650455Y-13173820D01*
X16648243Y-13255472D01*
X16648278Y-13255655D01*
X16650500Y-13279023D01*
X16650500Y-29851373D01*
X16630815Y-29918412D01*
X16614181Y-29939054D01*
X16211975Y-30341259D01*
X16150652Y-30374744D01*
X16080960Y-30369760D01*
X16025027Y-30327888D01*
X16004519Y-30285671D01*
X15958269Y-30113062D01*
X15958264Y-30113048D01*
X15862136Y-29906901D01*
X15862132Y-29906893D01*
X15811025Y-29833906D01*
X15129953Y-30514978D01*
X15117165Y-30434232D01*
X15059641Y-30321335D01*
X14970045Y-30231739D01*
X14857148Y-30174215D01*
X14776401Y-30161426D01*
X15457472Y-29480354D01*
X15384478Y-29429243D01*
X15178331Y-29333115D01*
X15178317Y-29333110D01*
X14958610Y-29274240D01*
X14958599Y-29274238D01*
X14732002Y-29254414D01*
X14731998Y-29254414D01*
X14505400Y-29274238D01*
X14505389Y-29274240D01*
X14285682Y-29333110D01*
X14285673Y-29333114D01*
X14079516Y-29429246D01*
X14079512Y-29429248D01*
X14006526Y-29480353D01*
X14006526Y-29480354D01*
X14687599Y-30161426D01*
X14606852Y-30174215D01*
X14493955Y-30231739D01*
X14404359Y-30321335D01*
X14346835Y-30434232D01*
X14334046Y-30514978D01*
X13652974Y-29833906D01*
X13652973Y-29833906D01*
X13601868Y-29906892D01*
X13601866Y-29906896D01*
X13505734Y-30113053D01*
X13505730Y-30113062D01*
X13446860Y-30332769D01*
X13446858Y-30332780D01*
X13427034Y-30559377D01*
X13427034Y-30559382D01*
X13446858Y-30785979D01*
X13446860Y-30785990D01*
X13505730Y-31005697D01*
X13505735Y-31005711D01*
X13601863Y-31211858D01*
X13652974Y-31284852D01*
X14334046Y-30603780D01*
X14346835Y-30684528D01*
X14404359Y-30797425D01*
X14493955Y-30887021D01*
X14606852Y-30944545D01*
X14687599Y-30957333D01*
X14001352Y-31643579D01*
X13991506Y-31692574D01*
X13942890Y-31742757D01*
X13887367Y-31757429D01*
X13887423Y-31758479D01*
X13887429Y-31758526D01*
X13887426Y-31758526D01*
X13887436Y-31758704D01*
X13884123Y-31758881D01*
X13824516Y-31765288D01*
X13689671Y-31815582D01*
X13689664Y-31815586D01*
X13574456Y-31901832D01*
X13574455Y-31901833D01*
X13574454Y-31901834D01*
X13549716Y-31934880D01*
X13494087Y-32009191D01*
X13438153Y-32051062D01*
X13394820Y-32058880D01*
X11449000Y-32058880D01*
X11381961Y-32039195D01*
X11336206Y-31986391D01*
X11325000Y-31934880D01*
X11325000Y-31500000D01*
X9175000Y-31500000D01*
X9157640Y-31517360D01*
X9096317Y-31550844D01*
X9026625Y-31545859D01*
X8982279Y-31517359D01*
X8411818Y-30946898D01*
X8378333Y-30885575D01*
X8375499Y-30859217D01*
X8375499Y-30549998D01*
X8375498Y-30549981D01*
X8364999Y-30447203D01*
X8364998Y-30447200D01*
X8349822Y-30401402D01*
X8309814Y-30280666D01*
X8306820Y-30275812D01*
X8293960Y-30254961D01*
X8275500Y-30189867D01*
X8275500Y-29766798D01*
X8284368Y-29726795D01*
X8282542Y-29726190D01*
X8284814Y-29719334D01*
X8339999Y-29552797D01*
X8350500Y-29450009D01*
X8350499Y-29043539D01*
X8361186Y-29000000D01*
X9150001Y-29000000D01*
X9150001Y-29449986D01*
X9160494Y-29552697D01*
X9215641Y-29719119D01*
X9215643Y-29719124D01*
X9307684Y-29868345D01*
X9364157Y-29924818D01*
X9397642Y-29986141D01*
X9392658Y-30055833D01*
X9364160Y-30100178D01*
X9332683Y-30131656D01*
X9240643Y-30280875D01*
X9240641Y-30280880D01*
X9185494Y-30447302D01*
X9185493Y-30447309D01*
X9175000Y-30550013D01*
X9175000Y-31000000D01*
X10000000Y-31000000D01*
X10000000Y-30183589D01*
X9977834Y-30142996D01*
X9975000Y-30116638D01*
X9975000Y-29000000D01*
X10475000Y-29000000D01*
X10475000Y-29816410D01*
X10497166Y-29857004D01*
X10500000Y-29883362D01*
X10500000Y-31000000D01*
X11324999Y-31000000D01*
X11324999Y-30550028D01*
X11324998Y-30550013D01*
X11314505Y-30447302D01*
X11259358Y-30280880D01*
X11259356Y-30280875D01*
X11167315Y-30131654D01*
X11110842Y-30075181D01*
X11077357Y-30013858D01*
X11082341Y-29944166D01*
X11110843Y-29899818D01*
X11142314Y-29868347D01*
X11234356Y-29719124D01*
X11234358Y-29719119D01*
X11289505Y-29552697D01*
X11289506Y-29552690D01*
X11299999Y-29449986D01*
X11300000Y-29449973D01*
X11300000Y-29000000D01*
X10475000Y-29000000D01*
X9975000Y-29000000D01*
X9150001Y-29000000D01*
X8361186Y-29000000D01*
X8364591Y-28986127D01*
X8385109Y-28946849D01*
X8393475Y-28917608D01*
X8398744Y-28902809D01*
X8410738Y-28874862D01*
X8410740Y-28874858D01*
X8422621Y-28817038D01*
X8424850Y-28807955D01*
X8441086Y-28751218D01*
X8443396Y-28720880D01*
X8445576Y-28705340D01*
X8451700Y-28675543D01*
X8451700Y-28616554D01*
X8452058Y-28607139D01*
X8456537Y-28548324D01*
X8452693Y-28518139D01*
X8451700Y-28502475D01*
X8451700Y-27899499D01*
X8471385Y-27832460D01*
X8524189Y-27786705D01*
X8575700Y-27775499D01*
X9045705Y-27775499D01*
X9112744Y-27795184D01*
X9158499Y-27847988D01*
X9168443Y-27917146D01*
X9163410Y-27938505D01*
X9160495Y-27947300D01*
X9160493Y-27947309D01*
X9150000Y-28050013D01*
X9150000Y-28500000D01*
X9975000Y-28500000D01*
X10475000Y-28500000D01*
X11299999Y-28500000D01*
X11299999Y-28050028D01*
X11299998Y-28050013D01*
X11289505Y-27947302D01*
X11234358Y-27780880D01*
X11234353Y-27780869D01*
X11171481Y-27678938D01*
X11153040Y-27611546D01*
X11173962Y-27544882D01*
X11177753Y-27539529D01*
X11194551Y-27517089D01*
X11194552Y-27517088D01*
X11244797Y-27382376D01*
X11244798Y-27382372D01*
X11251199Y-27322844D01*
X11251200Y-27322827D01*
X11251200Y-26300000D01*
X10501200Y-26300000D01*
X10501200Y-27740438D01*
X10481515Y-27807477D01*
X10475000Y-27815561D01*
X10475000Y-28500000D01*
X9975000Y-28500000D01*
X9975000Y-27384562D01*
X9994685Y-27317523D01*
X10001200Y-27309438D01*
X10001200Y-24325000D01*
X9703355Y-24325000D01*
X9643827Y-24331401D01*
X9643823Y-24331402D01*
X9595246Y-24349520D01*
X9525554Y-24354503D01*
X9508582Y-24349519D01*
X9458685Y-24330909D01*
X9458683Y-24330908D01*
X9399083Y-24324501D01*
X9399081Y-24324500D01*
X9399073Y-24324500D01*
X9399064Y-24324500D01*
X8303329Y-24324500D01*
X8303323Y-24324501D01*
X8243716Y-24330908D01*
X8194532Y-24349253D01*
X8124840Y-24354237D01*
X8107867Y-24349253D01*
X8058682Y-24330908D01*
X8058683Y-24330908D01*
X7999083Y-24324501D01*
X7999081Y-24324500D01*
X7999073Y-24324500D01*
X7999064Y-24324500D01*
X6903329Y-24324500D01*
X6903323Y-24324501D01*
X6843716Y-24330908D01*
X6794532Y-24349253D01*
X6724840Y-24354237D01*
X6707867Y-24349253D01*
X6658682Y-24330908D01*
X6658683Y-24330908D01*
X6599083Y-24324501D01*
X6599081Y-24324500D01*
X6599073Y-24324500D01*
X6599064Y-24324500D01*
X5503329Y-24324500D01*
X5503323Y-24324501D01*
X5443716Y-24330908D01*
X5394532Y-24349253D01*
X5324840Y-24354237D01*
X5307867Y-24349253D01*
X5258682Y-24330908D01*
X5258683Y-24330908D01*
X5199083Y-24324501D01*
X5199081Y-24324500D01*
X5199073Y-24324500D01*
X5199064Y-24324500D01*
X4103329Y-24324500D01*
X4103323Y-24324501D01*
X4043716Y-24330908D01*
X3994532Y-24349253D01*
X3924840Y-24354237D01*
X3907867Y-24349253D01*
X3858682Y-24330908D01*
X3858683Y-24330908D01*
X3799083Y-24324501D01*
X3799081Y-24324500D01*
X3799073Y-24324500D01*
X3799064Y-24324500D01*
X2703329Y-24324500D01*
X2703323Y-24324501D01*
X2643716Y-24330908D01*
X2594532Y-24349253D01*
X2524840Y-24354237D01*
X2507867Y-24349253D01*
X2458682Y-24330908D01*
X2458683Y-24330908D01*
X2399083Y-24324501D01*
X2399081Y-24324500D01*
X2399073Y-24324500D01*
X2399064Y-24324500D01*
X1303329Y-24324500D01*
X1303323Y-24324501D01*
X1243716Y-24330908D01*
X1194532Y-24349253D01*
X1124840Y-24354237D01*
X1107867Y-24349253D01*
X1058682Y-24330908D01*
X1058683Y-24330908D01*
X999083Y-24324501D01*
X999081Y-24324500D01*
X999073Y-24324500D01*
X999065Y-24324500D01*
X54000Y-24324500D01*
X-13039Y-24304815D01*
X-58794Y-24252011D01*
X-70000Y-24200500D01*
X-70000Y-15299000D01*
X-50315Y-15231961D01*
X2489Y-15186206D01*
X54000Y-15175000D01*
X201200Y-15175000D01*
X201200Y-13700000D01*
X701200Y-13700000D01*
X701200Y-15175000D01*
X999028Y-15175000D01*
X999044Y-15174999D01*
X1058577Y-15168597D01*
X1058578Y-15168597D01*
X1107865Y-15150214D01*
X1177556Y-15145228D01*
X1194535Y-15150214D01*
X1243821Y-15168597D01*
X1303355Y-15174999D01*
X1303372Y-15175000D01*
X1601200Y-15175000D01*
X1601200Y-13700000D01*
X701200Y-13700000D01*
X201200Y-13700000D01*
X201200Y-11725000D01*
X701200Y-11725000D01*
X701200Y-13200000D01*
X1601200Y-13200000D01*
X1601200Y-11725000D01*
X1303355Y-11725000D01*
X1243827Y-11731401D01*
X1243819Y-11731403D01*
X1194533Y-11749786D01*
X1124841Y-11754770D01*
X1107867Y-11749786D01*
X1058580Y-11731403D01*
X1058572Y-11731401D01*
X999044Y-11725000D01*
X701200Y-11725000D01*
X201200Y-11725000D01*
X54000Y-11725000D01*
X-13039Y-11705315D01*
X-58794Y-11652511D01*
X-70000Y-11601000D01*
X-70000Y-10860000D01*
X-125500Y-10860000D01*
X-192539Y-10840315D01*
X-238294Y-10787511D01*
X-249500Y-10736000D01*
X-249500Y-10410000D01*
X386001Y-10410000D01*
X386001Y-10446654D01*
X396319Y-10547652D01*
X450546Y-10711300D01*
X450551Y-10711311D01*
X541052Y-10858034D01*
X541055Y-10858038D01*
X662961Y-10979944D01*
X662965Y-10979947D01*
X809688Y-11070448D01*
X809699Y-11070453D01*
X973347Y-11124680D01*
X1074351Y-11134999D01*
X1623500Y-11134999D01*
X1672640Y-11134999D01*
X1672654Y-11134998D01*
X1773652Y-11124680D01*
X1937300Y-11070453D01*
X1937311Y-11070448D01*
X2084033Y-10979948D01*
X2197964Y-10866017D01*
X2259287Y-10832532D01*
X2328979Y-10837516D01*
X2373327Y-10866017D01*
X2487650Y-10980340D01*
X2514096Y-10996652D01*
X2560821Y-11048600D01*
X2573000Y-11102191D01*
X2573000Y-11605657D01*
X2553315Y-11672696D01*
X2500511Y-11718451D01*
X2435746Y-11728947D01*
X2399031Y-11725000D01*
X2101200Y-11725000D01*
X2101200Y-15175000D01*
X2399028Y-15175000D01*
X2399044Y-15174999D01*
X2458572Y-15168598D01*
X2466124Y-15166814D01*
X2466427Y-15168100D01*
X2528051Y-15163689D01*
X2589376Y-15197170D01*
X2622865Y-15258491D01*
X2625700Y-15284857D01*
X2625700Y-20049980D01*
X2606015Y-20117019D01*
X2593850Y-20132952D01*
X2517466Y-20217785D01*
X2422821Y-20381715D01*
X2422818Y-20381722D01*
X2370080Y-20544035D01*
X2364326Y-20561744D01*
X2344540Y-20750000D01*
X2364326Y-20938256D01*
X2364327Y-20938259D01*
X2422818Y-21118277D01*
X2422821Y-21118284D01*
X2517467Y-21282216D01*
X2644129Y-21422888D01*
X2797265Y-21534148D01*
X2797270Y-21534151D01*
X2970192Y-21611142D01*
X2970197Y-21611144D01*
X3155354Y-21650500D01*
X3155355Y-21650500D01*
X3344644Y-21650500D01*
X3344646Y-21650500D01*
X3529803Y-21611144D01*
X3702730Y-21534151D01*
X3855871Y-21422888D01*
X3982533Y-21282216D01*
X4077179Y-21118284D01*
X4135674Y-20938256D01*
X4155460Y-20750000D01*
X4135674Y-20561744D01*
X4077179Y-20381716D01*
X3982533Y-20217784D01*
X3908550Y-20135617D01*
X3878320Y-20072625D01*
X3876700Y-20052645D01*
X3876700Y-15284857D01*
X3896385Y-15217818D01*
X3949189Y-15172063D01*
X4018347Y-15162119D01*
X4042513Y-15168287D01*
X4043827Y-15168598D01*
X4103355Y-15174999D01*
X4103372Y-15175000D01*
X4401200Y-15175000D01*
X4401200Y-11725000D01*
X4103355Y-11725000D01*
X4043827Y-11731401D01*
X4043823Y-11731402D01*
X3995246Y-11749520D01*
X3925554Y-11754503D01*
X3908576Y-11749517D01*
X3904662Y-11748057D01*
X3848730Y-11706184D01*
X3824316Y-11640719D01*
X3824000Y-11631877D01*
X3824000Y-11102191D01*
X3843685Y-11035152D01*
X3882904Y-10996652D01*
X3885599Y-10994989D01*
X3909350Y-10980340D01*
X4031340Y-10858350D01*
X4121908Y-10711516D01*
X4176174Y-10547753D01*
X4186500Y-10446677D01*
X4186499Y-9873324D01*
X4176174Y-9772247D01*
X4121908Y-9608484D01*
X4031340Y-9461650D01*
X3909350Y-9339660D01*
X3798023Y-9270993D01*
X3762518Y-9249093D01*
X3762513Y-9249091D01*
X3761069Y-9248612D01*
X3598753Y-9194826D01*
X3598751Y-9194825D01*
X3497678Y-9184500D01*
X2899330Y-9184500D01*
X2899312Y-9184501D01*
X2798247Y-9194825D01*
X2634484Y-9249092D01*
X2634481Y-9249093D01*
X2487651Y-9339659D01*
X2373327Y-9453983D01*
X2312004Y-9487467D01*
X2242312Y-9482483D01*
X2197965Y-9453982D01*
X2084038Y-9340055D01*
X2084034Y-9340052D01*
X1937311Y-9249551D01*
X1937300Y-9249546D01*
X1773652Y-9195319D01*
X1672654Y-9185000D01*
X1623500Y-9185000D01*
X1623500Y-11134999D01*
X1074351Y-11134999D01*
X1123499Y-11134998D01*
X1123500Y-11134998D01*
X1123500Y-10410000D01*
X386001Y-10410000D01*
X-249500Y-10410000D01*
X-249500Y-9910000D01*
X386000Y-9910000D01*
X1123500Y-9910000D01*
X1123500Y-9185000D01*
X1123499Y-9184999D01*
X1074361Y-9185000D01*
X1074343Y-9185001D01*
X973347Y-9195319D01*
X809699Y-9249546D01*
X809688Y-9249551D01*
X662965Y-9340052D01*
X662961Y-9340055D01*
X541055Y-9461961D01*
X541052Y-9461965D01*
X450551Y-9608688D01*
X450546Y-9608699D01*
X396319Y-9772347D01*
X386000Y-9873345D01*
X386000Y-9910000D01*
X-249500Y-9910000D01*
X-249500Y-3947844D01*
X75000Y-3947844D01*
X81401Y-4007372D01*
X81403Y-4007379D01*
X131645Y-4142086D01*
X131649Y-4142093D01*
X217809Y-4257187D01*
X217812Y-4257190D01*
X332906Y-4343350D01*
X332913Y-4343354D01*
X467620Y-4393596D01*
X467627Y-4393598D01*
X527155Y-4399999D01*
X527172Y-4400000D01*
X1225000Y-4400000D01*
X1225000Y-3374189D01*
X1277547Y-3410016D01*
X1407173Y-3450000D01*
X1508724Y-3450000D01*
X1609138Y-3434865D01*
X1725000Y-3379068D01*
X1725000Y-4400000D01*
X2422828Y-4400000D01*
X2422844Y-4399999D01*
X2482372Y-4393598D01*
X2482379Y-4393596D01*
X2617086Y-4343354D01*
X2617093Y-4343350D01*
X2732187Y-4257190D01*
X2732190Y-4257187D01*
X2818350Y-4142093D01*
X2818355Y-4142084D01*
X2847075Y-4065081D01*
X2888945Y-4009147D01*
X2954409Y-3984729D01*
X3022682Y-3999580D01*
X3054484Y-4024428D01*
X3063216Y-4033913D01*
X3063219Y-4033915D01*
X3063222Y-4033918D01*
X3246365Y-4176464D01*
X3246376Y-4176471D01*
X3324517Y-4218759D01*
X3374108Y-4267978D01*
X3389500Y-4327814D01*
X3389500Y-5169537D01*
X3369815Y-5236576D01*
X3334989Y-5270764D01*
X3335317Y-5271179D01*
X3331464Y-5274225D01*
X3330601Y-5275073D01*
X3329652Y-5275658D01*
X3329649Y-5275660D01*
X3207661Y-5397648D01*
X3117093Y-5544481D01*
X3117092Y-5544484D01*
X3062826Y-5708247D01*
X3062826Y-5708248D01*
X3062825Y-5708248D01*
X3052500Y-5809315D01*
X3052500Y-6382669D01*
X3052501Y-6382687D01*
X3062825Y-6483752D01*
X3117092Y-6647515D01*
X3117093Y-6647518D01*
X3148447Y-6698350D01*
X3207660Y-6794350D01*
X3329650Y-6916340D01*
X3476484Y-7006908D01*
X3640247Y-7061174D01*
X3741323Y-7071500D01*
X4339676Y-7071499D01*
X4339684Y-7071498D01*
X4339687Y-7071498D01*
X4395030Y-7065844D01*
X4440753Y-7061174D01*
X4604516Y-7006908D01*
X4751350Y-6916340D01*
X4865319Y-6802371D01*
X4926642Y-6768886D01*
X4996334Y-6773870D01*
X5040681Y-6802371D01*
X5154650Y-6916340D01*
X5301484Y-7006908D01*
X5465247Y-7061174D01*
X5566323Y-7071500D01*
X6164676Y-7071499D01*
X6164684Y-7071498D01*
X6164687Y-7071498D01*
X6220030Y-7065844D01*
X6265753Y-7061174D01*
X6429516Y-7006908D01*
X6576350Y-6916340D01*
X6698340Y-6794350D01*
X6698342Y-6794346D01*
X6702823Y-6788681D01*
X6704507Y-6790013D01*
X6748598Y-6750345D01*
X6817559Y-6739112D01*
X6881645Y-6766946D01*
X6889887Y-6774477D01*
X13562181Y-13446771D01*
X13595666Y-13508094D01*
X13598500Y-13534452D01*
X13598500Y-13726000D01*
X13578815Y-13793039D01*
X13526011Y-13838794D01*
X13474500Y-13850000D01*
X12796200Y-13850000D01*
X12796200Y-14976000D01*
X12776515Y-15043039D01*
X12723711Y-15088794D01*
X12672200Y-15100000D01*
X12420200Y-15100000D01*
X12353161Y-15080315D01*
X12307406Y-15027511D01*
X12296200Y-14976000D01*
X12296200Y-13955166D01*
X12312813Y-13893166D01*
X12327179Y-13868284D01*
X12385674Y-13688256D01*
X12405460Y-13500000D01*
X12385674Y-13311744D01*
X12327179Y-13131716D01*
X12232533Y-12967784D01*
X12105871Y-12827112D01*
X12105870Y-12827111D01*
X11952734Y-12715851D01*
X11952729Y-12715848D01*
X11779807Y-12638857D01*
X11779802Y-12638855D01*
X11634001Y-12607865D01*
X11594646Y-12599500D01*
X11405354Y-12599500D01*
X11400273Y-12600580D01*
X11330606Y-12595259D01*
X11274875Y-12553119D01*
X11250774Y-12487538D01*
X11250499Y-12479288D01*
X11250499Y-12177129D01*
X11250498Y-12177123D01*
X11244091Y-12117516D01*
X11193797Y-11982671D01*
X11193793Y-11982664D01*
X11107547Y-11867455D01*
X11107544Y-11867452D01*
X10992335Y-11781206D01*
X10992328Y-11781202D01*
X10857482Y-11730908D01*
X10857483Y-11730908D01*
X10797883Y-11724501D01*
X10797881Y-11724500D01*
X10797873Y-11724500D01*
X10797864Y-11724500D01*
X9702129Y-11724500D01*
X9702123Y-11724501D01*
X9642516Y-11730908D01*
X9593332Y-11749253D01*
X9523640Y-11754237D01*
X9506667Y-11749253D01*
X9457482Y-11730908D01*
X9457483Y-11730908D01*
X9397883Y-11724501D01*
X9397881Y-11724500D01*
X9397873Y-11724500D01*
X9397864Y-11724500D01*
X8302129Y-11724500D01*
X8302123Y-11724501D01*
X8242520Y-11730908D01*
X8242517Y-11730908D01*
X8242517Y-11730909D01*
X8193930Y-11749030D01*
X8124240Y-11754013D01*
X8107268Y-11749029D01*
X8058685Y-11730909D01*
X8058683Y-11730908D01*
X7999083Y-11724501D01*
X7999081Y-11724500D01*
X7999073Y-11724500D01*
X7999064Y-11724500D01*
X6903329Y-11724500D01*
X6903323Y-11724501D01*
X6843716Y-11730908D01*
X6794532Y-11749253D01*
X6724840Y-11754237D01*
X6707867Y-11749253D01*
X6658682Y-11730908D01*
X6658683Y-11730908D01*
X6599083Y-11724501D01*
X6599081Y-11724500D01*
X6599073Y-11724500D01*
X6599064Y-11724500D01*
X5503329Y-11724500D01*
X5503323Y-11724501D01*
X5443717Y-11730908D01*
X5393816Y-11749520D01*
X5324125Y-11754503D01*
X5307153Y-11749519D01*
X5258583Y-11731403D01*
X5258572Y-11731401D01*
X5199044Y-11725000D01*
X4901200Y-11725000D01*
X4901200Y-15175000D01*
X5199028Y-15175000D01*
X5199044Y-15174999D01*
X5258572Y-15168598D01*
X5266124Y-15166814D01*
X5266427Y-15168100D01*
X5328051Y-15163689D01*
X5389376Y-15197170D01*
X5422865Y-15258491D01*
X5425700Y-15284857D01*
X5425700Y-17494448D01*
X5406015Y-17561487D01*
X5393850Y-17577420D01*
X5267466Y-17717784D01*
X5172821Y-17881715D01*
X5172818Y-17881722D01*
X5129467Y-18015145D01*
X5114326Y-18061744D01*
X5094540Y-18250000D01*
X5114326Y-18438256D01*
X5114327Y-18438259D01*
X5172818Y-18618277D01*
X5172821Y-18618284D01*
X5267467Y-18782216D01*
X5372707Y-18899096D01*
X5394129Y-18922888D01*
X5547265Y-19034148D01*
X5547270Y-19034151D01*
X5720192Y-19111142D01*
X5720197Y-19111144D01*
X5905354Y-19150500D01*
X5905355Y-19150500D01*
X6094644Y-19150500D01*
X6094646Y-19150500D01*
X6279803Y-19111144D01*
X6452730Y-19034151D01*
X6605871Y-18922888D01*
X6732533Y-18782216D01*
X6827179Y-18618284D01*
X6885674Y-18438256D01*
X6905460Y-18250000D01*
X6885674Y-18061744D01*
X6827179Y-17881716D01*
X6732533Y-17717784D01*
X6708550Y-17691148D01*
X6678320Y-17628156D01*
X6676700Y-17608176D01*
X6676700Y-17254439D01*
X6696385Y-17187400D01*
X6749189Y-17141645D01*
X6818347Y-17131701D01*
X6881903Y-17160726D01*
X6892846Y-17171463D01*
X6894129Y-17172888D01*
X6958031Y-17219315D01*
X7047265Y-17284148D01*
X7047270Y-17284151D01*
X7220192Y-17361142D01*
X7220197Y-17361144D01*
X7405354Y-17400500D01*
X7405355Y-17400500D01*
X7594644Y-17400500D01*
X7594646Y-17400500D01*
X7779803Y-17361144D01*
X7952730Y-17284151D01*
X8105871Y-17172888D01*
X8232533Y-17032216D01*
X8327179Y-16868284D01*
X8385674Y-16688256D01*
X8405460Y-16500000D01*
X8385674Y-16311744D01*
X8327179Y-16131716D01*
X8232533Y-15967784D01*
X8108550Y-15830087D01*
X8078320Y-15767096D01*
X8076700Y-15747115D01*
X8076700Y-15285838D01*
X8096385Y-15218799D01*
X8149189Y-15173044D01*
X8218347Y-15163100D01*
X8234953Y-15167340D01*
X8234962Y-15167306D01*
X8250060Y-15170873D01*
X8249439Y-15173500D01*
X8302031Y-15195266D01*
X8341897Y-15252647D01*
X8347575Y-15278879D01*
X8348380Y-15286538D01*
X8364326Y-15438256D01*
X8364327Y-15438259D01*
X8422818Y-15618277D01*
X8422821Y-15618284D01*
X8517467Y-15782216D01*
X8626320Y-15903109D01*
X8644129Y-15922888D01*
X8797265Y-16034148D01*
X8797270Y-16034151D01*
X8970192Y-16111142D01*
X8970197Y-16111144D01*
X9155354Y-16150500D01*
X9155355Y-16150500D01*
X9344644Y-16150500D01*
X9344646Y-16150500D01*
X9529803Y-16111144D01*
X9702730Y-16034151D01*
X9855871Y-15922888D01*
X9982533Y-15782216D01*
X10077179Y-15618284D01*
X10135674Y-15438256D01*
X10151620Y-15286535D01*
X10178203Y-15221923D01*
X10235501Y-15181938D01*
X10274940Y-15175499D01*
X10697200Y-15175499D01*
X10764239Y-15195184D01*
X10809994Y-15247988D01*
X10821200Y-15299499D01*
X10821200Y-15397844D01*
X10827601Y-15457372D01*
X10827603Y-15457383D01*
X10845719Y-15505953D01*
X10850703Y-15575644D01*
X10845720Y-15592616D01*
X10827108Y-15642517D01*
X10820701Y-15702116D01*
X10820700Y-15702135D01*
X10820700Y-16797870D01*
X10820701Y-16797876D01*
X10827108Y-16857482D01*
X10845453Y-16906666D01*
X10850437Y-16976358D01*
X10845453Y-16993331D01*
X10827109Y-17042514D01*
X10827108Y-17042516D01*
X10820701Y-17102116D01*
X10820700Y-17102135D01*
X10820700Y-18197870D01*
X10820701Y-18197876D01*
X10827108Y-18257482D01*
X10845453Y-18306666D01*
X10850437Y-18376358D01*
X10845453Y-18393331D01*
X10827109Y-18442514D01*
X10827108Y-18442516D01*
X10820701Y-18502116D01*
X10820700Y-18502135D01*
X10820700Y-19597870D01*
X10820701Y-19597876D01*
X10827108Y-19657482D01*
X10845453Y-19706666D01*
X10850437Y-19776358D01*
X10845453Y-19793331D01*
X10827109Y-19842514D01*
X10827108Y-19842516D01*
X10820701Y-19902116D01*
X10820700Y-19902135D01*
X10820700Y-20997870D01*
X10820701Y-20997876D01*
X10827108Y-21057482D01*
X10845453Y-21106666D01*
X10850437Y-21176358D01*
X10845453Y-21193331D01*
X10827109Y-21242514D01*
X10827108Y-21242516D01*
X10820701Y-21302116D01*
X10820701Y-21302123D01*
X10820700Y-21302135D01*
X10820700Y-22397870D01*
X10820701Y-22397876D01*
X10827108Y-22457482D01*
X10840204Y-22492593D01*
X10845452Y-22506665D01*
X10845453Y-22506666D01*
X10850437Y-22576358D01*
X10845453Y-22593331D01*
X10827109Y-22642514D01*
X10827108Y-22642516D01*
X10820701Y-22702116D01*
X10820701Y-22702123D01*
X10820700Y-22702135D01*
X10820700Y-23797870D01*
X10820701Y-23797876D01*
X10827108Y-23857482D01*
X10840204Y-23892593D01*
X10845452Y-23906665D01*
X10845453Y-23906666D01*
X10850437Y-23976358D01*
X10845453Y-23993331D01*
X10827109Y-24042514D01*
X10827108Y-24042516D01*
X10820701Y-24102116D01*
X10820701Y-24102123D01*
X10820700Y-24102135D01*
X10820700Y-24201000D01*
X10801015Y-24268039D01*
X10748211Y-24313794D01*
X10696700Y-24325000D01*
X10501200Y-24325000D01*
X10501200Y-25800000D01*
X11251200Y-25800000D01*
X11251200Y-25774499D01*
X11270885Y-25707460D01*
X11323689Y-25661705D01*
X11375195Y-25650499D01*
X13819072Y-25650499D01*
X13878683Y-25644091D01*
X14013531Y-25593796D01*
X14128746Y-25507546D01*
X14214996Y-25392331D01*
X14265291Y-25257483D01*
X14271700Y-25197873D01*
X14271699Y-24102128D01*
X14265291Y-24042517D01*
X14246947Y-23993334D01*
X14241962Y-23923643D01*
X14246947Y-23906665D01*
X14265289Y-23857488D01*
X14265291Y-23857483D01*
X14271700Y-23797873D01*
X14271699Y-22702128D01*
X14265291Y-22642517D01*
X14246947Y-22593334D01*
X14241962Y-22523643D01*
X14246947Y-22506665D01*
X14265289Y-22457488D01*
X14265291Y-22457483D01*
X14271700Y-22397873D01*
X14271699Y-21302128D01*
X14265291Y-21242517D01*
X14261432Y-21232171D01*
X14246947Y-21193334D01*
X14241962Y-21123643D01*
X14246946Y-21106667D01*
X14259756Y-21072322D01*
X14301626Y-21016390D01*
X14318487Y-21006966D01*
X14318092Y-21006247D01*
X14324926Y-21002489D01*
X14324927Y-21002487D01*
X14324932Y-21002486D01*
X14360283Y-20976800D01*
X14370014Y-20970408D01*
X14407620Y-20948170D01*
X14421789Y-20933999D01*
X14436579Y-20921368D01*
X14452787Y-20909594D01*
X14480638Y-20875926D01*
X14488479Y-20867309D01*
X16131787Y-19224001D01*
X16144042Y-19214186D01*
X16143859Y-19213964D01*
X16149868Y-19208991D01*
X16149877Y-19208986D01*
X16195949Y-19159922D01*
X16198566Y-19157223D01*
X16218120Y-19137671D01*
X16220576Y-19134503D01*
X16228156Y-19125627D01*
X16258062Y-19093782D01*
X16267715Y-19076220D01*
X16278389Y-19059970D01*
X16290673Y-19044136D01*
X16308019Y-19004050D01*
X16313157Y-18993562D01*
X16334196Y-18955293D01*
X16334197Y-18955292D01*
X16339177Y-18935891D01*
X16345478Y-18917488D01*
X16353438Y-18899096D01*
X16360272Y-18855941D01*
X16362635Y-18844531D01*
X16373500Y-18802219D01*
X16373500Y-18782183D01*
X16375027Y-18762782D01*
X16378160Y-18743004D01*
X16374050Y-18699524D01*
X16373500Y-18687855D01*
X16373500Y-7556951D01*
X16393185Y-7489912D01*
X16409815Y-7469274D01*
X16867271Y-7011817D01*
X16928594Y-6978333D01*
X16954952Y-6975499D01*
X17293670Y-6975499D01*
X17293676Y-6975499D01*
X17394753Y-6965174D01*
X17558516Y-6910908D01*
X17705350Y-6820340D01*
X17819319Y-6706371D01*
X17880642Y-6672886D01*
X17950334Y-6677870D01*
X17994681Y-6706371D01*
X18108650Y-6820340D01*
X18255484Y-6910908D01*
X18419247Y-6965174D01*
X18520323Y-6975500D01*
X19118676Y-6975499D01*
X19118684Y-6975498D01*
X19118687Y-6975498D01*
X19174030Y-6969844D01*
X19219753Y-6965174D01*
X19383516Y-6910908D01*
X19530350Y-6820340D01*
X19652340Y-6698350D01*
X19742908Y-6551516D01*
X19797174Y-6387753D01*
X19807500Y-6286677D01*
X19807499Y-5713324D01*
X19806980Y-5708248D01*
X19797174Y-5612247D01*
X19774717Y-5544477D01*
X19742908Y-5448484D01*
X19658960Y-5312383D01*
X19640500Y-5247288D01*
X19640500Y-4327814D01*
X19660185Y-4260775D01*
X19705483Y-4218759D01*
X19714200Y-4214041D01*
X19783626Y-4176470D01*
X19802616Y-4161690D01*
X19926739Y-4065081D01*
X19966784Y-4033913D01*
X20123979Y-3863153D01*
X20250924Y-3668849D01*
X20344157Y-3456300D01*
X20401134Y-3231305D01*
X20406524Y-3166260D01*
X20420300Y-3000006D01*
X20420300Y-2999993D01*
X20401135Y-2768702D01*
X20401133Y-2768691D01*
X20344157Y-2543699D01*
X20250924Y-2331151D01*
X20123983Y-2136852D01*
X20123980Y-2136849D01*
X20123979Y-2136847D01*
X19966784Y-1966087D01*
X19966779Y-1966083D01*
X19966777Y-1966081D01*
X19783634Y-1823535D01*
X19783628Y-1823531D01*
X19579504Y-1713064D01*
X19579495Y-1713061D01*
X19359984Y-1637702D01*
X19172404Y-1606401D01*
X19131049Y-1599500D01*
X18898951Y-1599500D01*
X18857596Y-1606401D01*
X18670015Y-1637702D01*
X18450504Y-1713061D01*
X18450495Y-1713064D01*
X18246371Y-1823531D01*
X18246365Y-1823535D01*
X18063222Y-1966081D01*
X18063215Y-1966087D01*
X18054484Y-1975572D01*
X17994595Y-2011561D01*
X17924757Y-2009458D01*
X17867143Y-1969932D01*
X17847075Y-1934918D01*
X17818355Y-1857915D01*
X17818350Y-1857906D01*
X17732190Y-1742812D01*
X17732187Y-1742809D01*
X17617093Y-1656649D01*
X17617086Y-1656645D01*
X17482379Y-1606403D01*
X17482372Y-1606401D01*
X17422844Y-1600000D01*
X16725000Y-1600000D01*
X16725000Y-2625810D01*
X16672453Y-2589984D01*
X16542827Y-2550000D01*
X16441276Y-2550000D01*
X16340862Y-2565135D01*
X16225000Y-2620931D01*
X16225000Y-1600000D01*
X15527155Y-1600000D01*
X15467627Y-1606401D01*
X15467620Y-1606403D01*
X15332913Y-1656645D01*
X15332906Y-1656649D01*
X15217812Y-1742809D01*
X15217809Y-1742812D01*
X15131649Y-1857906D01*
X15131645Y-1857914D01*
X15122318Y-1882920D01*
X15080445Y-1938853D01*
X15014981Y-1963268D01*
X14946708Y-1948415D01*
X14929975Y-1937437D01*
X14783634Y-1823535D01*
X14783628Y-1823531D01*
X14579504Y-1713064D01*
X14579495Y-1713061D01*
X14359984Y-1637702D01*
X14172404Y-1606401D01*
X14131049Y-1599500D01*
X13898951Y-1599500D01*
X13857596Y-1606401D01*
X13670015Y-1637702D01*
X13450504Y-1713061D01*
X13450495Y-1713064D01*
X13246371Y-1823531D01*
X13246365Y-1823535D01*
X13063222Y-1966081D01*
X13063215Y-1966087D01*
X13054484Y-1975572D01*
X12994595Y-2011561D01*
X12924757Y-2009458D01*
X12867143Y-1969932D01*
X12847075Y-1934918D01*
X12818355Y-1857915D01*
X12818350Y-1857906D01*
X12732190Y-1742812D01*
X12732187Y-1742809D01*
X12617093Y-1656649D01*
X12617086Y-1656645D01*
X12482379Y-1606403D01*
X12482372Y-1606401D01*
X12422844Y-1600000D01*
X11725000Y-1600000D01*
X11725000Y-2625810D01*
X11672453Y-2589984D01*
X11542827Y-2550000D01*
X11441276Y-2550000D01*
X11340862Y-2565135D01*
X11225000Y-2620931D01*
X11225000Y-1600000D01*
X10527155Y-1600000D01*
X10467627Y-1606401D01*
X10467620Y-1606403D01*
X10332913Y-1656645D01*
X10332906Y-1656649D01*
X10217812Y-1742809D01*
X10217809Y-1742812D01*
X10131649Y-1857906D01*
X10131645Y-1857914D01*
X10122318Y-1882920D01*
X10080445Y-1938853D01*
X10014981Y-1963268D01*
X9946708Y-1948415D01*
X9929975Y-1937437D01*
X9783634Y-1823535D01*
X9783628Y-1823531D01*
X9579504Y-1713064D01*
X9579495Y-1713061D01*
X9359984Y-1637702D01*
X9172404Y-1606401D01*
X9131049Y-1599500D01*
X8898951Y-1599500D01*
X8857596Y-1606401D01*
X8670015Y-1637702D01*
X8450504Y-1713061D01*
X8450495Y-1713064D01*
X8246371Y-1823531D01*
X8246365Y-1823535D01*
X8063222Y-1966081D01*
X8063215Y-1966087D01*
X8054484Y-1975572D01*
X7994595Y-2011561D01*
X7924757Y-2009458D01*
X7867143Y-1969932D01*
X7847075Y-1934918D01*
X7818355Y-1857915D01*
X7818350Y-1857906D01*
X7732190Y-1742812D01*
X7732187Y-1742809D01*
X7617093Y-1656649D01*
X7617086Y-1656645D01*
X7482379Y-1606403D01*
X7482372Y-1606401D01*
X7422844Y-1600000D01*
X6725000Y-1600000D01*
X6725000Y-2625810D01*
X6672453Y-2589984D01*
X6542827Y-2550000D01*
X6441276Y-2550000D01*
X6340862Y-2565135D01*
X6225000Y-2620931D01*
X6225000Y-1600000D01*
X5527155Y-1600000D01*
X5467627Y-1606401D01*
X5467620Y-1606403D01*
X5332913Y-1656645D01*
X5332906Y-1656649D01*
X5217812Y-1742809D01*
X5217809Y-1742812D01*
X5131649Y-1857906D01*
X5131645Y-1857914D01*
X5122318Y-1882920D01*
X5080445Y-1938853D01*
X5014981Y-1963268D01*
X4946708Y-1948415D01*
X4929975Y-1937437D01*
X4783634Y-1823535D01*
X4783628Y-1823531D01*
X4579504Y-1713064D01*
X4579495Y-1713061D01*
X4359984Y-1637702D01*
X4172404Y-1606401D01*
X4131049Y-1599500D01*
X3898951Y-1599500D01*
X3857596Y-1606401D01*
X3670015Y-1637702D01*
X3450504Y-1713061D01*
X3450495Y-1713064D01*
X3246371Y-1823531D01*
X3246365Y-1823535D01*
X3063222Y-1966081D01*
X3063215Y-1966087D01*
X3054484Y-1975572D01*
X2994595Y-2011561D01*
X2924757Y-2009458D01*
X2867143Y-1969932D01*
X2847075Y-1934918D01*
X2818355Y-1857915D01*
X2818350Y-1857906D01*
X2732190Y-1742812D01*
X2732187Y-1742809D01*
X2617093Y-1656649D01*
X2617086Y-1656645D01*
X2482379Y-1606403D01*
X2482372Y-1606401D01*
X2422844Y-1600000D01*
X1725000Y-1600000D01*
X1725000Y-2625810D01*
X1672453Y-2589984D01*
X1542827Y-2550000D01*
X1441276Y-2550000D01*
X1340862Y-2565135D01*
X1225000Y-2620931D01*
X1225000Y-1600000D01*
X527155Y-1600000D01*
X467627Y-1606401D01*
X467620Y-1606403D01*
X332913Y-1656645D01*
X332906Y-1656649D01*
X217812Y-1742809D01*
X217809Y-1742812D01*
X131649Y-1857906D01*
X131645Y-1857913D01*
X81403Y-1992620D01*
X81401Y-1992627D01*
X75000Y-2052155D01*
X75000Y-2750000D01*
X1099722Y-2750000D01*
X1051375Y-2833740D01*
X1021190Y-2965992D01*
X1031327Y-3101265D01*
X1080887Y-3227541D01*
X1098797Y-3250000D01*
X75000Y-3250000D01*
X75000Y-3947844D01*
X-249500Y-3947844D01*
X-249500Y-374500D01*
X-229815Y-307461D01*
X-177011Y-261706D01*
X-125500Y-250500D01*
X22963716Y-250500D01*
X22964375Y-250502D01*
G37*
%TD.AperFunction*%
%TA.AperFunction,Conductor*%
G36*
X1929862Y-32126953D02*
G01*
X2011153Y-32208244D01*
X2041177Y-32256919D01*
X2069252Y-32341642D01*
X2089091Y-32401513D01*
X2089093Y-32401518D01*
X2179661Y-32548351D01*
X2293629Y-32662319D01*
X2327114Y-32723642D01*
X2322130Y-32793334D01*
X2293629Y-32837681D01*
X2179661Y-32951648D01*
X2089093Y-33098481D01*
X2089091Y-33098486D01*
X2080541Y-33124289D01*
X2034826Y-33262247D01*
X2034826Y-33262248D01*
X2034825Y-33262248D01*
X2024500Y-33363315D01*
X2024500Y-33961669D01*
X2024501Y-33961687D01*
X2034825Y-34062752D01*
X2071109Y-34172249D01*
X2089092Y-34226516D01*
X2179660Y-34373350D01*
X2301650Y-34495340D01*
X2448484Y-34585908D01*
X2612247Y-34640174D01*
X2713323Y-34650500D01*
X3052047Y-34650499D01*
X3119086Y-34670183D01*
X3139728Y-34686818D01*
X4115728Y-35662819D01*
X4149213Y-35724142D01*
X4144229Y-35793834D01*
X4102357Y-35849767D01*
X4036893Y-35874184D01*
X4028047Y-35874500D01*
X2393452Y-35874500D01*
X2326413Y-35854815D01*
X2305771Y-35838181D01*
X1411819Y-34944228D01*
X1378334Y-34882905D01*
X1375500Y-34856547D01*
X1375500Y-34609481D01*
X1395185Y-34542442D01*
X1434404Y-34503942D01*
X1435295Y-34503392D01*
X1448350Y-34495340D01*
X1570340Y-34373350D01*
X1660908Y-34226516D01*
X1715174Y-34062753D01*
X1725500Y-33961677D01*
X1725499Y-33363324D01*
X1723515Y-33343905D01*
X1715174Y-33262247D01*
X1709138Y-33244032D01*
X1660908Y-33098484D01*
X1570340Y-32951650D01*
X1456371Y-32837681D01*
X1422886Y-32776358D01*
X1427870Y-32706666D01*
X1456371Y-32662319D01*
X1478692Y-32639998D01*
X1570340Y-32548350D01*
X1660908Y-32401516D01*
X1715174Y-32237753D01*
X1718823Y-32202032D01*
X1745218Y-32137341D01*
X1802399Y-32097189D01*
X1872210Y-32094325D01*
X1929862Y-32126953D01*
G37*
%TD.AperFunction*%
%TA.AperFunction,Conductor*%
G36*
X2681903Y-29312580D02*
G01*
X2701016Y-29333406D01*
X2719277Y-29358540D01*
X2724381Y-29365565D01*
X2730793Y-29375326D01*
X2753028Y-29412922D01*
X2753033Y-29412929D01*
X2767190Y-29427085D01*
X2779828Y-29441881D01*
X2785732Y-29450008D01*
X2791606Y-29458092D01*
X2818516Y-29480354D01*
X2825257Y-29485930D01*
X2833898Y-29493793D01*
X4374482Y-31034377D01*
X4407967Y-31095700D01*
X4402983Y-31165392D01*
X4392340Y-31187154D01*
X4339095Y-31273477D01*
X4339092Y-31273484D01*
X4284826Y-31437247D01*
X4284826Y-31437248D01*
X4284825Y-31437248D01*
X4274500Y-31538315D01*
X4274500Y-32136669D01*
X4274501Y-32136687D01*
X4284825Y-32237752D01*
X4307243Y-32305403D01*
X4338288Y-32399091D01*
X4339092Y-32401515D01*
X4339093Y-32401518D01*
X4429661Y-32548351D01*
X4543629Y-32662319D01*
X4577114Y-32723642D01*
X4572130Y-32793334D01*
X4543629Y-32837681D01*
X4429661Y-32951648D01*
X4339093Y-33098481D01*
X4339091Y-33098486D01*
X4330541Y-33124289D01*
X4284826Y-33262247D01*
X4284826Y-33262248D01*
X4284825Y-33262248D01*
X4274500Y-33363315D01*
X4274500Y-33753047D01*
X4254815Y-33820086D01*
X4202011Y-33865841D01*
X4132853Y-33875785D01*
X4069297Y-33846760D01*
X4062819Y-33840728D01*
X4011818Y-33789727D01*
X3978333Y-33728404D01*
X3975499Y-33702046D01*
X3975499Y-33363330D01*
X3975498Y-33363313D01*
X3965174Y-33262247D01*
X3959138Y-33244032D01*
X3910908Y-33098484D01*
X3820340Y-32951650D01*
X3706371Y-32837681D01*
X3672886Y-32776358D01*
X3677870Y-32706666D01*
X3706371Y-32662319D01*
X3728692Y-32639998D01*
X3820340Y-32548350D01*
X3910908Y-32401516D01*
X3965174Y-32237753D01*
X3975500Y-32136677D01*
X3975499Y-31538324D01*
X3973357Y-31517359D01*
X3965174Y-31437247D01*
X3950237Y-31392171D01*
X3910908Y-31273484D01*
X3820340Y-31126650D01*
X3698350Y-31004660D01*
X3551516Y-30914092D01*
X3387753Y-30859826D01*
X3387751Y-30859825D01*
X3286678Y-30849500D01*
X2713330Y-30849500D01*
X2713312Y-30849501D01*
X2613301Y-30859718D01*
X2544608Y-30846948D01*
X2493724Y-30799067D01*
X2476700Y-30736360D01*
X2476700Y-29406293D01*
X2496385Y-29339254D01*
X2549189Y-29293499D01*
X2618347Y-29283555D01*
X2681903Y-29312580D01*
G37*
%TD.AperFunction*%
%TA.AperFunction,Conductor*%
G36*
X6334767Y-32327120D02*
G01*
X6375778Y-32364592D01*
X6377807Y-32362989D01*
X6382288Y-32368656D01*
X6506344Y-32492712D01*
X6655666Y-32584814D01*
X6822203Y-32639999D01*
X6924991Y-32650500D01*
X7234216Y-32650499D01*
X7301255Y-32670183D01*
X7321897Y-32686818D01*
X8244898Y-33609819D01*
X8278383Y-33671142D01*
X8273399Y-33740834D01*
X8231527Y-33796767D01*
X8166063Y-33821184D01*
X8157217Y-33821500D01*
X6757452Y-33821500D01*
X6690413Y-33801815D01*
X6669771Y-33785181D01*
X6254142Y-33369551D01*
X6220657Y-33308228D01*
X6218465Y-33294469D01*
X6215174Y-33262247D01*
X6209138Y-33244032D01*
X6160908Y-33098484D01*
X6070340Y-32951650D01*
X5956371Y-32837681D01*
X5922886Y-32776358D01*
X5927870Y-32706666D01*
X5956371Y-32662319D01*
X5978692Y-32639998D01*
X6070340Y-32548350D01*
X6160908Y-32401516D01*
X6161713Y-32399086D01*
X6162714Y-32397639D01*
X6163958Y-32394973D01*
X6164413Y-32395185D01*
X6201477Y-32341642D01*
X6265990Y-32314812D01*
X6334767Y-32327120D01*
G37*
%TD.AperFunction*%
%TA.AperFunction,Conductor*%
G36*
X5394533Y-27750747D02*
G01*
X5443708Y-27769088D01*
X5443711Y-27769089D01*
X5443717Y-27769091D01*
X5503327Y-27775500D01*
X6095178Y-27775499D01*
X6162217Y-27795183D01*
X6207972Y-27847987D01*
X6217916Y-27917146D01*
X6212886Y-27938496D01*
X6211256Y-27943415D01*
X6210000Y-27947205D01*
X6199500Y-28049983D01*
X6199500Y-29450001D01*
X6199501Y-29450018D01*
X6210000Y-29552796D01*
X6210001Y-29552799D01*
X6257299Y-29695534D01*
X6265116Y-29719124D01*
X6267458Y-29726190D01*
X6265631Y-29726795D01*
X6274500Y-29766798D01*
X6274500Y-30307993D01*
X6268206Y-30346997D01*
X6235001Y-30447203D01*
X6235000Y-30447204D01*
X6224500Y-30549983D01*
X6224500Y-30981448D01*
X6204815Y-31048487D01*
X6152011Y-31094242D01*
X6082853Y-31104186D01*
X6019297Y-31075161D01*
X6012819Y-31069129D01*
X5948350Y-31004660D01*
X5948346Y-31004657D01*
X5924448Y-30989916D01*
X5877724Y-30937967D01*
X5870475Y-30918988D01*
X5868031Y-30910579D01*
X5867122Y-30907449D01*
X5863174Y-30888391D01*
X5860664Y-30868513D01*
X5857182Y-30859718D01*
X5844588Y-30827909D01*
X5840804Y-30816857D01*
X5828618Y-30774914D01*
X5828616Y-30774911D01*
X5818423Y-30757676D01*
X5809861Y-30740199D01*
X5802487Y-30721574D01*
X5776816Y-30686242D01*
X5770405Y-30676482D01*
X5748170Y-30638885D01*
X5748168Y-30638883D01*
X5748165Y-30638879D01*
X5734006Y-30624720D01*
X5721368Y-30609924D01*
X5709594Y-30593718D01*
X5679104Y-30568495D01*
X5675940Y-30565877D01*
X5667299Y-30558014D01*
X3913019Y-28803733D01*
X3879534Y-28742410D01*
X3876700Y-28716052D01*
X3876700Y-27885391D01*
X3896385Y-27818352D01*
X3949189Y-27772597D01*
X4018347Y-27762653D01*
X4041734Y-27768622D01*
X4043713Y-27769089D01*
X4043717Y-27769091D01*
X4103327Y-27775500D01*
X5199072Y-27775499D01*
X5258683Y-27769091D01*
X5307865Y-27750746D01*
X5377555Y-27745761D01*
X5394533Y-27750747D01*
G37*
%TD.AperFunction*%
%TD*%
M02*
