%TF.GenerationSoftware,KiCad,Pcbnew,7.0.10*%
%TF.CreationDate,2024-03-22T23:10:46-04:00*%
%TF.ProjectId,Remote PCB,52656d6f-7465-4205-9043-422e6b696361,rev?*%
%TF.SameCoordinates,Original*%
%TF.FileFunction,Copper,L2,Bot*%
%TF.FilePolarity,Positive*%
%FSLAX46Y46*%
G04 Gerber Fmt 4.6, Leading zero omitted, Abs format (unit mm)*
G04 Created by KiCad (PCBNEW 7.0.10) date 2024-03-22 23:10:46*
%MOMM*%
%LPD*%
G01*
G04 APERTURE LIST*
%TA.AperFunction,ComponentPad*%
%ADD10O,3.048000X1.850000*%
%TD*%
%TA.AperFunction,ComponentPad*%
%ADD11O,1.850000X3.048000*%
%TD*%
%TA.AperFunction,ComponentPad*%
%ADD12R,1.700000X1.700000*%
%TD*%
%TA.AperFunction,ViaPad*%
%ADD13C,0.800000*%
%TD*%
%TA.AperFunction,Conductor*%
%ADD14C,0.750000*%
%TD*%
%TA.AperFunction,Conductor*%
%ADD15C,0.250000*%
%TD*%
G04 APERTURE END LIST*
D10*
%TO.P,SW3,1,1*%
%TO.N,DOWN*%
X27198000Y-44109000D03*
X39698000Y-44109000D03*
%TO.P,SW3,2,2*%
%TO.N,GND*%
X27198000Y-49109000D03*
X39698000Y-49109000D03*
%TD*%
%TO.P,SW2,1,1*%
%TO.N,STOP*%
X27198000Y-31548000D03*
X39698000Y-31548000D03*
%TO.P,SW2,2,2*%
%TO.N,GND*%
X27198000Y-36548000D03*
X39698000Y-36548000D03*
%TD*%
D11*
%TO.P,SW5,1,1*%
%TO.N,GND*%
X45252000Y-40022000D03*
X45252000Y-27522000D03*
%TO.P,SW5,2,2*%
%TO.N,RIGHT*%
X50252000Y-40022000D03*
X50252000Y-27522000D03*
%TD*%
D12*
%TO.P,VBATT,1,Pin_1*%
%TO.N,VBATT*%
X15748000Y-76327000D03*
%TD*%
%TO.P,GND,1,Pin_1*%
%TO.N,GND*%
X28321000Y-76581000D03*
%TD*%
D10*
%TO.P,SW1,1,1*%
%TO.N,UP*%
X27161000Y-18923000D03*
X39661000Y-18923000D03*
%TO.P,SW1,2,2*%
%TO.N,GND*%
X27161000Y-23923000D03*
X39661000Y-23923000D03*
%TD*%
D11*
%TO.P,SW4,1,1*%
%TO.N,LEFT*%
X16423000Y-40149000D03*
X16423000Y-27649000D03*
%TO.P,SW4,2,2*%
%TO.N,GND*%
X21423000Y-40149000D03*
X21423000Y-27649000D03*
%TD*%
D12*
%TO.P,IRQ,1,Pin_1*%
%TO.N,IRQ*%
X35256000Y-61070000D03*
%TD*%
D13*
%TO.N,GND*%
X27178000Y-68834000D03*
X30607000Y-62865000D03*
X24384000Y-58420000D03*
%TO.N,+3V3*%
X21082000Y-52705000D03*
X44196000Y-70104000D03*
%TO.N,MOSI*%
X26670000Y-64135000D03*
X31877000Y-69215000D03*
%TO.N,MISO*%
X27813000Y-66421000D03*
X29972000Y-68580000D03*
%TO.N,IRQ*%
X35433000Y-75565000D03*
%TO.N,VBATT*%
X20320000Y-68453000D03*
%TO.N,RST*%
X28392000Y-72381000D03*
X50800000Y-77343000D03*
%TO.N,UP*%
X13081000Y-72390000D03*
%TO.N,STOP*%
X15621000Y-72390000D03*
X16002000Y-46101000D03*
%TO.N,DOWN*%
X33782000Y-48006000D03*
X24257000Y-61849000D03*
X33782000Y-54483000D03*
%TO.N,LEFT*%
X18288000Y-72390000D03*
%TO.N,RIGHT*%
X34163000Y-57912000D03*
X25654000Y-62992000D03*
%TD*%
D14*
%TO.N,+3V3*%
X42164000Y-68072000D02*
X42164000Y-56769000D01*
X38100000Y-52705000D02*
X21082000Y-52705000D01*
X44196000Y-70104000D02*
X42164000Y-68072000D01*
X42164000Y-56769000D02*
X38100000Y-52705000D01*
D15*
%TO.N,MOSI*%
X31877000Y-69215000D02*
X26797000Y-64135000D01*
X26797000Y-64135000D02*
X26670000Y-64135000D01*
%TO.N,MISO*%
X29972000Y-68580000D02*
X27813000Y-66421000D01*
%TO.N,IRQ*%
X35256000Y-75388000D02*
X35256000Y-61070000D01*
X35433000Y-75565000D02*
X35256000Y-75388000D01*
%TO.N,VBATT*%
X20320000Y-68453000D02*
X20320000Y-72263000D01*
X16256000Y-76327000D02*
X15748000Y-76327000D01*
X20320000Y-72263000D02*
X16256000Y-76327000D01*
%TO.N,RST*%
X33354000Y-77343000D02*
X28392000Y-72381000D01*
X50800000Y-77343000D02*
X33354000Y-77343000D01*
%TO.N,UP*%
X13589000Y-71882000D02*
X13081000Y-72390000D01*
X27161000Y-18923000D02*
X18542000Y-27542000D01*
X18542000Y-27542000D02*
X18542000Y-34163000D01*
X13589000Y-39116000D02*
X13589000Y-71882000D01*
X18542000Y-34163000D02*
X13589000Y-39116000D01*
%TO.N,STOP*%
X16002000Y-46101000D02*
X15802000Y-46301000D01*
X15802000Y-46301000D02*
X15802000Y-72209000D01*
X15802000Y-72209000D02*
X15621000Y-72390000D01*
%TO.N,DOWN*%
X24257000Y-61849000D02*
X31623000Y-54483000D01*
X33782000Y-48006000D02*
X37679000Y-44109000D01*
X31623000Y-54483000D02*
X33782000Y-54483000D01*
X37679000Y-44109000D02*
X39698000Y-44109000D01*
%TO.N,LEFT*%
X18288000Y-42014000D02*
X16346000Y-40072000D01*
X18288000Y-72390000D02*
X18288000Y-42014000D01*
%TO.N,RIGHT*%
X25654000Y-62484000D02*
X30226000Y-57912000D01*
X30226000Y-57912000D02*
X34163000Y-57912000D01*
X25654000Y-62992000D02*
X25654000Y-62484000D01*
%TD*%
%TA.AperFunction,Conductor*%
%TO.N,GND*%
G36*
X12188631Y-11937634D02*
G01*
X12188629Y-11937634D01*
X12436447Y-11936900D01*
X12188631Y-11937634D01*
G37*
%TD.AperFunction*%
%TA.AperFunction,Conductor*%
G36*
X54689140Y-11811893D02*
G01*
X12436447Y-11936900D01*
X54689137Y-11811892D01*
X54689140Y-11811893D01*
G37*
%TD.AperFunction*%
%TD*%
%TA.AperFunction,Conductor*%
%TO.N,GND*%
G36*
X54756231Y-11831377D02*
G01*
X54802141Y-11884045D01*
X54813500Y-11935890D01*
X54813500Y-78598868D01*
X54793815Y-78665907D01*
X54741011Y-78711662D01*
X54689868Y-78722867D01*
X12189368Y-78848981D01*
X12122270Y-78829496D01*
X12076359Y-78776828D01*
X12065000Y-78724982D01*
X12065000Y-77224870D01*
X14397500Y-77224870D01*
X14397501Y-77224876D01*
X14403908Y-77284483D01*
X14454202Y-77419328D01*
X14454206Y-77419335D01*
X14540452Y-77534544D01*
X14540455Y-77534547D01*
X14655664Y-77620793D01*
X14655671Y-77620797D01*
X14790517Y-77671091D01*
X14790516Y-77671091D01*
X14797444Y-77671835D01*
X14850127Y-77677500D01*
X16645872Y-77677499D01*
X16705483Y-77671091D01*
X16840331Y-77620796D01*
X16955546Y-77534546D01*
X16997245Y-77478844D01*
X26971000Y-77478844D01*
X26977401Y-77538372D01*
X26977403Y-77538379D01*
X27027645Y-77673086D01*
X27027649Y-77673093D01*
X27113809Y-77788187D01*
X27113812Y-77788190D01*
X27228906Y-77874350D01*
X27228913Y-77874354D01*
X27363620Y-77924596D01*
X27363627Y-77924598D01*
X27423155Y-77930999D01*
X27423172Y-77931000D01*
X28071000Y-77931000D01*
X28071000Y-77016501D01*
X28178685Y-77065680D01*
X28285237Y-77081000D01*
X28356763Y-77081000D01*
X28463315Y-77065680D01*
X28571000Y-77016501D01*
X28571000Y-77931000D01*
X29218828Y-77931000D01*
X29218844Y-77930999D01*
X29278372Y-77924598D01*
X29278379Y-77924596D01*
X29413086Y-77874354D01*
X29413093Y-77874350D01*
X29528187Y-77788190D01*
X29528190Y-77788187D01*
X29614350Y-77673093D01*
X29614354Y-77673086D01*
X29664596Y-77538379D01*
X29664598Y-77538372D01*
X29670999Y-77478844D01*
X29671000Y-77478827D01*
X29671000Y-76831000D01*
X28754686Y-76831000D01*
X28780493Y-76790844D01*
X28821000Y-76652889D01*
X28821000Y-76509111D01*
X28780493Y-76371156D01*
X28754686Y-76331000D01*
X29671000Y-76331000D01*
X29671000Y-75683172D01*
X29670999Y-75683155D01*
X29664598Y-75623627D01*
X29664596Y-75623620D01*
X29614354Y-75488913D01*
X29614350Y-75488906D01*
X29528190Y-75373812D01*
X29528187Y-75373809D01*
X29413093Y-75287649D01*
X29413086Y-75287645D01*
X29278379Y-75237403D01*
X29278372Y-75237401D01*
X29218844Y-75231000D01*
X28571000Y-75231000D01*
X28571000Y-76145498D01*
X28463315Y-76096320D01*
X28356763Y-76081000D01*
X28285237Y-76081000D01*
X28178685Y-76096320D01*
X28071000Y-76145498D01*
X28071000Y-75231000D01*
X27423155Y-75231000D01*
X27363627Y-75237401D01*
X27363620Y-75237403D01*
X27228913Y-75287645D01*
X27228906Y-75287649D01*
X27113812Y-75373809D01*
X27113809Y-75373812D01*
X27027649Y-75488906D01*
X27027645Y-75488913D01*
X26977403Y-75623620D01*
X26977401Y-75623627D01*
X26971000Y-75683155D01*
X26971000Y-76331000D01*
X27887314Y-76331000D01*
X27861507Y-76371156D01*
X27821000Y-76509111D01*
X27821000Y-76652889D01*
X27861507Y-76790844D01*
X27887314Y-76831000D01*
X26971000Y-76831000D01*
X26971000Y-77478844D01*
X16997245Y-77478844D01*
X17041796Y-77419331D01*
X17092091Y-77284483D01*
X17098500Y-77224873D01*
X17098499Y-76420450D01*
X17118183Y-76353412D01*
X17134813Y-76332775D01*
X20703788Y-72763801D01*
X20716042Y-72753986D01*
X20715859Y-72753764D01*
X20721868Y-72748791D01*
X20721877Y-72748786D01*
X20767949Y-72699722D01*
X20770566Y-72697023D01*
X20790120Y-72677471D01*
X20792576Y-72674303D01*
X20800156Y-72665427D01*
X20830062Y-72633582D01*
X20839715Y-72616020D01*
X20850389Y-72599770D01*
X20862673Y-72583936D01*
X20880019Y-72543850D01*
X20885157Y-72533362D01*
X20893356Y-72518450D01*
X20906197Y-72495092D01*
X20911177Y-72475691D01*
X20917478Y-72457288D01*
X20925438Y-72438896D01*
X20932272Y-72395741D01*
X20934635Y-72384331D01*
X20935490Y-72381000D01*
X27486540Y-72381000D01*
X27506326Y-72569256D01*
X27506327Y-72569259D01*
X27564818Y-72749277D01*
X27564821Y-72749284D01*
X27659467Y-72913216D01*
X27667571Y-72922216D01*
X27786129Y-73053888D01*
X27939265Y-73165148D01*
X27939270Y-73165151D01*
X28112192Y-73242142D01*
X28112197Y-73242144D01*
X28297354Y-73281500D01*
X28356548Y-73281500D01*
X28423587Y-73301185D01*
X28444229Y-73317819D01*
X32853194Y-77726784D01*
X32863019Y-77739048D01*
X32863240Y-77738866D01*
X32868210Y-77744874D01*
X32917239Y-77790915D01*
X32920036Y-77793626D01*
X32939530Y-77813120D01*
X32942695Y-77815575D01*
X32951571Y-77823156D01*
X32983418Y-77853062D01*
X32983422Y-77853064D01*
X33000973Y-77862713D01*
X33017231Y-77873392D01*
X33033064Y-77885674D01*
X33068410Y-77900968D01*
X33073155Y-77903022D01*
X33083635Y-77908155D01*
X33121908Y-77929197D01*
X33141312Y-77934179D01*
X33159710Y-77940478D01*
X33178105Y-77948438D01*
X33221254Y-77955271D01*
X33232680Y-77957638D01*
X33274981Y-77968500D01*
X33295016Y-77968500D01*
X33314413Y-77970026D01*
X33334196Y-77973160D01*
X33377675Y-77969050D01*
X33389344Y-77968500D01*
X50096252Y-77968500D01*
X50163291Y-77988185D01*
X50188400Y-78009526D01*
X50194126Y-78015885D01*
X50194130Y-78015889D01*
X50347265Y-78127148D01*
X50347270Y-78127151D01*
X50520192Y-78204142D01*
X50520197Y-78204144D01*
X50705354Y-78243500D01*
X50705355Y-78243500D01*
X50894644Y-78243500D01*
X50894646Y-78243500D01*
X51079803Y-78204144D01*
X51252730Y-78127151D01*
X51405871Y-78015888D01*
X51532533Y-77875216D01*
X51627179Y-77711284D01*
X51685674Y-77531256D01*
X51705460Y-77343000D01*
X51685674Y-77154744D01*
X51627179Y-76974716D01*
X51532533Y-76810784D01*
X51405871Y-76670112D01*
X51405870Y-76670111D01*
X51252734Y-76558851D01*
X51252729Y-76558848D01*
X51079807Y-76481857D01*
X51079802Y-76481855D01*
X50934001Y-76450865D01*
X50894646Y-76442500D01*
X50705354Y-76442500D01*
X50672897Y-76449398D01*
X50520197Y-76481855D01*
X50520192Y-76481857D01*
X50347270Y-76558848D01*
X50347265Y-76558851D01*
X50194130Y-76670110D01*
X50194126Y-76670114D01*
X50188400Y-76676474D01*
X50128913Y-76713121D01*
X50096252Y-76717500D01*
X33664452Y-76717500D01*
X33597413Y-76697815D01*
X33576771Y-76681181D01*
X29330960Y-72435369D01*
X29297475Y-72374046D01*
X29295323Y-72360668D01*
X29277674Y-72192744D01*
X29219179Y-72012716D01*
X29124533Y-71848784D01*
X28997871Y-71708112D01*
X28974748Y-71691312D01*
X28844734Y-71596851D01*
X28844729Y-71596848D01*
X28671807Y-71519857D01*
X28671802Y-71519855D01*
X28526001Y-71488865D01*
X28486646Y-71480500D01*
X28297354Y-71480500D01*
X28264897Y-71487398D01*
X28112197Y-71519855D01*
X28112192Y-71519857D01*
X27939270Y-71596848D01*
X27939265Y-71596851D01*
X27786129Y-71708111D01*
X27659466Y-71848785D01*
X27564821Y-72012715D01*
X27564818Y-72012722D01*
X27519449Y-72152355D01*
X27506326Y-72192744D01*
X27486540Y-72381000D01*
X20935490Y-72381000D01*
X20945500Y-72342019D01*
X20945500Y-72321983D01*
X20947027Y-72302582D01*
X20947940Y-72296818D01*
X20950160Y-72282804D01*
X20946050Y-72239324D01*
X20945500Y-72227655D01*
X20945500Y-69151687D01*
X20965185Y-69084648D01*
X20977350Y-69068715D01*
X20995891Y-69048122D01*
X21052533Y-68985216D01*
X21147179Y-68821284D01*
X21205674Y-68641256D01*
X21225460Y-68453000D01*
X21205674Y-68264744D01*
X21147179Y-68084716D01*
X21052533Y-67920784D01*
X20925871Y-67780112D01*
X20925870Y-67780111D01*
X20772734Y-67668851D01*
X20772729Y-67668848D01*
X20599807Y-67591857D01*
X20599802Y-67591855D01*
X20454001Y-67560865D01*
X20414646Y-67552500D01*
X20225354Y-67552500D01*
X20192897Y-67559398D01*
X20040197Y-67591855D01*
X20040192Y-67591857D01*
X19867270Y-67668848D01*
X19867265Y-67668851D01*
X19714129Y-67780111D01*
X19587466Y-67920785D01*
X19492821Y-68084715D01*
X19492818Y-68084722D01*
X19461822Y-68180120D01*
X19434326Y-68264744D01*
X19414540Y-68453000D01*
X19434326Y-68641256D01*
X19434327Y-68641259D01*
X19492818Y-68821277D01*
X19492821Y-68821284D01*
X19587467Y-68985216D01*
X19624856Y-69026740D01*
X19662650Y-69068715D01*
X19692880Y-69131706D01*
X19694500Y-69151687D01*
X19694500Y-71952547D01*
X19674815Y-72019586D01*
X19658181Y-72040228D01*
X19388219Y-72310189D01*
X19326896Y-72343674D01*
X19257204Y-72338690D01*
X19201271Y-72296818D01*
X19177218Y-72235471D01*
X19173674Y-72201744D01*
X19115179Y-72021716D01*
X19020533Y-71857784D01*
X19010515Y-71846658D01*
X18945350Y-71774284D01*
X18915120Y-71711292D01*
X18913500Y-71691312D01*
X18913500Y-52705000D01*
X20176540Y-52705000D01*
X20196326Y-52893256D01*
X20196327Y-52893259D01*
X20254818Y-53073277D01*
X20254821Y-53073284D01*
X20349467Y-53237216D01*
X20476129Y-53377888D01*
X20629265Y-53489148D01*
X20629270Y-53489151D01*
X20802192Y-53566142D01*
X20802197Y-53566144D01*
X20987354Y-53605500D01*
X20987355Y-53605500D01*
X21176645Y-53605500D01*
X21176646Y-53605500D01*
X21281513Y-53583209D01*
X21307294Y-53580500D01*
X33110530Y-53580500D01*
X33177569Y-53600185D01*
X33223324Y-53652989D01*
X33233268Y-53722147D01*
X33204243Y-53785703D01*
X33183417Y-53804817D01*
X33176128Y-53810112D01*
X33176126Y-53810114D01*
X33170400Y-53816474D01*
X33110913Y-53853121D01*
X33078252Y-53857500D01*
X31705738Y-53857500D01*
X31690121Y-53855776D01*
X31690094Y-53856062D01*
X31682332Y-53855327D01*
X31615145Y-53857439D01*
X31611251Y-53857500D01*
X31583650Y-53857500D01*
X31579962Y-53857965D01*
X31579649Y-53858005D01*
X31568031Y-53858918D01*
X31524373Y-53860290D01*
X31524372Y-53860290D01*
X31505129Y-53865881D01*
X31486079Y-53869825D01*
X31466211Y-53872334D01*
X31466210Y-53872334D01*
X31425599Y-53888413D01*
X31414554Y-53892194D01*
X31372614Y-53904379D01*
X31372610Y-53904381D01*
X31355366Y-53914579D01*
X31337905Y-53923133D01*
X31319274Y-53930510D01*
X31319262Y-53930517D01*
X31283933Y-53956185D01*
X31274173Y-53962596D01*
X31236580Y-53984829D01*
X31222414Y-53998995D01*
X31207624Y-54011627D01*
X31191414Y-54023404D01*
X31191411Y-54023407D01*
X31163573Y-54057058D01*
X31155711Y-54065697D01*
X24309228Y-60912181D01*
X24247905Y-60945666D01*
X24221547Y-60948500D01*
X24162354Y-60948500D01*
X24129897Y-60955398D01*
X23977197Y-60987855D01*
X23977192Y-60987857D01*
X23804270Y-61064848D01*
X23804265Y-61064851D01*
X23651129Y-61176111D01*
X23524466Y-61316785D01*
X23429821Y-61480715D01*
X23429818Y-61480722D01*
X23371327Y-61660740D01*
X23371326Y-61660744D01*
X23351540Y-61849000D01*
X23371326Y-62037256D01*
X23371327Y-62037259D01*
X23429818Y-62217277D01*
X23429821Y-62217284D01*
X23524467Y-62381216D01*
X23638501Y-62507863D01*
X23651129Y-62521888D01*
X23804265Y-62633148D01*
X23804270Y-62633151D01*
X23977192Y-62710142D01*
X23977197Y-62710144D01*
X24162354Y-62749500D01*
X24162355Y-62749500D01*
X24351644Y-62749500D01*
X24351646Y-62749500D01*
X24536803Y-62710144D01*
X24593807Y-62684763D01*
X24663055Y-62675478D01*
X24726332Y-62705106D01*
X24763546Y-62764240D01*
X24767562Y-62811003D01*
X24748540Y-62992000D01*
X24768326Y-63180256D01*
X24768327Y-63180259D01*
X24826818Y-63360277D01*
X24826821Y-63360284D01*
X24921467Y-63524216D01*
X24992211Y-63602785D01*
X25048129Y-63664888D01*
X25201265Y-63776148D01*
X25201270Y-63776151D01*
X25374192Y-63853142D01*
X25374197Y-63853144D01*
X25559354Y-63892500D01*
X25559355Y-63892500D01*
X25652312Y-63892500D01*
X25719351Y-63912185D01*
X25765106Y-63964989D01*
X25775632Y-64029459D01*
X25764540Y-64135000D01*
X25784326Y-64323256D01*
X25784327Y-64323259D01*
X25842818Y-64503277D01*
X25842821Y-64503284D01*
X25937467Y-64667216D01*
X26064129Y-64807888D01*
X26217265Y-64919148D01*
X26217270Y-64919151D01*
X26390192Y-64996142D01*
X26390197Y-64996144D01*
X26575354Y-65035500D01*
X26575355Y-65035500D01*
X26761548Y-65035500D01*
X26828587Y-65055185D01*
X26849229Y-65071819D01*
X27288878Y-65511468D01*
X27322363Y-65572791D01*
X27317379Y-65642483D01*
X27275507Y-65698416D01*
X27274083Y-65699467D01*
X27207127Y-65748113D01*
X27080466Y-65888785D01*
X26985821Y-66052715D01*
X26985818Y-66052722D01*
X26927327Y-66232740D01*
X26927326Y-66232744D01*
X26907540Y-66421000D01*
X26927326Y-66609256D01*
X26927327Y-66609259D01*
X26985818Y-66789277D01*
X26985821Y-66789284D01*
X27080467Y-66953216D01*
X27207129Y-67093888D01*
X27360265Y-67205148D01*
X27360270Y-67205151D01*
X27533192Y-67282142D01*
X27533197Y-67282144D01*
X27718354Y-67321500D01*
X27777548Y-67321500D01*
X27844587Y-67341185D01*
X27865229Y-67357819D01*
X29033038Y-68525629D01*
X29066523Y-68586952D01*
X29068678Y-68600348D01*
X29072978Y-68641256D01*
X29086326Y-68768256D01*
X29086327Y-68768259D01*
X29144818Y-68948277D01*
X29144821Y-68948284D01*
X29239467Y-69112216D01*
X29338274Y-69221952D01*
X29366129Y-69252888D01*
X29519265Y-69364148D01*
X29519270Y-69364151D01*
X29692192Y-69441142D01*
X29692197Y-69441144D01*
X29877354Y-69480500D01*
X29877355Y-69480500D01*
X30066644Y-69480500D01*
X30066646Y-69480500D01*
X30251803Y-69441144D01*
X30424730Y-69364151D01*
X30577871Y-69252888D01*
X30704533Y-69112216D01*
X30704534Y-69112212D01*
X30704794Y-69111925D01*
X30764280Y-69075276D01*
X30834137Y-69076606D01*
X30884625Y-69107216D01*
X30938038Y-69160629D01*
X30971523Y-69221952D01*
X30973678Y-69235348D01*
X30975522Y-69252888D01*
X30991326Y-69403256D01*
X30991327Y-69403259D01*
X31049818Y-69583277D01*
X31049821Y-69583284D01*
X31144467Y-69747216D01*
X31271129Y-69887888D01*
X31424265Y-69999148D01*
X31424270Y-69999151D01*
X31597192Y-70076142D01*
X31597197Y-70076144D01*
X31782354Y-70115500D01*
X31782355Y-70115500D01*
X31971644Y-70115500D01*
X31971646Y-70115500D01*
X32156803Y-70076144D01*
X32329730Y-69999151D01*
X32482871Y-69887888D01*
X32609533Y-69747216D01*
X32704179Y-69583284D01*
X32762674Y-69403256D01*
X32782460Y-69215000D01*
X32762674Y-69026744D01*
X32704179Y-68846716D01*
X32609533Y-68682784D01*
X32482871Y-68542112D01*
X32482870Y-68542111D01*
X32329734Y-68430851D01*
X32329729Y-68430848D01*
X32156807Y-68353857D01*
X32156802Y-68353855D01*
X32011001Y-68322865D01*
X31971646Y-68314500D01*
X31971645Y-68314500D01*
X31912452Y-68314500D01*
X31845413Y-68294815D01*
X31824771Y-68278181D01*
X27594045Y-64047454D01*
X27560560Y-63986131D01*
X27558405Y-63972731D01*
X27555674Y-63946745D01*
X27497181Y-63766722D01*
X27497180Y-63766721D01*
X27497179Y-63766716D01*
X27402533Y-63602784D01*
X27275871Y-63462112D01*
X27275870Y-63462111D01*
X27122734Y-63350851D01*
X27122729Y-63350848D01*
X26949807Y-63273857D01*
X26949802Y-63273855D01*
X26804001Y-63242865D01*
X26764646Y-63234500D01*
X26671688Y-63234500D01*
X26604649Y-63214815D01*
X26558894Y-63162011D01*
X26548367Y-63097540D01*
X26559460Y-62992000D01*
X26539674Y-62803744D01*
X26484474Y-62633859D01*
X26482480Y-62564022D01*
X26514723Y-62507865D01*
X27054718Y-61967870D01*
X33905500Y-61967870D01*
X33905501Y-61967876D01*
X33911908Y-62027483D01*
X33962202Y-62162328D01*
X33962206Y-62162335D01*
X34048452Y-62277544D01*
X34048455Y-62277547D01*
X34163664Y-62363793D01*
X34163671Y-62363797D01*
X34208618Y-62380561D01*
X34298517Y-62414091D01*
X34358127Y-62420500D01*
X34506500Y-62420499D01*
X34573539Y-62440183D01*
X34619294Y-62492987D01*
X34630500Y-62544499D01*
X34630500Y-75120743D01*
X34613889Y-75182740D01*
X34605821Y-75196714D01*
X34547327Y-75376740D01*
X34547326Y-75376744D01*
X34527540Y-75565000D01*
X34547326Y-75753256D01*
X34547327Y-75753259D01*
X34605818Y-75933277D01*
X34605821Y-75933284D01*
X34700467Y-76097216D01*
X34753440Y-76156048D01*
X34827129Y-76237888D01*
X34980265Y-76349148D01*
X34980270Y-76349151D01*
X35153192Y-76426142D01*
X35153197Y-76426144D01*
X35338354Y-76465500D01*
X35338355Y-76465500D01*
X35527644Y-76465500D01*
X35527646Y-76465500D01*
X35712803Y-76426144D01*
X35885730Y-76349151D01*
X36038871Y-76237888D01*
X36165533Y-76097216D01*
X36260179Y-75933284D01*
X36318674Y-75753256D01*
X36338460Y-75565000D01*
X36318674Y-75376744D01*
X36260179Y-75196716D01*
X36165533Y-75032784D01*
X36038871Y-74892112D01*
X35932614Y-74814912D01*
X35889949Y-74759582D01*
X35881500Y-74714594D01*
X35881500Y-62544499D01*
X35901185Y-62477460D01*
X35953989Y-62431705D01*
X36005500Y-62420499D01*
X36153871Y-62420499D01*
X36153872Y-62420499D01*
X36213483Y-62414091D01*
X36348331Y-62363796D01*
X36463546Y-62277546D01*
X36549796Y-62162331D01*
X36600091Y-62027483D01*
X36606500Y-61967873D01*
X36606499Y-60172128D01*
X36600091Y-60112517D01*
X36549796Y-59977669D01*
X36549795Y-59977668D01*
X36549793Y-59977664D01*
X36463547Y-59862455D01*
X36463544Y-59862452D01*
X36348335Y-59776206D01*
X36348328Y-59776202D01*
X36213482Y-59725908D01*
X36213483Y-59725908D01*
X36153883Y-59719501D01*
X36153881Y-59719500D01*
X36153873Y-59719500D01*
X36153864Y-59719500D01*
X34358129Y-59719500D01*
X34358123Y-59719501D01*
X34298516Y-59725908D01*
X34163671Y-59776202D01*
X34163664Y-59776206D01*
X34048455Y-59862452D01*
X34048452Y-59862455D01*
X33962206Y-59977664D01*
X33962202Y-59977671D01*
X33911908Y-60112517D01*
X33905501Y-60172116D01*
X33905501Y-60172123D01*
X33905500Y-60172135D01*
X33905500Y-61967870D01*
X27054718Y-61967870D01*
X30448772Y-58573819D01*
X30510095Y-58540334D01*
X30536453Y-58537500D01*
X33459252Y-58537500D01*
X33526291Y-58557185D01*
X33551400Y-58578526D01*
X33557126Y-58584885D01*
X33557130Y-58584889D01*
X33710265Y-58696148D01*
X33710270Y-58696151D01*
X33883192Y-58773142D01*
X33883197Y-58773144D01*
X34068354Y-58812500D01*
X34068355Y-58812500D01*
X34257644Y-58812500D01*
X34257646Y-58812500D01*
X34442803Y-58773144D01*
X34615730Y-58696151D01*
X34768871Y-58584888D01*
X34895533Y-58444216D01*
X34990179Y-58280284D01*
X35048674Y-58100256D01*
X35068460Y-57912000D01*
X35048674Y-57723744D01*
X34990179Y-57543716D01*
X34895533Y-57379784D01*
X34768871Y-57239112D01*
X34768870Y-57239111D01*
X34615734Y-57127851D01*
X34615729Y-57127848D01*
X34442807Y-57050857D01*
X34442802Y-57050855D01*
X34297001Y-57019865D01*
X34257646Y-57011500D01*
X34068354Y-57011500D01*
X34035897Y-57018398D01*
X33883197Y-57050855D01*
X33883192Y-57050857D01*
X33710270Y-57127848D01*
X33710265Y-57127851D01*
X33557130Y-57239110D01*
X33557126Y-57239114D01*
X33551400Y-57245474D01*
X33491913Y-57282121D01*
X33459252Y-57286500D01*
X30308737Y-57286500D01*
X30293120Y-57284776D01*
X30293093Y-57285062D01*
X30285331Y-57284327D01*
X30218144Y-57286439D01*
X30214250Y-57286500D01*
X30186650Y-57286500D01*
X30182962Y-57286965D01*
X30182649Y-57287005D01*
X30171031Y-57287918D01*
X30127372Y-57289290D01*
X30127369Y-57289291D01*
X30108126Y-57294881D01*
X30089083Y-57298825D01*
X30069204Y-57301336D01*
X30069203Y-57301337D01*
X30028593Y-57317415D01*
X30017545Y-57321198D01*
X29990596Y-57329028D01*
X29920727Y-57328830D01*
X29862056Y-57290889D01*
X29833212Y-57227251D01*
X29843351Y-57158121D01*
X29868314Y-57122275D01*
X31845772Y-55144819D01*
X31907095Y-55111334D01*
X31933453Y-55108500D01*
X33078252Y-55108500D01*
X33145291Y-55128185D01*
X33170400Y-55149526D01*
X33176126Y-55155885D01*
X33176130Y-55155889D01*
X33329265Y-55267148D01*
X33329270Y-55267151D01*
X33502192Y-55344142D01*
X33502197Y-55344144D01*
X33687354Y-55383500D01*
X33687355Y-55383500D01*
X33876644Y-55383500D01*
X33876646Y-55383500D01*
X34061803Y-55344144D01*
X34234730Y-55267151D01*
X34387871Y-55155888D01*
X34514533Y-55015216D01*
X34609179Y-54851284D01*
X34667674Y-54671256D01*
X34687460Y-54483000D01*
X34667674Y-54294744D01*
X34609179Y-54114716D01*
X34514533Y-53950784D01*
X34387871Y-53810112D01*
X34380582Y-53804816D01*
X34337918Y-53749487D01*
X34331940Y-53679873D01*
X34364547Y-53618079D01*
X34425386Y-53583722D01*
X34453470Y-53580500D01*
X37685994Y-53580500D01*
X37753033Y-53600185D01*
X37773675Y-53616819D01*
X41252181Y-57095325D01*
X41285666Y-57156648D01*
X41288500Y-57183006D01*
X41288500Y-68031378D01*
X41288091Y-68041442D01*
X41283660Y-68095845D01*
X41294688Y-68176790D01*
X41295096Y-68180120D01*
X41303927Y-68261316D01*
X41303929Y-68261327D01*
X41303990Y-68261506D01*
X41309340Y-68284331D01*
X41309366Y-68284525D01*
X41309369Y-68284537D01*
X41337540Y-68361219D01*
X41338655Y-68364385D01*
X41364731Y-68441776D01*
X41364734Y-68441782D01*
X41364832Y-68441945D01*
X41374969Y-68463099D01*
X41375036Y-68463283D01*
X41375040Y-68463290D01*
X41419046Y-68532139D01*
X41420809Y-68534981D01*
X41425099Y-68542111D01*
X41462912Y-68604955D01*
X41463042Y-68605092D01*
X41477492Y-68623575D01*
X41477600Y-68623744D01*
X41535395Y-68681539D01*
X41537702Y-68683910D01*
X41593866Y-68743203D01*
X41593868Y-68743204D01*
X41593871Y-68743207D01*
X41594028Y-68743314D01*
X41612121Y-68758265D01*
X43415579Y-70561723D01*
X43435285Y-70587404D01*
X43463465Y-70636214D01*
X43590129Y-70776888D01*
X43743265Y-70888148D01*
X43743270Y-70888151D01*
X43916192Y-70965142D01*
X43916197Y-70965144D01*
X44101354Y-71004500D01*
X44101355Y-71004500D01*
X44290644Y-71004500D01*
X44290646Y-71004500D01*
X44475803Y-70965144D01*
X44648730Y-70888151D01*
X44801871Y-70776888D01*
X44928533Y-70636216D01*
X45023179Y-70472284D01*
X45081674Y-70292256D01*
X45101460Y-70104000D01*
X45081674Y-69915744D01*
X45023179Y-69735716D01*
X44928533Y-69571784D01*
X44801871Y-69431112D01*
X44763530Y-69403256D01*
X44661243Y-69328940D01*
X44646447Y-69316303D01*
X43075819Y-67745675D01*
X43042334Y-67684352D01*
X43039500Y-67657994D01*
X43039500Y-56809629D01*
X43039909Y-56799564D01*
X43044340Y-56745152D01*
X43033302Y-56664145D01*
X43032899Y-56660849D01*
X43024073Y-56579685D01*
X43024015Y-56579513D01*
X43018656Y-56556649D01*
X43018631Y-56556463D01*
X42990462Y-56479790D01*
X42989346Y-56476620D01*
X42963269Y-56399223D01*
X42963266Y-56399218D01*
X42963172Y-56399061D01*
X42953025Y-56377887D01*
X42952960Y-56377710D01*
X42908959Y-56308871D01*
X42907188Y-56306016D01*
X42865091Y-56236049D01*
X42865090Y-56236048D01*
X42865089Y-56236046D01*
X42864955Y-56235904D01*
X42850504Y-56217419D01*
X42850400Y-56217256D01*
X42792658Y-56159514D01*
X42790316Y-56157109D01*
X42789939Y-56156711D01*
X42734129Y-56097793D01*
X42733970Y-56097685D01*
X42715877Y-56082733D01*
X38747793Y-52114649D01*
X38740979Y-52107258D01*
X38705631Y-52065643D01*
X38705630Y-52065642D01*
X38640607Y-52016213D01*
X38637961Y-52014144D01*
X38574302Y-51962973D01*
X38574294Y-51962968D01*
X38574120Y-51962882D01*
X38554182Y-51950514D01*
X38554029Y-51950398D01*
X38479897Y-51916100D01*
X38476872Y-51914650D01*
X38403700Y-51878362D01*
X38403696Y-51878360D01*
X38403693Y-51878359D01*
X38403687Y-51878357D01*
X38403680Y-51878355D01*
X38403488Y-51878307D01*
X38381385Y-51870525D01*
X38381198Y-51870438D01*
X38381195Y-51870437D01*
X38301412Y-51852875D01*
X38298145Y-51852109D01*
X38218887Y-51832399D01*
X38218689Y-51832394D01*
X38195413Y-51829543D01*
X38195222Y-51829501D01*
X38195219Y-51829500D01*
X38195216Y-51829500D01*
X38195212Y-51829500D01*
X38113537Y-51829500D01*
X38110179Y-51829455D01*
X38028527Y-51827243D01*
X38028345Y-51827278D01*
X38004977Y-51829500D01*
X21307294Y-51829500D01*
X21281513Y-51826790D01*
X21176646Y-51804500D01*
X20987354Y-51804500D01*
X20954897Y-51811398D01*
X20802197Y-51843855D01*
X20802192Y-51843857D01*
X20629270Y-51920848D01*
X20629265Y-51920851D01*
X20476129Y-52032111D01*
X20349466Y-52172785D01*
X20254821Y-52336715D01*
X20254818Y-52336722D01*
X20196327Y-52516740D01*
X20196326Y-52516744D01*
X20176540Y-52705000D01*
X18913500Y-52705000D01*
X18913500Y-48858999D01*
X25194377Y-48858999D01*
X25194378Y-48859000D01*
X26597272Y-48859000D01*
X26574900Y-48906543D01*
X26544127Y-49067862D01*
X26554439Y-49231766D01*
X26595780Y-49359000D01*
X25195161Y-49359000D01*
X25231536Y-49527782D01*
X25231537Y-49527785D01*
X25321978Y-49752856D01*
X25449161Y-49959415D01*
X25609422Y-50141507D01*
X25609426Y-50141511D01*
X25798144Y-50293890D01*
X25798150Y-50293894D01*
X26009917Y-50412194D01*
X26238629Y-50493003D01*
X26238637Y-50493005D01*
X26477706Y-50533999D01*
X26477715Y-50534000D01*
X26948000Y-50534000D01*
X26948000Y-49713310D01*
X26956817Y-49718158D01*
X27115886Y-49759000D01*
X27238894Y-49759000D01*
X27360933Y-49743583D01*
X27448000Y-49709110D01*
X27448000Y-50534000D01*
X27857533Y-50534000D01*
X27857550Y-50533999D01*
X28038692Y-50518582D01*
X28273440Y-50457458D01*
X28494472Y-50357546D01*
X28494480Y-50357541D01*
X28695450Y-50221708D01*
X28695453Y-50221706D01*
X28870575Y-50053864D01*
X28870576Y-50053863D01*
X29014813Y-49858843D01*
X29124021Y-49642242D01*
X29195053Y-49410299D01*
X29201622Y-49359000D01*
X27798728Y-49359000D01*
X27821100Y-49311457D01*
X27851873Y-49150138D01*
X27841561Y-48986234D01*
X27800220Y-48859000D01*
X29200839Y-48859000D01*
X29164463Y-48690217D01*
X29164462Y-48690214D01*
X29074021Y-48465143D01*
X28946838Y-48258584D01*
X28786577Y-48076492D01*
X28786573Y-48076488D01*
X28699275Y-48006000D01*
X32876540Y-48006000D01*
X32896326Y-48194256D01*
X32896327Y-48194259D01*
X32954818Y-48374277D01*
X32954821Y-48374284D01*
X33049467Y-48538216D01*
X33133375Y-48631405D01*
X33176129Y-48678888D01*
X33329265Y-48790148D01*
X33329270Y-48790151D01*
X33502192Y-48867142D01*
X33502197Y-48867144D01*
X33687354Y-48906500D01*
X33687355Y-48906500D01*
X33876644Y-48906500D01*
X33876646Y-48906500D01*
X34061803Y-48867144D01*
X34080097Y-48858999D01*
X37694377Y-48858999D01*
X37694378Y-48859000D01*
X39097272Y-48859000D01*
X39074900Y-48906543D01*
X39044127Y-49067862D01*
X39054439Y-49231766D01*
X39095780Y-49359000D01*
X37695161Y-49359000D01*
X37731536Y-49527782D01*
X37731537Y-49527785D01*
X37821978Y-49752856D01*
X37949161Y-49959415D01*
X38109422Y-50141507D01*
X38109426Y-50141511D01*
X38298144Y-50293890D01*
X38298150Y-50293894D01*
X38509917Y-50412194D01*
X38738629Y-50493003D01*
X38738637Y-50493005D01*
X38977706Y-50533999D01*
X38977715Y-50534000D01*
X39448000Y-50534000D01*
X39448000Y-49713310D01*
X39456817Y-49718158D01*
X39615886Y-49759000D01*
X39738894Y-49759000D01*
X39860933Y-49743583D01*
X39948000Y-49709110D01*
X39948000Y-50534000D01*
X40357533Y-50534000D01*
X40357550Y-50533999D01*
X40538692Y-50518582D01*
X40773440Y-50457458D01*
X40994472Y-50357546D01*
X40994480Y-50357541D01*
X41195450Y-50221708D01*
X41195453Y-50221706D01*
X41370575Y-50053864D01*
X41370576Y-50053863D01*
X41514813Y-49858843D01*
X41624021Y-49642242D01*
X41695053Y-49410299D01*
X41701622Y-49359000D01*
X40298728Y-49359000D01*
X40321100Y-49311457D01*
X40351873Y-49150138D01*
X40341561Y-48986234D01*
X40300220Y-48859000D01*
X41700839Y-48859000D01*
X41664463Y-48690217D01*
X41664462Y-48690214D01*
X41574021Y-48465143D01*
X41446838Y-48258584D01*
X41286577Y-48076492D01*
X41286573Y-48076488D01*
X41097855Y-47924109D01*
X41097849Y-47924105D01*
X40886082Y-47805805D01*
X40657370Y-47724996D01*
X40657362Y-47724994D01*
X40418293Y-47684000D01*
X39948000Y-47684000D01*
X39948000Y-48504689D01*
X39939183Y-48499842D01*
X39780114Y-48459000D01*
X39657106Y-48459000D01*
X39535067Y-48474417D01*
X39448000Y-48508889D01*
X39448000Y-47684000D01*
X39038449Y-47684000D01*
X38857307Y-47699417D01*
X38622559Y-47760541D01*
X38401527Y-47860453D01*
X38401519Y-47860458D01*
X38200549Y-47996291D01*
X38200546Y-47996293D01*
X38025424Y-48164135D01*
X38025423Y-48164136D01*
X37881186Y-48359156D01*
X37771978Y-48575757D01*
X37700946Y-48807700D01*
X37694377Y-48858999D01*
X34080097Y-48858999D01*
X34234730Y-48790151D01*
X34387871Y-48678888D01*
X34514533Y-48538216D01*
X34609179Y-48374284D01*
X34667674Y-48194256D01*
X34685321Y-48026345D01*
X34711905Y-47961732D01*
X34720952Y-47951636D01*
X37747888Y-44924701D01*
X37809209Y-44891218D01*
X37878901Y-44896202D01*
X37934834Y-44938074D01*
X37941156Y-44947368D01*
X37948758Y-44959714D01*
X38109075Y-45141869D01*
X38109079Y-45141873D01*
X38297870Y-45294311D01*
X38509709Y-45412652D01*
X38509712Y-45412653D01*
X38738507Y-45493491D01*
X38738513Y-45493492D01*
X38977662Y-45534499D01*
X38977670Y-45534499D01*
X38977672Y-45534500D01*
X38977673Y-45534500D01*
X40357553Y-45534500D01*
X40357554Y-45534500D01*
X40357555Y-45534499D01*
X40357572Y-45534499D01*
X40538775Y-45519076D01*
X40538775Y-45519075D01*
X40538782Y-45519075D01*
X40773608Y-45457931D01*
X40773611Y-45457930D01*
X40994713Y-45357986D01*
X40994716Y-45357983D01*
X40994723Y-45357981D01*
X41195765Y-45222100D01*
X41370952Y-45054197D01*
X41515244Y-44859102D01*
X41624488Y-44642429D01*
X41695543Y-44410409D01*
X41726365Y-44169719D01*
X41716066Y-43927281D01*
X41664944Y-43690072D01*
X41574468Y-43464914D01*
X41447242Y-43258286D01*
X41286925Y-43076131D01*
X41286924Y-43076130D01*
X41286920Y-43076126D01*
X41098129Y-42923688D01*
X40886290Y-42805347D01*
X40657500Y-42724511D01*
X40657486Y-42724507D01*
X40418337Y-42683500D01*
X40418328Y-42683500D01*
X39038446Y-42683500D01*
X39038427Y-42683500D01*
X38857224Y-42698923D01*
X38857222Y-42698924D01*
X38622391Y-42760068D01*
X38622388Y-42760069D01*
X38401286Y-42860013D01*
X38401274Y-42860020D01*
X38200234Y-42995900D01*
X38200232Y-42995902D01*
X38025047Y-43163803D01*
X38025046Y-43163804D01*
X37880758Y-43358893D01*
X37853468Y-43413019D01*
X37805709Y-43464017D01*
X37746065Y-43479056D01*
X37746129Y-43481083D01*
X37671144Y-43483439D01*
X37667250Y-43483500D01*
X37639650Y-43483500D01*
X37635962Y-43483965D01*
X37635649Y-43484005D01*
X37624031Y-43484918D01*
X37580373Y-43486290D01*
X37580372Y-43486290D01*
X37561129Y-43491881D01*
X37542079Y-43495825D01*
X37522211Y-43498334D01*
X37522210Y-43498335D01*
X37481600Y-43514413D01*
X37470553Y-43518195D01*
X37428610Y-43530381D01*
X37428609Y-43530382D01*
X37411367Y-43540579D01*
X37393899Y-43549137D01*
X37375269Y-43556513D01*
X37375266Y-43556515D01*
X37339939Y-43582181D01*
X37330180Y-43588592D01*
X37292579Y-43610830D01*
X37278408Y-43625000D01*
X37263623Y-43637628D01*
X37247412Y-43649407D01*
X37219571Y-43683059D01*
X37211711Y-43691696D01*
X33834228Y-47069181D01*
X33772905Y-47102666D01*
X33746547Y-47105500D01*
X33687354Y-47105500D01*
X33654897Y-47112398D01*
X33502197Y-47144855D01*
X33502192Y-47144857D01*
X33329270Y-47221848D01*
X33329265Y-47221851D01*
X33176129Y-47333111D01*
X33049466Y-47473785D01*
X32954821Y-47637715D01*
X32954818Y-47637722D01*
X32914912Y-47760541D01*
X32896326Y-47817744D01*
X32876540Y-48006000D01*
X28699275Y-48006000D01*
X28597855Y-47924109D01*
X28597849Y-47924105D01*
X28386082Y-47805805D01*
X28157370Y-47724996D01*
X28157362Y-47724994D01*
X27918293Y-47684000D01*
X27448000Y-47684000D01*
X27448000Y-48504689D01*
X27439183Y-48499842D01*
X27280114Y-48459000D01*
X27157106Y-48459000D01*
X27035067Y-48474417D01*
X26948000Y-48508889D01*
X26948000Y-47684000D01*
X26538449Y-47684000D01*
X26357307Y-47699417D01*
X26122559Y-47760541D01*
X25901527Y-47860453D01*
X25901519Y-47860458D01*
X25700549Y-47996291D01*
X25700546Y-47996293D01*
X25525424Y-48164135D01*
X25525423Y-48164136D01*
X25381186Y-48359156D01*
X25271978Y-48575757D01*
X25200946Y-48807700D01*
X25194377Y-48858999D01*
X18913500Y-48858999D01*
X18913500Y-44048281D01*
X25169635Y-44048281D01*
X25179933Y-44290715D01*
X25179933Y-44290719D01*
X25231056Y-44527929D01*
X25231057Y-44527932D01*
X25321530Y-44753082D01*
X25448757Y-44959713D01*
X25609075Y-45141869D01*
X25609079Y-45141873D01*
X25797870Y-45294311D01*
X26009709Y-45412652D01*
X26009712Y-45412653D01*
X26238507Y-45493491D01*
X26238513Y-45493492D01*
X26477662Y-45534499D01*
X26477670Y-45534499D01*
X26477672Y-45534500D01*
X26477673Y-45534500D01*
X27857553Y-45534500D01*
X27857554Y-45534500D01*
X27857555Y-45534499D01*
X27857572Y-45534499D01*
X28038775Y-45519076D01*
X28038775Y-45519075D01*
X28038782Y-45519075D01*
X28273608Y-45457931D01*
X28273611Y-45457930D01*
X28494713Y-45357986D01*
X28494716Y-45357983D01*
X28494723Y-45357981D01*
X28695765Y-45222100D01*
X28870952Y-45054197D01*
X29015244Y-44859102D01*
X29124488Y-44642429D01*
X29195543Y-44410409D01*
X29226365Y-44169719D01*
X29216066Y-43927281D01*
X29164944Y-43690072D01*
X29074468Y-43464914D01*
X28947242Y-43258286D01*
X28786925Y-43076131D01*
X28786924Y-43076130D01*
X28786920Y-43076126D01*
X28598129Y-42923688D01*
X28386290Y-42805347D01*
X28157500Y-42724511D01*
X28157486Y-42724507D01*
X27918337Y-42683500D01*
X27918328Y-42683500D01*
X26538446Y-42683500D01*
X26538427Y-42683500D01*
X26357224Y-42698923D01*
X26357222Y-42698924D01*
X26122391Y-42760068D01*
X26122388Y-42760069D01*
X25901286Y-42860013D01*
X25901274Y-42860020D01*
X25700234Y-42995900D01*
X25700232Y-42995902D01*
X25525047Y-43163803D01*
X25525046Y-43163804D01*
X25380758Y-43358893D01*
X25271515Y-43575565D01*
X25271512Y-43575571D01*
X25200456Y-43807594D01*
X25169635Y-44048281D01*
X18913500Y-44048281D01*
X18913500Y-42096742D01*
X18915224Y-42081122D01*
X18914939Y-42081095D01*
X18915673Y-42073333D01*
X18913561Y-42006112D01*
X18913500Y-42002218D01*
X18913500Y-41974656D01*
X18913500Y-41974650D01*
X18912996Y-41970668D01*
X18912081Y-41959029D01*
X18911750Y-41948484D01*
X18910710Y-41915373D01*
X18905119Y-41896130D01*
X18901173Y-41877078D01*
X18898664Y-41857208D01*
X18882579Y-41816583D01*
X18878806Y-41805562D01*
X18866618Y-41763610D01*
X18866617Y-41763609D01*
X18866617Y-41763607D01*
X18866616Y-41763606D01*
X18856423Y-41746371D01*
X18847861Y-41728894D01*
X18840487Y-41710269D01*
X18814816Y-41674937D01*
X18808405Y-41665177D01*
X18786170Y-41627580D01*
X18786168Y-41627578D01*
X18786165Y-41627574D01*
X18772006Y-41613415D01*
X18759368Y-41598619D01*
X18747594Y-41582413D01*
X18713940Y-41554572D01*
X18705299Y-41546709D01*
X17967141Y-40808550D01*
X19998000Y-40808550D01*
X20013417Y-40989692D01*
X20074541Y-41224440D01*
X20174453Y-41445472D01*
X20174458Y-41445480D01*
X20310291Y-41646450D01*
X20310293Y-41646453D01*
X20478135Y-41821575D01*
X20478136Y-41821576D01*
X20673156Y-41965813D01*
X20889757Y-42075021D01*
X21121701Y-42146053D01*
X21121699Y-42146053D01*
X21172999Y-42152622D01*
X21173000Y-42152622D01*
X21173000Y-40753310D01*
X21181817Y-40758158D01*
X21340886Y-40799000D01*
X21463894Y-40799000D01*
X21585933Y-40783583D01*
X21673000Y-40749110D01*
X21673000Y-42151837D01*
X21841781Y-42115463D01*
X21841782Y-42115463D01*
X22066856Y-42025021D01*
X22273415Y-41897838D01*
X22455507Y-41737577D01*
X22455511Y-41737573D01*
X22607890Y-41548855D01*
X22607894Y-41548849D01*
X22726194Y-41337082D01*
X22807003Y-41108370D01*
X22807005Y-41108362D01*
X22847999Y-40869293D01*
X22848000Y-40869285D01*
X22848000Y-40681550D01*
X43827000Y-40681550D01*
X43842417Y-40862692D01*
X43903541Y-41097440D01*
X44003453Y-41318472D01*
X44003458Y-41318480D01*
X44139291Y-41519450D01*
X44139293Y-41519453D01*
X44307135Y-41694575D01*
X44307136Y-41694576D01*
X44502156Y-41838813D01*
X44718757Y-41948021D01*
X44950701Y-42019053D01*
X44950699Y-42019053D01*
X45001999Y-42025622D01*
X45002000Y-42025622D01*
X45002000Y-40626310D01*
X45010817Y-40631158D01*
X45169886Y-40672000D01*
X45292894Y-40672000D01*
X45414933Y-40656583D01*
X45502000Y-40622110D01*
X45502000Y-42024837D01*
X45670781Y-41988463D01*
X45670782Y-41988463D01*
X45895856Y-41898021D01*
X46102415Y-41770838D01*
X46284507Y-41610577D01*
X46284511Y-41610573D01*
X46436890Y-41421855D01*
X46436894Y-41421849D01*
X46555194Y-41210082D01*
X46636003Y-40981370D01*
X46636005Y-40981362D01*
X46676999Y-40742293D01*
X46677000Y-40742285D01*
X46677000Y-40681572D01*
X48826500Y-40681572D01*
X48841923Y-40862775D01*
X48841924Y-40862777D01*
X48841924Y-40862780D01*
X48841925Y-40862782D01*
X48856102Y-40917232D01*
X48903068Y-41097608D01*
X48903069Y-41097611D01*
X49003013Y-41318713D01*
X49003020Y-41318725D01*
X49138687Y-41519450D01*
X49138900Y-41519765D01*
X49242232Y-41627580D01*
X49306803Y-41694952D01*
X49306804Y-41694953D01*
X49501893Y-41839241D01*
X49501895Y-41839242D01*
X49501898Y-41839244D01*
X49718571Y-41948488D01*
X49950591Y-42019543D01*
X50191281Y-42050365D01*
X50433719Y-42040066D01*
X50670928Y-41988944D01*
X50896086Y-41898468D01*
X51102714Y-41771242D01*
X51284869Y-41610925D01*
X51437311Y-41422130D01*
X51555653Y-41210288D01*
X51636491Y-40981493D01*
X51656847Y-40862775D01*
X51677499Y-40742337D01*
X51677500Y-40742326D01*
X51677500Y-39362446D01*
X51677499Y-39362427D01*
X51662076Y-39181224D01*
X51662075Y-39181222D01*
X51662075Y-39181218D01*
X51604659Y-38960709D01*
X51600931Y-38946391D01*
X51600930Y-38946388D01*
X51500986Y-38725286D01*
X51500979Y-38725274D01*
X51450937Y-38651235D01*
X51365100Y-38524235D01*
X51197197Y-38349048D01*
X51197196Y-38349047D01*
X51197195Y-38349046D01*
X51002106Y-38204758D01*
X50897359Y-38151946D01*
X50785429Y-38095512D01*
X50553409Y-38024457D01*
X50553407Y-38024456D01*
X50553405Y-38024456D01*
X50312713Y-37993634D01*
X50070284Y-38003933D01*
X50070280Y-38003933D01*
X49833070Y-38055056D01*
X49833067Y-38055057D01*
X49607917Y-38145530D01*
X49401286Y-38272757D01*
X49219130Y-38433075D01*
X49219126Y-38433079D01*
X49066688Y-38621870D01*
X48948347Y-38833709D01*
X48867511Y-39062499D01*
X48867507Y-39062513D01*
X48826500Y-39301662D01*
X48826500Y-40681572D01*
X46677000Y-40681572D01*
X46677000Y-40272000D01*
X45852728Y-40272000D01*
X45875100Y-40224457D01*
X45905873Y-40063138D01*
X45895561Y-39899234D01*
X45854220Y-39772000D01*
X46677000Y-39772000D01*
X46677000Y-39362467D01*
X46676999Y-39362449D01*
X46661582Y-39181307D01*
X46600458Y-38946559D01*
X46500546Y-38725527D01*
X46500541Y-38725519D01*
X46364708Y-38524549D01*
X46364706Y-38524546D01*
X46196864Y-38349424D01*
X46196863Y-38349423D01*
X46001843Y-38205186D01*
X45785242Y-38095978D01*
X45553304Y-38024947D01*
X45553297Y-38024946D01*
X45502000Y-38018376D01*
X45502000Y-39417689D01*
X45493183Y-39412842D01*
X45334114Y-39372000D01*
X45211106Y-39372000D01*
X45089067Y-39387417D01*
X45002000Y-39421889D01*
X45002000Y-38019161D01*
X44833217Y-38055536D01*
X44833214Y-38055537D01*
X44608143Y-38145978D01*
X44401584Y-38273161D01*
X44219492Y-38433422D01*
X44219488Y-38433426D01*
X44067109Y-38622144D01*
X44067105Y-38622150D01*
X43948805Y-38833917D01*
X43867996Y-39062629D01*
X43867994Y-39062637D01*
X43827000Y-39301706D01*
X43827000Y-39772000D01*
X44651272Y-39772000D01*
X44628900Y-39819543D01*
X44598127Y-39980862D01*
X44608439Y-40144766D01*
X44649780Y-40272000D01*
X43827000Y-40272000D01*
X43827000Y-40681550D01*
X22848000Y-40681550D01*
X22848000Y-40399000D01*
X22023728Y-40399000D01*
X22046100Y-40351457D01*
X22076873Y-40190138D01*
X22066561Y-40026234D01*
X22025220Y-39899000D01*
X22848000Y-39899000D01*
X22848000Y-39489467D01*
X22847999Y-39489449D01*
X22832582Y-39308307D01*
X22771458Y-39073559D01*
X22671546Y-38852527D01*
X22671541Y-38852519D01*
X22535708Y-38651549D01*
X22535706Y-38651546D01*
X22367864Y-38476424D01*
X22367863Y-38476423D01*
X22172843Y-38332186D01*
X21956242Y-38222978D01*
X21724304Y-38151947D01*
X21724297Y-38151946D01*
X21673000Y-38145376D01*
X21673000Y-39544689D01*
X21664183Y-39539842D01*
X21505114Y-39499000D01*
X21382106Y-39499000D01*
X21260067Y-39514417D01*
X21173000Y-39548889D01*
X21173000Y-38146161D01*
X21004217Y-38182536D01*
X21004214Y-38182537D01*
X20779143Y-38272978D01*
X20572584Y-38400161D01*
X20390492Y-38560422D01*
X20390488Y-38560426D01*
X20238109Y-38749144D01*
X20238105Y-38749150D01*
X20119805Y-38960917D01*
X20038996Y-39189629D01*
X20038994Y-39189637D01*
X19998000Y-39428706D01*
X19998000Y-39899000D01*
X20822272Y-39899000D01*
X20799900Y-39946543D01*
X20769127Y-40107862D01*
X20779439Y-40271766D01*
X20820780Y-40399000D01*
X19998000Y-40399000D01*
X19998000Y-40808550D01*
X17967141Y-40808550D01*
X17884819Y-40726228D01*
X17851334Y-40664905D01*
X17848500Y-40638547D01*
X17848500Y-39489446D01*
X17848499Y-39489427D01*
X17833076Y-39308224D01*
X17833075Y-39308222D01*
X17833075Y-39308218D01*
X17777869Y-39096196D01*
X17771931Y-39073391D01*
X17771930Y-39073388D01*
X17671986Y-38852286D01*
X17671979Y-38852274D01*
X17555971Y-38680635D01*
X17536100Y-38651235D01*
X17368197Y-38476048D01*
X17368196Y-38476047D01*
X17368195Y-38476046D01*
X17173106Y-38331758D01*
X17165784Y-38328066D01*
X16956429Y-38222512D01*
X16724409Y-38151457D01*
X16724407Y-38151456D01*
X16724405Y-38151456D01*
X16483713Y-38120634D01*
X16241284Y-38130933D01*
X16241280Y-38130933D01*
X16004070Y-38182056D01*
X16004067Y-38182057D01*
X15778917Y-38272530D01*
X15572286Y-38399757D01*
X15390130Y-38560075D01*
X15390126Y-38560079D01*
X15237688Y-38748870D01*
X15119347Y-38960709D01*
X15038511Y-39189499D01*
X15038507Y-39189513D01*
X14997500Y-39428662D01*
X14997500Y-40808572D01*
X15012923Y-40989775D01*
X15012924Y-40989777D01*
X15074068Y-41224608D01*
X15074069Y-41224611D01*
X15174013Y-41445713D01*
X15174020Y-41445725D01*
X15277359Y-41598619D01*
X15309900Y-41646765D01*
X15356084Y-41694953D01*
X15477803Y-41821952D01*
X15477804Y-41821953D01*
X15672893Y-41966241D01*
X15672895Y-41966242D01*
X15672898Y-41966244D01*
X15889571Y-42075488D01*
X16121591Y-42146543D01*
X16362281Y-42177365D01*
X16604719Y-42167066D01*
X16841928Y-42115944D01*
X17067086Y-42025468D01*
X17198921Y-41944293D01*
X17266324Y-41925907D01*
X17332971Y-41946881D01*
X17351613Y-41962203D01*
X17626181Y-42236771D01*
X17659666Y-42298094D01*
X17662500Y-42324452D01*
X17662500Y-71691312D01*
X17642815Y-71758351D01*
X17630650Y-71774284D01*
X17555466Y-71857784D01*
X17460821Y-72021715D01*
X17460818Y-72021722D01*
X17405250Y-72192744D01*
X17402326Y-72201744D01*
X17382540Y-72390000D01*
X17402326Y-72578256D01*
X17402327Y-72578259D01*
X17460818Y-72758277D01*
X17460821Y-72758284D01*
X17555467Y-72922216D01*
X17674025Y-73053888D01*
X17682129Y-73062888D01*
X17835265Y-73174148D01*
X17835270Y-73174151D01*
X18008191Y-73251142D01*
X18008193Y-73251142D01*
X18008197Y-73251144D01*
X18146913Y-73280628D01*
X18208390Y-73313819D01*
X18242167Y-73374981D01*
X18237515Y-73444696D01*
X18208809Y-73489598D01*
X16756476Y-74941931D01*
X16695153Y-74975416D01*
X16655544Y-74977539D01*
X16645873Y-74976500D01*
X16645867Y-74976500D01*
X14850129Y-74976500D01*
X14850123Y-74976501D01*
X14790516Y-74982908D01*
X14655671Y-75033202D01*
X14655664Y-75033206D01*
X14540455Y-75119452D01*
X14540452Y-75119455D01*
X14454206Y-75234664D01*
X14454202Y-75234671D01*
X14403908Y-75369517D01*
X14397501Y-75429116D01*
X14397500Y-75429135D01*
X14397500Y-77224870D01*
X12065000Y-77224870D01*
X12065000Y-72894010D01*
X12084685Y-72826971D01*
X12137489Y-72781216D01*
X12206647Y-72771272D01*
X12270203Y-72800297D01*
X12296385Y-72832007D01*
X12343270Y-72913214D01*
X12348467Y-72922216D01*
X12475129Y-73062888D01*
X12628265Y-73174148D01*
X12628270Y-73174151D01*
X12801192Y-73251142D01*
X12801197Y-73251144D01*
X12986354Y-73290500D01*
X12986355Y-73290500D01*
X13175644Y-73290500D01*
X13175646Y-73290500D01*
X13360803Y-73251144D01*
X13533730Y-73174151D01*
X13686871Y-73062888D01*
X13813533Y-72922216D01*
X13908179Y-72758284D01*
X13966674Y-72578256D01*
X13984170Y-72411782D01*
X13993132Y-72390000D01*
X14715540Y-72390000D01*
X14735326Y-72578256D01*
X14735327Y-72578259D01*
X14793818Y-72758277D01*
X14793821Y-72758284D01*
X14888467Y-72922216D01*
X15007025Y-73053888D01*
X15015129Y-73062888D01*
X15168265Y-73174148D01*
X15168270Y-73174151D01*
X15341192Y-73251142D01*
X15341197Y-73251144D01*
X15526354Y-73290500D01*
X15526355Y-73290500D01*
X15715644Y-73290500D01*
X15715646Y-73290500D01*
X15900803Y-73251144D01*
X16073730Y-73174151D01*
X16226871Y-73062888D01*
X16353533Y-72922216D01*
X16448179Y-72758284D01*
X16506674Y-72578256D01*
X16526460Y-72390000D01*
X16506674Y-72201744D01*
X16448179Y-72021716D01*
X16448178Y-72021714D01*
X16444110Y-72014667D01*
X16427500Y-71952672D01*
X16427500Y-46968115D01*
X16447185Y-46901076D01*
X16478610Y-46867801D01*
X16607871Y-46773888D01*
X16734533Y-46633216D01*
X16829179Y-46469284D01*
X16887674Y-46289256D01*
X16907460Y-46101000D01*
X16887674Y-45912744D01*
X16829179Y-45732716D01*
X16734533Y-45568784D01*
X16607871Y-45428112D01*
X16607870Y-45428111D01*
X16454734Y-45316851D01*
X16454729Y-45316848D01*
X16281807Y-45239857D01*
X16281802Y-45239855D01*
X16136001Y-45208865D01*
X16096646Y-45200500D01*
X15907354Y-45200500D01*
X15874897Y-45207398D01*
X15722197Y-45239855D01*
X15722192Y-45239857D01*
X15549270Y-45316848D01*
X15549265Y-45316851D01*
X15396129Y-45428111D01*
X15269466Y-45568785D01*
X15174821Y-45732715D01*
X15174818Y-45732722D01*
X15116327Y-45912740D01*
X15116326Y-45912744D01*
X15096540Y-46101000D01*
X15116326Y-46289256D01*
X15116327Y-46289259D01*
X15170431Y-46455773D01*
X15176500Y-46494091D01*
X15176500Y-71536687D01*
X15156815Y-71603726D01*
X15125386Y-71637005D01*
X15015127Y-71717113D01*
X14888466Y-71857785D01*
X14793821Y-72021715D01*
X14793818Y-72021722D01*
X14738250Y-72192744D01*
X14735326Y-72201744D01*
X14715540Y-72390000D01*
X13993132Y-72390000D01*
X14010754Y-72347169D01*
X14017097Y-72339864D01*
X14036920Y-72318754D01*
X14039566Y-72316023D01*
X14059120Y-72296471D01*
X14061576Y-72293303D01*
X14069156Y-72284427D01*
X14099062Y-72252582D01*
X14108713Y-72235024D01*
X14119396Y-72218761D01*
X14131673Y-72202936D01*
X14149021Y-72162844D01*
X14154151Y-72152371D01*
X14175197Y-72114092D01*
X14180180Y-72094680D01*
X14186481Y-72076280D01*
X14194437Y-72057896D01*
X14201270Y-72014748D01*
X14203633Y-72003338D01*
X14214500Y-71961019D01*
X14214500Y-71940983D01*
X14216027Y-71921582D01*
X14219160Y-71901804D01*
X14215049Y-71858327D01*
X14214500Y-71846658D01*
X14214500Y-39426451D01*
X14234185Y-39359412D01*
X14250814Y-39338775D01*
X17291589Y-36297999D01*
X25194377Y-36297999D01*
X25194378Y-36298000D01*
X26597272Y-36298000D01*
X26574900Y-36345543D01*
X26544127Y-36506862D01*
X26554439Y-36670766D01*
X26595780Y-36798000D01*
X25195161Y-36798000D01*
X25231536Y-36966782D01*
X25231537Y-36966785D01*
X25321978Y-37191856D01*
X25449161Y-37398415D01*
X25609422Y-37580507D01*
X25609426Y-37580511D01*
X25798144Y-37732890D01*
X25798150Y-37732894D01*
X26009917Y-37851194D01*
X26238629Y-37932003D01*
X26238637Y-37932005D01*
X26477706Y-37972999D01*
X26477715Y-37973000D01*
X26948000Y-37973000D01*
X26948000Y-37152310D01*
X26956817Y-37157158D01*
X27115886Y-37198000D01*
X27238894Y-37198000D01*
X27360933Y-37182583D01*
X27448000Y-37148110D01*
X27448000Y-37973000D01*
X27857533Y-37973000D01*
X27857550Y-37972999D01*
X28038692Y-37957582D01*
X28273440Y-37896458D01*
X28494472Y-37796546D01*
X28494480Y-37796541D01*
X28695450Y-37660708D01*
X28695453Y-37660706D01*
X28870575Y-37492864D01*
X28870576Y-37492863D01*
X29014813Y-37297843D01*
X29124021Y-37081242D01*
X29195053Y-36849299D01*
X29201622Y-36798000D01*
X27798728Y-36798000D01*
X27821100Y-36750457D01*
X27851873Y-36589138D01*
X27841561Y-36425234D01*
X27800220Y-36298000D01*
X29200839Y-36298000D01*
X29200839Y-36297999D01*
X37694377Y-36297999D01*
X37694378Y-36298000D01*
X39097272Y-36298000D01*
X39074900Y-36345543D01*
X39044127Y-36506862D01*
X39054439Y-36670766D01*
X39095780Y-36798000D01*
X37695161Y-36798000D01*
X37731536Y-36966782D01*
X37731537Y-36966785D01*
X37821978Y-37191856D01*
X37949161Y-37398415D01*
X38109422Y-37580507D01*
X38109426Y-37580511D01*
X38298144Y-37732890D01*
X38298150Y-37732894D01*
X38509917Y-37851194D01*
X38738629Y-37932003D01*
X38738637Y-37932005D01*
X38977706Y-37972999D01*
X38977715Y-37973000D01*
X39448000Y-37973000D01*
X39448000Y-37152310D01*
X39456817Y-37157158D01*
X39615886Y-37198000D01*
X39738894Y-37198000D01*
X39860933Y-37182583D01*
X39948000Y-37148110D01*
X39948000Y-37973000D01*
X40357533Y-37973000D01*
X40357550Y-37972999D01*
X40538692Y-37957582D01*
X40773440Y-37896458D01*
X40994472Y-37796546D01*
X40994480Y-37796541D01*
X41195450Y-37660708D01*
X41195453Y-37660706D01*
X41370575Y-37492864D01*
X41370576Y-37492863D01*
X41514813Y-37297843D01*
X41624021Y-37081242D01*
X41695053Y-36849299D01*
X41701622Y-36798000D01*
X40298728Y-36798000D01*
X40321100Y-36750457D01*
X40351873Y-36589138D01*
X40341561Y-36425234D01*
X40300220Y-36298000D01*
X41700839Y-36298000D01*
X41664463Y-36129217D01*
X41664462Y-36129214D01*
X41574021Y-35904143D01*
X41446838Y-35697584D01*
X41286577Y-35515492D01*
X41286573Y-35515488D01*
X41097855Y-35363109D01*
X41097849Y-35363105D01*
X40886082Y-35244805D01*
X40657370Y-35163996D01*
X40657362Y-35163994D01*
X40418293Y-35123000D01*
X39948000Y-35123000D01*
X39948000Y-35943689D01*
X39939183Y-35938842D01*
X39780114Y-35898000D01*
X39657106Y-35898000D01*
X39535067Y-35913417D01*
X39448000Y-35947889D01*
X39448000Y-35123000D01*
X39038449Y-35123000D01*
X38857307Y-35138417D01*
X38622559Y-35199541D01*
X38401527Y-35299453D01*
X38401519Y-35299458D01*
X38200549Y-35435291D01*
X38200546Y-35435293D01*
X38025424Y-35603135D01*
X38025423Y-35603136D01*
X37881186Y-35798156D01*
X37771978Y-36014757D01*
X37700946Y-36246700D01*
X37694377Y-36297999D01*
X29200839Y-36297999D01*
X29164463Y-36129217D01*
X29164462Y-36129214D01*
X29074021Y-35904143D01*
X28946838Y-35697584D01*
X28786577Y-35515492D01*
X28786573Y-35515488D01*
X28597855Y-35363109D01*
X28597849Y-35363105D01*
X28386082Y-35244805D01*
X28157370Y-35163996D01*
X28157362Y-35163994D01*
X27918293Y-35123000D01*
X27448000Y-35123000D01*
X27448000Y-35943689D01*
X27439183Y-35938842D01*
X27280114Y-35898000D01*
X27157106Y-35898000D01*
X27035067Y-35913417D01*
X26948000Y-35947889D01*
X26948000Y-35123000D01*
X26538449Y-35123000D01*
X26357307Y-35138417D01*
X26122559Y-35199541D01*
X25901527Y-35299453D01*
X25901519Y-35299458D01*
X25700549Y-35435291D01*
X25700546Y-35435293D01*
X25525424Y-35603135D01*
X25525423Y-35603136D01*
X25381186Y-35798156D01*
X25271978Y-36014757D01*
X25200946Y-36246700D01*
X25194377Y-36297999D01*
X17291589Y-36297999D01*
X18925786Y-34663802D01*
X18938048Y-34653980D01*
X18937865Y-34653759D01*
X18943868Y-34648791D01*
X18943877Y-34648786D01*
X18989934Y-34599739D01*
X18992582Y-34597006D01*
X19012120Y-34577470D01*
X19014570Y-34574310D01*
X19022154Y-34565429D01*
X19052062Y-34533582D01*
X19061714Y-34516023D01*
X19072389Y-34499772D01*
X19084674Y-34483936D01*
X19102030Y-34443825D01*
X19107161Y-34433354D01*
X19128194Y-34395098D01*
X19128194Y-34395097D01*
X19128197Y-34395092D01*
X19133180Y-34375680D01*
X19139477Y-34357291D01*
X19147438Y-34338895D01*
X19154270Y-34295748D01*
X19156639Y-34284316D01*
X19167499Y-34242022D01*
X19167500Y-34242017D01*
X19167500Y-34221983D01*
X19169027Y-34202582D01*
X19172160Y-34182804D01*
X19168050Y-34139324D01*
X19167500Y-34127655D01*
X19167500Y-31487281D01*
X25169635Y-31487281D01*
X25179933Y-31729715D01*
X25179933Y-31729719D01*
X25231056Y-31966929D01*
X25231057Y-31966932D01*
X25321530Y-32192082D01*
X25448757Y-32398713D01*
X25609075Y-32580869D01*
X25609079Y-32580873D01*
X25797870Y-32733311D01*
X26009709Y-32851652D01*
X26009712Y-32851653D01*
X26238507Y-32932491D01*
X26238513Y-32932492D01*
X26477662Y-32973499D01*
X26477670Y-32973499D01*
X26477672Y-32973500D01*
X26477673Y-32973500D01*
X27857553Y-32973500D01*
X27857554Y-32973500D01*
X27857555Y-32973499D01*
X27857572Y-32973499D01*
X28038775Y-32958076D01*
X28038775Y-32958075D01*
X28038782Y-32958075D01*
X28273608Y-32896931D01*
X28273611Y-32896930D01*
X28494713Y-32796986D01*
X28494716Y-32796983D01*
X28494723Y-32796981D01*
X28695765Y-32661100D01*
X28870952Y-32493197D01*
X29015244Y-32298102D01*
X29124488Y-32081429D01*
X29195543Y-31849409D01*
X29226365Y-31608719D01*
X29221206Y-31487281D01*
X37669635Y-31487281D01*
X37679933Y-31729715D01*
X37679933Y-31729719D01*
X37731056Y-31966929D01*
X37731057Y-31966932D01*
X37821530Y-32192082D01*
X37948757Y-32398713D01*
X38109075Y-32580869D01*
X38109079Y-32580873D01*
X38297870Y-32733311D01*
X38509709Y-32851652D01*
X38509712Y-32851653D01*
X38738507Y-32932491D01*
X38738513Y-32932492D01*
X38977662Y-32973499D01*
X38977670Y-32973499D01*
X38977672Y-32973500D01*
X38977673Y-32973500D01*
X40357553Y-32973500D01*
X40357554Y-32973500D01*
X40357555Y-32973499D01*
X40357572Y-32973499D01*
X40538775Y-32958076D01*
X40538775Y-32958075D01*
X40538782Y-32958075D01*
X40773608Y-32896931D01*
X40773611Y-32896930D01*
X40994713Y-32796986D01*
X40994716Y-32796983D01*
X40994723Y-32796981D01*
X41195765Y-32661100D01*
X41370952Y-32493197D01*
X41515244Y-32298102D01*
X41624488Y-32081429D01*
X41695543Y-31849409D01*
X41726365Y-31608719D01*
X41716066Y-31366281D01*
X41664944Y-31129072D01*
X41574468Y-30903914D01*
X41447242Y-30697286D01*
X41286925Y-30515131D01*
X41286924Y-30515130D01*
X41286920Y-30515126D01*
X41098129Y-30362688D01*
X40886290Y-30244347D01*
X40657500Y-30163511D01*
X40657486Y-30163507D01*
X40418337Y-30122500D01*
X40418328Y-30122500D01*
X39038446Y-30122500D01*
X39038427Y-30122500D01*
X38857224Y-30137923D01*
X38857222Y-30137924D01*
X38622391Y-30199068D01*
X38622388Y-30199069D01*
X38401286Y-30299013D01*
X38401274Y-30299020D01*
X38200234Y-30434900D01*
X38200232Y-30434902D01*
X38025047Y-30602803D01*
X38025046Y-30602804D01*
X37880758Y-30797893D01*
X37771515Y-31014565D01*
X37771512Y-31014571D01*
X37700456Y-31246594D01*
X37669635Y-31487281D01*
X29221206Y-31487281D01*
X29216066Y-31366281D01*
X29164944Y-31129072D01*
X29074468Y-30903914D01*
X28947242Y-30697286D01*
X28786925Y-30515131D01*
X28786924Y-30515130D01*
X28786920Y-30515126D01*
X28598129Y-30362688D01*
X28386290Y-30244347D01*
X28157500Y-30163511D01*
X28157486Y-30163507D01*
X27918337Y-30122500D01*
X27918328Y-30122500D01*
X26538446Y-30122500D01*
X26538427Y-30122500D01*
X26357224Y-30137923D01*
X26357222Y-30137924D01*
X26122391Y-30199068D01*
X26122388Y-30199069D01*
X25901286Y-30299013D01*
X25901274Y-30299020D01*
X25700234Y-30434900D01*
X25700232Y-30434902D01*
X25525047Y-30602803D01*
X25525046Y-30602804D01*
X25380758Y-30797893D01*
X25271515Y-31014565D01*
X25271512Y-31014571D01*
X25200456Y-31246594D01*
X25169635Y-31487281D01*
X19167500Y-31487281D01*
X19167500Y-27852452D01*
X19187185Y-27785413D01*
X19203819Y-27764771D01*
X19786319Y-27182271D01*
X19847642Y-27148786D01*
X19917334Y-27153770D01*
X19973267Y-27195642D01*
X19997684Y-27261106D01*
X19998000Y-27269952D01*
X19998000Y-27399000D01*
X20822272Y-27399000D01*
X20799900Y-27446543D01*
X20769127Y-27607862D01*
X20779439Y-27771766D01*
X20820780Y-27899000D01*
X19998000Y-27899000D01*
X19998000Y-28308550D01*
X20013417Y-28489692D01*
X20074541Y-28724440D01*
X20174453Y-28945472D01*
X20174458Y-28945480D01*
X20310291Y-29146450D01*
X20310293Y-29146453D01*
X20478135Y-29321575D01*
X20478136Y-29321576D01*
X20673156Y-29465813D01*
X20889757Y-29575021D01*
X21121701Y-29646053D01*
X21121699Y-29646053D01*
X21172999Y-29652622D01*
X21173000Y-29652622D01*
X21173000Y-28253310D01*
X21181817Y-28258158D01*
X21340886Y-28299000D01*
X21463894Y-28299000D01*
X21585933Y-28283583D01*
X21673000Y-28249110D01*
X21673000Y-29651837D01*
X21841781Y-29615463D01*
X21841782Y-29615463D01*
X22066856Y-29525021D01*
X22273415Y-29397838D01*
X22455507Y-29237577D01*
X22455511Y-29237573D01*
X22607890Y-29048855D01*
X22607894Y-29048849D01*
X22726194Y-28837082D01*
X22807003Y-28608370D01*
X22807005Y-28608362D01*
X22847999Y-28369293D01*
X22848000Y-28369285D01*
X22848000Y-28181550D01*
X43827000Y-28181550D01*
X43842417Y-28362692D01*
X43903541Y-28597440D01*
X44003453Y-28818472D01*
X44003458Y-28818480D01*
X44139291Y-29019450D01*
X44139293Y-29019453D01*
X44307135Y-29194575D01*
X44307136Y-29194576D01*
X44502156Y-29338813D01*
X44718757Y-29448021D01*
X44950701Y-29519053D01*
X44950699Y-29519053D01*
X45001999Y-29525622D01*
X45002000Y-29525622D01*
X45002000Y-28126310D01*
X45010817Y-28131158D01*
X45169886Y-28172000D01*
X45292894Y-28172000D01*
X45414933Y-28156583D01*
X45502000Y-28122110D01*
X45502000Y-29524837D01*
X45670781Y-29488463D01*
X45670782Y-29488463D01*
X45895856Y-29398021D01*
X46102415Y-29270838D01*
X46284507Y-29110577D01*
X46284511Y-29110573D01*
X46436890Y-28921855D01*
X46436894Y-28921849D01*
X46555194Y-28710082D01*
X46636003Y-28481370D01*
X46636005Y-28481362D01*
X46676999Y-28242293D01*
X46677000Y-28242285D01*
X46677000Y-28181572D01*
X48826500Y-28181572D01*
X48841923Y-28362775D01*
X48841924Y-28362777D01*
X48841924Y-28362780D01*
X48841925Y-28362782D01*
X48856102Y-28417232D01*
X48903068Y-28597608D01*
X48903069Y-28597611D01*
X49003013Y-28818713D01*
X49003020Y-28818725D01*
X49107748Y-28973674D01*
X49138900Y-29019765D01*
X49167043Y-29049129D01*
X49306803Y-29194952D01*
X49306804Y-29194953D01*
X49501893Y-29339241D01*
X49501895Y-29339242D01*
X49501898Y-29339244D01*
X49718571Y-29448488D01*
X49950591Y-29519543D01*
X50191281Y-29550365D01*
X50433719Y-29540066D01*
X50670928Y-29488944D01*
X50896086Y-29398468D01*
X51102714Y-29271242D01*
X51284869Y-29110925D01*
X51437311Y-28922130D01*
X51555653Y-28710288D01*
X51636491Y-28481493D01*
X51656847Y-28362775D01*
X51677499Y-28242337D01*
X51677500Y-28242326D01*
X51677500Y-26862446D01*
X51677499Y-26862427D01*
X51662076Y-26681224D01*
X51662075Y-26681222D01*
X51662075Y-26681218D01*
X51604659Y-26460709D01*
X51600931Y-26446391D01*
X51600930Y-26446388D01*
X51500986Y-26225286D01*
X51500979Y-26225274D01*
X51450937Y-26151235D01*
X51365100Y-26024235D01*
X51197197Y-25849048D01*
X51197196Y-25849047D01*
X51197195Y-25849046D01*
X51002106Y-25704758D01*
X50897359Y-25651946D01*
X50785429Y-25595512D01*
X50553409Y-25524457D01*
X50553407Y-25524456D01*
X50553405Y-25524456D01*
X50312713Y-25493634D01*
X50070284Y-25503933D01*
X50070280Y-25503933D01*
X49833070Y-25555056D01*
X49833067Y-25555057D01*
X49607917Y-25645530D01*
X49401286Y-25772757D01*
X49219130Y-25933075D01*
X49219126Y-25933079D01*
X49066688Y-26121870D01*
X48948347Y-26333709D01*
X48867511Y-26562499D01*
X48867507Y-26562513D01*
X48826500Y-26801662D01*
X48826500Y-28181572D01*
X46677000Y-28181572D01*
X46677000Y-27772000D01*
X45852728Y-27772000D01*
X45875100Y-27724457D01*
X45905873Y-27563138D01*
X45895561Y-27399234D01*
X45854220Y-27272000D01*
X46677000Y-27272000D01*
X46677000Y-26862467D01*
X46676999Y-26862449D01*
X46661582Y-26681307D01*
X46600458Y-26446559D01*
X46500546Y-26225527D01*
X46500541Y-26225519D01*
X46364708Y-26024549D01*
X46364706Y-26024546D01*
X46196864Y-25849424D01*
X46196863Y-25849423D01*
X46001843Y-25705186D01*
X45785242Y-25595978D01*
X45553304Y-25524947D01*
X45553297Y-25524946D01*
X45502000Y-25518376D01*
X45502000Y-26917689D01*
X45493183Y-26912842D01*
X45334114Y-26872000D01*
X45211106Y-26872000D01*
X45089067Y-26887417D01*
X45002000Y-26921889D01*
X45002000Y-25519161D01*
X44833217Y-25555536D01*
X44833214Y-25555537D01*
X44608143Y-25645978D01*
X44401584Y-25773161D01*
X44219492Y-25933422D01*
X44219488Y-25933426D01*
X44067109Y-26122144D01*
X44067105Y-26122150D01*
X43948805Y-26333917D01*
X43867996Y-26562629D01*
X43867994Y-26562637D01*
X43827000Y-26801706D01*
X43827000Y-27272000D01*
X44651272Y-27272000D01*
X44628900Y-27319543D01*
X44598127Y-27480862D01*
X44608439Y-27644766D01*
X44649780Y-27772000D01*
X43827000Y-27772000D01*
X43827000Y-28181550D01*
X22848000Y-28181550D01*
X22848000Y-27899000D01*
X22023728Y-27899000D01*
X22046100Y-27851457D01*
X22076873Y-27690138D01*
X22066561Y-27526234D01*
X22025220Y-27399000D01*
X22848000Y-27399000D01*
X22848000Y-26989467D01*
X22847999Y-26989449D01*
X22832582Y-26808307D01*
X22771458Y-26573559D01*
X22671546Y-26352527D01*
X22671541Y-26352519D01*
X22535708Y-26151549D01*
X22535706Y-26151546D01*
X22367864Y-25976424D01*
X22367863Y-25976423D01*
X22172843Y-25832186D01*
X21956242Y-25722978D01*
X21724299Y-25651946D01*
X21724302Y-25651946D01*
X21613445Y-25637751D01*
X21549449Y-25609710D01*
X21510771Y-25551522D01*
X21509693Y-25481661D01*
X21541511Y-25427078D01*
X23295590Y-23672999D01*
X25157377Y-23672999D01*
X25157378Y-23673000D01*
X26560272Y-23673000D01*
X26537900Y-23720543D01*
X26507127Y-23881862D01*
X26517439Y-24045766D01*
X26558780Y-24173000D01*
X25158161Y-24173000D01*
X25194536Y-24341782D01*
X25194537Y-24341785D01*
X25284978Y-24566856D01*
X25412161Y-24773415D01*
X25572422Y-24955507D01*
X25572426Y-24955511D01*
X25761144Y-25107890D01*
X25761150Y-25107894D01*
X25972917Y-25226194D01*
X26201629Y-25307003D01*
X26201637Y-25307005D01*
X26440706Y-25347999D01*
X26440715Y-25348000D01*
X26911000Y-25348000D01*
X26911000Y-24527310D01*
X26919817Y-24532158D01*
X27078886Y-24573000D01*
X27201894Y-24573000D01*
X27323933Y-24557583D01*
X27411000Y-24523110D01*
X27411000Y-25348000D01*
X27820533Y-25348000D01*
X27820550Y-25347999D01*
X28001692Y-25332582D01*
X28236440Y-25271458D01*
X28457472Y-25171546D01*
X28457480Y-25171541D01*
X28658450Y-25035708D01*
X28658453Y-25035706D01*
X28833575Y-24867864D01*
X28833576Y-24867863D01*
X28977813Y-24672843D01*
X29087021Y-24456242D01*
X29158053Y-24224299D01*
X29164622Y-24173000D01*
X27761728Y-24173000D01*
X27784100Y-24125457D01*
X27814873Y-23964138D01*
X27804561Y-23800234D01*
X27763220Y-23673000D01*
X29163839Y-23673000D01*
X29163839Y-23672999D01*
X37657377Y-23672999D01*
X37657378Y-23673000D01*
X39060272Y-23673000D01*
X39037900Y-23720543D01*
X39007127Y-23881862D01*
X39017439Y-24045766D01*
X39058780Y-24173000D01*
X37658161Y-24173000D01*
X37694536Y-24341782D01*
X37694537Y-24341785D01*
X37784978Y-24566856D01*
X37912161Y-24773415D01*
X38072422Y-24955507D01*
X38072426Y-24955511D01*
X38261144Y-25107890D01*
X38261150Y-25107894D01*
X38472917Y-25226194D01*
X38701629Y-25307003D01*
X38701637Y-25307005D01*
X38940706Y-25347999D01*
X38940715Y-25348000D01*
X39411000Y-25348000D01*
X39411000Y-24527310D01*
X39419817Y-24532158D01*
X39578886Y-24573000D01*
X39701894Y-24573000D01*
X39823933Y-24557583D01*
X39911000Y-24523110D01*
X39911000Y-25348000D01*
X40320533Y-25348000D01*
X40320550Y-25347999D01*
X40501692Y-25332582D01*
X40736440Y-25271458D01*
X40957472Y-25171546D01*
X40957480Y-25171541D01*
X41158450Y-25035708D01*
X41158453Y-25035706D01*
X41333575Y-24867864D01*
X41333576Y-24867863D01*
X41477813Y-24672843D01*
X41587021Y-24456242D01*
X41658053Y-24224299D01*
X41664622Y-24173000D01*
X40261728Y-24173000D01*
X40284100Y-24125457D01*
X40314873Y-23964138D01*
X40304561Y-23800234D01*
X40263220Y-23673000D01*
X41663839Y-23673000D01*
X41627463Y-23504217D01*
X41627462Y-23504214D01*
X41537021Y-23279143D01*
X41409838Y-23072584D01*
X41249577Y-22890492D01*
X41249573Y-22890488D01*
X41060855Y-22738109D01*
X41060849Y-22738105D01*
X40849082Y-22619805D01*
X40620370Y-22538996D01*
X40620362Y-22538994D01*
X40381293Y-22498000D01*
X39911000Y-22498000D01*
X39911000Y-23318689D01*
X39902183Y-23313842D01*
X39743114Y-23273000D01*
X39620106Y-23273000D01*
X39498067Y-23288417D01*
X39411000Y-23322889D01*
X39411000Y-22498000D01*
X39001449Y-22498000D01*
X38820307Y-22513417D01*
X38585559Y-22574541D01*
X38364527Y-22674453D01*
X38364519Y-22674458D01*
X38163549Y-22810291D01*
X38163546Y-22810293D01*
X37988424Y-22978135D01*
X37988423Y-22978136D01*
X37844186Y-23173156D01*
X37734978Y-23389757D01*
X37663946Y-23621700D01*
X37657377Y-23672999D01*
X29163839Y-23672999D01*
X29127463Y-23504217D01*
X29127462Y-23504214D01*
X29037021Y-23279143D01*
X28909838Y-23072584D01*
X28749577Y-22890492D01*
X28749573Y-22890488D01*
X28560855Y-22738109D01*
X28560849Y-22738105D01*
X28349082Y-22619805D01*
X28120370Y-22538996D01*
X28120362Y-22538994D01*
X27881293Y-22498000D01*
X27411000Y-22498000D01*
X27411000Y-23318689D01*
X27402183Y-23313842D01*
X27243114Y-23273000D01*
X27120106Y-23273000D01*
X26998067Y-23288417D01*
X26911000Y-23322889D01*
X26911000Y-22498000D01*
X26501449Y-22498000D01*
X26320307Y-22513417D01*
X26085559Y-22574541D01*
X25864527Y-22674453D01*
X25864519Y-22674458D01*
X25663549Y-22810291D01*
X25663546Y-22810293D01*
X25488424Y-22978135D01*
X25488423Y-22978136D01*
X25344186Y-23173156D01*
X25234978Y-23389757D01*
X25163946Y-23621700D01*
X25157377Y-23672999D01*
X23295590Y-23672999D01*
X26583771Y-20384819D01*
X26645094Y-20351334D01*
X26671452Y-20348500D01*
X27820553Y-20348500D01*
X27820554Y-20348500D01*
X27820555Y-20348499D01*
X27820572Y-20348499D01*
X28001775Y-20333076D01*
X28001775Y-20333075D01*
X28001782Y-20333075D01*
X28236608Y-20271931D01*
X28236611Y-20271930D01*
X28457713Y-20171986D01*
X28457716Y-20171983D01*
X28457723Y-20171981D01*
X28658765Y-20036100D01*
X28833952Y-19868197D01*
X28978244Y-19673102D01*
X29087488Y-19456429D01*
X29158543Y-19224409D01*
X29189365Y-18983719D01*
X29184206Y-18862281D01*
X37632635Y-18862281D01*
X37642933Y-19104715D01*
X37642933Y-19104719D01*
X37694056Y-19341929D01*
X37694057Y-19341932D01*
X37784530Y-19567082D01*
X37911757Y-19773713D01*
X38072075Y-19955869D01*
X38072079Y-19955873D01*
X38260870Y-20108311D01*
X38472709Y-20226652D01*
X38472712Y-20226653D01*
X38701507Y-20307491D01*
X38701513Y-20307492D01*
X38940662Y-20348499D01*
X38940670Y-20348499D01*
X38940672Y-20348500D01*
X38940673Y-20348500D01*
X40320553Y-20348500D01*
X40320554Y-20348500D01*
X40320555Y-20348499D01*
X40320572Y-20348499D01*
X40501775Y-20333076D01*
X40501775Y-20333075D01*
X40501782Y-20333075D01*
X40736608Y-20271931D01*
X40736611Y-20271930D01*
X40957713Y-20171986D01*
X40957716Y-20171983D01*
X40957723Y-20171981D01*
X41158765Y-20036100D01*
X41333952Y-19868197D01*
X41478244Y-19673102D01*
X41587488Y-19456429D01*
X41658543Y-19224409D01*
X41689365Y-18983719D01*
X41679066Y-18741281D01*
X41627944Y-18504072D01*
X41537468Y-18278914D01*
X41410242Y-18072286D01*
X41249925Y-17890131D01*
X41249924Y-17890130D01*
X41249920Y-17890126D01*
X41061129Y-17737688D01*
X40849290Y-17619347D01*
X40620500Y-17538511D01*
X40620486Y-17538507D01*
X40381337Y-17497500D01*
X40381328Y-17497500D01*
X39001446Y-17497500D01*
X39001427Y-17497500D01*
X38820224Y-17512923D01*
X38820222Y-17512924D01*
X38585391Y-17574068D01*
X38585388Y-17574069D01*
X38364286Y-17674013D01*
X38364274Y-17674020D01*
X38163234Y-17809900D01*
X38163232Y-17809902D01*
X37988047Y-17977803D01*
X37988046Y-17977804D01*
X37843758Y-18172893D01*
X37734515Y-18389565D01*
X37734512Y-18389571D01*
X37663456Y-18621594D01*
X37632635Y-18862281D01*
X29184206Y-18862281D01*
X29179066Y-18741281D01*
X29127944Y-18504072D01*
X29037468Y-18278914D01*
X28910242Y-18072286D01*
X28749925Y-17890131D01*
X28749924Y-17890130D01*
X28749920Y-17890126D01*
X28561129Y-17737688D01*
X28349290Y-17619347D01*
X28120500Y-17538511D01*
X28120486Y-17538507D01*
X27881337Y-17497500D01*
X27881328Y-17497500D01*
X26501446Y-17497500D01*
X26501427Y-17497500D01*
X26320224Y-17512923D01*
X26320222Y-17512924D01*
X26085391Y-17574068D01*
X26085388Y-17574069D01*
X25864286Y-17674013D01*
X25864274Y-17674020D01*
X25663234Y-17809900D01*
X25663232Y-17809902D01*
X25488047Y-17977803D01*
X25488046Y-17977804D01*
X25343758Y-18172893D01*
X25234515Y-18389565D01*
X25234512Y-18389571D01*
X25163456Y-18621594D01*
X25132635Y-18862281D01*
X25142933Y-19104715D01*
X25142933Y-19104719D01*
X25194056Y-19341929D01*
X25194057Y-19341932D01*
X25284530Y-19567082D01*
X25365704Y-19698918D01*
X25384091Y-19766325D01*
X25363116Y-19832972D01*
X25347795Y-19851613D01*
X18158208Y-27041199D01*
X18145951Y-27051020D01*
X18146134Y-27051241D01*
X18140122Y-27056214D01*
X18094098Y-27105223D01*
X18091391Y-27108016D01*
X18071889Y-27127517D01*
X18071883Y-27127525D01*
X18070466Y-27129352D01*
X18069935Y-27129734D01*
X18069315Y-27130439D01*
X18069155Y-27130298D01*
X18013816Y-27170248D01*
X17944048Y-27174026D01*
X17883314Y-27139484D01*
X17850896Y-27077591D01*
X17848500Y-27053334D01*
X17848500Y-26989446D01*
X17848499Y-26989427D01*
X17833076Y-26808224D01*
X17833075Y-26808222D01*
X17833075Y-26808218D01*
X17784159Y-26620357D01*
X17771931Y-26573391D01*
X17771930Y-26573388D01*
X17671986Y-26352286D01*
X17671979Y-26352274D01*
X17536099Y-26151234D01*
X17536097Y-26151232D01*
X17508218Y-26122144D01*
X17368197Y-25976048D01*
X17368196Y-25976047D01*
X17368195Y-25976046D01*
X17173106Y-25831758D01*
X17165784Y-25828066D01*
X16956429Y-25722512D01*
X16724409Y-25651457D01*
X16724407Y-25651456D01*
X16724405Y-25651456D01*
X16483713Y-25620634D01*
X16241284Y-25630933D01*
X16241280Y-25630933D01*
X16004070Y-25682056D01*
X16004067Y-25682057D01*
X15778917Y-25772530D01*
X15572286Y-25899757D01*
X15390130Y-26060075D01*
X15390126Y-26060079D01*
X15237688Y-26248870D01*
X15119347Y-26460709D01*
X15038511Y-26689499D01*
X15038507Y-26689513D01*
X14997500Y-26928662D01*
X14997500Y-28308572D01*
X15012923Y-28489775D01*
X15012924Y-28489777D01*
X15074068Y-28724608D01*
X15074069Y-28724611D01*
X15174013Y-28945713D01*
X15174020Y-28945725D01*
X15223850Y-29019450D01*
X15309900Y-29146765D01*
X15356084Y-29194953D01*
X15477803Y-29321952D01*
X15477804Y-29321953D01*
X15672893Y-29466241D01*
X15672895Y-29466242D01*
X15672898Y-29466244D01*
X15889571Y-29575488D01*
X16121591Y-29646543D01*
X16362281Y-29677365D01*
X16604719Y-29667066D01*
X16841928Y-29615944D01*
X17067086Y-29525468D01*
X17273714Y-29398242D01*
X17455869Y-29237925D01*
X17608311Y-29049130D01*
X17684246Y-28913199D01*
X17734126Y-28864274D01*
X17802539Y-28850081D01*
X17867765Y-28875128D01*
X17909094Y-28931463D01*
X17916500Y-28973674D01*
X17916500Y-33852546D01*
X17896815Y-33919585D01*
X17880181Y-33940227D01*
X13205208Y-38615199D01*
X13192951Y-38625020D01*
X13193134Y-38625241D01*
X13187122Y-38630214D01*
X13141098Y-38679223D01*
X13138391Y-38682016D01*
X13118889Y-38701517D01*
X13118875Y-38701534D01*
X13116407Y-38704715D01*
X13108843Y-38713570D01*
X13078937Y-38745418D01*
X13078936Y-38745420D01*
X13069284Y-38762976D01*
X13058610Y-38779226D01*
X13046329Y-38795061D01*
X13046324Y-38795068D01*
X13028975Y-38835158D01*
X13023838Y-38845644D01*
X13002803Y-38883906D01*
X12997822Y-38903307D01*
X12991521Y-38921710D01*
X12983562Y-38940102D01*
X12983561Y-38940105D01*
X12976728Y-38983243D01*
X12974360Y-38994674D01*
X12963501Y-39036971D01*
X12963500Y-39036982D01*
X12963500Y-39057016D01*
X12961973Y-39076415D01*
X12958840Y-39096194D01*
X12958840Y-39096195D01*
X12962950Y-39139674D01*
X12963500Y-39151343D01*
X12963500Y-71393944D01*
X12943815Y-71460983D01*
X12891011Y-71506738D01*
X12865282Y-71515234D01*
X12801196Y-71528856D01*
X12801192Y-71528857D01*
X12628270Y-71605848D01*
X12628265Y-71605851D01*
X12475129Y-71717111D01*
X12348466Y-71857785D01*
X12296387Y-71947989D01*
X12245820Y-71996205D01*
X12177213Y-72009428D01*
X12112348Y-71983460D01*
X12071820Y-71926546D01*
X12065000Y-71885989D01*
X12065000Y-12061633D01*
X12084685Y-11994594D01*
X12137489Y-11948839D01*
X12188631Y-11937634D01*
X54689137Y-11811892D01*
X54756231Y-11831377D01*
G37*
%TD.AperFunction*%
%TD*%
M02*
