%TF.GenerationSoftware,KiCad,Pcbnew,7.0.10*%
%TF.CreationDate,2024-03-22T23:10:46-04:00*%
%TF.ProjectId,Remote PCB,52656d6f-7465-4205-9043-422e6b696361,rev?*%
%TF.SameCoordinates,Original*%
%TF.FileFunction,Soldermask,Top*%
%TF.FilePolarity,Negative*%
%FSLAX46Y46*%
G04 Gerber Fmt 4.6, Leading zero omitted, Abs format (unit mm)*
G04 Created by KiCad (PCBNEW 7.0.10) date 2024-03-22 23:10:46*
%MOMM*%
%LPD*%
G01*
G04 APERTURE LIST*
G04 Aperture macros list*
%AMRoundRect*
0 Rectangle with rounded corners*
0 $1 Rounding radius*
0 $2 $3 $4 $5 $6 $7 $8 $9 X,Y pos of 4 corners*
0 Add a 4 corners polygon primitive as box body*
4,1,4,$2,$3,$4,$5,$6,$7,$8,$9,$2,$3,0*
0 Add four circle primitives for the rounded corners*
1,1,$1+$1,$2,$3*
1,1,$1+$1,$4,$5*
1,1,$1+$1,$6,$7*
1,1,$1+$1,$8,$9*
0 Add four rect primitives between the rounded corners*
20,1,$1+$1,$2,$3,$4,$5,0*
20,1,$1+$1,$4,$5,$6,$7,0*
20,1,$1+$1,$6,$7,$8,$9,0*
20,1,$1+$1,$8,$9,$2,$3,0*%
G04 Aperture macros list end*
%ADD10RoundRect,0.250000X-0.650000X0.412500X-0.650000X-0.412500X0.650000X-0.412500X0.650000X0.412500X0*%
%ADD11RoundRect,0.237500X-0.250000X-0.237500X0.250000X-0.237500X0.250000X0.237500X-0.250000X0.237500X0*%
%ADD12O,3.048000X1.850000*%
%ADD13R,2.000000X3.000000*%
%ADD14C,1.500000*%
%ADD15R,1.300000X2.300000*%
%ADD16R,3.500000X3.500000*%
%ADD17O,1.850000X3.048000*%
%ADD18R,1.700000X1.700000*%
%ADD19RoundRect,0.237500X-0.237500X0.250000X-0.237500X-0.250000X0.237500X-0.250000X0.237500X0.250000X0*%
%ADD20R,2.450000X1.000000*%
%ADD21R,1.000000X2.450000*%
G04 APERTURE END LIST*
D10*
%TO.C,C1*%
X50165000Y-68524500D03*
X50165000Y-71649500D03*
%TD*%
D11*
%TO.C,R3*%
X23321000Y-76454000D03*
X25146000Y-76454000D03*
%TD*%
D12*
%TO.C,SW3*%
X27198000Y-44109000D03*
X39698000Y-44109000D03*
X27198000Y-49109000D03*
X39698000Y-49109000D03*
%TD*%
%TO.C,SW2*%
X27198000Y-31548000D03*
X39698000Y-31548000D03*
X27198000Y-36548000D03*
X39698000Y-36548000D03*
%TD*%
D13*
%TO.C,U1*%
X13152000Y-72381000D03*
X15692000Y-72381000D03*
X18232000Y-72381000D03*
X20772000Y-72381000D03*
X23312000Y-72381000D03*
X25852000Y-72381000D03*
X28392000Y-72381000D03*
X28392000Y-55381000D03*
X25852000Y-55381000D03*
X23312000Y-55381000D03*
X20772000Y-55381000D03*
X18232000Y-55381000D03*
X15692000Y-55381000D03*
X13152000Y-55381000D03*
D14*
X12192000Y-65151000D03*
X12192000Y-62611000D03*
X14732000Y-65151000D03*
X14732000Y-62611000D03*
X17272000Y-65151000D03*
X17272000Y-62611000D03*
D15*
X18472000Y-68381000D03*
X20372000Y-68381000D03*
D16*
X21372000Y-61781000D03*
%TD*%
D17*
%TO.C,SW5*%
X45252000Y-40022000D03*
X45252000Y-27522000D03*
X50252000Y-40022000D03*
X50252000Y-27522000D03*
%TD*%
D18*
%TO.C,VBATT*%
X15748000Y-76327000D03*
%TD*%
%TO.C,GND*%
X28321000Y-76581000D03*
%TD*%
D19*
%TO.C,R1*%
X38536000Y-60157500D03*
X38536000Y-61982500D03*
%TD*%
%TO.C,R4*%
X50877000Y-75548000D03*
X50877000Y-77373000D03*
%TD*%
D12*
%TO.C,SW1*%
X27161000Y-18923000D03*
X39661000Y-18923000D03*
X27161000Y-23923000D03*
X39661000Y-23923000D03*
%TD*%
D11*
%TO.C,R2*%
X18749000Y-76454000D03*
X20574000Y-76454000D03*
%TD*%
D10*
%TO.C,C2*%
X52882000Y-68524500D03*
X52882000Y-71649500D03*
%TD*%
D20*
%TO.C,DWM1*%
X46763000Y-78505800D03*
X46763000Y-77105800D03*
X46763000Y-75705800D03*
X46763000Y-74305800D03*
X46763000Y-72905800D03*
X46763000Y-71505800D03*
X46763000Y-70105800D03*
X46763000Y-68705800D03*
D21*
X45363000Y-66410800D03*
X43963000Y-66410800D03*
X42563000Y-66410800D03*
X41163000Y-66410800D03*
X39763000Y-66410800D03*
X38363000Y-66410800D03*
X36963000Y-66410800D03*
X35563000Y-66410800D03*
D20*
X34163000Y-68707000D03*
X34163000Y-70107000D03*
X34163000Y-71505800D03*
X34163000Y-72905800D03*
X34163000Y-74305800D03*
X34163000Y-75705800D03*
X34163000Y-77105800D03*
X34163000Y-78505800D03*
%TD*%
D17*
%TO.C,SW4*%
X16423000Y-40149000D03*
X16423000Y-27649000D03*
X21423000Y-40149000D03*
X21423000Y-27649000D03*
%TD*%
D18*
%TO.C,IRQ*%
X35256000Y-61070000D03*
%TD*%
M02*
