%TF.GenerationSoftware,KiCad,Pcbnew,7.0.10*%
%TF.CreationDate,2024-02-28T22:59:02-05:00*%
%TF.ProjectId,DW1000 BU-01,44573130-3030-4204-9255-2d30312e6b69,rev?*%
%TF.SameCoordinates,Original*%
%TF.FileFunction,Copper,L1,Top*%
%TF.FilePolarity,Positive*%
%FSLAX46Y46*%
G04 Gerber Fmt 4.6, Leading zero omitted, Abs format (unit mm)*
G04 Created by KiCad (PCBNEW 7.0.10) date 2024-02-28 22:59:02*
%MOMM*%
%LPD*%
G01*
G04 APERTURE LIST*
G04 Aperture macros list*
%AMRoundRect*
0 Rectangle with rounded corners*
0 $1 Rounding radius*
0 $2 $3 $4 $5 $6 $7 $8 $9 X,Y pos of 4 corners*
0 Add a 4 corners polygon primitive as box body*
4,1,4,$2,$3,$4,$5,$6,$7,$8,$9,$2,$3,0*
0 Add four circle primitives for the rounded corners*
1,1,$1+$1,$2,$3*
1,1,$1+$1,$4,$5*
1,1,$1+$1,$6,$7*
1,1,$1+$1,$8,$9*
0 Add four rect primitives between the rounded corners*
20,1,$1+$1,$2,$3,$4,$5,0*
20,1,$1+$1,$4,$5,$6,$7,0*
20,1,$1+$1,$6,$7,$8,$9,0*
20,1,$1+$1,$8,$9,$2,$3,0*%
G04 Aperture macros list end*
%TA.AperFunction,SMDPad,CuDef*%
%ADD10RoundRect,0.100000X0.130000X0.100000X-0.130000X0.100000X-0.130000X-0.100000X0.130000X-0.100000X0*%
%TD*%
%TA.AperFunction,ComponentPad*%
%ADD11R,1.800000X1.800000*%
%TD*%
%TA.AperFunction,ComponentPad*%
%ADD12C,1.800000*%
%TD*%
%TA.AperFunction,SMDPad,CuDef*%
%ADD13RoundRect,0.250000X-0.325000X-0.650000X0.325000X-0.650000X0.325000X0.650000X-0.325000X0.650000X0*%
%TD*%
%TA.AperFunction,SMDPad,CuDef*%
%ADD14RoundRect,0.100000X-0.100000X0.130000X-0.100000X-0.130000X0.100000X-0.130000X0.100000X0.130000X0*%
%TD*%
%TA.AperFunction,ComponentPad*%
%ADD15R,1.700000X1.700000*%
%TD*%
%TA.AperFunction,ComponentPad*%
%ADD16O,1.700000X1.700000*%
%TD*%
%TA.AperFunction,ComponentPad*%
%ADD17R,1.600000X1.600000*%
%TD*%
%TA.AperFunction,ComponentPad*%
%ADD18C,1.600000*%
%TD*%
%TA.AperFunction,SMDPad,CuDef*%
%ADD19R,1.000000X2.450000*%
%TD*%
%TA.AperFunction,SMDPad,CuDef*%
%ADD20R,2.450000X1.000000*%
%TD*%
%TA.AperFunction,SMDPad,CuDef*%
%ADD21RoundRect,0.100000X-0.130000X-0.100000X0.130000X-0.100000X0.130000X0.100000X-0.130000X0.100000X0*%
%TD*%
%TA.AperFunction,ViaPad*%
%ADD22C,0.800000*%
%TD*%
%TA.AperFunction,Conductor*%
%ADD23C,1.000000*%
%TD*%
%TA.AperFunction,Conductor*%
%ADD24C,0.250000*%
%TD*%
G04 APERTURE END LIST*
D10*
%TO.P,R5,1*%
%TO.N,Net-(DWM1-IRQ{slash}GPIO8)*%
X2725000Y-10250000D03*
%TO.P,R5,2*%
%TO.N,GND*%
X2085000Y-10250000D03*
%TD*%
D11*
%TO.P,D4,1,K*%
%TO.N,GND*%
X16475000Y-3000000D03*
D12*
%TO.P,D4,2,A*%
%TO.N,Net-(D4-A)*%
X19015000Y-3000000D03*
%TD*%
D13*
%TO.P,C2,1*%
%TO.N,+3.3V*%
X7275000Y-28750000D03*
%TO.P,C2,2*%
%TO.N,GND*%
X10225000Y-28750000D03*
%TD*%
D11*
%TO.P,D3,1,K*%
%TO.N,GND*%
X11475000Y-3000000D03*
D12*
%TO.P,D3,2,A*%
%TO.N,Net-(D3-A)*%
X14015000Y-3000000D03*
%TD*%
D13*
%TO.P,C1,1*%
%TO.N,+3.3V*%
X7300000Y-31250000D03*
%TO.P,C1,2*%
%TO.N,GND*%
X10250000Y-31250000D03*
%TD*%
D14*
%TO.P,R7,1*%
%TO.N,WAKEUP*%
X3000000Y-32430000D03*
%TO.P,R7,2*%
%TO.N,Net-(J1-Pin_4)*%
X3000000Y-33070000D03*
%TD*%
D15*
%TO.P,J1,1,Pin_1*%
%TO.N,+3.3V*%
X21500000Y-9210000D03*
D16*
%TO.P,J1,2,Pin_2*%
%TO.N,GND*%
X21500000Y-11750000D03*
%TO.P,J1,3,Pin_3*%
%TO.N,Net-(J1-Pin_3)*%
X21500000Y-14290000D03*
%TO.P,J1,4,Pin_4*%
%TO.N,Net-(J1-Pin_4)*%
X21500000Y-16830000D03*
%TO.P,J1,5,Pin_5*%
%TO.N,Net-(J1-Pin_5)*%
X21500000Y-19370000D03*
%TO.P,J1,6,Pin_6*%
%TO.N,Net-(DWM1-SPICSn)*%
X21500000Y-21910000D03*
%TO.P,J1,7,Pin_7*%
%TO.N,Net-(DWM1-SPIMOSI)*%
X21500000Y-24450000D03*
%TO.P,J1,8,Pin_8*%
%TO.N,Net-(DWM1-SPIMISO)*%
X21500000Y-26990000D03*
%TO.P,J1,9,Pin_9*%
%TO.N,Net-(DWM1-SPICLK)*%
X21500000Y-29530000D03*
%TO.P,J1,10,Pin_10*%
%TO.N,Net-(DWM1-IRQ{slash}GPIO8)*%
X21500000Y-32070000D03*
%TD*%
D11*
%TO.P,D1,1,K*%
%TO.N,GND*%
X1475000Y-3000000D03*
D12*
%TO.P,D1,2,A*%
%TO.N,Net-(D1-A)*%
X4015000Y-3000000D03*
%TD*%
D10*
%TO.P,R3,1*%
%TO.N,Net-(DWM1-GPIO2{slash}RXLED)*%
X14570000Y-6000000D03*
%TO.P,R3,2*%
%TO.N,Net-(D3-A)*%
X13930000Y-6000000D03*
%TD*%
D17*
%TO.P,C3,1*%
%TO.N,+3.3V*%
X16250000Y-31750000D03*
D18*
%TO.P,C3,2*%
%TO.N,GND*%
X16250000Y-29250000D03*
%TD*%
D19*
%TO.P,DWM1,1,EXTON*%
%TO.N,EXTON*%
X451200Y-26050000D03*
%TO.P,DWM1,2,WAKEUP*%
%TO.N,WAKEUP*%
X1851200Y-26050000D03*
%TO.P,DWM1,3,RSTn*%
%TO.N,RSTn*%
X3251200Y-26050000D03*
%TO.P,DWM1,4,GPIO7*%
%TO.N,unconnected-(DWM1-GPIO7-Pad4)*%
X4651200Y-26050000D03*
%TO.P,DWM1,5,VDDAON*%
%TO.N,+3.3V*%
X6051200Y-26050000D03*
%TO.P,DWM1,6,VDD3V3*%
X7451200Y-26050000D03*
%TO.P,DWM1,7,VDD3V3*%
X8851200Y-26050000D03*
%TO.P,DWM1,8,VSS*%
%TO.N,GND*%
X10251200Y-26050000D03*
D20*
%TO.P,DWM1,9,GPIO6/EXTRXE/SPIHA*%
%TO.N,unconnected-(DWM1-GPIO6{slash}EXTRXE{slash}SPIHA-Pad9)*%
X12546200Y-24650000D03*
%TO.P,DWM1,10,GPIO5/EXTTXE/SPIPOL*%
%TO.N,unconnected-(DWM1-GPIO5{slash}EXTTXE{slash}SPIPOL-Pad10)*%
X12546200Y-23250000D03*
%TO.P,DWM1,11,GPIO4/EXTPA*%
%TO.N,unconnected-(DWM1-GPIO4{slash}EXTPA-Pad11)*%
X12546200Y-21850000D03*
%TO.P,DWM1,12,GPIO3/TXLED*%
%TO.N,Net-(DWM1-GPIO3{slash}TXLED)*%
X12546200Y-20450000D03*
%TO.P,DWM1,13,GPIO2/RXLED*%
%TO.N,Net-(DWM1-GPIO2{slash}RXLED)*%
X12546200Y-19050000D03*
%TO.P,DWM1,14,GPIO1/SFDLED*%
%TO.N,Net-(DWM1-GPIO1{slash}SFDLED)*%
X12546200Y-17650000D03*
%TO.P,DWM1,15,GPIO0/RXOKLED*%
%TO.N,Net-(DWM1-GPIO0{slash}RXOKLED)*%
X12546200Y-16250000D03*
%TO.P,DWM1,16,VSS*%
%TO.N,GND*%
X12546200Y-14850000D03*
D19*
%TO.P,DWM1,17,SPICSn*%
%TO.N,Net-(DWM1-SPICSn)*%
X10250000Y-13450000D03*
%TO.P,DWM1,18,SPIMOSI*%
%TO.N,Net-(DWM1-SPIMOSI)*%
X8850000Y-13450000D03*
%TO.P,DWM1,19,SPIMISO*%
%TO.N,Net-(DWM1-SPIMISO)*%
X7451200Y-13450000D03*
%TO.P,DWM1,20,SPICLK*%
%TO.N,Net-(DWM1-SPICLK)*%
X6051200Y-13450000D03*
%TO.P,DWM1,21,VSS*%
%TO.N,GND*%
X4651200Y-13450000D03*
%TO.P,DWM1,22,IRQ/GPIO8*%
%TO.N,Net-(DWM1-IRQ{slash}GPIO8)*%
X3251200Y-13450000D03*
%TO.P,DWM1,23,VSS*%
%TO.N,GND*%
X1851200Y-13450000D03*
%TO.P,DWM1,24,VSS*%
X451200Y-13450000D03*
%TD*%
D11*
%TO.P,D2,1,K*%
%TO.N,GND*%
X6475000Y-3000000D03*
D12*
%TO.P,D2,2,A*%
%TO.N,Net-(D2-A)*%
X9015000Y-3000000D03*
%TD*%
D10*
%TO.P,R2,1*%
%TO.N,Net-(DWM1-GPIO1{slash}SFDLED)*%
X9415000Y-6000000D03*
%TO.P,R2,2*%
%TO.N,Net-(D2-A)*%
X8775000Y-6000000D03*
%TD*%
D21*
%TO.P,R4,1*%
%TO.N,Net-(DWM1-GPIO3{slash}TXLED)*%
X18430000Y-6000000D03*
%TO.P,R4,2*%
%TO.N,Net-(D4-A)*%
X19070000Y-6000000D03*
%TD*%
D10*
%TO.P,R1,1*%
%TO.N,Net-(DWM1-GPIO0{slash}RXOKLED)*%
X4725000Y-6000000D03*
%TO.P,R1,2*%
%TO.N,Net-(D1-A)*%
X4085000Y-6000000D03*
%TD*%
D14*
%TO.P,R6,1*%
%TO.N,EXTON*%
X750000Y-32430000D03*
%TO.P,R6,2*%
%TO.N,Net-(J1-Pin_5)*%
X750000Y-33070000D03*
%TD*%
%TO.P,R8,1*%
%TO.N,RSTn*%
X5250000Y-32430000D03*
%TO.P,R8,2*%
%TO.N,Net-(J1-Pin_3)*%
X5250000Y-33070000D03*
%TD*%
D22*
%TO.N,GND*%
X2750000Y-31000000D03*
X16250000Y-23000000D03*
X19500000Y-38500000D03*
X16500000Y-20750000D03*
X13000000Y-38500000D03*
X4750000Y-29500000D03*
X2000000Y-32750000D03*
X11750000Y-9500000D03*
X6750000Y-38500000D03*
X17250000Y-19000000D03*
%TO.N,Net-(DWM1-SPICSn)*%
X11500000Y-13500000D03*
%TO.N,Net-(DWM1-SPIMOSI)*%
X9250000Y-15250000D03*
%TO.N,Net-(DWM1-SPIMISO)*%
X7500000Y-16500000D03*
%TO.N,Net-(DWM1-SPICLK)*%
X6000000Y-18250000D03*
%TO.N,Net-(DWM1-IRQ{slash}GPIO8)*%
X3250000Y-20750000D03*
%TO.N,Net-(J1-Pin_4)*%
X25025000Y-16525000D03*
%TO.N,Net-(J1-Pin_5)*%
X25750000Y-19250000D03*
%TD*%
D23*
%TO.N,+3.3V*%
X7275000Y-28750000D02*
X7275000Y-31225000D01*
X14325000Y-33675000D02*
X16250000Y-31750000D01*
X7451200Y-26050000D02*
X7451200Y-28573800D01*
X20540000Y-9210000D02*
X21500000Y-9210000D01*
X16250000Y-31750000D02*
X18000000Y-31750000D01*
X7300000Y-31250000D02*
X9725000Y-33675000D01*
X6051200Y-26050000D02*
X7451200Y-26050000D01*
X7275000Y-31225000D02*
X7300000Y-31250000D01*
X18000000Y-31750000D02*
X18750000Y-31000000D01*
X8851200Y-26050000D02*
X7451200Y-26050000D01*
X18750000Y-11000000D02*
X20540000Y-9210000D01*
X18750000Y-31000000D02*
X18750000Y-11000000D01*
X9725000Y-33675000D02*
X14325000Y-33675000D01*
X7451200Y-28573800D02*
X7275000Y-28750000D01*
D24*
%TO.N,GND*%
X2085000Y-10250000D02*
X2085000Y-13216200D01*
X2085000Y-13216200D02*
X1851200Y-13450000D01*
%TO.N,Net-(D1-A)*%
X4015000Y-3000000D02*
X4015000Y-5930000D01*
X4015000Y-5930000D02*
X4085000Y-6000000D01*
%TO.N,Net-(D2-A)*%
X8775000Y-3240000D02*
X8775000Y-6000000D01*
X9015000Y-3000000D02*
X8775000Y-3240000D01*
%TO.N,Net-(D3-A)*%
X14015000Y-5915000D02*
X13930000Y-6000000D01*
X14015000Y-3000000D02*
X14015000Y-5915000D01*
%TO.N,Net-(D4-A)*%
X19015000Y-5945000D02*
X19070000Y-6000000D01*
X19015000Y-3000000D02*
X19015000Y-5945000D01*
%TO.N,EXTON*%
X451200Y-26050000D02*
X451200Y-32131200D01*
X451200Y-32131200D02*
X750000Y-32430000D01*
%TO.N,WAKEUP*%
X1851200Y-31281200D02*
X3000000Y-32430000D01*
X1851200Y-26050000D02*
X1851200Y-31281200D01*
%TO.N,RSTn*%
X3251200Y-26050000D02*
X3251200Y-30431200D01*
X3251200Y-30431200D02*
X5250000Y-32430000D01*
%TO.N,Net-(DWM1-GPIO3{slash}TXLED)*%
X17250000Y-17221200D02*
X14021200Y-20450000D01*
X18430000Y-6070000D02*
X17250000Y-7250000D01*
X18430000Y-6000000D02*
X18430000Y-6070000D01*
X17250000Y-7250000D02*
X17250000Y-17221200D01*
X14021200Y-20450000D02*
X12546200Y-20450000D01*
%TO.N,Net-(DWM1-GPIO2{slash}RXLED)*%
X16250000Y-7680000D02*
X16250000Y-16821200D01*
X16250000Y-16821200D02*
X14021200Y-19050000D01*
X14570000Y-6000000D02*
X16250000Y-7680000D01*
X14021200Y-19050000D02*
X12546200Y-19050000D01*
%TO.N,Net-(DWM1-GPIO1{slash}SFDLED)*%
X15250000Y-16421200D02*
X14021200Y-17650000D01*
X15035000Y-11535000D02*
X15250000Y-11750000D01*
X9415000Y-6000000D02*
X14950000Y-11535000D01*
X14950000Y-11535000D02*
X15035000Y-11535000D01*
X15250000Y-11750000D02*
X15250000Y-16421200D01*
X14021200Y-17650000D02*
X12546200Y-17650000D01*
%TO.N,Net-(DWM1-GPIO0{slash}RXOKLED)*%
X13750000Y-16250000D02*
X12546200Y-16250000D01*
X4725000Y-6000000D02*
X7000000Y-6000000D01*
X7000000Y-6000000D02*
X14500000Y-13500000D01*
X14500000Y-15500000D02*
X13750000Y-16250000D01*
X14500000Y-13500000D02*
X14500000Y-15500000D01*
%TO.N,Net-(DWM1-SPICSn)*%
X11450000Y-13450000D02*
X11500000Y-13500000D01*
X10250000Y-13450000D02*
X11450000Y-13450000D01*
%TO.N,Net-(DWM1-SPIMOSI)*%
X8850000Y-13450000D02*
X8850000Y-14850000D01*
X8850000Y-14850000D02*
X9250000Y-15250000D01*
%TO.N,Net-(DWM1-SPIMISO)*%
X7451200Y-13450000D02*
X7451200Y-16451200D01*
X7451200Y-16451200D02*
X7500000Y-16500000D01*
%TO.N,Net-(DWM1-SPICLK)*%
X6051200Y-13450000D02*
X6051200Y-18198800D01*
X6051200Y-18198800D02*
X6000000Y-18250000D01*
%TO.N,Net-(DWM1-IRQ{slash}GPIO8)*%
X3251200Y-13450000D02*
X3251200Y-20748800D01*
X2725000Y-12923800D02*
X3251200Y-13450000D01*
X3251200Y-20748800D02*
X3250000Y-20750000D01*
X2725000Y-10250000D02*
X2725000Y-12923800D01*
%TO.N,Net-(J1-Pin_3)*%
X23750000Y-16540000D02*
X21500000Y-14290000D01*
X23750000Y-33000000D02*
X23750000Y-16540000D01*
X5250000Y-33250000D02*
X6500000Y-34500000D01*
X6500000Y-34500000D02*
X22250000Y-34500000D01*
X5250000Y-33070000D02*
X5250000Y-33250000D01*
X22250000Y-34500000D02*
X23750000Y-33000000D01*
%TO.N,Net-(J1-Pin_4)*%
X22750000Y-35500000D02*
X25025000Y-33225000D01*
X25000000Y-16500000D02*
X25025000Y-16525000D01*
X25025000Y-33225000D02*
X25025000Y-16525000D01*
X3000000Y-33070000D02*
X3000000Y-33500000D01*
X5000000Y-35500000D02*
X22750000Y-35500000D01*
X3000000Y-33500000D02*
X5000000Y-35500000D01*
%TO.N,Net-(J1-Pin_5)*%
X4180000Y-36500000D02*
X23000000Y-36500000D01*
X23000000Y-36500000D02*
X25750000Y-33750000D01*
X750000Y-33070000D02*
X4180000Y-36500000D01*
X25750000Y-33750000D02*
X25750000Y-19250000D01*
%TD*%
%TA.AperFunction,Conductor*%
%TO.N,GND*%
G36*
X-44297Y-32520738D02*
G01*
X-37827Y-32526762D01*
X-35188Y-32529401D01*
X-32807Y-32531782D01*
X-20168Y-32546581D01*
X-8394Y-32562787D01*
X6854Y-32575401D01*
X13632Y-32581008D01*
X52740Y-32638907D01*
X57532Y-32660370D01*
X64954Y-32716755D01*
X65261Y-32717900D01*
X65261Y-32719085D01*
X66016Y-32724821D01*
X65261Y-32724920D01*
X65262Y-32775080D01*
X66017Y-32775180D01*
X65262Y-32780907D01*
X65263Y-32782091D01*
X64956Y-32783234D01*
X49500Y-32900638D01*
X49500Y-33239363D01*
X64953Y-33356753D01*
X64956Y-33356762D01*
X124183Y-33499750D01*
X125464Y-33502841D01*
X221718Y-33628282D01*
X347159Y-33724536D01*
X493238Y-33785044D01*
X551945Y-33792772D01*
X615839Y-33821037D01*
X623440Y-33828030D01*
X3679194Y-36883784D01*
X3689019Y-36896048D01*
X3689240Y-36895866D01*
X3694210Y-36901874D01*
X3743239Y-36947915D01*
X3746036Y-36950626D01*
X3765530Y-36970120D01*
X3768695Y-36972575D01*
X3777571Y-36980156D01*
X3809418Y-37010062D01*
X3809422Y-37010064D01*
X3826973Y-37019713D01*
X3843231Y-37030392D01*
X3859064Y-37042674D01*
X3894410Y-37057968D01*
X3899155Y-37060022D01*
X3909635Y-37065155D01*
X3947908Y-37086197D01*
X3967312Y-37091179D01*
X3985710Y-37097478D01*
X4004105Y-37105438D01*
X4047254Y-37112271D01*
X4058680Y-37114638D01*
X4100981Y-37125500D01*
X4121016Y-37125500D01*
X4140413Y-37127026D01*
X4160196Y-37130160D01*
X4203675Y-37126050D01*
X4215344Y-37125500D01*
X22917257Y-37125500D01*
X22932877Y-37127224D01*
X22932904Y-37126939D01*
X22940660Y-37127671D01*
X22940667Y-37127673D01*
X23007873Y-37125561D01*
X23011768Y-37125500D01*
X23039346Y-37125500D01*
X23039350Y-37125500D01*
X23043324Y-37124997D01*
X23054963Y-37124080D01*
X23098627Y-37122709D01*
X23117869Y-37117117D01*
X23136912Y-37113174D01*
X23156792Y-37110664D01*
X23197401Y-37094585D01*
X23208444Y-37090803D01*
X23250390Y-37078618D01*
X23267629Y-37068422D01*
X23285103Y-37059862D01*
X23303727Y-37052488D01*
X23303727Y-37052487D01*
X23303732Y-37052486D01*
X23339083Y-37026800D01*
X23348814Y-37020408D01*
X23386420Y-36998170D01*
X23400589Y-36983999D01*
X23415379Y-36971368D01*
X23431587Y-36959594D01*
X23459438Y-36925926D01*
X23467279Y-36917309D01*
X26037821Y-34346768D01*
X26099142Y-34313285D01*
X26168834Y-34318269D01*
X26224767Y-34360141D01*
X26249184Y-34425605D01*
X26249500Y-34434451D01*
X26249500Y-40125500D01*
X26229815Y-40192539D01*
X26177011Y-40238294D01*
X26125500Y-40249500D01*
X-125500Y-40249500D01*
X-192539Y-40229815D01*
X-238294Y-40177011D01*
X-249500Y-40125500D01*
X-249500Y-32614451D01*
X-229815Y-32547412D01*
X-177011Y-32501657D01*
X-107853Y-32491713D01*
X-44297Y-32520738D01*
G37*
%TD.AperFunction*%
%TA.AperFunction,Conductor*%
G36*
X5394533Y-27750747D02*
G01*
X5443708Y-27769088D01*
X5443711Y-27769089D01*
X5443717Y-27769091D01*
X5503327Y-27775500D01*
X6095178Y-27775499D01*
X6162217Y-27795183D01*
X6207972Y-27847987D01*
X6217916Y-27917146D01*
X6212886Y-27938496D01*
X6211256Y-27943415D01*
X6210000Y-27947205D01*
X6199500Y-28049983D01*
X6199500Y-29450001D01*
X6199501Y-29450018D01*
X6210000Y-29552796D01*
X6210001Y-29552799D01*
X6230788Y-29615529D01*
X6265116Y-29719124D01*
X6267458Y-29726190D01*
X6265631Y-29726795D01*
X6274500Y-29766798D01*
X6274500Y-30307993D01*
X6268206Y-30346997D01*
X6235001Y-30447203D01*
X6235000Y-30447204D01*
X6224500Y-30549983D01*
X6224500Y-31950001D01*
X6224501Y-31950018D01*
X6235000Y-32052796D01*
X6235001Y-32052799D01*
X6277261Y-32180330D01*
X6290186Y-32219334D01*
X6382288Y-32368656D01*
X6506344Y-32492712D01*
X6655666Y-32584814D01*
X6822203Y-32639999D01*
X6924991Y-32650500D01*
X7234216Y-32650499D01*
X7301255Y-32670183D01*
X7321897Y-32686818D01*
X7881448Y-33246369D01*
X8297899Y-33662819D01*
X8331384Y-33724142D01*
X8326400Y-33793833D01*
X8284528Y-33849767D01*
X8219064Y-33874184D01*
X8210218Y-33874500D01*
X6810452Y-33874500D01*
X6743413Y-33854815D01*
X6722771Y-33838181D01*
X5986818Y-33102227D01*
X5953333Y-33040904D01*
X5950499Y-33014546D01*
X5950499Y-32900636D01*
X5935045Y-32783244D01*
X5935044Y-32783242D01*
X5935044Y-32783238D01*
X5935042Y-32783233D01*
X5934738Y-32782096D01*
X5934737Y-32780906D01*
X5933984Y-32775179D01*
X5934737Y-32775079D01*
X5934737Y-32724919D01*
X5933983Y-32724820D01*
X5934737Y-32719092D01*
X5934737Y-32717905D01*
X5935040Y-32716771D01*
X5935044Y-32716762D01*
X5950500Y-32599361D01*
X5950499Y-32260640D01*
X5950499Y-32260636D01*
X5935046Y-32143246D01*
X5935044Y-32143241D01*
X5935044Y-32143238D01*
X5874536Y-31997159D01*
X5778282Y-31871718D01*
X5652841Y-31775464D01*
X5624773Y-31763838D01*
X5610054Y-31757741D01*
X5506762Y-31714956D01*
X5448053Y-31707226D01*
X5384158Y-31678960D01*
X5376559Y-31671969D01*
X3913019Y-30208428D01*
X3879534Y-30147105D01*
X3876700Y-30120747D01*
X3876700Y-27885391D01*
X3896385Y-27818352D01*
X3949189Y-27772597D01*
X4018347Y-27762653D01*
X4041734Y-27768622D01*
X4043713Y-27769089D01*
X4043717Y-27769091D01*
X4103327Y-27775500D01*
X5199072Y-27775499D01*
X5258683Y-27769091D01*
X5307865Y-27750746D01*
X5377555Y-27745761D01*
X5394533Y-27750747D01*
G37*
%TD.AperFunction*%
%TA.AperFunction,Conductor*%
G36*
X20164518Y-11102916D02*
G01*
X20220451Y-11144788D01*
X20244868Y-11210252D01*
X20233567Y-11271500D01*
X20226571Y-11286501D01*
X20226567Y-11286513D01*
X20169364Y-11499999D01*
X20169364Y-11500000D01*
X21066314Y-11500000D01*
X21040507Y-11540156D01*
X21000000Y-11678111D01*
X21000000Y-11821889D01*
X21040507Y-11959844D01*
X21066314Y-12000000D01*
X20169364Y-12000000D01*
X20226567Y-12213486D01*
X20226570Y-12213492D01*
X20326399Y-12427578D01*
X20461894Y-12621082D01*
X20628917Y-12788105D01*
X20814595Y-12918119D01*
X20858219Y-12972696D01*
X20865412Y-13042195D01*
X20833890Y-13104549D01*
X20814595Y-13121269D01*
X20628594Y-13251508D01*
X20461505Y-13418597D01*
X20325965Y-13612169D01*
X20325964Y-13612171D01*
X20226098Y-13826335D01*
X20226094Y-13826344D01*
X20164938Y-14054586D01*
X20164936Y-14054596D01*
X20144341Y-14289999D01*
X20144341Y-14290000D01*
X20164936Y-14525403D01*
X20164938Y-14525413D01*
X20226094Y-14753655D01*
X20226096Y-14753659D01*
X20226097Y-14753663D01*
X20239536Y-14782483D01*
X20325965Y-14967830D01*
X20325967Y-14967834D01*
X20461501Y-15161395D01*
X20461506Y-15161402D01*
X20628597Y-15328493D01*
X20628603Y-15328498D01*
X20814158Y-15458425D01*
X20857783Y-15513002D01*
X20864977Y-15582500D01*
X20833454Y-15644855D01*
X20814158Y-15661575D01*
X20628597Y-15791505D01*
X20461505Y-15958597D01*
X20325965Y-16152169D01*
X20325964Y-16152171D01*
X20226098Y-16366335D01*
X20226094Y-16366344D01*
X20164938Y-16594586D01*
X20164936Y-16594596D01*
X20144341Y-16829999D01*
X20144341Y-16830000D01*
X20164936Y-17065403D01*
X20164938Y-17065413D01*
X20226094Y-17293655D01*
X20226096Y-17293659D01*
X20226097Y-17293663D01*
X20257563Y-17361142D01*
X20325965Y-17507830D01*
X20325967Y-17507834D01*
X20461501Y-17701395D01*
X20461506Y-17701402D01*
X20628597Y-17868493D01*
X20628603Y-17868498D01*
X20814158Y-17998425D01*
X20857783Y-18053002D01*
X20864977Y-18122500D01*
X20833454Y-18184855D01*
X20814158Y-18201575D01*
X20628597Y-18331505D01*
X20461505Y-18498597D01*
X20325965Y-18692169D01*
X20325964Y-18692171D01*
X20226098Y-18906335D01*
X20226094Y-18906344D01*
X20164938Y-19134586D01*
X20164936Y-19134596D01*
X20144341Y-19369999D01*
X20144341Y-19370000D01*
X20164936Y-19605403D01*
X20164938Y-19605413D01*
X20226094Y-19833655D01*
X20226096Y-19833659D01*
X20226097Y-19833663D01*
X20258026Y-19902135D01*
X20325965Y-20047830D01*
X20325967Y-20047834D01*
X20461501Y-20241395D01*
X20461506Y-20241402D01*
X20628597Y-20408493D01*
X20628603Y-20408498D01*
X20814158Y-20538425D01*
X20857783Y-20593002D01*
X20864977Y-20662500D01*
X20833454Y-20724855D01*
X20814158Y-20741575D01*
X20628597Y-20871505D01*
X20461505Y-21038597D01*
X20325965Y-21232169D01*
X20325964Y-21232171D01*
X20226098Y-21446335D01*
X20226094Y-21446344D01*
X20164938Y-21674586D01*
X20164936Y-21674596D01*
X20144341Y-21909999D01*
X20144341Y-21910000D01*
X20164936Y-22145403D01*
X20164938Y-22145413D01*
X20226094Y-22373655D01*
X20226096Y-22373659D01*
X20226097Y-22373663D01*
X20296034Y-22523643D01*
X20325965Y-22587830D01*
X20325967Y-22587834D01*
X20461501Y-22781395D01*
X20461506Y-22781402D01*
X20628597Y-22948493D01*
X20628603Y-22948498D01*
X20814158Y-23078425D01*
X20857783Y-23133002D01*
X20864977Y-23202500D01*
X20833454Y-23264855D01*
X20814158Y-23281575D01*
X20628597Y-23411505D01*
X20461505Y-23578597D01*
X20325965Y-23772169D01*
X20325964Y-23772171D01*
X20226098Y-23986335D01*
X20226094Y-23986344D01*
X20164938Y-24214586D01*
X20164936Y-24214596D01*
X20144341Y-24449999D01*
X20144341Y-24450000D01*
X20164936Y-24685403D01*
X20164938Y-24685413D01*
X20226094Y-24913655D01*
X20226096Y-24913659D01*
X20226097Y-24913663D01*
X20325965Y-25127830D01*
X20325967Y-25127834D01*
X20461501Y-25321395D01*
X20461506Y-25321402D01*
X20628597Y-25488493D01*
X20628603Y-25488498D01*
X20814158Y-25618425D01*
X20857783Y-25673002D01*
X20864977Y-25742500D01*
X20833454Y-25804855D01*
X20814158Y-25821575D01*
X20628597Y-25951505D01*
X20461505Y-26118597D01*
X20325965Y-26312169D01*
X20325964Y-26312171D01*
X20226098Y-26526335D01*
X20226094Y-26526344D01*
X20164938Y-26754586D01*
X20164936Y-26754596D01*
X20144341Y-26989999D01*
X20144341Y-26990000D01*
X20164936Y-27225403D01*
X20164938Y-27225413D01*
X20226094Y-27453655D01*
X20226096Y-27453659D01*
X20226097Y-27453663D01*
X20299719Y-27611546D01*
X20325965Y-27667830D01*
X20325967Y-27667834D01*
X20415139Y-27795184D01*
X20452112Y-27847987D01*
X20461501Y-27861395D01*
X20461506Y-27861402D01*
X20628597Y-28028493D01*
X20628603Y-28028498D01*
X20814158Y-28158425D01*
X20857783Y-28213002D01*
X20864977Y-28282500D01*
X20833454Y-28344855D01*
X20814158Y-28361575D01*
X20628597Y-28491505D01*
X20461505Y-28658597D01*
X20325965Y-28852169D01*
X20325964Y-28852171D01*
X20226098Y-29066335D01*
X20226094Y-29066344D01*
X20164938Y-29294586D01*
X20164936Y-29294596D01*
X20144341Y-29529999D01*
X20144341Y-29530000D01*
X20164936Y-29765403D01*
X20164938Y-29765413D01*
X20226094Y-29993655D01*
X20226096Y-29993659D01*
X20226097Y-29993663D01*
X20309308Y-30172109D01*
X20325965Y-30207830D01*
X20325967Y-30207834D01*
X20461501Y-30401395D01*
X20461506Y-30401402D01*
X20628597Y-30568493D01*
X20628603Y-30568498D01*
X20814158Y-30698425D01*
X20857783Y-30753002D01*
X20864977Y-30822500D01*
X20833454Y-30884855D01*
X20814158Y-30901575D01*
X20628597Y-31031505D01*
X20461505Y-31198597D01*
X20325965Y-31392169D01*
X20325964Y-31392171D01*
X20226098Y-31606335D01*
X20226094Y-31606344D01*
X20164938Y-31834586D01*
X20164936Y-31834596D01*
X20144341Y-32069999D01*
X20144341Y-32070000D01*
X20164936Y-32305403D01*
X20164938Y-32305413D01*
X20226094Y-32533655D01*
X20226096Y-32533659D01*
X20226097Y-32533663D01*
X20312008Y-32717900D01*
X20325965Y-32747830D01*
X20325967Y-32747834D01*
X20362627Y-32800189D01*
X20461505Y-32941401D01*
X20628599Y-33108495D01*
X20725384Y-33176265D01*
X20822165Y-33244032D01*
X20822167Y-33244033D01*
X20822170Y-33244035D01*
X21036337Y-33343903D01*
X21264592Y-33405063D01*
X21452918Y-33421539D01*
X21499999Y-33425659D01*
X21500000Y-33425659D01*
X21500001Y-33425659D01*
X21539234Y-33422226D01*
X21735408Y-33405063D01*
X21963663Y-33343903D01*
X22177830Y-33244035D01*
X22371401Y-33108495D01*
X22538495Y-32941401D01*
X22674035Y-32747830D01*
X22773903Y-32533663D01*
X22835063Y-32305408D01*
X22855659Y-32070000D01*
X22835063Y-31834592D01*
X22775902Y-31613796D01*
X22773905Y-31606344D01*
X22773904Y-31606343D01*
X22773903Y-31606337D01*
X22674035Y-31392171D01*
X22660643Y-31373044D01*
X22538494Y-31198597D01*
X22371402Y-31031506D01*
X22371396Y-31031501D01*
X22185842Y-30901575D01*
X22142217Y-30846998D01*
X22135023Y-30777500D01*
X22166546Y-30715145D01*
X22185842Y-30698425D01*
X22277797Y-30634037D01*
X22371401Y-30568495D01*
X22538495Y-30401401D01*
X22674035Y-30207830D01*
X22773903Y-29993663D01*
X22835063Y-29765408D01*
X22855659Y-29530000D01*
X22835063Y-29294592D01*
X22773903Y-29066337D01*
X22674035Y-28852171D01*
X22649464Y-28817079D01*
X22538494Y-28658597D01*
X22371402Y-28491506D01*
X22371396Y-28491501D01*
X22185842Y-28361575D01*
X22142217Y-28306998D01*
X22135023Y-28237500D01*
X22166546Y-28175145D01*
X22185842Y-28158425D01*
X22240914Y-28119863D01*
X22371401Y-28028495D01*
X22538495Y-27861401D01*
X22674035Y-27667830D01*
X22773903Y-27453663D01*
X22835063Y-27225408D01*
X22855659Y-26990000D01*
X22835063Y-26754592D01*
X22773903Y-26526337D01*
X22674035Y-26312171D01*
X22538495Y-26118599D01*
X22538494Y-26118597D01*
X22371402Y-25951506D01*
X22371396Y-25951501D01*
X22185842Y-25821575D01*
X22142217Y-25766998D01*
X22135023Y-25697500D01*
X22166546Y-25635145D01*
X22185842Y-25618425D01*
X22221020Y-25593793D01*
X22371401Y-25488495D01*
X22538495Y-25321401D01*
X22674035Y-25127830D01*
X22773903Y-24913663D01*
X22835063Y-24685408D01*
X22855659Y-24450000D01*
X22835063Y-24214592D01*
X22773903Y-23986337D01*
X22674035Y-23772171D01*
X22538495Y-23578599D01*
X22538494Y-23578597D01*
X22371402Y-23411506D01*
X22371396Y-23411501D01*
X22185842Y-23281575D01*
X22142217Y-23226998D01*
X22135023Y-23157500D01*
X22166546Y-23095145D01*
X22185842Y-23078425D01*
X22208026Y-23062891D01*
X22371401Y-22948495D01*
X22538495Y-22781401D01*
X22674035Y-22587830D01*
X22773903Y-22373663D01*
X22835063Y-22145408D01*
X22855659Y-21910000D01*
X22835063Y-21674592D01*
X22773903Y-21446337D01*
X22674035Y-21232171D01*
X22646842Y-21193334D01*
X22538494Y-21038597D01*
X22371402Y-20871506D01*
X22371396Y-20871501D01*
X22185842Y-20741575D01*
X22142217Y-20686998D01*
X22135023Y-20617500D01*
X22166546Y-20555145D01*
X22185842Y-20538425D01*
X22208026Y-20522891D01*
X22371401Y-20408495D01*
X22538495Y-20241401D01*
X22674035Y-20047830D01*
X22773903Y-19833663D01*
X22835063Y-19605408D01*
X22855659Y-19370000D01*
X22835063Y-19134592D01*
X22773903Y-18906337D01*
X22674035Y-18692171D01*
X22593471Y-18577112D01*
X22538494Y-18498597D01*
X22371402Y-18331506D01*
X22371396Y-18331501D01*
X22185842Y-18201575D01*
X22142217Y-18146998D01*
X22135023Y-18077500D01*
X22166546Y-18015145D01*
X22185842Y-17998425D01*
X22208026Y-17982891D01*
X22371401Y-17868495D01*
X22538495Y-17701401D01*
X22674035Y-17507830D01*
X22773903Y-17293663D01*
X22835063Y-17065408D01*
X22855659Y-16830000D01*
X22855659Y-16829999D01*
X22855659Y-16829611D01*
X22855707Y-16829445D01*
X22856131Y-16824606D01*
X22857103Y-16824691D01*
X22875344Y-16762572D01*
X22928148Y-16716817D01*
X22997306Y-16706873D01*
X23060862Y-16735898D01*
X23067340Y-16741930D01*
X23088181Y-16762771D01*
X23121666Y-16824094D01*
X23124500Y-16850452D01*
X23124500Y-32689547D01*
X23104815Y-32756586D01*
X23088181Y-32777228D01*
X22027228Y-33838181D01*
X21965905Y-33871666D01*
X21939547Y-33874500D01*
X15839782Y-33874500D01*
X15772743Y-33854815D01*
X15726988Y-33802011D01*
X15717044Y-33732853D01*
X15746069Y-33669297D01*
X15752101Y-33662819D01*
X16058158Y-33356762D01*
X16328101Y-33086817D01*
X16389424Y-33053333D01*
X16415782Y-33050499D01*
X17097871Y-33050499D01*
X17097872Y-33050499D01*
X17157483Y-33044091D01*
X17292331Y-32993796D01*
X17407546Y-32907546D01*
X17487914Y-32800188D01*
X17543847Y-32758318D01*
X17587180Y-32750500D01*
X17985721Y-32750500D01*
X17988863Y-32750540D01*
X18076358Y-32752757D01*
X18076358Y-32752756D01*
X18076363Y-32752757D01*
X18134425Y-32742349D01*
X18143754Y-32741041D01*
X18202438Y-32735074D01*
X18231471Y-32725964D01*
X18246700Y-32722226D01*
X18276653Y-32716858D01*
X18276657Y-32716856D01*
X18276659Y-32716856D01*
X18331423Y-32694980D01*
X18340292Y-32691821D01*
X18396588Y-32674159D01*
X18423200Y-32659387D01*
X18437362Y-32652662D01*
X18465617Y-32641377D01*
X18514879Y-32608909D01*
X18522910Y-32604043D01*
X18574502Y-32575409D01*
X18574509Y-32575402D01*
X18574512Y-32575401D01*
X18597583Y-32555594D01*
X18610125Y-32546137D01*
X18635519Y-32529402D01*
X18677219Y-32487701D01*
X18684131Y-32481295D01*
X18710793Y-32458405D01*
X18728895Y-32442866D01*
X18747524Y-32418798D01*
X18757884Y-32407035D01*
X19447390Y-31717528D01*
X19449559Y-31715413D01*
X19513053Y-31655059D01*
X19546752Y-31606641D01*
X19552428Y-31599113D01*
X19589698Y-31553407D01*
X19603782Y-31526444D01*
X19611919Y-31513013D01*
X19629295Y-31488049D01*
X19652563Y-31433825D01*
X19656582Y-31425361D01*
X19683909Y-31373049D01*
X19692275Y-31343808D01*
X19697544Y-31329009D01*
X19709538Y-31301062D01*
X19709540Y-31301058D01*
X19721421Y-31243238D01*
X19723650Y-31234155D01*
X19739886Y-31177418D01*
X19742196Y-31147080D01*
X19744376Y-31131540D01*
X19750500Y-31101743D01*
X19750500Y-31042754D01*
X19750858Y-31033339D01*
X19751713Y-31022109D01*
X19755337Y-30974524D01*
X19751493Y-30944339D01*
X19750500Y-30928675D01*
X19750500Y-11465782D01*
X19770185Y-11398743D01*
X19786815Y-11378105D01*
X20033504Y-11131416D01*
X20094826Y-11097932D01*
X20164518Y-11102916D01*
G37*
%TD.AperFunction*%
%TA.AperFunction,Conductor*%
G36*
X1549004Y-31882143D02*
G01*
X1597526Y-31912116D01*
X2271969Y-32586559D01*
X2305454Y-32647882D01*
X2307227Y-32658056D01*
X2314955Y-32716764D01*
X2315263Y-32717912D01*
X2315263Y-32719100D01*
X2316016Y-32724820D01*
X2315263Y-32724919D01*
X2315265Y-32775081D01*
X2316017Y-32775180D01*
X2315265Y-32780884D01*
X2315266Y-32782079D01*
X2314956Y-32783234D01*
X2299500Y-32900638D01*
X2299500Y-33239363D01*
X2314954Y-33356758D01*
X2314955Y-33356761D01*
X2354714Y-33452747D01*
X2362183Y-33522217D01*
X2330908Y-33584696D01*
X2270819Y-33620348D01*
X2200994Y-33617854D01*
X2152472Y-33587881D01*
X1478029Y-32913438D01*
X1444544Y-32852115D01*
X1442774Y-32841962D01*
X1435044Y-32783238D01*
X1435041Y-32783233D01*
X1434738Y-32782096D01*
X1434737Y-32780913D01*
X1433983Y-32775177D01*
X1434737Y-32775077D01*
X1434737Y-32724919D01*
X1433983Y-32724820D01*
X1434737Y-32719092D01*
X1434737Y-32717905D01*
X1435040Y-32716771D01*
X1435044Y-32716762D01*
X1450500Y-32599361D01*
X1450499Y-32260640D01*
X1450499Y-32260636D01*
X1435046Y-32143246D01*
X1435044Y-32143241D01*
X1435044Y-32143238D01*
X1395283Y-32047248D01*
X1387815Y-31977781D01*
X1419090Y-31915301D01*
X1479179Y-31879649D01*
X1549004Y-31882143D01*
G37*
%TD.AperFunction*%
%TA.AperFunction,Conductor*%
G36*
X26192539Y-270185D02*
G01*
X26238294Y-322989D01*
X26249500Y-374500D01*
X26249500Y-18295728D01*
X26229815Y-18362767D01*
X26177011Y-18408522D01*
X26107853Y-18418466D01*
X26075064Y-18409007D01*
X26029807Y-18388857D01*
X26029802Y-18388855D01*
X25884001Y-18357865D01*
X25844646Y-18349500D01*
X25774500Y-18349500D01*
X25707461Y-18329815D01*
X25661706Y-18277011D01*
X25650500Y-18225500D01*
X25650500Y-17223687D01*
X25670185Y-17156648D01*
X25682350Y-17140715D01*
X25717087Y-17102135D01*
X25757533Y-17057216D01*
X25852179Y-16893284D01*
X25910674Y-16713256D01*
X25930460Y-16525000D01*
X25910674Y-16336744D01*
X25852179Y-16156716D01*
X25757533Y-15992784D01*
X25630871Y-15852112D01*
X25630870Y-15852111D01*
X25477734Y-15740851D01*
X25477729Y-15740848D01*
X25304807Y-15663857D01*
X25304802Y-15663855D01*
X25159001Y-15632865D01*
X25119646Y-15624500D01*
X24930354Y-15624500D01*
X24897897Y-15631398D01*
X24745197Y-15663855D01*
X24745192Y-15663857D01*
X24572270Y-15740848D01*
X24572265Y-15740851D01*
X24419129Y-15852111D01*
X24292465Y-15992785D01*
X24291496Y-15994120D01*
X24290737Y-15994704D01*
X24288119Y-15997613D01*
X24287586Y-15997133D01*
X24236164Y-16036783D01*
X24166550Y-16042758D01*
X24104757Y-16010149D01*
X24103501Y-16008910D01*
X22840237Y-14745646D01*
X22806752Y-14684323D01*
X22808142Y-14625876D01*
X22835063Y-14525408D01*
X22855659Y-14290000D01*
X22835063Y-14054592D01*
X22773903Y-13826337D01*
X22674035Y-13612171D01*
X22595493Y-13500000D01*
X22538494Y-13418597D01*
X22371402Y-13251506D01*
X22371401Y-13251505D01*
X22185405Y-13121269D01*
X22141781Y-13066692D01*
X22134588Y-12997193D01*
X22166110Y-12934839D01*
X22185405Y-12918119D01*
X22371082Y-12788105D01*
X22538105Y-12621082D01*
X22673600Y-12427578D01*
X22773429Y-12213492D01*
X22773432Y-12213486D01*
X22830636Y-12000000D01*
X21933686Y-12000000D01*
X21959493Y-11959844D01*
X22000000Y-11821889D01*
X22000000Y-11678111D01*
X21959493Y-11540156D01*
X21933686Y-11500000D01*
X22830636Y-11500000D01*
X22830635Y-11499999D01*
X22773432Y-11286513D01*
X22773429Y-11286507D01*
X22673600Y-11072422D01*
X22673599Y-11072420D01*
X22538113Y-10878926D01*
X22538108Y-10878920D01*
X22416053Y-10756865D01*
X22382568Y-10695542D01*
X22387552Y-10625850D01*
X22429424Y-10569917D01*
X22460400Y-10553002D01*
X22584741Y-10506627D01*
X22592326Y-10503798D01*
X22592326Y-10503797D01*
X22592331Y-10503796D01*
X22707546Y-10417546D01*
X22793796Y-10302331D01*
X22844091Y-10167483D01*
X22850500Y-10107873D01*
X22850499Y-8312128D01*
X22844091Y-8252517D01*
X22793796Y-8117669D01*
X22793795Y-8117668D01*
X22793793Y-8117664D01*
X22707547Y-8002455D01*
X22707544Y-8002452D01*
X22592335Y-7916206D01*
X22592328Y-7916202D01*
X22457482Y-7865908D01*
X22457483Y-7865908D01*
X22397883Y-7859501D01*
X22397881Y-7859500D01*
X22397873Y-7859500D01*
X22397864Y-7859500D01*
X20602129Y-7859500D01*
X20602123Y-7859501D01*
X20542516Y-7865908D01*
X20407671Y-7916202D01*
X20407664Y-7916206D01*
X20292455Y-8002452D01*
X20292452Y-8002455D01*
X20206206Y-8117664D01*
X20206202Y-8117671D01*
X20160399Y-8240478D01*
X20118528Y-8296412D01*
X20090220Y-8312296D01*
X20074384Y-8318622D01*
X20074378Y-8318625D01*
X20025122Y-8351086D01*
X20017069Y-8355965D01*
X19965501Y-8384588D01*
X19942413Y-8404408D01*
X19929887Y-8413852D01*
X19904485Y-8430594D01*
X19904478Y-8430600D01*
X19862774Y-8472303D01*
X19855869Y-8478703D01*
X19811102Y-8517136D01*
X19792480Y-8541193D01*
X19782108Y-8552969D01*
X18087181Y-10247897D01*
X18025858Y-10281382D01*
X17956166Y-10276398D01*
X17900233Y-10234526D01*
X17875816Y-10169062D01*
X17875500Y-10160216D01*
X17875500Y-7560452D01*
X17895185Y-7493413D01*
X17911819Y-7472771D01*
X18261572Y-7123018D01*
X18666611Y-6717978D01*
X18727932Y-6684495D01*
X18774965Y-6685615D01*
X18775180Y-6683983D01*
X18783237Y-6685043D01*
X18783238Y-6685044D01*
X18900639Y-6700500D01*
X19239360Y-6700499D01*
X19239363Y-6700499D01*
X19356753Y-6685046D01*
X19356757Y-6685044D01*
X19356762Y-6685044D01*
X19502841Y-6624536D01*
X19628282Y-6528282D01*
X19724536Y-6402841D01*
X19785044Y-6256762D01*
X19800500Y-6139361D01*
X19800499Y-5860640D01*
X19800499Y-5860638D01*
X19800499Y-5860636D01*
X19785046Y-5743246D01*
X19785044Y-5743239D01*
X19785044Y-5743238D01*
X19724536Y-5597159D01*
X19724535Y-5597158D01*
X19724535Y-5597157D01*
X19666124Y-5521034D01*
X19640930Y-5455865D01*
X19640500Y-5445548D01*
X19640500Y-4327814D01*
X19660185Y-4260775D01*
X19705483Y-4218759D01*
X19714200Y-4214041D01*
X19783626Y-4176470D01*
X19802616Y-4161690D01*
X19926739Y-4065081D01*
X19966784Y-4033913D01*
X20123979Y-3863153D01*
X20250924Y-3668849D01*
X20344157Y-3456300D01*
X20401134Y-3231305D01*
X20406524Y-3166260D01*
X20420300Y-3000006D01*
X20420300Y-2999993D01*
X20401135Y-2768702D01*
X20401133Y-2768691D01*
X20344157Y-2543699D01*
X20250924Y-2331151D01*
X20123983Y-2136852D01*
X20123980Y-2136849D01*
X20123979Y-2136847D01*
X19966784Y-1966087D01*
X19966779Y-1966083D01*
X19966777Y-1966081D01*
X19783634Y-1823535D01*
X19783628Y-1823531D01*
X19579504Y-1713064D01*
X19579495Y-1713061D01*
X19359984Y-1637702D01*
X19172404Y-1606401D01*
X19131049Y-1599500D01*
X18898951Y-1599500D01*
X18857596Y-1606401D01*
X18670015Y-1637702D01*
X18450504Y-1713061D01*
X18450495Y-1713064D01*
X18246371Y-1823531D01*
X18246365Y-1823535D01*
X18063222Y-1966081D01*
X18063215Y-1966087D01*
X18054484Y-1975572D01*
X17994595Y-2011561D01*
X17924757Y-2009458D01*
X17867143Y-1969932D01*
X17847075Y-1934918D01*
X17818355Y-1857915D01*
X17818350Y-1857906D01*
X17732190Y-1742812D01*
X17732187Y-1742809D01*
X17617093Y-1656649D01*
X17617086Y-1656645D01*
X17482379Y-1606403D01*
X17482372Y-1606401D01*
X17422844Y-1600000D01*
X16725000Y-1600000D01*
X16725000Y-2625810D01*
X16672453Y-2589984D01*
X16542827Y-2550000D01*
X16441276Y-2550000D01*
X16340862Y-2565135D01*
X16225000Y-2620931D01*
X16225000Y-1600000D01*
X15527155Y-1600000D01*
X15467627Y-1606401D01*
X15467620Y-1606403D01*
X15332913Y-1656645D01*
X15332906Y-1656649D01*
X15217812Y-1742809D01*
X15217809Y-1742812D01*
X15131649Y-1857906D01*
X15131645Y-1857914D01*
X15122318Y-1882920D01*
X15080445Y-1938853D01*
X15014981Y-1963268D01*
X14946708Y-1948415D01*
X14929975Y-1937437D01*
X14783634Y-1823535D01*
X14783628Y-1823531D01*
X14579504Y-1713064D01*
X14579495Y-1713061D01*
X14359984Y-1637702D01*
X14172404Y-1606401D01*
X14131049Y-1599500D01*
X13898951Y-1599500D01*
X13857596Y-1606401D01*
X13670015Y-1637702D01*
X13450504Y-1713061D01*
X13450495Y-1713064D01*
X13246371Y-1823531D01*
X13246365Y-1823535D01*
X13063222Y-1966081D01*
X13063215Y-1966087D01*
X13054484Y-1975572D01*
X12994595Y-2011561D01*
X12924757Y-2009458D01*
X12867143Y-1969932D01*
X12847075Y-1934918D01*
X12818355Y-1857915D01*
X12818350Y-1857906D01*
X12732190Y-1742812D01*
X12732187Y-1742809D01*
X12617093Y-1656649D01*
X12617086Y-1656645D01*
X12482379Y-1606403D01*
X12482372Y-1606401D01*
X12422844Y-1600000D01*
X11725000Y-1600000D01*
X11725000Y-2625810D01*
X11672453Y-2589984D01*
X11542827Y-2550000D01*
X11441276Y-2550000D01*
X11340862Y-2565135D01*
X11225000Y-2620931D01*
X11225000Y-1600000D01*
X10527155Y-1600000D01*
X10467627Y-1606401D01*
X10467620Y-1606403D01*
X10332913Y-1656645D01*
X10332906Y-1656649D01*
X10217812Y-1742809D01*
X10217809Y-1742812D01*
X10131649Y-1857906D01*
X10131645Y-1857914D01*
X10122318Y-1882920D01*
X10080445Y-1938853D01*
X10014981Y-1963268D01*
X9946708Y-1948415D01*
X9929975Y-1937437D01*
X9783634Y-1823535D01*
X9783628Y-1823531D01*
X9579504Y-1713064D01*
X9579495Y-1713061D01*
X9359984Y-1637702D01*
X9172404Y-1606401D01*
X9131049Y-1599500D01*
X8898951Y-1599500D01*
X8857596Y-1606401D01*
X8670015Y-1637702D01*
X8450504Y-1713061D01*
X8450495Y-1713064D01*
X8246371Y-1823531D01*
X8246365Y-1823535D01*
X8063222Y-1966081D01*
X8063215Y-1966087D01*
X8054484Y-1975572D01*
X7994595Y-2011561D01*
X7924757Y-2009458D01*
X7867143Y-1969932D01*
X7847075Y-1934918D01*
X7818355Y-1857915D01*
X7818350Y-1857906D01*
X7732190Y-1742812D01*
X7732187Y-1742809D01*
X7617093Y-1656649D01*
X7617086Y-1656645D01*
X7482379Y-1606403D01*
X7482372Y-1606401D01*
X7422844Y-1600000D01*
X6725000Y-1600000D01*
X6725000Y-2625810D01*
X6672453Y-2589984D01*
X6542827Y-2550000D01*
X6441276Y-2550000D01*
X6340862Y-2565135D01*
X6225000Y-2620931D01*
X6225000Y-1600000D01*
X5527155Y-1600000D01*
X5467627Y-1606401D01*
X5467620Y-1606403D01*
X5332913Y-1656645D01*
X5332906Y-1656649D01*
X5217812Y-1742809D01*
X5217809Y-1742812D01*
X5131649Y-1857906D01*
X5131645Y-1857914D01*
X5122318Y-1882920D01*
X5080445Y-1938853D01*
X5014981Y-1963268D01*
X4946708Y-1948415D01*
X4929975Y-1937437D01*
X4783634Y-1823535D01*
X4783628Y-1823531D01*
X4579504Y-1713064D01*
X4579495Y-1713061D01*
X4359984Y-1637702D01*
X4172404Y-1606401D01*
X4131049Y-1599500D01*
X3898951Y-1599500D01*
X3857596Y-1606401D01*
X3670015Y-1637702D01*
X3450504Y-1713061D01*
X3450495Y-1713064D01*
X3246371Y-1823531D01*
X3246365Y-1823535D01*
X3063222Y-1966081D01*
X3063215Y-1966087D01*
X3054484Y-1975572D01*
X2994595Y-2011561D01*
X2924757Y-2009458D01*
X2867143Y-1969932D01*
X2847075Y-1934918D01*
X2818355Y-1857915D01*
X2818350Y-1857906D01*
X2732190Y-1742812D01*
X2732187Y-1742809D01*
X2617093Y-1656649D01*
X2617086Y-1656645D01*
X2482379Y-1606403D01*
X2482372Y-1606401D01*
X2422844Y-1600000D01*
X1725000Y-1600000D01*
X1725000Y-2625810D01*
X1672453Y-2589984D01*
X1542827Y-2550000D01*
X1441276Y-2550000D01*
X1340862Y-2565135D01*
X1225000Y-2620931D01*
X1225000Y-1600000D01*
X527155Y-1600000D01*
X467627Y-1606401D01*
X467620Y-1606403D01*
X332913Y-1656645D01*
X332906Y-1656649D01*
X217812Y-1742809D01*
X217809Y-1742812D01*
X131649Y-1857906D01*
X131645Y-1857913D01*
X81403Y-1992620D01*
X81401Y-1992627D01*
X75000Y-2052155D01*
X75000Y-2750000D01*
X1099722Y-2750000D01*
X1051375Y-2833740D01*
X1021190Y-2965992D01*
X1031327Y-3101265D01*
X1080887Y-3227541D01*
X1098797Y-3250000D01*
X75000Y-3250000D01*
X75000Y-3947844D01*
X81401Y-4007372D01*
X81403Y-4007379D01*
X131645Y-4142086D01*
X131649Y-4142093D01*
X217809Y-4257187D01*
X217812Y-4257190D01*
X332906Y-4343350D01*
X332913Y-4343354D01*
X467620Y-4393596D01*
X467627Y-4393598D01*
X527155Y-4399999D01*
X527172Y-4400000D01*
X1225000Y-4400000D01*
X1225000Y-3374189D01*
X1277547Y-3410016D01*
X1407173Y-3450000D01*
X1508724Y-3450000D01*
X1609138Y-3434865D01*
X1725000Y-3379068D01*
X1725000Y-4400000D01*
X2422828Y-4400000D01*
X2422844Y-4399999D01*
X2482372Y-4393598D01*
X2482379Y-4393596D01*
X2617086Y-4343354D01*
X2617093Y-4343350D01*
X2732187Y-4257190D01*
X2732190Y-4257187D01*
X2818350Y-4142093D01*
X2818355Y-4142084D01*
X2847075Y-4065081D01*
X2888945Y-4009147D01*
X2954409Y-3984729D01*
X3022682Y-3999580D01*
X3054484Y-4024428D01*
X3063216Y-4033913D01*
X3063219Y-4033915D01*
X3063222Y-4033918D01*
X3246365Y-4176464D01*
X3246376Y-4176471D01*
X3324517Y-4218759D01*
X3374108Y-4267978D01*
X3389500Y-4327814D01*
X3389500Y-5671389D01*
X3380062Y-5718840D01*
X3369956Y-5743238D01*
X3369955Y-5743239D01*
X3354500Y-5860638D01*
X3354500Y-6139363D01*
X3369953Y-6256753D01*
X3369956Y-6256762D01*
X3430464Y-6402841D01*
X3526718Y-6528282D01*
X3652159Y-6624536D01*
X3798238Y-6685044D01*
X3915639Y-6700500D01*
X4254360Y-6700499D01*
X4254363Y-6700499D01*
X4371755Y-6685045D01*
X4371755Y-6685044D01*
X4371762Y-6685044D01*
X4371767Y-6685041D01*
X4372900Y-6684739D01*
X4374085Y-6684738D01*
X4379821Y-6683984D01*
X4379920Y-6684738D01*
X4430080Y-6684737D01*
X4430180Y-6683983D01*
X4435907Y-6684737D01*
X4437091Y-6684737D01*
X4438234Y-6685043D01*
X4438236Y-6685043D01*
X4438238Y-6685044D01*
X4555639Y-6700500D01*
X4894360Y-6700499D01*
X4894363Y-6700499D01*
X5011753Y-6685046D01*
X5011757Y-6685044D01*
X5011762Y-6685044D01*
X5132726Y-6634938D01*
X5180179Y-6625500D01*
X6689548Y-6625500D01*
X6756587Y-6645185D01*
X6777229Y-6661819D01*
X13753729Y-13638319D01*
X13787214Y-13699642D01*
X13782230Y-13769334D01*
X13740358Y-13825267D01*
X13674894Y-13849684D01*
X13666048Y-13850000D01*
X12796200Y-13850000D01*
X12796200Y-14976000D01*
X12776515Y-15043039D01*
X12723711Y-15088794D01*
X12672200Y-15100000D01*
X12420200Y-15100000D01*
X12353161Y-15080315D01*
X12307406Y-15027511D01*
X12296200Y-14976000D01*
X12296200Y-13955166D01*
X12312813Y-13893166D01*
X12327179Y-13868284D01*
X12385674Y-13688256D01*
X12405460Y-13500000D01*
X12385674Y-13311744D01*
X12327179Y-13131716D01*
X12232533Y-12967784D01*
X12105871Y-12827112D01*
X12105870Y-12827111D01*
X11952734Y-12715851D01*
X11952729Y-12715848D01*
X11779807Y-12638857D01*
X11779802Y-12638855D01*
X11634001Y-12607865D01*
X11594646Y-12599500D01*
X11405354Y-12599500D01*
X11400273Y-12600580D01*
X11330606Y-12595259D01*
X11274875Y-12553119D01*
X11250774Y-12487538D01*
X11250499Y-12479288D01*
X11250499Y-12177129D01*
X11250498Y-12177123D01*
X11244091Y-12117516D01*
X11193797Y-11982671D01*
X11193793Y-11982664D01*
X11107547Y-11867455D01*
X11107544Y-11867452D01*
X10992335Y-11781206D01*
X10992328Y-11781202D01*
X10857482Y-11730908D01*
X10857483Y-11730908D01*
X10797883Y-11724501D01*
X10797881Y-11724500D01*
X10797873Y-11724500D01*
X10797864Y-11724500D01*
X9702129Y-11724500D01*
X9702123Y-11724501D01*
X9642516Y-11730908D01*
X9593332Y-11749253D01*
X9523640Y-11754237D01*
X9506667Y-11749253D01*
X9457482Y-11730908D01*
X9457483Y-11730908D01*
X9397883Y-11724501D01*
X9397881Y-11724500D01*
X9397873Y-11724500D01*
X9397864Y-11724500D01*
X8302129Y-11724500D01*
X8302123Y-11724501D01*
X8242520Y-11730908D01*
X8242517Y-11730908D01*
X8242517Y-11730909D01*
X8193930Y-11749030D01*
X8124240Y-11754013D01*
X8107268Y-11749029D01*
X8058685Y-11730909D01*
X8058683Y-11730908D01*
X7999083Y-11724501D01*
X7999081Y-11724500D01*
X7999073Y-11724500D01*
X7999064Y-11724500D01*
X6903329Y-11724500D01*
X6903323Y-11724501D01*
X6843716Y-11730908D01*
X6794532Y-11749253D01*
X6724840Y-11754237D01*
X6707867Y-11749253D01*
X6658682Y-11730908D01*
X6658683Y-11730908D01*
X6599083Y-11724501D01*
X6599081Y-11724500D01*
X6599073Y-11724500D01*
X6599064Y-11724500D01*
X5503329Y-11724500D01*
X5503323Y-11724501D01*
X5443717Y-11730908D01*
X5393816Y-11749520D01*
X5324125Y-11754503D01*
X5307153Y-11749519D01*
X5258583Y-11731403D01*
X5258572Y-11731401D01*
X5199044Y-11725000D01*
X4901200Y-11725000D01*
X4901200Y-15175000D01*
X5199028Y-15175000D01*
X5199044Y-15174999D01*
X5258572Y-15168598D01*
X5266124Y-15166814D01*
X5266427Y-15168100D01*
X5328051Y-15163689D01*
X5389376Y-15197170D01*
X5422865Y-15258491D01*
X5425700Y-15284857D01*
X5425700Y-17494448D01*
X5406015Y-17561487D01*
X5393850Y-17577420D01*
X5267466Y-17717784D01*
X5172821Y-17881715D01*
X5172818Y-17881722D01*
X5129467Y-18015145D01*
X5114326Y-18061744D01*
X5094540Y-18250000D01*
X5114326Y-18438256D01*
X5114327Y-18438259D01*
X5172818Y-18618277D01*
X5172821Y-18618284D01*
X5267467Y-18782216D01*
X5379225Y-18906335D01*
X5394129Y-18922888D01*
X5547265Y-19034148D01*
X5547270Y-19034151D01*
X5720192Y-19111142D01*
X5720197Y-19111144D01*
X5905354Y-19150500D01*
X5905355Y-19150500D01*
X6094644Y-19150500D01*
X6094646Y-19150500D01*
X6279803Y-19111144D01*
X6452730Y-19034151D01*
X6605871Y-18922888D01*
X6732533Y-18782216D01*
X6827179Y-18618284D01*
X6885674Y-18438256D01*
X6905460Y-18250000D01*
X6885674Y-18061744D01*
X6827179Y-17881716D01*
X6732533Y-17717784D01*
X6727616Y-17712323D01*
X6708550Y-17691148D01*
X6678320Y-17628156D01*
X6676700Y-17608176D01*
X6676700Y-17254439D01*
X6696385Y-17187400D01*
X6749189Y-17141645D01*
X6818347Y-17131701D01*
X6881903Y-17160726D01*
X6892846Y-17171463D01*
X6894129Y-17172888D01*
X6958031Y-17219315D01*
X7047265Y-17284148D01*
X7047270Y-17284151D01*
X7220192Y-17361142D01*
X7220197Y-17361144D01*
X7405354Y-17400500D01*
X7405355Y-17400500D01*
X7594644Y-17400500D01*
X7594646Y-17400500D01*
X7779803Y-17361144D01*
X7952730Y-17284151D01*
X8105871Y-17172888D01*
X8232533Y-17032216D01*
X8327179Y-16868284D01*
X8385674Y-16688256D01*
X8405460Y-16500000D01*
X8385674Y-16311744D01*
X8327179Y-16131716D01*
X8232533Y-15967784D01*
X8108550Y-15830087D01*
X8078320Y-15767096D01*
X8076700Y-15747115D01*
X8076700Y-15285838D01*
X8096385Y-15218799D01*
X8149189Y-15173044D01*
X8218347Y-15163100D01*
X8234953Y-15167340D01*
X8234962Y-15167306D01*
X8250060Y-15170873D01*
X8249439Y-15173500D01*
X8302031Y-15195266D01*
X8341897Y-15252647D01*
X8347575Y-15278879D01*
X8348380Y-15286538D01*
X8364326Y-15438256D01*
X8364327Y-15438259D01*
X8422818Y-15618277D01*
X8422821Y-15618284D01*
X8517467Y-15782216D01*
X8580401Y-15852111D01*
X8644129Y-15922888D01*
X8797265Y-16034148D01*
X8797270Y-16034151D01*
X8970192Y-16111142D01*
X8970197Y-16111144D01*
X9155354Y-16150500D01*
X9155355Y-16150500D01*
X9344644Y-16150500D01*
X9344646Y-16150500D01*
X9529803Y-16111144D01*
X9702730Y-16034151D01*
X9855871Y-15922888D01*
X9982533Y-15782216D01*
X10077179Y-15618284D01*
X10135674Y-15438256D01*
X10151620Y-15286535D01*
X10178203Y-15221923D01*
X10235501Y-15181938D01*
X10274940Y-15175499D01*
X10697200Y-15175499D01*
X10764239Y-15195184D01*
X10809994Y-15247988D01*
X10821200Y-15299499D01*
X10821200Y-15397844D01*
X10827601Y-15457372D01*
X10827603Y-15457383D01*
X10845719Y-15505953D01*
X10850703Y-15575644D01*
X10845720Y-15592616D01*
X10827108Y-15642517D01*
X10820701Y-15702116D01*
X10820700Y-15702135D01*
X10820700Y-16797870D01*
X10820701Y-16797876D01*
X10827108Y-16857482D01*
X10845453Y-16906666D01*
X10850437Y-16976358D01*
X10845453Y-16993331D01*
X10827109Y-17042514D01*
X10827108Y-17042516D01*
X10820701Y-17102116D01*
X10820700Y-17102135D01*
X10820700Y-18197870D01*
X10820701Y-18197876D01*
X10827108Y-18257482D01*
X10845453Y-18306666D01*
X10850437Y-18376358D01*
X10845453Y-18393331D01*
X10827109Y-18442514D01*
X10827108Y-18442516D01*
X10820701Y-18502116D01*
X10820700Y-18502135D01*
X10820700Y-19597870D01*
X10820701Y-19597876D01*
X10827108Y-19657482D01*
X10845453Y-19706666D01*
X10850437Y-19776358D01*
X10845453Y-19793331D01*
X10827109Y-19842514D01*
X10827108Y-19842516D01*
X10820701Y-19902116D01*
X10820700Y-19902135D01*
X10820700Y-20997870D01*
X10820701Y-20997876D01*
X10827108Y-21057482D01*
X10845453Y-21106666D01*
X10850437Y-21176358D01*
X10845453Y-21193331D01*
X10827109Y-21242514D01*
X10827108Y-21242516D01*
X10820701Y-21302116D01*
X10820701Y-21302123D01*
X10820700Y-21302135D01*
X10820700Y-22397870D01*
X10820701Y-22397876D01*
X10827108Y-22457482D01*
X10840204Y-22492593D01*
X10845452Y-22506665D01*
X10845453Y-22506666D01*
X10850437Y-22576358D01*
X10845453Y-22593331D01*
X10827109Y-22642514D01*
X10827108Y-22642516D01*
X10820701Y-22702116D01*
X10820701Y-22702123D01*
X10820700Y-22702135D01*
X10820700Y-23797870D01*
X10820701Y-23797876D01*
X10827108Y-23857482D01*
X10840204Y-23892593D01*
X10845452Y-23906665D01*
X10845453Y-23906666D01*
X10850437Y-23976358D01*
X10845453Y-23993331D01*
X10827109Y-24042514D01*
X10827108Y-24042516D01*
X10820701Y-24102116D01*
X10820701Y-24102123D01*
X10820700Y-24102135D01*
X10820700Y-24201000D01*
X10801015Y-24268039D01*
X10748211Y-24313794D01*
X10696700Y-24325000D01*
X10501200Y-24325000D01*
X10501200Y-25800000D01*
X11251200Y-25800000D01*
X11251200Y-25774499D01*
X11270885Y-25707460D01*
X11323689Y-25661705D01*
X11375195Y-25650499D01*
X13819072Y-25650499D01*
X13878683Y-25644091D01*
X14013531Y-25593796D01*
X14128746Y-25507546D01*
X14214996Y-25392331D01*
X14265291Y-25257483D01*
X14271700Y-25197873D01*
X14271699Y-24102128D01*
X14265291Y-24042517D01*
X14246947Y-23993334D01*
X14241962Y-23923643D01*
X14246947Y-23906665D01*
X14265289Y-23857488D01*
X14265291Y-23857483D01*
X14271700Y-23797873D01*
X14271699Y-22702128D01*
X14265291Y-22642517D01*
X14246947Y-22593334D01*
X14241962Y-22523643D01*
X14246947Y-22506665D01*
X14265289Y-22457488D01*
X14265291Y-22457483D01*
X14271700Y-22397873D01*
X14271699Y-21302128D01*
X14265291Y-21242517D01*
X14261432Y-21232171D01*
X14246947Y-21193334D01*
X14241962Y-21123643D01*
X14246946Y-21106667D01*
X14259756Y-21072322D01*
X14301626Y-21016390D01*
X14318487Y-21006966D01*
X14318092Y-21006247D01*
X14324926Y-21002489D01*
X14324927Y-21002487D01*
X14324932Y-21002486D01*
X14360283Y-20976800D01*
X14370014Y-20970408D01*
X14407620Y-20948170D01*
X14421789Y-20933999D01*
X14436579Y-20921368D01*
X14452787Y-20909594D01*
X14480638Y-20875926D01*
X14488479Y-20867309D01*
X17537819Y-17817970D01*
X17599142Y-17784485D01*
X17668834Y-17789469D01*
X17724767Y-17831341D01*
X17749184Y-17896805D01*
X17749500Y-17905651D01*
X17749500Y-28881519D01*
X17729815Y-28948558D01*
X17677011Y-28994313D01*
X17607853Y-29004257D01*
X17544297Y-28975232D01*
X17506523Y-28916454D01*
X17505725Y-28913613D01*
X17476268Y-28803679D01*
X17476264Y-28803668D01*
X17380136Y-28597521D01*
X17380132Y-28597513D01*
X17329025Y-28524526D01*
X16647953Y-29205598D01*
X16635165Y-29124852D01*
X16577641Y-29011955D01*
X16488045Y-28922359D01*
X16375148Y-28864835D01*
X16294401Y-28852046D01*
X16975472Y-28170974D01*
X16902478Y-28119863D01*
X16696331Y-28023735D01*
X16696317Y-28023730D01*
X16476610Y-27964860D01*
X16476599Y-27964858D01*
X16250002Y-27945034D01*
X16249998Y-27945034D01*
X16023400Y-27964858D01*
X16023389Y-27964860D01*
X15803682Y-28023730D01*
X15803673Y-28023734D01*
X15597516Y-28119866D01*
X15597512Y-28119868D01*
X15524526Y-28170973D01*
X15524526Y-28170974D01*
X16205599Y-28852046D01*
X16124852Y-28864835D01*
X16011955Y-28922359D01*
X15922359Y-29011955D01*
X15864835Y-29124852D01*
X15852046Y-29205598D01*
X15170974Y-28524526D01*
X15170973Y-28524526D01*
X15119868Y-28597512D01*
X15119866Y-28597516D01*
X15023734Y-28803673D01*
X15023730Y-28803682D01*
X14964860Y-29023389D01*
X14964858Y-29023400D01*
X14945034Y-29249997D01*
X14945034Y-29250002D01*
X14964858Y-29476599D01*
X14964860Y-29476610D01*
X15023730Y-29696317D01*
X15023735Y-29696331D01*
X15119863Y-29902478D01*
X15170974Y-29975472D01*
X15852046Y-29294400D01*
X15864835Y-29375148D01*
X15922359Y-29488045D01*
X16011955Y-29577641D01*
X16124852Y-29635165D01*
X16205599Y-29647953D01*
X15519352Y-30334199D01*
X15509506Y-30383194D01*
X15460890Y-30433377D01*
X15405367Y-30448049D01*
X15405423Y-30449099D01*
X15405429Y-30449146D01*
X15405426Y-30449146D01*
X15405436Y-30449324D01*
X15402123Y-30449501D01*
X15342516Y-30455908D01*
X15207671Y-30506202D01*
X15207664Y-30506206D01*
X15092455Y-30592452D01*
X15092452Y-30592455D01*
X15006206Y-30707664D01*
X15006202Y-30707671D01*
X14955908Y-30842517D01*
X14949501Y-30902116D01*
X14949500Y-30902135D01*
X14949500Y-31584216D01*
X14929815Y-31651255D01*
X14913181Y-31671897D01*
X14669778Y-31915301D01*
X14172489Y-32412591D01*
X13946899Y-32638181D01*
X13885576Y-32671666D01*
X13859218Y-32674500D01*
X11160523Y-32674500D01*
X11093484Y-32654815D01*
X11047729Y-32602011D01*
X11037785Y-32532853D01*
X11066810Y-32469297D01*
X11072842Y-32462819D01*
X11167315Y-32368345D01*
X11259356Y-32219124D01*
X11259358Y-32219119D01*
X11314505Y-32052697D01*
X11314506Y-32052690D01*
X11324999Y-31949986D01*
X11325000Y-31949973D01*
X11325000Y-31500000D01*
X9175000Y-31500000D01*
X9157640Y-31517360D01*
X9096317Y-31550844D01*
X9026625Y-31545859D01*
X8982279Y-31517359D01*
X8411818Y-30946898D01*
X8378333Y-30885575D01*
X8375499Y-30859217D01*
X8375499Y-30549998D01*
X8375498Y-30549981D01*
X8364999Y-30447203D01*
X8364998Y-30447200D01*
X8362948Y-30441014D01*
X8309814Y-30280666D01*
X8306820Y-30275812D01*
X8293960Y-30254961D01*
X8275500Y-30189867D01*
X8275500Y-29766798D01*
X8284368Y-29726795D01*
X8282542Y-29726190D01*
X8284814Y-29719334D01*
X8339999Y-29552797D01*
X8350500Y-29450009D01*
X8350499Y-29043539D01*
X8361186Y-29000000D01*
X9150001Y-29000000D01*
X9150001Y-29449986D01*
X9160494Y-29552697D01*
X9215641Y-29719119D01*
X9215643Y-29719124D01*
X9307684Y-29868345D01*
X9364157Y-29924818D01*
X9397642Y-29986141D01*
X9392658Y-30055833D01*
X9364160Y-30100178D01*
X9332683Y-30131656D01*
X9240643Y-30280875D01*
X9240641Y-30280880D01*
X9185494Y-30447302D01*
X9185493Y-30447309D01*
X9175000Y-30550013D01*
X9175000Y-31000000D01*
X10000000Y-31000000D01*
X10000000Y-30183589D01*
X9977834Y-30142996D01*
X9975000Y-30116638D01*
X9975000Y-29000000D01*
X10475000Y-29000000D01*
X10475000Y-29816410D01*
X10497166Y-29857004D01*
X10500000Y-29883362D01*
X10500000Y-31000000D01*
X11324999Y-31000000D01*
X11324999Y-30550028D01*
X11324998Y-30550013D01*
X11314505Y-30447302D01*
X11259358Y-30280880D01*
X11259356Y-30280875D01*
X11167315Y-30131654D01*
X11110842Y-30075181D01*
X11077357Y-30013858D01*
X11082341Y-29944166D01*
X11110843Y-29899818D01*
X11142314Y-29868347D01*
X11234356Y-29719124D01*
X11234358Y-29719119D01*
X11289505Y-29552697D01*
X11289506Y-29552690D01*
X11299999Y-29449986D01*
X11300000Y-29449973D01*
X11300000Y-29000000D01*
X10475000Y-29000000D01*
X9975000Y-29000000D01*
X9150001Y-29000000D01*
X8361186Y-29000000D01*
X8364591Y-28986127D01*
X8385109Y-28946849D01*
X8393475Y-28917608D01*
X8398744Y-28902809D01*
X8410740Y-28874858D01*
X8422621Y-28817038D01*
X8424850Y-28807955D01*
X8441086Y-28751218D01*
X8443396Y-28720880D01*
X8445576Y-28705340D01*
X8451700Y-28675543D01*
X8451700Y-28616554D01*
X8452058Y-28607139D01*
X8452791Y-28597512D01*
X8456537Y-28548324D01*
X8452693Y-28518139D01*
X8451700Y-28502475D01*
X8451700Y-27899499D01*
X8471385Y-27832460D01*
X8524189Y-27786705D01*
X8575700Y-27775499D01*
X9045705Y-27775499D01*
X9112744Y-27795184D01*
X9158499Y-27847988D01*
X9168443Y-27917146D01*
X9163410Y-27938505D01*
X9160495Y-27947300D01*
X9160493Y-27947309D01*
X9150000Y-28050013D01*
X9150000Y-28500000D01*
X9975000Y-28500000D01*
X10475000Y-28500000D01*
X11299999Y-28500000D01*
X11299999Y-28050028D01*
X11299998Y-28050013D01*
X11289505Y-27947302D01*
X11234358Y-27780880D01*
X11234353Y-27780869D01*
X11171481Y-27678938D01*
X11153040Y-27611546D01*
X11173962Y-27544882D01*
X11177753Y-27539529D01*
X11194551Y-27517089D01*
X11194552Y-27517088D01*
X11244797Y-27382376D01*
X11244798Y-27382372D01*
X11251199Y-27322844D01*
X11251200Y-27322827D01*
X11251200Y-26300000D01*
X10501200Y-26300000D01*
X10501200Y-27740438D01*
X10481515Y-27807477D01*
X10475000Y-27815561D01*
X10475000Y-28500000D01*
X9975000Y-28500000D01*
X9975000Y-27384562D01*
X9994685Y-27317523D01*
X10001200Y-27309438D01*
X10001200Y-24325000D01*
X9703355Y-24325000D01*
X9643827Y-24331401D01*
X9643823Y-24331402D01*
X9595246Y-24349520D01*
X9525554Y-24354503D01*
X9508582Y-24349519D01*
X9458685Y-24330909D01*
X9458683Y-24330908D01*
X9399083Y-24324501D01*
X9399081Y-24324500D01*
X9399073Y-24324500D01*
X9399064Y-24324500D01*
X8303329Y-24324500D01*
X8303323Y-24324501D01*
X8243716Y-24330908D01*
X8194532Y-24349253D01*
X8124840Y-24354237D01*
X8107867Y-24349253D01*
X8058682Y-24330908D01*
X8058683Y-24330908D01*
X7999083Y-24324501D01*
X7999081Y-24324500D01*
X7999073Y-24324500D01*
X7999064Y-24324500D01*
X6903329Y-24324500D01*
X6903323Y-24324501D01*
X6843716Y-24330908D01*
X6794532Y-24349253D01*
X6724840Y-24354237D01*
X6707867Y-24349253D01*
X6658682Y-24330908D01*
X6658683Y-24330908D01*
X6599083Y-24324501D01*
X6599081Y-24324500D01*
X6599073Y-24324500D01*
X6599064Y-24324500D01*
X5503329Y-24324500D01*
X5503323Y-24324501D01*
X5443716Y-24330908D01*
X5394532Y-24349253D01*
X5324840Y-24354237D01*
X5307867Y-24349253D01*
X5258682Y-24330908D01*
X5258683Y-24330908D01*
X5199083Y-24324501D01*
X5199081Y-24324500D01*
X5199073Y-24324500D01*
X5199064Y-24324500D01*
X4103329Y-24324500D01*
X4103323Y-24324501D01*
X4043716Y-24330908D01*
X3994532Y-24349253D01*
X3924840Y-24354237D01*
X3907867Y-24349253D01*
X3858682Y-24330908D01*
X3858683Y-24330908D01*
X3799083Y-24324501D01*
X3799081Y-24324500D01*
X3799073Y-24324500D01*
X3799064Y-24324500D01*
X2703329Y-24324500D01*
X2703323Y-24324501D01*
X2643716Y-24330908D01*
X2594532Y-24349253D01*
X2524840Y-24354237D01*
X2507867Y-24349253D01*
X2458682Y-24330908D01*
X2458683Y-24330908D01*
X2399083Y-24324501D01*
X2399081Y-24324500D01*
X2399073Y-24324500D01*
X2399064Y-24324500D01*
X1303329Y-24324500D01*
X1303323Y-24324501D01*
X1243716Y-24330908D01*
X1194532Y-24349253D01*
X1124840Y-24354237D01*
X1107867Y-24349253D01*
X1058682Y-24330908D01*
X1058683Y-24330908D01*
X999083Y-24324501D01*
X999081Y-24324500D01*
X999073Y-24324500D01*
X999065Y-24324500D01*
X54000Y-24324500D01*
X-13039Y-24304815D01*
X-58794Y-24252011D01*
X-70000Y-24200500D01*
X-70000Y-15299000D01*
X-50315Y-15231961D01*
X2489Y-15186206D01*
X54000Y-15175000D01*
X201200Y-15175000D01*
X201200Y-13700000D01*
X701200Y-13700000D01*
X701200Y-15175000D01*
X999028Y-15175000D01*
X999044Y-15174999D01*
X1058577Y-15168597D01*
X1058578Y-15168597D01*
X1107865Y-15150214D01*
X1177556Y-15145228D01*
X1194535Y-15150214D01*
X1243821Y-15168597D01*
X1303355Y-15174999D01*
X1303372Y-15175000D01*
X1601200Y-15175000D01*
X1601200Y-13700000D01*
X701200Y-13700000D01*
X201200Y-13700000D01*
X201200Y-11725000D01*
X701200Y-11725000D01*
X701200Y-13200000D01*
X1601200Y-13200000D01*
X1601200Y-11725000D01*
X1303355Y-11725000D01*
X1243827Y-11731401D01*
X1243819Y-11731403D01*
X1194533Y-11749786D01*
X1124841Y-11754770D01*
X1107867Y-11749786D01*
X1058580Y-11731403D01*
X1058572Y-11731401D01*
X999044Y-11725000D01*
X701200Y-11725000D01*
X201200Y-11725000D01*
X54000Y-11725000D01*
X-13039Y-11705315D01*
X-58794Y-11652511D01*
X-70000Y-11601000D01*
X-70000Y-10860000D01*
X-125500Y-10860000D01*
X-192539Y-10840315D01*
X-238294Y-10787511D01*
X-249500Y-10736000D01*
X-249500Y-10050000D01*
X1362987Y-10050000D01*
X1870500Y-10050000D01*
X1937539Y-10069685D01*
X1983294Y-10122489D01*
X1994500Y-10173999D01*
X1994501Y-10325999D01*
X1974817Y-10393039D01*
X1922013Y-10438794D01*
X1870501Y-10450000D01*
X1362990Y-10450000D01*
X1362988Y-10450001D01*
X1370442Y-10506627D01*
X1370444Y-10506633D01*
X1430899Y-10652585D01*
X1527075Y-10777924D01*
X1652413Y-10874100D01*
X1798365Y-10934554D01*
X1798369Y-10934555D01*
X1915675Y-10949999D01*
X1975498Y-10949999D01*
X2042538Y-10969683D01*
X2088294Y-11022486D01*
X2099500Y-11073999D01*
X2099500Y-12841055D01*
X2097775Y-12856672D01*
X2098061Y-12856699D01*
X2097326Y-12864465D01*
X2099439Y-12931672D01*
X2099500Y-12935567D01*
X2099500Y-12963143D01*
X2099501Y-12963162D01*
X2100003Y-12967138D01*
X2100917Y-12978758D01*
X2101138Y-12985769D01*
X2101200Y-12989676D01*
X2101200Y-15175000D01*
X2399028Y-15175000D01*
X2399044Y-15174999D01*
X2458572Y-15168598D01*
X2466124Y-15166814D01*
X2466427Y-15168100D01*
X2528051Y-15163689D01*
X2589376Y-15197170D01*
X2622865Y-15258491D01*
X2625700Y-15284857D01*
X2625700Y-20049980D01*
X2606015Y-20117019D01*
X2593850Y-20132952D01*
X2517466Y-20217785D01*
X2422821Y-20381715D01*
X2422818Y-20381722D01*
X2370080Y-20544035D01*
X2364326Y-20561744D01*
X2344540Y-20750000D01*
X2364326Y-20938256D01*
X2364327Y-20938259D01*
X2422818Y-21118277D01*
X2422821Y-21118284D01*
X2517467Y-21282216D01*
X2644129Y-21422888D01*
X2797265Y-21534148D01*
X2797270Y-21534151D01*
X2970192Y-21611142D01*
X2970197Y-21611144D01*
X3155354Y-21650500D01*
X3155355Y-21650500D01*
X3344644Y-21650500D01*
X3344646Y-21650500D01*
X3529803Y-21611144D01*
X3702730Y-21534151D01*
X3855871Y-21422888D01*
X3982533Y-21282216D01*
X4077179Y-21118284D01*
X4135674Y-20938256D01*
X4155460Y-20750000D01*
X4135674Y-20561744D01*
X4077179Y-20381716D01*
X3982533Y-20217784D01*
X3908550Y-20135617D01*
X3878320Y-20072625D01*
X3876700Y-20052645D01*
X3876700Y-15284857D01*
X3896385Y-15217818D01*
X3949189Y-15172063D01*
X4018347Y-15162119D01*
X4042513Y-15168287D01*
X4043827Y-15168598D01*
X4103355Y-15174999D01*
X4103372Y-15175000D01*
X4401200Y-15175000D01*
X4401200Y-11725000D01*
X4103355Y-11725000D01*
X4043827Y-11731401D01*
X4043823Y-11731402D01*
X3995246Y-11749520D01*
X3925554Y-11754503D01*
X3908582Y-11749519D01*
X3858685Y-11730909D01*
X3858683Y-11730908D01*
X3799083Y-11724501D01*
X3799081Y-11724500D01*
X3799073Y-11724500D01*
X3799065Y-11724500D01*
X3474500Y-11724500D01*
X3407461Y-11704815D01*
X3361706Y-11652011D01*
X3350500Y-11600500D01*
X3350500Y-10732773D01*
X3370185Y-10665734D01*
X3376118Y-10657295D01*
X3379536Y-10652841D01*
X3440044Y-10506762D01*
X3455500Y-10389361D01*
X3455499Y-10110640D01*
X3455499Y-10110639D01*
X3455499Y-10110636D01*
X3440046Y-9993246D01*
X3440044Y-9993241D01*
X3440044Y-9993238D01*
X3379536Y-9847159D01*
X3283282Y-9721718D01*
X3157841Y-9625464D01*
X3011762Y-9564956D01*
X3011760Y-9564955D01*
X2894361Y-9549500D01*
X2555637Y-9549500D01*
X2438236Y-9564955D01*
X2436111Y-9565525D01*
X2433910Y-9565525D01*
X2430181Y-9566016D01*
X2430116Y-9565525D01*
X2379815Y-9565525D01*
X2379687Y-9566505D01*
X2372251Y-9565525D01*
X2371937Y-9565526D01*
X2371633Y-9565444D01*
X2285000Y-9554038D01*
X2285000Y-9569807D01*
X2265315Y-9636846D01*
X2236488Y-9668181D01*
X2166718Y-9721718D01*
X2107374Y-9799056D01*
X2050948Y-9840257D01*
X1981202Y-9844412D01*
X1920281Y-9810199D01*
X1887529Y-9748482D01*
X1885000Y-9723568D01*
X1885000Y-9554038D01*
X1798369Y-9565444D01*
X1798365Y-9565445D01*
X1652413Y-9625899D01*
X1527075Y-9722075D01*
X1430899Y-9847413D01*
X1370444Y-9993368D01*
X1362987Y-10050000D01*
X-249500Y-10050000D01*
X-249500Y-374500D01*
X-229815Y-307461D01*
X-177011Y-261706D01*
X-125500Y-250500D01*
X26125500Y-250500D01*
X26192539Y-270185D01*
G37*
%TD.AperFunction*%
%TA.AperFunction,Conductor*%
G36*
X2681903Y-30717275D02*
G01*
X2701016Y-30738101D01*
X2709298Y-30749500D01*
X2724381Y-30770260D01*
X2730793Y-30780021D01*
X2753028Y-30817617D01*
X2753033Y-30817624D01*
X2767190Y-30831780D01*
X2779828Y-30846576D01*
X2791605Y-30862786D01*
X2791606Y-30862787D01*
X2825257Y-30890625D01*
X2833898Y-30898488D01*
X3487882Y-31552473D01*
X3521367Y-31613796D01*
X3516383Y-31683488D01*
X3474511Y-31739421D01*
X3409047Y-31763838D01*
X3352748Y-31754715D01*
X3256762Y-31714956D01*
X3198053Y-31707226D01*
X3134158Y-31678960D01*
X3126559Y-31671969D01*
X2513019Y-31058428D01*
X2479534Y-30997105D01*
X2476700Y-30970747D01*
X2476700Y-30810988D01*
X2496385Y-30743949D01*
X2549189Y-30698194D01*
X2618347Y-30688250D01*
X2681903Y-30717275D01*
G37*
%TD.AperFunction*%
%TA.AperFunction,Conductor*%
G36*
X17329024Y-29975471D02*
G01*
X17380136Y-29902478D01*
X17476264Y-29696331D01*
X17476269Y-29696317D01*
X17505725Y-29586387D01*
X17542090Y-29526726D01*
X17604937Y-29496197D01*
X17674312Y-29504492D01*
X17728190Y-29548977D01*
X17749465Y-29615529D01*
X17749500Y-29618480D01*
X17749500Y-30534216D01*
X17729815Y-30601255D01*
X17713181Y-30621898D01*
X17652186Y-30682892D01*
X17590862Y-30716376D01*
X17521170Y-30711391D01*
X17465239Y-30669521D01*
X17407547Y-30592455D01*
X17407544Y-30592452D01*
X17292335Y-30506206D01*
X17292328Y-30506202D01*
X17157482Y-30455908D01*
X17157483Y-30455908D01*
X17097883Y-30449501D01*
X17097881Y-30449500D01*
X17097873Y-30449500D01*
X17097864Y-30449500D01*
X17094548Y-30449322D01*
X17094627Y-30447847D01*
X17033215Y-30429815D01*
X16987460Y-30377011D01*
X16979969Y-30333522D01*
X16294400Y-29647953D01*
X16375148Y-29635165D01*
X16488045Y-29577641D01*
X16577641Y-29488045D01*
X16635165Y-29375148D01*
X16647953Y-29294400D01*
X17329024Y-29975471D01*
G37*
%TD.AperFunction*%
%TA.AperFunction,Conductor*%
G36*
X9125906Y-6684737D02*
G01*
X9127091Y-6684737D01*
X9128235Y-6685043D01*
X9128238Y-6685044D01*
X9186943Y-6692772D01*
X9250840Y-6721038D01*
X9258440Y-6728030D01*
X14449197Y-11918788D01*
X14459022Y-11931051D01*
X14459243Y-11930869D01*
X14464211Y-11936874D01*
X14513222Y-11982899D01*
X14516021Y-11985612D01*
X14535522Y-12005114D01*
X14535526Y-12005117D01*
X14535529Y-12005120D01*
X14538702Y-12007581D01*
X14547579Y-12015163D01*
X14585106Y-12050403D01*
X14582757Y-12052904D01*
X14615947Y-12095741D01*
X14624500Y-12140996D01*
X14624500Y-12440547D01*
X14604815Y-12507586D01*
X14552011Y-12553341D01*
X14482853Y-12563285D01*
X14419297Y-12534260D01*
X14412819Y-12528228D01*
X8796771Y-6912180D01*
X8763286Y-6850857D01*
X8768270Y-6781165D01*
X8810142Y-6725232D01*
X8875606Y-6700815D01*
X8884447Y-6700499D01*
X8944360Y-6700499D01*
X8944363Y-6700499D01*
X9061755Y-6685045D01*
X9061755Y-6685044D01*
X9061762Y-6685044D01*
X9061767Y-6685041D01*
X9062900Y-6684739D01*
X9064085Y-6684738D01*
X9069821Y-6683984D01*
X9069920Y-6684738D01*
X9120079Y-6684737D01*
X9120179Y-6683983D01*
X9125906Y-6684737D01*
G37*
%TD.AperFunction*%
%TA.AperFunction,Conductor*%
G36*
X11277547Y-3410016D02*
G01*
X11407173Y-3450000D01*
X11508724Y-3450000D01*
X11609138Y-3434865D01*
X11725000Y-3379068D01*
X11725000Y-4400000D01*
X12422828Y-4400000D01*
X12422844Y-4399999D01*
X12482372Y-4393598D01*
X12482379Y-4393596D01*
X12617086Y-4343354D01*
X12617093Y-4343350D01*
X12732187Y-4257190D01*
X12732190Y-4257187D01*
X12818350Y-4142093D01*
X12818355Y-4142084D01*
X12847075Y-4065081D01*
X12888945Y-4009147D01*
X12954409Y-3984729D01*
X13022682Y-3999580D01*
X13054484Y-4024428D01*
X13063216Y-4033913D01*
X13063219Y-4033915D01*
X13063222Y-4033918D01*
X13246365Y-4176464D01*
X13246376Y-4176471D01*
X13324517Y-4218759D01*
X13374108Y-4267978D01*
X13389500Y-4327814D01*
X13389500Y-5406451D01*
X13369815Y-5473490D01*
X13363876Y-5481937D01*
X13275464Y-5597157D01*
X13214956Y-5743237D01*
X13214955Y-5743239D01*
X13199500Y-5860638D01*
X13199500Y-6139363D01*
X13214953Y-6256753D01*
X13214956Y-6256762D01*
X13275464Y-6402841D01*
X13371718Y-6528282D01*
X13497159Y-6624536D01*
X13643238Y-6685044D01*
X13760639Y-6700500D01*
X14099360Y-6700499D01*
X14099363Y-6700499D01*
X14216755Y-6685045D01*
X14216755Y-6685044D01*
X14216762Y-6685044D01*
X14216767Y-6685041D01*
X14217900Y-6684739D01*
X14219085Y-6684738D01*
X14224821Y-6683984D01*
X14224920Y-6684738D01*
X14275079Y-6684737D01*
X14275179Y-6683983D01*
X14280906Y-6684737D01*
X14282091Y-6684737D01*
X14283235Y-6685043D01*
X14283238Y-6685044D01*
X14341943Y-6692772D01*
X14405840Y-6721038D01*
X14413440Y-6728030D01*
X15588181Y-7902771D01*
X15621666Y-7964094D01*
X15624500Y-7990452D01*
X15624500Y-10943968D01*
X15604815Y-11011007D01*
X15552011Y-11056762D01*
X15482853Y-11066706D01*
X15419297Y-11037681D01*
X15415616Y-11034360D01*
X15405585Y-11024940D01*
X15405577Y-11024935D01*
X15388029Y-11015288D01*
X15371763Y-11004604D01*
X15355933Y-10992325D01*
X15315851Y-10974980D01*
X15305367Y-10969844D01*
X15269268Y-10949999D01*
X15267091Y-10948802D01*
X15260013Y-10946000D01*
X15217978Y-10918388D01*
X10173029Y-5873438D01*
X10139544Y-5812115D01*
X10137774Y-5801962D01*
X10130044Y-5743238D01*
X10069536Y-5597159D01*
X9973282Y-5471718D01*
X9847841Y-5375464D01*
X9841827Y-5372973D01*
X9701762Y-5314956D01*
X9701760Y-5314955D01*
X9584370Y-5299501D01*
X9584367Y-5299500D01*
X9584361Y-5299500D01*
X9584354Y-5299500D01*
X9524500Y-5299500D01*
X9457461Y-5279815D01*
X9411706Y-5227011D01*
X9400500Y-5175500D01*
X9400500Y-4436921D01*
X9420185Y-4369882D01*
X9472989Y-4324127D01*
X9484218Y-4319646D01*
X9579503Y-4286936D01*
X9783626Y-4176470D01*
X9929977Y-4062560D01*
X9994968Y-4036919D01*
X10063508Y-4050485D01*
X10113833Y-4098953D01*
X10122318Y-4117080D01*
X10131644Y-4142083D01*
X10131649Y-4142093D01*
X10217809Y-4257187D01*
X10217812Y-4257190D01*
X10332906Y-4343350D01*
X10332913Y-4343354D01*
X10467620Y-4393596D01*
X10467627Y-4393598D01*
X10527155Y-4399999D01*
X10527172Y-4400000D01*
X11225000Y-4400000D01*
X11225000Y-3374189D01*
X11277547Y-3410016D01*
G37*
%TD.AperFunction*%
%TA.AperFunction,Conductor*%
G36*
X16277547Y-3410016D02*
G01*
X16407173Y-3450000D01*
X16508724Y-3450000D01*
X16609138Y-3434865D01*
X16725000Y-3379068D01*
X16725000Y-4400000D01*
X17422828Y-4400000D01*
X17422844Y-4399999D01*
X17482372Y-4393598D01*
X17482379Y-4393596D01*
X17617086Y-4343354D01*
X17617093Y-4343350D01*
X17732187Y-4257190D01*
X17732190Y-4257187D01*
X17818350Y-4142093D01*
X17818355Y-4142084D01*
X17847075Y-4065081D01*
X17888945Y-4009147D01*
X17954409Y-3984729D01*
X18022682Y-3999580D01*
X18054484Y-4024428D01*
X18063216Y-4033913D01*
X18063219Y-4033915D01*
X18063222Y-4033918D01*
X18246365Y-4176464D01*
X18246376Y-4176471D01*
X18324517Y-4218759D01*
X18374108Y-4267978D01*
X18389500Y-4327814D01*
X18389500Y-5175500D01*
X18369815Y-5242539D01*
X18317011Y-5288294D01*
X18265514Y-5299500D01*
X18260640Y-5299500D01*
X18143246Y-5314953D01*
X18143237Y-5314956D01*
X17997160Y-5375463D01*
X17871718Y-5471718D01*
X17775463Y-5597160D01*
X17714956Y-5743237D01*
X17714955Y-5743239D01*
X17705888Y-5812115D01*
X17699501Y-5860636D01*
X17699500Y-5860645D01*
X17699500Y-5864546D01*
X17679815Y-5931585D01*
X17663181Y-5952227D01*
X16866208Y-6749199D01*
X16853951Y-6759020D01*
X16854134Y-6759241D01*
X16848122Y-6764214D01*
X16802098Y-6813223D01*
X16799391Y-6816016D01*
X16779889Y-6835517D01*
X16779875Y-6835534D01*
X16777407Y-6838715D01*
X16769843Y-6847570D01*
X16739937Y-6879418D01*
X16739936Y-6879420D01*
X16730284Y-6896976D01*
X16719610Y-6913226D01*
X16707329Y-6929061D01*
X16707324Y-6929068D01*
X16689975Y-6969158D01*
X16684837Y-6979646D01*
X16675502Y-6996626D01*
X16625955Y-7045890D01*
X16557640Y-7060546D01*
X16492246Y-7035942D01*
X16479159Y-7024569D01*
X15328029Y-5873438D01*
X15294544Y-5812115D01*
X15292774Y-5801962D01*
X15285044Y-5743238D01*
X15224536Y-5597159D01*
X15128282Y-5471718D01*
X15002841Y-5375464D01*
X14996827Y-5372973D01*
X14960054Y-5357741D01*
X14856762Y-5314956D01*
X14839051Y-5312624D01*
X14748314Y-5300678D01*
X14684418Y-5272411D01*
X14645947Y-5214086D01*
X14640500Y-5177739D01*
X14640500Y-4327814D01*
X14660185Y-4260775D01*
X14705483Y-4218759D01*
X14714200Y-4214041D01*
X14783626Y-4176470D01*
X14929977Y-4062560D01*
X14994968Y-4036919D01*
X15063508Y-4050485D01*
X15113833Y-4098953D01*
X15122318Y-4117080D01*
X15131644Y-4142083D01*
X15131649Y-4142093D01*
X15217809Y-4257187D01*
X15217812Y-4257190D01*
X15332906Y-4343350D01*
X15332913Y-4343354D01*
X15467620Y-4393596D01*
X15467627Y-4393598D01*
X15527155Y-4399999D01*
X15527172Y-4400000D01*
X16225000Y-4400000D01*
X16225000Y-3374189D01*
X16277547Y-3410016D01*
G37*
%TD.AperFunction*%
%TA.AperFunction,Conductor*%
G36*
X6277547Y-3410016D02*
G01*
X6407173Y-3450000D01*
X6508724Y-3450000D01*
X6609138Y-3434865D01*
X6725000Y-3379068D01*
X6725000Y-4400000D01*
X7422828Y-4400000D01*
X7422844Y-4399999D01*
X7482372Y-4393598D01*
X7482379Y-4393596D01*
X7617086Y-4343354D01*
X7617093Y-4343350D01*
X7732187Y-4257190D01*
X7732190Y-4257187D01*
X7818350Y-4142093D01*
X7818355Y-4142084D01*
X7847075Y-4065081D01*
X7888945Y-4009147D01*
X7954409Y-3984729D01*
X8022682Y-3999580D01*
X8054484Y-4024428D01*
X8063216Y-4033913D01*
X8063219Y-4033915D01*
X8063221Y-4033918D01*
X8101661Y-4063836D01*
X8142475Y-4120546D01*
X8149500Y-4161690D01*
X8149500Y-5517225D01*
X8129815Y-5584264D01*
X8123879Y-5592707D01*
X8120465Y-5597156D01*
X8059956Y-5743237D01*
X8059955Y-5743239D01*
X8044499Y-5860644D01*
X8044234Y-5864690D01*
X8043301Y-5864628D01*
X8024815Y-5927586D01*
X7972011Y-5973341D01*
X7902853Y-5983285D01*
X7839297Y-5954260D01*
X7832819Y-5948228D01*
X7500803Y-5616212D01*
X7490980Y-5603950D01*
X7490759Y-5604134D01*
X7485786Y-5598122D01*
X7436776Y-5552099D01*
X7433977Y-5549386D01*
X7414477Y-5529885D01*
X7414471Y-5529880D01*
X7411286Y-5527409D01*
X7402434Y-5519848D01*
X7370582Y-5489938D01*
X7370580Y-5489936D01*
X7370577Y-5489935D01*
X7353029Y-5480288D01*
X7336763Y-5469604D01*
X7320932Y-5457324D01*
X7280849Y-5439978D01*
X7270363Y-5434841D01*
X7232094Y-5413803D01*
X7232092Y-5413802D01*
X7212693Y-5408822D01*
X7194281Y-5402518D01*
X7175898Y-5394562D01*
X7175892Y-5394560D01*
X7132760Y-5387729D01*
X7121322Y-5385361D01*
X7079020Y-5374500D01*
X7079019Y-5374500D01*
X7058984Y-5374500D01*
X7039586Y-5372973D01*
X7032162Y-5371797D01*
X7019805Y-5369840D01*
X7019804Y-5369840D01*
X6976325Y-5373950D01*
X6964656Y-5374500D01*
X5180179Y-5374500D01*
X5132726Y-5365061D01*
X5011762Y-5314956D01*
X5011760Y-5314955D01*
X4894370Y-5299501D01*
X4894367Y-5299500D01*
X4894361Y-5299500D01*
X4894354Y-5299500D01*
X4764500Y-5299500D01*
X4697461Y-5279815D01*
X4651706Y-5227011D01*
X4640500Y-5175500D01*
X4640500Y-4327814D01*
X4660185Y-4260775D01*
X4705483Y-4218759D01*
X4714200Y-4214041D01*
X4783626Y-4176470D01*
X4929977Y-4062560D01*
X4994968Y-4036919D01*
X5063508Y-4050485D01*
X5113833Y-4098953D01*
X5122318Y-4117080D01*
X5131644Y-4142083D01*
X5131649Y-4142093D01*
X5217809Y-4257187D01*
X5217812Y-4257190D01*
X5332906Y-4343350D01*
X5332913Y-4343354D01*
X5467620Y-4393596D01*
X5467627Y-4393598D01*
X5527155Y-4399999D01*
X5527172Y-4400000D01*
X6225000Y-4400000D01*
X6225000Y-3374189D01*
X6277547Y-3410016D01*
G37*
%TD.AperFunction*%
%TD*%
M02*
