G04 #@! TF.GenerationSoftware,KiCad,Pcbnew,7.0.10*
G04 #@! TF.CreationDate,2024-05-11T01:00:56-04:00*
G04 #@! TF.ProjectId,Remote PCB V2,52656d6f-7465-4205-9043-422056322e6b,rev?*
G04 #@! TF.SameCoordinates,Original*
G04 #@! TF.FileFunction,Soldermask,Top*
G04 #@! TF.FilePolarity,Negative*
%FSLAX46Y46*%
G04 Gerber Fmt 4.6, Leading zero omitted, Abs format (unit mm)*
G04 Created by KiCad (PCBNEW 7.0.10) date 2024-05-11 01:00:56*
%MOMM*%
%LPD*%
G01*
G04 APERTURE LIST*
G04 Aperture macros list*
%AMRoundRect*
0 Rectangle with rounded corners*
0 $1 Rounding radius*
0 $2 $3 $4 $5 $6 $7 $8 $9 X,Y pos of 4 corners*
0 Add a 4 corners polygon primitive as box body*
4,1,4,$2,$3,$4,$5,$6,$7,$8,$9,$2,$3,0*
0 Add four circle primitives for the rounded corners*
1,1,$1+$1,$2,$3*
1,1,$1+$1,$4,$5*
1,1,$1+$1,$6,$7*
1,1,$1+$1,$8,$9*
0 Add four rect primitives between the rounded corners*
20,1,$1+$1,$2,$3,$4,$5,0*
20,1,$1+$1,$4,$5,$6,$7,0*
20,1,$1+$1,$6,$7,$8,$9,0*
20,1,$1+$1,$8,$9,$2,$3,0*%
G04 Aperture macros list end*
%ADD10RoundRect,0.250000X-0.650000X0.412500X-0.650000X-0.412500X0.650000X-0.412500X0.650000X0.412500X0*%
%ADD11R,1.700000X1.700000*%
%ADD12O,3.048000X1.850000*%
%ADD13RoundRect,0.237500X0.237500X-0.250000X0.237500X0.250000X-0.237500X0.250000X-0.237500X-0.250000X0*%
%ADD14RoundRect,0.237500X-0.237500X0.250000X-0.237500X-0.250000X0.237500X-0.250000X0.237500X0.250000X0*%
%ADD15O,1.850000X3.048000*%
%ADD16RoundRect,0.237500X0.250000X0.237500X-0.250000X0.237500X-0.250000X-0.237500X0.250000X-0.237500X0*%
%ADD17RoundRect,0.500000X0.500000X-1.000000X0.500000X1.000000X-0.500000X1.000000X-0.500000X-1.000000X0*%
%ADD18RoundRect,0.220000X0.880000X-0.880000X0.880000X0.880000X-0.880000X0.880000X-0.880000X-0.880000X0*%
%ADD19R,1.000000X1.000000*%
%ADD20C,1.300000*%
%ADD21C,1.200000*%
%ADD22R,2.450000X1.000000*%
%ADD23R,1.000000X2.450000*%
G04 APERTURE END LIST*
D10*
X105664000Y-56896000D03*
X105664000Y-60021000D03*
D11*
X77851000Y-65278000D03*
D12*
X80230000Y-3754000D03*
X92730000Y-3754000D03*
X80230000Y-8754000D03*
X92730000Y-8754000D03*
D13*
X105283000Y-64031500D03*
X105283000Y-62206500D03*
D14*
X86106000Y-64111500D03*
X86106000Y-65936500D03*
D12*
X80230000Y-33754000D03*
X92730000Y-33754000D03*
X80230000Y-38754000D03*
X92730000Y-38754000D03*
D11*
X64643000Y-65278000D03*
D15*
X68730000Y-27504000D03*
X68730000Y-15004000D03*
X73730000Y-27504000D03*
X73730000Y-15004000D03*
X99230000Y-27504000D03*
X99230000Y-15004000D03*
X104230000Y-27504000D03*
X104230000Y-15004000D03*
D16*
X74699500Y-65659000D03*
X72874500Y-65659000D03*
D17*
X63870000Y-61754000D03*
X66410000Y-61754000D03*
X68950000Y-61754000D03*
X71490000Y-61754000D03*
X74030000Y-61754000D03*
X76570000Y-61754000D03*
X79110000Y-61754000D03*
X81650000Y-61754000D03*
X84190000Y-61754000D03*
X84190000Y-44754000D03*
X81650000Y-44754000D03*
X79110000Y-44754000D03*
X76570000Y-44754000D03*
X74030000Y-44754000D03*
X71490000Y-44754000D03*
X68950000Y-44754000D03*
X66410000Y-44754000D03*
X63870000Y-44754000D03*
D18*
X64030000Y-55154000D03*
X64030000Y-51154000D03*
D19*
X68430000Y-54254000D03*
X68430000Y-52254000D03*
D20*
X69930000Y-58754000D03*
X71700000Y-58754000D03*
X73470000Y-58754000D03*
X75240000Y-58754000D03*
X77010000Y-58754000D03*
X78780000Y-58754000D03*
X80550000Y-58754000D03*
X82320000Y-58754000D03*
X82320000Y-48054000D03*
X80550000Y-48054000D03*
X78780000Y-48054000D03*
X77010000Y-48054000D03*
X75240000Y-48054000D03*
X73470000Y-48054000D03*
D21*
X71700000Y-48054000D03*
D20*
X69930000Y-48054000D03*
X69930000Y-50854000D03*
X71700000Y-50854000D03*
X73470000Y-50854000D03*
X75240000Y-50854000D03*
D22*
X101530000Y-66802800D03*
X101530000Y-65402800D03*
X101530000Y-64002800D03*
X101530000Y-62602800D03*
X101530000Y-61202800D03*
X101530000Y-59802800D03*
X101530000Y-58402800D03*
X101530000Y-57002800D03*
D23*
X100130000Y-54707800D03*
X98730000Y-54707800D03*
X97330000Y-54707800D03*
X95930000Y-54707800D03*
X94530000Y-54707800D03*
X93130000Y-54707800D03*
X91730000Y-54707800D03*
X90330000Y-54707800D03*
D22*
X88930000Y-57004000D03*
X88930000Y-58404000D03*
X88930000Y-59802800D03*
X88930000Y-61202800D03*
X88930000Y-62602800D03*
X88930000Y-64002800D03*
X88930000Y-65402800D03*
X88930000Y-66802800D03*
D12*
X80230000Y-18754000D03*
X92730000Y-18754000D03*
X80230000Y-23754000D03*
X92730000Y-23754000D03*
D16*
X70231000Y-65659000D03*
X68406000Y-65659000D03*
M02*
