G04 #@! TF.GenerationSoftware,KiCad,Pcbnew,7.0.10*
G04 #@! TF.CreationDate,2024-05-11T00:59:34-04:00*
G04 #@! TF.ProjectId,Remote PCB V2,52656d6f-7465-4205-9043-422056322e6b,rev?*
G04 #@! TF.SameCoordinates,Original*
G04 #@! TF.FileFunction,Copper,L2,Bot*
G04 #@! TF.FilePolarity,Positive*
%FSLAX46Y46*%
G04 Gerber Fmt 4.6, Leading zero omitted, Abs format (unit mm)*
G04 Created by KiCad (PCBNEW 7.0.10) date 2024-05-11 00:59:34*
%MOMM*%
%LPD*%
G01*
G04 APERTURE LIST*
G04 #@! TA.AperFunction,ComponentPad*
%ADD10R,1.700000X1.700000*%
G04 #@! TD*
G04 #@! TA.AperFunction,ComponentPad*
%ADD11O,3.048000X1.850000*%
G04 #@! TD*
G04 #@! TA.AperFunction,ComponentPad*
%ADD12O,1.850000X3.048000*%
G04 #@! TD*
G04 #@! TA.AperFunction,ViaPad*
%ADD13C,0.800000*%
G04 #@! TD*
G04 #@! TA.AperFunction,Conductor*
%ADD14C,0.500000*%
G04 #@! TD*
G04 #@! TA.AperFunction,Conductor*
%ADD15C,0.250000*%
G04 #@! TD*
G04 APERTURE END LIST*
D10*
X77851000Y-65278000D03*
D11*
X80230000Y-3754000D03*
X92730000Y-3754000D03*
X80230000Y-8754000D03*
X92730000Y-8754000D03*
X80230000Y-33754000D03*
X92730000Y-33754000D03*
X80230000Y-38754000D03*
X92730000Y-38754000D03*
D10*
X64643000Y-65278000D03*
D12*
X68730000Y-27504000D03*
X68730000Y-15004000D03*
X73730000Y-27504000D03*
X73730000Y-15004000D03*
X99230000Y-27504000D03*
X99230000Y-15004000D03*
X104230000Y-27504000D03*
X104230000Y-15004000D03*
D11*
X80230000Y-18754000D03*
X92730000Y-18754000D03*
X80230000Y-23754000D03*
X92730000Y-23754000D03*
D13*
X77597000Y-42418000D03*
X71501000Y-66294000D03*
X103759000Y-60960000D03*
X105664000Y-60021000D03*
X69088000Y-45593000D03*
X88930000Y-58404000D03*
X76454000Y-60833000D03*
X73914000Y-61722000D03*
X88930000Y-59802800D03*
X88930000Y-61202800D03*
X71628000Y-62738000D03*
X79248000Y-62611000D03*
X105283000Y-62206500D03*
X74676000Y-64516000D03*
X64071500Y-51244500D03*
D14*
X108839000Y-56846000D02*
X105664000Y-60021000D01*
X69088000Y-45593000D02*
X99314000Y-45593000D01*
X99314000Y-45593000D02*
X108839000Y-55118000D01*
X108839000Y-55118000D02*
X108839000Y-56846000D01*
D15*
X76454000Y-59690000D02*
X77724000Y-58420000D01*
X88914000Y-58420000D02*
X88930000Y-58404000D01*
X76454000Y-60833000D02*
X76454000Y-59690000D01*
X77724000Y-58420000D02*
X88914000Y-58420000D01*
X78500200Y-59802800D02*
X88930000Y-59802800D01*
X73914000Y-61722000D02*
X76590305Y-61722000D01*
X76590305Y-61722000D02*
X77179000Y-61133305D01*
X77179000Y-61133305D02*
X77179000Y-61124000D01*
X77179000Y-61124000D02*
X78500200Y-59802800D01*
X88814200Y-61087000D02*
X88930000Y-61202800D01*
X78740000Y-61087000D02*
X88814200Y-61087000D01*
X77089000Y-62738000D02*
X78740000Y-61087000D01*
X71628000Y-62738000D02*
X77089000Y-62738000D01*
X103378000Y-62230000D02*
X105259500Y-62230000D01*
X79248000Y-62611000D02*
X102997000Y-62611000D01*
X102997000Y-62611000D02*
X103378000Y-62230000D01*
X105259500Y-62230000D02*
X105283000Y-62206500D01*
D14*
X66421000Y-60833000D02*
X66421000Y-53594000D01*
X70104000Y-64516000D02*
X69850000Y-64262000D01*
X74676000Y-64516000D02*
X70104000Y-64516000D01*
X66421000Y-53594000D02*
X64071500Y-51244500D01*
X69850000Y-64262000D02*
X66421000Y-60833000D01*
D15*
X63881000Y-51054000D02*
X64071500Y-51244500D01*
G04 #@! TA.AperFunction,Conductor*
G36*
X110178539Y-274185D02*
G01*
X110224294Y-326989D01*
X110235500Y-378500D01*
X110235500Y-67185500D01*
X110215815Y-67252539D01*
X110163011Y-67298294D01*
X110111500Y-67309500D01*
X62354500Y-67309500D01*
X62287461Y-67289815D01*
X62241706Y-67237011D01*
X62230500Y-67185500D01*
X62230500Y-66175844D01*
X63293000Y-66175844D01*
X63299401Y-66235372D01*
X63299403Y-66235379D01*
X63349645Y-66370086D01*
X63349649Y-66370093D01*
X63435809Y-66485187D01*
X63435812Y-66485190D01*
X63550906Y-66571350D01*
X63550913Y-66571354D01*
X63685620Y-66621596D01*
X63685627Y-66621598D01*
X63745155Y-66627999D01*
X63745172Y-66628000D01*
X64393000Y-66628000D01*
X64393000Y-65713501D01*
X64500685Y-65762680D01*
X64607237Y-65778000D01*
X64678763Y-65778000D01*
X64785315Y-65762680D01*
X64893000Y-65713501D01*
X64893000Y-66628000D01*
X65540828Y-66628000D01*
X65540844Y-66627999D01*
X65600372Y-66621598D01*
X65600379Y-66621596D01*
X65735086Y-66571354D01*
X65735093Y-66571350D01*
X65850187Y-66485190D01*
X65850190Y-66485187D01*
X65936350Y-66370093D01*
X65936354Y-66370086D01*
X65986596Y-66235379D01*
X65986598Y-66235372D01*
X65992996Y-66175870D01*
X76500500Y-66175870D01*
X76500501Y-66175876D01*
X76506908Y-66235483D01*
X76557202Y-66370328D01*
X76557206Y-66370335D01*
X76643452Y-66485544D01*
X76643455Y-66485547D01*
X76758664Y-66571793D01*
X76758671Y-66571797D01*
X76893517Y-66622091D01*
X76893516Y-66622091D01*
X76900444Y-66622835D01*
X76953127Y-66628500D01*
X78748872Y-66628499D01*
X78808483Y-66622091D01*
X78943331Y-66571796D01*
X79058546Y-66485546D01*
X79144796Y-66370331D01*
X79195091Y-66235483D01*
X79201500Y-66175873D01*
X79201499Y-64380128D01*
X79195091Y-64320517D01*
X79144884Y-64185906D01*
X79144797Y-64185671D01*
X79144793Y-64185664D01*
X79058547Y-64070455D01*
X79058544Y-64070452D01*
X78943335Y-63984206D01*
X78943328Y-63984202D01*
X78808482Y-63933908D01*
X78808483Y-63933908D01*
X78748883Y-63927501D01*
X78748881Y-63927500D01*
X78748873Y-63927500D01*
X78748864Y-63927500D01*
X76953129Y-63927500D01*
X76953123Y-63927501D01*
X76893516Y-63933908D01*
X76758671Y-63984202D01*
X76758664Y-63984206D01*
X76643455Y-64070452D01*
X76643452Y-64070455D01*
X76557206Y-64185664D01*
X76557202Y-64185671D01*
X76506908Y-64320517D01*
X76500501Y-64380116D01*
X76500501Y-64380123D01*
X76500500Y-64380135D01*
X76500500Y-66175870D01*
X65992996Y-66175870D01*
X65992999Y-66175844D01*
X65993000Y-66175827D01*
X65993000Y-65528000D01*
X65076686Y-65528000D01*
X65102493Y-65487844D01*
X65143000Y-65349889D01*
X65143000Y-65206111D01*
X65102493Y-65068156D01*
X65076686Y-65028000D01*
X65993000Y-65028000D01*
X65993000Y-64380172D01*
X65992999Y-64380155D01*
X65986598Y-64320627D01*
X65986596Y-64320620D01*
X65936354Y-64185913D01*
X65936350Y-64185906D01*
X65850190Y-64070812D01*
X65850187Y-64070809D01*
X65735093Y-63984649D01*
X65735086Y-63984645D01*
X65600379Y-63934403D01*
X65600372Y-63934401D01*
X65540844Y-63928000D01*
X64893000Y-63928000D01*
X64893000Y-64842498D01*
X64785315Y-64793320D01*
X64678763Y-64778000D01*
X64607237Y-64778000D01*
X64500685Y-64793320D01*
X64393000Y-64842498D01*
X64393000Y-63928000D01*
X63745155Y-63928000D01*
X63685627Y-63934401D01*
X63685620Y-63934403D01*
X63550913Y-63984645D01*
X63550906Y-63984649D01*
X63435812Y-64070809D01*
X63435809Y-64070812D01*
X63349649Y-64185906D01*
X63349645Y-64185913D01*
X63299403Y-64320620D01*
X63299401Y-64320627D01*
X63293000Y-64380155D01*
X63293000Y-65028000D01*
X64209314Y-65028000D01*
X64183507Y-65068156D01*
X64143000Y-65206111D01*
X64143000Y-65349889D01*
X64183507Y-65487844D01*
X64209314Y-65528000D01*
X63293000Y-65528000D01*
X63293000Y-66175844D01*
X62230500Y-66175844D01*
X62230500Y-51244500D01*
X63166040Y-51244500D01*
X63185826Y-51432756D01*
X63185827Y-51432759D01*
X63244318Y-51612777D01*
X63244321Y-51612784D01*
X63338967Y-51776716D01*
X63465629Y-51917388D01*
X63618765Y-52028648D01*
X63618770Y-52028651D01*
X63791691Y-52105642D01*
X63791693Y-52105642D01*
X63791697Y-52105644D01*
X63856829Y-52119487D01*
X63918309Y-52152678D01*
X63918728Y-52153096D01*
X65634181Y-53868549D01*
X65667666Y-53929872D01*
X65670500Y-53956230D01*
X65670500Y-60769294D01*
X65669191Y-60787263D01*
X65665710Y-60811025D01*
X65670028Y-60860368D01*
X65670500Y-60871176D01*
X65670500Y-60876711D01*
X65674098Y-60907495D01*
X65674464Y-60911083D01*
X65681000Y-60985791D01*
X65682461Y-60992867D01*
X65682403Y-60992878D01*
X65684034Y-61000237D01*
X65684092Y-61000224D01*
X65685757Y-61007249D01*
X65685758Y-61007254D01*
X65685759Y-61007255D01*
X65700992Y-61049110D01*
X65711400Y-61077705D01*
X65712582Y-61081107D01*
X65736182Y-61152326D01*
X65739236Y-61158874D01*
X65739182Y-61158898D01*
X65742470Y-61165688D01*
X65742521Y-61165663D01*
X65745761Y-61172114D01*
X65786979Y-61234784D01*
X65788889Y-61237782D01*
X65819972Y-61288174D01*
X65828289Y-61301658D01*
X65832766Y-61307319D01*
X65832719Y-61307356D01*
X65837482Y-61313202D01*
X65837528Y-61313164D01*
X65842173Y-61318699D01*
X65896708Y-61370150D01*
X65899296Y-61372664D01*
X69252947Y-64726314D01*
X69252957Y-64726325D01*
X69257287Y-64730655D01*
X69257288Y-64730656D01*
X69528274Y-65001641D01*
X69540050Y-65015268D01*
X69554391Y-65034531D01*
X69592342Y-65066377D01*
X69600316Y-65073684D01*
X69604218Y-65077586D01*
X69628544Y-65096821D01*
X69631340Y-65099099D01*
X69659062Y-65122360D01*
X69688786Y-65147302D01*
X69688794Y-65147306D01*
X69694824Y-65151273D01*
X69694790Y-65151323D01*
X69701137Y-65155366D01*
X69701169Y-65155316D01*
X69707321Y-65159110D01*
X69775294Y-65190806D01*
X69778510Y-65192362D01*
X69845567Y-65226040D01*
X69845576Y-65226042D01*
X69852355Y-65228510D01*
X69852334Y-65228567D01*
X69859451Y-65231040D01*
X69859470Y-65230984D01*
X69866324Y-65233255D01*
X69866325Y-65233255D01*
X69866327Y-65233256D01*
X69939848Y-65248436D01*
X69943209Y-65249181D01*
X70016279Y-65266500D01*
X70016285Y-65266500D01*
X70023452Y-65267338D01*
X70023445Y-65267397D01*
X70030946Y-65268163D01*
X70030952Y-65268104D01*
X70038141Y-65268733D01*
X70038143Y-65268732D01*
X70038144Y-65268733D01*
X70113111Y-65266552D01*
X70116717Y-65266500D01*
X74136663Y-65266500D01*
X74203702Y-65286185D01*
X74209548Y-65290182D01*
X74223265Y-65300148D01*
X74223270Y-65300151D01*
X74396192Y-65377142D01*
X74396197Y-65377144D01*
X74581354Y-65416500D01*
X74581355Y-65416500D01*
X74770644Y-65416500D01*
X74770646Y-65416500D01*
X74955803Y-65377144D01*
X75128730Y-65300151D01*
X75281871Y-65188888D01*
X75408533Y-65048216D01*
X75503179Y-64884284D01*
X75561674Y-64704256D01*
X75581460Y-64516000D01*
X75561674Y-64327744D01*
X75503179Y-64147716D01*
X75408533Y-63983784D01*
X75281871Y-63843112D01*
X75281870Y-63843111D01*
X75128734Y-63731851D01*
X75128729Y-63731848D01*
X74955807Y-63654857D01*
X74955802Y-63654855D01*
X74809944Y-63623853D01*
X74770646Y-63615500D01*
X74581354Y-63615500D01*
X74548897Y-63622398D01*
X74396197Y-63654855D01*
X74396192Y-63654857D01*
X74223270Y-63731848D01*
X74223265Y-63731851D01*
X74209548Y-63741818D01*
X74143742Y-63765298D01*
X74136663Y-63765500D01*
X72117533Y-63765500D01*
X72050494Y-63745815D01*
X72004739Y-63693011D01*
X71994795Y-63623853D01*
X72023820Y-63560297D01*
X72067094Y-63528221D01*
X72080730Y-63522151D01*
X72233871Y-63410888D01*
X72236788Y-63407647D01*
X72239600Y-63404526D01*
X72299087Y-63367879D01*
X72331748Y-63363500D01*
X77006257Y-63363500D01*
X77021877Y-63365224D01*
X77021904Y-63364939D01*
X77029660Y-63365671D01*
X77029667Y-63365673D01*
X77096873Y-63363561D01*
X77100768Y-63363500D01*
X77128346Y-63363500D01*
X77128350Y-63363500D01*
X77132324Y-63362997D01*
X77143963Y-63362080D01*
X77187627Y-63360709D01*
X77206869Y-63355117D01*
X77225912Y-63351174D01*
X77245792Y-63348664D01*
X77286401Y-63332585D01*
X77297444Y-63328803D01*
X77339390Y-63316618D01*
X77356629Y-63306422D01*
X77374103Y-63297862D01*
X77392727Y-63290488D01*
X77392727Y-63290487D01*
X77392732Y-63290486D01*
X77428083Y-63264800D01*
X77437814Y-63258408D01*
X77475420Y-63236170D01*
X77489589Y-63221999D01*
X77504379Y-63209368D01*
X77520587Y-63197594D01*
X77548438Y-63163926D01*
X77556279Y-63155309D01*
X78135703Y-62575885D01*
X78197024Y-62542402D01*
X78266716Y-62547386D01*
X78322649Y-62589258D01*
X78346702Y-62650604D01*
X78362326Y-62799256D01*
X78362327Y-62799259D01*
X78420818Y-62979277D01*
X78420821Y-62979284D01*
X78515467Y-63143216D01*
X78619179Y-63258399D01*
X78642129Y-63283888D01*
X78795265Y-63395148D01*
X78795270Y-63395151D01*
X78968192Y-63472142D01*
X78968197Y-63472144D01*
X79153354Y-63511500D01*
X79153355Y-63511500D01*
X79342644Y-63511500D01*
X79342646Y-63511500D01*
X79527803Y-63472144D01*
X79700730Y-63395151D01*
X79853871Y-63283888D01*
X79856788Y-63280647D01*
X79859600Y-63277526D01*
X79919087Y-63240879D01*
X79951748Y-63236500D01*
X102914257Y-63236500D01*
X102929877Y-63238224D01*
X102929904Y-63237939D01*
X102937660Y-63238671D01*
X102937667Y-63238673D01*
X103004873Y-63236561D01*
X103008768Y-63236500D01*
X103036346Y-63236500D01*
X103036350Y-63236500D01*
X103040324Y-63235997D01*
X103051963Y-63235080D01*
X103095627Y-63233709D01*
X103114869Y-63228117D01*
X103133912Y-63224174D01*
X103153792Y-63221664D01*
X103194401Y-63205585D01*
X103205444Y-63201803D01*
X103247390Y-63189618D01*
X103264629Y-63179422D01*
X103282103Y-63170862D01*
X103300727Y-63163488D01*
X103300727Y-63163487D01*
X103300732Y-63163486D01*
X103336083Y-63137800D01*
X103345814Y-63131408D01*
X103383420Y-63109170D01*
X103397586Y-63095003D01*
X103412381Y-63082368D01*
X103428584Y-63070596D01*
X103428583Y-63070596D01*
X103428587Y-63070594D01*
X103456437Y-63036928D01*
X103464268Y-63028321D01*
X103600773Y-62891817D01*
X103662096Y-62858334D01*
X103688453Y-62855500D01*
X104603959Y-62855500D01*
X104670998Y-62875185D01*
X104676844Y-62879182D01*
X104830265Y-62990648D01*
X104830270Y-62990651D01*
X105003192Y-63067642D01*
X105003197Y-63067644D01*
X105188354Y-63107000D01*
X105188355Y-63107000D01*
X105377644Y-63107000D01*
X105377646Y-63107000D01*
X105562803Y-63067644D01*
X105735730Y-62990651D01*
X105888871Y-62879388D01*
X106015533Y-62738716D01*
X106110179Y-62574784D01*
X106168674Y-62394756D01*
X106188460Y-62206500D01*
X106168674Y-62018244D01*
X106110179Y-61838216D01*
X106015533Y-61674284D01*
X105888871Y-61533612D01*
X105888870Y-61533611D01*
X105735734Y-61422351D01*
X105735729Y-61422348D01*
X105562807Y-61345357D01*
X105562802Y-61345355D01*
X105411350Y-61313164D01*
X105377646Y-61306000D01*
X105188354Y-61306000D01*
X105155897Y-61312898D01*
X105003197Y-61345355D01*
X105003192Y-61345357D01*
X104830270Y-61422348D01*
X104830265Y-61422351D01*
X104677129Y-61533611D01*
X104650243Y-61563472D01*
X104590756Y-61600121D01*
X104558093Y-61604500D01*
X103460737Y-61604500D01*
X103445120Y-61602776D01*
X103445093Y-61603062D01*
X103437331Y-61602327D01*
X103370144Y-61604439D01*
X103366250Y-61604500D01*
X103338650Y-61604500D01*
X103334962Y-61604965D01*
X103334649Y-61605005D01*
X103323031Y-61605918D01*
X103279372Y-61607290D01*
X103279369Y-61607291D01*
X103260126Y-61612881D01*
X103241083Y-61616825D01*
X103221204Y-61619336D01*
X103221203Y-61619337D01*
X103180593Y-61635415D01*
X103169548Y-61639197D01*
X103127608Y-61651383D01*
X103127604Y-61651385D01*
X103110365Y-61661580D01*
X103092898Y-61670137D01*
X103074269Y-61677512D01*
X103074267Y-61677514D01*
X103038926Y-61703189D01*
X103029168Y-61709599D01*
X102991580Y-61731828D01*
X102977408Y-61746000D01*
X102962623Y-61758628D01*
X102946412Y-61770407D01*
X102918571Y-61804059D01*
X102910711Y-61812696D01*
X102774226Y-61949182D01*
X102712906Y-61982666D01*
X102686547Y-61985500D01*
X89715504Y-61985500D01*
X89648465Y-61965815D01*
X89602710Y-61913011D01*
X89592766Y-61843853D01*
X89621791Y-61780297D01*
X89623355Y-61778527D01*
X89623356Y-61778526D01*
X89662533Y-61735016D01*
X89757179Y-61571084D01*
X89815674Y-61391056D01*
X89835460Y-61202800D01*
X89815674Y-61014544D01*
X89757179Y-60834516D01*
X89662533Y-60670584D01*
X89586165Y-60585769D01*
X89555937Y-60522781D01*
X89564562Y-60453446D01*
X89586162Y-60419833D01*
X89662533Y-60335016D01*
X89757179Y-60171084D01*
X89815674Y-59991056D01*
X89835460Y-59802800D01*
X89815674Y-59614544D01*
X89757179Y-59434516D01*
X89662533Y-59270584D01*
X89586707Y-59186370D01*
X89556478Y-59123381D01*
X89565102Y-59054046D01*
X89586705Y-59020430D01*
X89662533Y-58936216D01*
X89757179Y-58772284D01*
X89815674Y-58592256D01*
X89835460Y-58404000D01*
X89815674Y-58215744D01*
X89757179Y-58035716D01*
X89662533Y-57871784D01*
X89535871Y-57731112D01*
X89535870Y-57731111D01*
X89382734Y-57619851D01*
X89382729Y-57619848D01*
X89209807Y-57542857D01*
X89209802Y-57542855D01*
X89064001Y-57511865D01*
X89024646Y-57503500D01*
X88835354Y-57503500D01*
X88802897Y-57510398D01*
X88650197Y-57542855D01*
X88650192Y-57542857D01*
X88477270Y-57619848D01*
X88477265Y-57619851D01*
X88324129Y-57731111D01*
X88303996Y-57753472D01*
X88244509Y-57790121D01*
X88211846Y-57794500D01*
X77806737Y-57794500D01*
X77791120Y-57792776D01*
X77791093Y-57793062D01*
X77783331Y-57792327D01*
X77716144Y-57794439D01*
X77712250Y-57794500D01*
X77684650Y-57794500D01*
X77680962Y-57794965D01*
X77680649Y-57795005D01*
X77669031Y-57795918D01*
X77625373Y-57797290D01*
X77625372Y-57797290D01*
X77606129Y-57802881D01*
X77587079Y-57806825D01*
X77567211Y-57809334D01*
X77567210Y-57809335D01*
X77526600Y-57825413D01*
X77515553Y-57829195D01*
X77473610Y-57841381D01*
X77473609Y-57841382D01*
X77456367Y-57851579D01*
X77438899Y-57860137D01*
X77420269Y-57867513D01*
X77420266Y-57867515D01*
X77384939Y-57893181D01*
X77375180Y-57899592D01*
X77337579Y-57921830D01*
X77323408Y-57936000D01*
X77308623Y-57948628D01*
X77292412Y-57960407D01*
X77264571Y-57994059D01*
X77256711Y-58002696D01*
X76070208Y-59189199D01*
X76057951Y-59199020D01*
X76058134Y-59199241D01*
X76052122Y-59204214D01*
X76006098Y-59253223D01*
X76003391Y-59256016D01*
X75983889Y-59275517D01*
X75983875Y-59275534D01*
X75981407Y-59278715D01*
X75973843Y-59287570D01*
X75943937Y-59319418D01*
X75943936Y-59319420D01*
X75934284Y-59336976D01*
X75923610Y-59353226D01*
X75911329Y-59369061D01*
X75911324Y-59369068D01*
X75893975Y-59409158D01*
X75888838Y-59419644D01*
X75867803Y-59457906D01*
X75862822Y-59477307D01*
X75856521Y-59495710D01*
X75848562Y-59514102D01*
X75848561Y-59514105D01*
X75841728Y-59557243D01*
X75839360Y-59568674D01*
X75828501Y-59610971D01*
X75828500Y-59610982D01*
X75828500Y-59631016D01*
X75826973Y-59650413D01*
X75826608Y-59652722D01*
X75823840Y-59670194D01*
X75823840Y-59670195D01*
X75827950Y-59713674D01*
X75828500Y-59725343D01*
X75828500Y-60134312D01*
X75808815Y-60201351D01*
X75796650Y-60217284D01*
X75721466Y-60300784D01*
X75626821Y-60464715D01*
X75626818Y-60464722D01*
X75568327Y-60644740D01*
X75568326Y-60644744D01*
X75548540Y-60833000D01*
X75561839Y-60959540D01*
X75549270Y-61028268D01*
X75501538Y-61079292D01*
X75438519Y-61096500D01*
X74617748Y-61096500D01*
X74550709Y-61076815D01*
X74525600Y-61055474D01*
X74519873Y-61049114D01*
X74519869Y-61049110D01*
X74366734Y-60937851D01*
X74366729Y-60937848D01*
X74193807Y-60860857D01*
X74193802Y-60860855D01*
X74048001Y-60829865D01*
X74008646Y-60821500D01*
X73819354Y-60821500D01*
X73786897Y-60828398D01*
X73634197Y-60860855D01*
X73634192Y-60860857D01*
X73461270Y-60937848D01*
X73461265Y-60937851D01*
X73308129Y-61049111D01*
X73181466Y-61189785D01*
X73086821Y-61353715D01*
X73086818Y-61353722D01*
X73028369Y-61533611D01*
X73028326Y-61533744D01*
X73013991Y-61670137D01*
X73008540Y-61722000D01*
X73028326Y-61910257D01*
X73029221Y-61913011D01*
X73041299Y-61950182D01*
X73043294Y-62020022D01*
X73007214Y-62079855D01*
X72944513Y-62110684D01*
X72923368Y-62112500D01*
X72331748Y-62112500D01*
X72264709Y-62092815D01*
X72239600Y-62071474D01*
X72233873Y-62065114D01*
X72233869Y-62065110D01*
X72080734Y-61953851D01*
X72080729Y-61953848D01*
X71907807Y-61876857D01*
X71907802Y-61876855D01*
X71752535Y-61843853D01*
X71722646Y-61837500D01*
X71533354Y-61837500D01*
X71503465Y-61843853D01*
X71348197Y-61876855D01*
X71348192Y-61876857D01*
X71175270Y-61953848D01*
X71175265Y-61953851D01*
X71022129Y-62065111D01*
X70895466Y-62205785D01*
X70800821Y-62369715D01*
X70800818Y-62369722D01*
X70743092Y-62547386D01*
X70742326Y-62549744D01*
X70722540Y-62738000D01*
X70742326Y-62926256D01*
X70742327Y-62926259D01*
X70800818Y-63106277D01*
X70800821Y-63106284D01*
X70895467Y-63270216D01*
X71007957Y-63395148D01*
X71022129Y-63410888D01*
X71175265Y-63522148D01*
X71175267Y-63522149D01*
X71175270Y-63522151D01*
X71188904Y-63528221D01*
X71242140Y-63573472D01*
X71262461Y-63640321D01*
X71243415Y-63707545D01*
X71191048Y-63753800D01*
X71138467Y-63765500D01*
X70466230Y-63765500D01*
X70399191Y-63745815D01*
X70378549Y-63729181D01*
X67207819Y-60558451D01*
X67174334Y-60497128D01*
X67171500Y-60470770D01*
X67171500Y-53657705D01*
X67172809Y-53639735D01*
X67173129Y-53637547D01*
X67176289Y-53615977D01*
X67171972Y-53566630D01*
X67171500Y-53555822D01*
X67171500Y-53550296D01*
X67171500Y-53550291D01*
X67167901Y-53519509D01*
X67167536Y-53515929D01*
X67160999Y-53441201D01*
X67159539Y-53434129D01*
X67159597Y-53434116D01*
X67157965Y-53426757D01*
X67157906Y-53426772D01*
X67156241Y-53419751D01*
X67156241Y-53419745D01*
X67130569Y-53349212D01*
X67129421Y-53345909D01*
X67105814Y-53274666D01*
X67105810Y-53274659D01*
X67102760Y-53268118D01*
X67102815Y-53268091D01*
X67099533Y-53261313D01*
X67099480Y-53261340D01*
X67096235Y-53254880D01*
X67055025Y-53192223D01*
X67053086Y-53189181D01*
X67013710Y-53125342D01*
X67009234Y-53119682D01*
X67009281Y-53119644D01*
X67004519Y-53113799D01*
X67004474Y-53113838D01*
X66999831Y-53108305D01*
X66945272Y-53056831D01*
X66942685Y-53054318D01*
X64984270Y-51095902D01*
X64954021Y-51046541D01*
X64898679Y-50876216D01*
X64804033Y-50712284D01*
X64677371Y-50571612D01*
X64677370Y-50571611D01*
X64524234Y-50460351D01*
X64524229Y-50460348D01*
X64351307Y-50383357D01*
X64351302Y-50383355D01*
X64205501Y-50352365D01*
X64166146Y-50344000D01*
X63976854Y-50344000D01*
X63944397Y-50350898D01*
X63791697Y-50383355D01*
X63791692Y-50383357D01*
X63618770Y-50460348D01*
X63618765Y-50460351D01*
X63465629Y-50571611D01*
X63338966Y-50712285D01*
X63244321Y-50876215D01*
X63244318Y-50876222D01*
X63188979Y-51046539D01*
X63185826Y-51056244D01*
X63166040Y-51244500D01*
X62230500Y-51244500D01*
X62230500Y-45593000D01*
X68182540Y-45593000D01*
X68202326Y-45781256D01*
X68202327Y-45781259D01*
X68260818Y-45961277D01*
X68260821Y-45961284D01*
X68355467Y-46125216D01*
X68482129Y-46265888D01*
X68635265Y-46377148D01*
X68635270Y-46377151D01*
X68808192Y-46454142D01*
X68808197Y-46454144D01*
X68993354Y-46493500D01*
X68993355Y-46493500D01*
X69182644Y-46493500D01*
X69182646Y-46493500D01*
X69367803Y-46454144D01*
X69540730Y-46377151D01*
X69542776Y-46375664D01*
X69554452Y-46367182D01*
X69620258Y-46343702D01*
X69627337Y-46343500D01*
X98951770Y-46343500D01*
X99018809Y-46363185D01*
X99039451Y-46379819D01*
X108052181Y-55392548D01*
X108085666Y-55453871D01*
X108088500Y-55480229D01*
X108088500Y-56483769D01*
X108068815Y-56550808D01*
X108052181Y-56571450D01*
X105511228Y-59112402D01*
X105449905Y-59145887D01*
X105449329Y-59146011D01*
X105384196Y-59159856D01*
X105384192Y-59159857D01*
X105211270Y-59236848D01*
X105211265Y-59236851D01*
X105058129Y-59348111D01*
X104931466Y-59488785D01*
X104836821Y-59652715D01*
X104836818Y-59652722D01*
X104788055Y-59802800D01*
X104778326Y-59832744D01*
X104758540Y-60021000D01*
X104778326Y-60209256D01*
X104778327Y-60209259D01*
X104836818Y-60389277D01*
X104836821Y-60389284D01*
X104931467Y-60553216D01*
X105037146Y-60670584D01*
X105058129Y-60693888D01*
X105211265Y-60805148D01*
X105211270Y-60805151D01*
X105384192Y-60882142D01*
X105384197Y-60882144D01*
X105569354Y-60921500D01*
X105569355Y-60921500D01*
X105758644Y-60921500D01*
X105758646Y-60921500D01*
X105943803Y-60882144D01*
X106116730Y-60805151D01*
X106269871Y-60693888D01*
X106396533Y-60553216D01*
X106491179Y-60389284D01*
X106546522Y-60218955D01*
X106576769Y-60169597D01*
X109324642Y-57421724D01*
X109338271Y-57409947D01*
X109357530Y-57395610D01*
X109389360Y-57357676D01*
X109396677Y-57349691D01*
X109400587Y-57345781D01*
X109400587Y-57345780D01*
X109400591Y-57345777D01*
X109419833Y-57321438D01*
X109422069Y-57318693D01*
X109470302Y-57261214D01*
X109470307Y-57261203D01*
X109474274Y-57255175D01*
X109474325Y-57255208D01*
X109478372Y-57248856D01*
X109478320Y-57248824D01*
X109482108Y-57242680D01*
X109482111Y-57242677D01*
X109513821Y-57174673D01*
X109515362Y-57171488D01*
X109549040Y-57104433D01*
X109549043Y-57104417D01*
X109551509Y-57097646D01*
X109551567Y-57097667D01*
X109554043Y-57090546D01*
X109553986Y-57090528D01*
X109556256Y-57083677D01*
X109556257Y-57083673D01*
X109571447Y-57010102D01*
X109572179Y-57006798D01*
X109589500Y-56933721D01*
X109589500Y-56933712D01*
X109590338Y-56926548D01*
X109590398Y-56926555D01*
X109591164Y-56919055D01*
X109591105Y-56919050D01*
X109591734Y-56911860D01*
X109589552Y-56836870D01*
X109589500Y-56833263D01*
X109589500Y-55181705D01*
X109590809Y-55163735D01*
X109594289Y-55139974D01*
X109589972Y-55090635D01*
X109589500Y-55079826D01*
X109589500Y-55074296D01*
X109589500Y-55074291D01*
X109585894Y-55043443D01*
X109585534Y-55039916D01*
X109578999Y-54965209D01*
X109577538Y-54958135D01*
X109577598Y-54958122D01*
X109575965Y-54950757D01*
X109575906Y-54950772D01*
X109574241Y-54943751D01*
X109574241Y-54943745D01*
X109548569Y-54873211D01*
X109547422Y-54869913D01*
X109523814Y-54798665D01*
X109523809Y-54798658D01*
X109520761Y-54792118D01*
X109520815Y-54792092D01*
X109517533Y-54785312D01*
X109517480Y-54785340D01*
X109514238Y-54778885D01*
X109514237Y-54778883D01*
X109473026Y-54716225D01*
X109471107Y-54713212D01*
X109431714Y-54649347D01*
X109427234Y-54643681D01*
X109427280Y-54643643D01*
X109422519Y-54637799D01*
X109422474Y-54637838D01*
X109417831Y-54632305D01*
X109363290Y-54580848D01*
X109360703Y-54578335D01*
X99889729Y-45107361D01*
X99877949Y-45093730D01*
X99863610Y-45074470D01*
X99825651Y-45042619D01*
X99817686Y-45035318D01*
X99813780Y-45031411D01*
X99789443Y-45012168D01*
X99786647Y-45009890D01*
X99729214Y-44961698D01*
X99723180Y-44957729D01*
X99723212Y-44957680D01*
X99716853Y-44953628D01*
X99716822Y-44953679D01*
X99710680Y-44949891D01*
X99710678Y-44949890D01*
X99710677Y-44949889D01*
X99642688Y-44918184D01*
X99639447Y-44916615D01*
X99608530Y-44901088D01*
X99572433Y-44882960D01*
X99572431Y-44882959D01*
X99572430Y-44882959D01*
X99565645Y-44880489D01*
X99565665Y-44880433D01*
X99558549Y-44877959D01*
X99558531Y-44878015D01*
X99551674Y-44875743D01*
X99478210Y-44860573D01*
X99474693Y-44859793D01*
X99401718Y-44842499D01*
X99394547Y-44841661D01*
X99394553Y-44841601D01*
X99387055Y-44840835D01*
X99387050Y-44840895D01*
X99379860Y-44840265D01*
X99304870Y-44842448D01*
X99301263Y-44842500D01*
X69627337Y-44842500D01*
X69560298Y-44822815D01*
X69554452Y-44818818D01*
X69540734Y-44808851D01*
X69540729Y-44808848D01*
X69367807Y-44731857D01*
X69367802Y-44731855D01*
X69222001Y-44700865D01*
X69182646Y-44692500D01*
X68993354Y-44692500D01*
X68960897Y-44699398D01*
X68808197Y-44731855D01*
X68808192Y-44731857D01*
X68635270Y-44808848D01*
X68635265Y-44808851D01*
X68482129Y-44920111D01*
X68355466Y-45060785D01*
X68260821Y-45224715D01*
X68260818Y-45224722D01*
X68202327Y-45404740D01*
X68202326Y-45404744D01*
X68182540Y-45593000D01*
X62230500Y-45593000D01*
X62230500Y-38503999D01*
X78226377Y-38503999D01*
X78226378Y-38504000D01*
X79629272Y-38504000D01*
X79606900Y-38551543D01*
X79576127Y-38712862D01*
X79586439Y-38876766D01*
X79627780Y-39004000D01*
X78227161Y-39004000D01*
X78263536Y-39172782D01*
X78263537Y-39172785D01*
X78353978Y-39397856D01*
X78481161Y-39604415D01*
X78641422Y-39786507D01*
X78641426Y-39786511D01*
X78830144Y-39938890D01*
X78830150Y-39938894D01*
X79041917Y-40057194D01*
X79270629Y-40138003D01*
X79270637Y-40138005D01*
X79509706Y-40178999D01*
X79509715Y-40179000D01*
X79980000Y-40179000D01*
X79980000Y-39358310D01*
X79988817Y-39363158D01*
X80147886Y-39404000D01*
X80270894Y-39404000D01*
X80392933Y-39388583D01*
X80480000Y-39354110D01*
X80480000Y-40179000D01*
X80889533Y-40179000D01*
X80889550Y-40178999D01*
X81070692Y-40163582D01*
X81305440Y-40102458D01*
X81526472Y-40002546D01*
X81526480Y-40002541D01*
X81727450Y-39866708D01*
X81727453Y-39866706D01*
X81902575Y-39698864D01*
X81902576Y-39698863D01*
X82046813Y-39503843D01*
X82156021Y-39287242D01*
X82227053Y-39055299D01*
X82233622Y-39004000D01*
X80830728Y-39004000D01*
X80853100Y-38956457D01*
X80883873Y-38795138D01*
X80873561Y-38631234D01*
X80832220Y-38504000D01*
X82232839Y-38504000D01*
X82232839Y-38503999D01*
X90726377Y-38503999D01*
X90726378Y-38504000D01*
X92129272Y-38504000D01*
X92106900Y-38551543D01*
X92076127Y-38712862D01*
X92086439Y-38876766D01*
X92127780Y-39004000D01*
X90727161Y-39004000D01*
X90763536Y-39172782D01*
X90763537Y-39172785D01*
X90853978Y-39397856D01*
X90981161Y-39604415D01*
X91141422Y-39786507D01*
X91141426Y-39786511D01*
X91330144Y-39938890D01*
X91330150Y-39938894D01*
X91541917Y-40057194D01*
X91770629Y-40138003D01*
X91770637Y-40138005D01*
X92009706Y-40178999D01*
X92009715Y-40179000D01*
X92480000Y-40179000D01*
X92480000Y-39358310D01*
X92488817Y-39363158D01*
X92647886Y-39404000D01*
X92770894Y-39404000D01*
X92892933Y-39388583D01*
X92980000Y-39354110D01*
X92980000Y-40179000D01*
X93389533Y-40179000D01*
X93389550Y-40178999D01*
X93570692Y-40163582D01*
X93805440Y-40102458D01*
X94026472Y-40002546D01*
X94026480Y-40002541D01*
X94227450Y-39866708D01*
X94227453Y-39866706D01*
X94402575Y-39698864D01*
X94402576Y-39698863D01*
X94546813Y-39503843D01*
X94656021Y-39287242D01*
X94727053Y-39055299D01*
X94733622Y-39004000D01*
X93330728Y-39004000D01*
X93353100Y-38956457D01*
X93383873Y-38795138D01*
X93373561Y-38631234D01*
X93332220Y-38504000D01*
X94732839Y-38504000D01*
X94696463Y-38335217D01*
X94696462Y-38335214D01*
X94606021Y-38110143D01*
X94478838Y-37903584D01*
X94318577Y-37721492D01*
X94318573Y-37721488D01*
X94129855Y-37569109D01*
X94129849Y-37569105D01*
X93918082Y-37450805D01*
X93689370Y-37369996D01*
X93689362Y-37369994D01*
X93450293Y-37329000D01*
X92980000Y-37329000D01*
X92980000Y-38149689D01*
X92971183Y-38144842D01*
X92812114Y-38104000D01*
X92689106Y-38104000D01*
X92567067Y-38119417D01*
X92480000Y-38153889D01*
X92480000Y-37329000D01*
X92070449Y-37329000D01*
X91889307Y-37344417D01*
X91654559Y-37405541D01*
X91433527Y-37505453D01*
X91433519Y-37505458D01*
X91232549Y-37641291D01*
X91232546Y-37641293D01*
X91057424Y-37809135D01*
X91057423Y-37809136D01*
X90913186Y-38004156D01*
X90803978Y-38220757D01*
X90732946Y-38452700D01*
X90726377Y-38503999D01*
X82232839Y-38503999D01*
X82196463Y-38335217D01*
X82196462Y-38335214D01*
X82106021Y-38110143D01*
X81978838Y-37903584D01*
X81818577Y-37721492D01*
X81818573Y-37721488D01*
X81629855Y-37569109D01*
X81629849Y-37569105D01*
X81418082Y-37450805D01*
X81189370Y-37369996D01*
X81189362Y-37369994D01*
X80950293Y-37329000D01*
X80480000Y-37329000D01*
X80480000Y-38149689D01*
X80471183Y-38144842D01*
X80312114Y-38104000D01*
X80189106Y-38104000D01*
X80067067Y-38119417D01*
X79980000Y-38153889D01*
X79980000Y-37329000D01*
X79570449Y-37329000D01*
X79389307Y-37344417D01*
X79154559Y-37405541D01*
X78933527Y-37505453D01*
X78933519Y-37505458D01*
X78732549Y-37641291D01*
X78732546Y-37641293D01*
X78557424Y-37809135D01*
X78557423Y-37809136D01*
X78413186Y-38004156D01*
X78303978Y-38220757D01*
X78232946Y-38452700D01*
X78226377Y-38503999D01*
X62230500Y-38503999D01*
X62230500Y-33693281D01*
X78201635Y-33693281D01*
X78211933Y-33935715D01*
X78211933Y-33935719D01*
X78263056Y-34172929D01*
X78263057Y-34172932D01*
X78353530Y-34398082D01*
X78480757Y-34604713D01*
X78641075Y-34786869D01*
X78641079Y-34786873D01*
X78829870Y-34939311D01*
X79041709Y-35057652D01*
X79041712Y-35057653D01*
X79270507Y-35138491D01*
X79270513Y-35138492D01*
X79509662Y-35179499D01*
X79509670Y-35179499D01*
X79509672Y-35179500D01*
X79509673Y-35179500D01*
X80889553Y-35179500D01*
X80889554Y-35179500D01*
X80889555Y-35179499D01*
X80889572Y-35179499D01*
X81070775Y-35164076D01*
X81070775Y-35164075D01*
X81070782Y-35164075D01*
X81305608Y-35102931D01*
X81305611Y-35102930D01*
X81526713Y-35002986D01*
X81526716Y-35002983D01*
X81526723Y-35002981D01*
X81727765Y-34867100D01*
X81902952Y-34699197D01*
X82047244Y-34504102D01*
X82156488Y-34287429D01*
X82227543Y-34055409D01*
X82258365Y-33814719D01*
X82253206Y-33693281D01*
X90701635Y-33693281D01*
X90711933Y-33935715D01*
X90711933Y-33935719D01*
X90763056Y-34172929D01*
X90763057Y-34172932D01*
X90853530Y-34398082D01*
X90980757Y-34604713D01*
X91141075Y-34786869D01*
X91141079Y-34786873D01*
X91329870Y-34939311D01*
X91541709Y-35057652D01*
X91541712Y-35057653D01*
X91770507Y-35138491D01*
X91770513Y-35138492D01*
X92009662Y-35179499D01*
X92009670Y-35179499D01*
X92009672Y-35179500D01*
X92009673Y-35179500D01*
X93389553Y-35179500D01*
X93389554Y-35179500D01*
X93389555Y-35179499D01*
X93389572Y-35179499D01*
X93570775Y-35164076D01*
X93570775Y-35164075D01*
X93570782Y-35164075D01*
X93805608Y-35102931D01*
X93805611Y-35102930D01*
X94026713Y-35002986D01*
X94026716Y-35002983D01*
X94026723Y-35002981D01*
X94227765Y-34867100D01*
X94402952Y-34699197D01*
X94547244Y-34504102D01*
X94656488Y-34287429D01*
X94727543Y-34055409D01*
X94758365Y-33814719D01*
X94748066Y-33572281D01*
X94696944Y-33335072D01*
X94606468Y-33109914D01*
X94479242Y-32903286D01*
X94318925Y-32721131D01*
X94318924Y-32721130D01*
X94318920Y-32721126D01*
X94130129Y-32568688D01*
X93918290Y-32450347D01*
X93689500Y-32369511D01*
X93689486Y-32369507D01*
X93450337Y-32328500D01*
X93450328Y-32328500D01*
X92070446Y-32328500D01*
X92070427Y-32328500D01*
X91889224Y-32343923D01*
X91889222Y-32343924D01*
X91654391Y-32405068D01*
X91654388Y-32405069D01*
X91433286Y-32505013D01*
X91433274Y-32505020D01*
X91232234Y-32640900D01*
X91232232Y-32640902D01*
X91057047Y-32808803D01*
X91057046Y-32808804D01*
X90912758Y-33003893D01*
X90803515Y-33220565D01*
X90803512Y-33220571D01*
X90732456Y-33452594D01*
X90701635Y-33693281D01*
X82253206Y-33693281D01*
X82248066Y-33572281D01*
X82196944Y-33335072D01*
X82106468Y-33109914D01*
X81979242Y-32903286D01*
X81818925Y-32721131D01*
X81818924Y-32721130D01*
X81818920Y-32721126D01*
X81630129Y-32568688D01*
X81418290Y-32450347D01*
X81189500Y-32369511D01*
X81189486Y-32369507D01*
X80950337Y-32328500D01*
X80950328Y-32328500D01*
X79570446Y-32328500D01*
X79570427Y-32328500D01*
X79389224Y-32343923D01*
X79389222Y-32343924D01*
X79154391Y-32405068D01*
X79154388Y-32405069D01*
X78933286Y-32505013D01*
X78933274Y-32505020D01*
X78732234Y-32640900D01*
X78732232Y-32640902D01*
X78557047Y-32808803D01*
X78557046Y-32808804D01*
X78412758Y-33003893D01*
X78303515Y-33220565D01*
X78303512Y-33220571D01*
X78232456Y-33452594D01*
X78201635Y-33693281D01*
X62230500Y-33693281D01*
X62230500Y-28163572D01*
X67304500Y-28163572D01*
X67319923Y-28344775D01*
X67319924Y-28344777D01*
X67381068Y-28579608D01*
X67381069Y-28579611D01*
X67481013Y-28800713D01*
X67481020Y-28800725D01*
X67616900Y-29001765D01*
X67616902Y-29001767D01*
X67784803Y-29176952D01*
X67784804Y-29176953D01*
X67979893Y-29321241D01*
X67979895Y-29321242D01*
X67979898Y-29321244D01*
X68196571Y-29430488D01*
X68428591Y-29501543D01*
X68669281Y-29532365D01*
X68911719Y-29522066D01*
X69148928Y-29470944D01*
X69374086Y-29380468D01*
X69580714Y-29253242D01*
X69762869Y-29092925D01*
X69915311Y-28904130D01*
X70033653Y-28692288D01*
X70114491Y-28463493D01*
X70134847Y-28344775D01*
X70155499Y-28224337D01*
X70155500Y-28224326D01*
X70155500Y-28163550D01*
X72305000Y-28163550D01*
X72320417Y-28344692D01*
X72381541Y-28579440D01*
X72481453Y-28800472D01*
X72481458Y-28800480D01*
X72617291Y-29001450D01*
X72617293Y-29001453D01*
X72785135Y-29176575D01*
X72785136Y-29176576D01*
X72980156Y-29320813D01*
X73196757Y-29430021D01*
X73428701Y-29501053D01*
X73428699Y-29501053D01*
X73479999Y-29507622D01*
X73480000Y-29507622D01*
X73480000Y-28108310D01*
X73488817Y-28113158D01*
X73647886Y-28154000D01*
X73770894Y-28154000D01*
X73892933Y-28138583D01*
X73980000Y-28104110D01*
X73980000Y-29506837D01*
X74148781Y-29470463D01*
X74148782Y-29470463D01*
X74373856Y-29380021D01*
X74580415Y-29252838D01*
X74762507Y-29092577D01*
X74762511Y-29092573D01*
X74914890Y-28903855D01*
X74914894Y-28903849D01*
X75033194Y-28692082D01*
X75114003Y-28463370D01*
X75114005Y-28463362D01*
X75154999Y-28224293D01*
X75155000Y-28224285D01*
X75155000Y-28163550D01*
X97805000Y-28163550D01*
X97820417Y-28344692D01*
X97881541Y-28579440D01*
X97981453Y-28800472D01*
X97981458Y-28800480D01*
X98117291Y-29001450D01*
X98117293Y-29001453D01*
X98285135Y-29176575D01*
X98285136Y-29176576D01*
X98480156Y-29320813D01*
X98696757Y-29430021D01*
X98928701Y-29501053D01*
X98928699Y-29501053D01*
X98979999Y-29507622D01*
X98980000Y-29507622D01*
X98980000Y-28108310D01*
X98988817Y-28113158D01*
X99147886Y-28154000D01*
X99270894Y-28154000D01*
X99392933Y-28138583D01*
X99480000Y-28104110D01*
X99480000Y-29506837D01*
X99648781Y-29470463D01*
X99648782Y-29470463D01*
X99873856Y-29380021D01*
X100080415Y-29252838D01*
X100262507Y-29092577D01*
X100262511Y-29092573D01*
X100414890Y-28903855D01*
X100414894Y-28903849D01*
X100533194Y-28692082D01*
X100614003Y-28463370D01*
X100614005Y-28463362D01*
X100654999Y-28224293D01*
X100655000Y-28224285D01*
X100655000Y-28163572D01*
X102804500Y-28163572D01*
X102819923Y-28344775D01*
X102819924Y-28344777D01*
X102881068Y-28579608D01*
X102881069Y-28579611D01*
X102981013Y-28800713D01*
X102981020Y-28800725D01*
X103116900Y-29001765D01*
X103116902Y-29001767D01*
X103284803Y-29176952D01*
X103284804Y-29176953D01*
X103479893Y-29321241D01*
X103479895Y-29321242D01*
X103479898Y-29321244D01*
X103696571Y-29430488D01*
X103928591Y-29501543D01*
X104169281Y-29532365D01*
X104411719Y-29522066D01*
X104648928Y-29470944D01*
X104874086Y-29380468D01*
X105080714Y-29253242D01*
X105262869Y-29092925D01*
X105415311Y-28904130D01*
X105533653Y-28692288D01*
X105614491Y-28463493D01*
X105634847Y-28344775D01*
X105655499Y-28224337D01*
X105655500Y-28224326D01*
X105655500Y-26844446D01*
X105655499Y-26844427D01*
X105640076Y-26663224D01*
X105640075Y-26663222D01*
X105640075Y-26663218D01*
X105591159Y-26475357D01*
X105578931Y-26428391D01*
X105578930Y-26428388D01*
X105478986Y-26207286D01*
X105478979Y-26207274D01*
X105343099Y-26006234D01*
X105343097Y-26006232D01*
X105175196Y-25831047D01*
X105175195Y-25831046D01*
X104980106Y-25686758D01*
X104972784Y-25683066D01*
X104763429Y-25577512D01*
X104531409Y-25506457D01*
X104531407Y-25506456D01*
X104531405Y-25506456D01*
X104290713Y-25475634D01*
X104048284Y-25485933D01*
X104048280Y-25485933D01*
X103811070Y-25537056D01*
X103811067Y-25537057D01*
X103585917Y-25627530D01*
X103379286Y-25754757D01*
X103197130Y-25915075D01*
X103197126Y-25915079D01*
X103044688Y-26103870D01*
X102926347Y-26315709D01*
X102845511Y-26544499D01*
X102845507Y-26544513D01*
X102804500Y-26783662D01*
X102804500Y-28163572D01*
X100655000Y-28163572D01*
X100655000Y-27754000D01*
X99830728Y-27754000D01*
X99853100Y-27706457D01*
X99883873Y-27545138D01*
X99873561Y-27381234D01*
X99832220Y-27254000D01*
X100655000Y-27254000D01*
X100655000Y-26844467D01*
X100654999Y-26844449D01*
X100639582Y-26663307D01*
X100578458Y-26428559D01*
X100478546Y-26207527D01*
X100478541Y-26207519D01*
X100342708Y-26006549D01*
X100342706Y-26006546D01*
X100174864Y-25831424D01*
X100174863Y-25831423D01*
X99979843Y-25687186D01*
X99763242Y-25577978D01*
X99531304Y-25506947D01*
X99531297Y-25506946D01*
X99480000Y-25500376D01*
X99480000Y-26899689D01*
X99471183Y-26894842D01*
X99312114Y-26854000D01*
X99189106Y-26854000D01*
X99067067Y-26869417D01*
X98980000Y-26903889D01*
X98980000Y-25501161D01*
X98811217Y-25537536D01*
X98811214Y-25537537D01*
X98586143Y-25627978D01*
X98379584Y-25755161D01*
X98197492Y-25915422D01*
X98197488Y-25915426D01*
X98045109Y-26104144D01*
X98045105Y-26104150D01*
X97926805Y-26315917D01*
X97845996Y-26544629D01*
X97845994Y-26544637D01*
X97805000Y-26783706D01*
X97805000Y-27254000D01*
X98629272Y-27254000D01*
X98606900Y-27301543D01*
X98576127Y-27462862D01*
X98586439Y-27626766D01*
X98627780Y-27754000D01*
X97805000Y-27754000D01*
X97805000Y-28163550D01*
X75155000Y-28163550D01*
X75155000Y-27754000D01*
X74330728Y-27754000D01*
X74353100Y-27706457D01*
X74383873Y-27545138D01*
X74373561Y-27381234D01*
X74332220Y-27254000D01*
X75155000Y-27254000D01*
X75155000Y-26844467D01*
X75154999Y-26844449D01*
X75139582Y-26663307D01*
X75078458Y-26428559D01*
X74978546Y-26207527D01*
X74978541Y-26207519D01*
X74842708Y-26006549D01*
X74842706Y-26006546D01*
X74674864Y-25831424D01*
X74674863Y-25831423D01*
X74479843Y-25687186D01*
X74263242Y-25577978D01*
X74031304Y-25506947D01*
X74031297Y-25506946D01*
X73980000Y-25500376D01*
X73980000Y-26899689D01*
X73971183Y-26894842D01*
X73812114Y-26854000D01*
X73689106Y-26854000D01*
X73567067Y-26869417D01*
X73480000Y-26903889D01*
X73480000Y-25501161D01*
X73311217Y-25537536D01*
X73311214Y-25537537D01*
X73086143Y-25627978D01*
X72879584Y-25755161D01*
X72697492Y-25915422D01*
X72697488Y-25915426D01*
X72545109Y-26104144D01*
X72545105Y-26104150D01*
X72426805Y-26315917D01*
X72345996Y-26544629D01*
X72345994Y-26544637D01*
X72305000Y-26783706D01*
X72305000Y-27254000D01*
X73129272Y-27254000D01*
X73106900Y-27301543D01*
X73076127Y-27462862D01*
X73086439Y-27626766D01*
X73127780Y-27754000D01*
X72305000Y-27754000D01*
X72305000Y-28163550D01*
X70155500Y-28163550D01*
X70155500Y-26844446D01*
X70155499Y-26844427D01*
X70140076Y-26663224D01*
X70140075Y-26663222D01*
X70140075Y-26663218D01*
X70091159Y-26475357D01*
X70078931Y-26428391D01*
X70078930Y-26428388D01*
X69978986Y-26207286D01*
X69978979Y-26207274D01*
X69843099Y-26006234D01*
X69843097Y-26006232D01*
X69675196Y-25831047D01*
X69675195Y-25831046D01*
X69480106Y-25686758D01*
X69472784Y-25683066D01*
X69263429Y-25577512D01*
X69031409Y-25506457D01*
X69031407Y-25506456D01*
X69031405Y-25506456D01*
X68790713Y-25475634D01*
X68548284Y-25485933D01*
X68548280Y-25485933D01*
X68311070Y-25537056D01*
X68311067Y-25537057D01*
X68085917Y-25627530D01*
X67879286Y-25754757D01*
X67697130Y-25915075D01*
X67697126Y-25915079D01*
X67544688Y-26103870D01*
X67426347Y-26315709D01*
X67345511Y-26544499D01*
X67345507Y-26544513D01*
X67304500Y-26783662D01*
X67304500Y-28163572D01*
X62230500Y-28163572D01*
X62230500Y-23503999D01*
X78226377Y-23503999D01*
X78226378Y-23504000D01*
X79629272Y-23504000D01*
X79606900Y-23551543D01*
X79576127Y-23712862D01*
X79586439Y-23876766D01*
X79627780Y-24004000D01*
X78227161Y-24004000D01*
X78263536Y-24172782D01*
X78263537Y-24172785D01*
X78353978Y-24397856D01*
X78481161Y-24604415D01*
X78641422Y-24786507D01*
X78641426Y-24786511D01*
X78830144Y-24938890D01*
X78830150Y-24938894D01*
X79041917Y-25057194D01*
X79270629Y-25138003D01*
X79270637Y-25138005D01*
X79509706Y-25178999D01*
X79509715Y-25179000D01*
X79980000Y-25179000D01*
X79980000Y-24358310D01*
X79988817Y-24363158D01*
X80147886Y-24404000D01*
X80270894Y-24404000D01*
X80392933Y-24388583D01*
X80480000Y-24354110D01*
X80480000Y-25179000D01*
X80889533Y-25179000D01*
X80889550Y-25178999D01*
X81070692Y-25163582D01*
X81305440Y-25102458D01*
X81526472Y-25002546D01*
X81526480Y-25002541D01*
X81727450Y-24866708D01*
X81727453Y-24866706D01*
X81902575Y-24698864D01*
X81902576Y-24698863D01*
X82046813Y-24503843D01*
X82156021Y-24287242D01*
X82227053Y-24055299D01*
X82233622Y-24004000D01*
X80830728Y-24004000D01*
X80853100Y-23956457D01*
X80883873Y-23795138D01*
X80873561Y-23631234D01*
X80832220Y-23504000D01*
X82232839Y-23504000D01*
X82232839Y-23503999D01*
X90726377Y-23503999D01*
X90726378Y-23504000D01*
X92129272Y-23504000D01*
X92106900Y-23551543D01*
X92076127Y-23712862D01*
X92086439Y-23876766D01*
X92127780Y-24004000D01*
X90727161Y-24004000D01*
X90763536Y-24172782D01*
X90763537Y-24172785D01*
X90853978Y-24397856D01*
X90981161Y-24604415D01*
X91141422Y-24786507D01*
X91141426Y-24786511D01*
X91330144Y-24938890D01*
X91330150Y-24938894D01*
X91541917Y-25057194D01*
X91770629Y-25138003D01*
X91770637Y-25138005D01*
X92009706Y-25178999D01*
X92009715Y-25179000D01*
X92480000Y-25179000D01*
X92480000Y-24358310D01*
X92488817Y-24363158D01*
X92647886Y-24404000D01*
X92770894Y-24404000D01*
X92892933Y-24388583D01*
X92980000Y-24354110D01*
X92980000Y-25179000D01*
X93389533Y-25179000D01*
X93389550Y-25178999D01*
X93570692Y-25163582D01*
X93805440Y-25102458D01*
X94026472Y-25002546D01*
X94026480Y-25002541D01*
X94227450Y-24866708D01*
X94227453Y-24866706D01*
X94402575Y-24698864D01*
X94402576Y-24698863D01*
X94546813Y-24503843D01*
X94656021Y-24287242D01*
X94727053Y-24055299D01*
X94733622Y-24004000D01*
X93330728Y-24004000D01*
X93353100Y-23956457D01*
X93383873Y-23795138D01*
X93373561Y-23631234D01*
X93332220Y-23504000D01*
X94732839Y-23504000D01*
X94696463Y-23335217D01*
X94696462Y-23335214D01*
X94606021Y-23110143D01*
X94478838Y-22903584D01*
X94318577Y-22721492D01*
X94318573Y-22721488D01*
X94129855Y-22569109D01*
X94129849Y-22569105D01*
X93918082Y-22450805D01*
X93689370Y-22369996D01*
X93689362Y-22369994D01*
X93450293Y-22329000D01*
X92980000Y-22329000D01*
X92980000Y-23149689D01*
X92971183Y-23144842D01*
X92812114Y-23104000D01*
X92689106Y-23104000D01*
X92567067Y-23119417D01*
X92480000Y-23153889D01*
X92480000Y-22329000D01*
X92070449Y-22329000D01*
X91889307Y-22344417D01*
X91654559Y-22405541D01*
X91433527Y-22505453D01*
X91433519Y-22505458D01*
X91232549Y-22641291D01*
X91232546Y-22641293D01*
X91057424Y-22809135D01*
X91057423Y-22809136D01*
X90913186Y-23004156D01*
X90803978Y-23220757D01*
X90732946Y-23452700D01*
X90726377Y-23503999D01*
X82232839Y-23503999D01*
X82196463Y-23335217D01*
X82196462Y-23335214D01*
X82106021Y-23110143D01*
X81978838Y-22903584D01*
X81818577Y-22721492D01*
X81818573Y-22721488D01*
X81629855Y-22569109D01*
X81629849Y-22569105D01*
X81418082Y-22450805D01*
X81189370Y-22369996D01*
X81189362Y-22369994D01*
X80950293Y-22329000D01*
X80480000Y-22329000D01*
X80480000Y-23149689D01*
X80471183Y-23144842D01*
X80312114Y-23104000D01*
X80189106Y-23104000D01*
X80067067Y-23119417D01*
X79980000Y-23153889D01*
X79980000Y-22329000D01*
X79570449Y-22329000D01*
X79389307Y-22344417D01*
X79154559Y-22405541D01*
X78933527Y-22505453D01*
X78933519Y-22505458D01*
X78732549Y-22641291D01*
X78732546Y-22641293D01*
X78557424Y-22809135D01*
X78557423Y-22809136D01*
X78413186Y-23004156D01*
X78303978Y-23220757D01*
X78232946Y-23452700D01*
X78226377Y-23503999D01*
X62230500Y-23503999D01*
X62230500Y-18693281D01*
X78201635Y-18693281D01*
X78211933Y-18935715D01*
X78211933Y-18935719D01*
X78263056Y-19172929D01*
X78263057Y-19172932D01*
X78353530Y-19398082D01*
X78480757Y-19604713D01*
X78641075Y-19786869D01*
X78641079Y-19786873D01*
X78829870Y-19939311D01*
X79041709Y-20057652D01*
X79041712Y-20057653D01*
X79270507Y-20138491D01*
X79270513Y-20138492D01*
X79509662Y-20179499D01*
X79509670Y-20179499D01*
X79509672Y-20179500D01*
X79509673Y-20179500D01*
X80889553Y-20179500D01*
X80889554Y-20179500D01*
X80889555Y-20179499D01*
X80889572Y-20179499D01*
X81070775Y-20164076D01*
X81070775Y-20164075D01*
X81070782Y-20164075D01*
X81305608Y-20102931D01*
X81305611Y-20102930D01*
X81526713Y-20002986D01*
X81526716Y-20002983D01*
X81526723Y-20002981D01*
X81727765Y-19867100D01*
X81902952Y-19699197D01*
X82047244Y-19504102D01*
X82156488Y-19287429D01*
X82227543Y-19055409D01*
X82258365Y-18814719D01*
X82253206Y-18693281D01*
X90701635Y-18693281D01*
X90711933Y-18935715D01*
X90711933Y-18935719D01*
X90763056Y-19172929D01*
X90763057Y-19172932D01*
X90853530Y-19398082D01*
X90980757Y-19604713D01*
X91141075Y-19786869D01*
X91141079Y-19786873D01*
X91329870Y-19939311D01*
X91541709Y-20057652D01*
X91541712Y-20057653D01*
X91770507Y-20138491D01*
X91770513Y-20138492D01*
X92009662Y-20179499D01*
X92009670Y-20179499D01*
X92009672Y-20179500D01*
X92009673Y-20179500D01*
X93389553Y-20179500D01*
X93389554Y-20179500D01*
X93389555Y-20179499D01*
X93389572Y-20179499D01*
X93570775Y-20164076D01*
X93570775Y-20164075D01*
X93570782Y-20164075D01*
X93805608Y-20102931D01*
X93805611Y-20102930D01*
X94026713Y-20002986D01*
X94026716Y-20002983D01*
X94026723Y-20002981D01*
X94227765Y-19867100D01*
X94402952Y-19699197D01*
X94547244Y-19504102D01*
X94656488Y-19287429D01*
X94727543Y-19055409D01*
X94758365Y-18814719D01*
X94748066Y-18572281D01*
X94696944Y-18335072D01*
X94606468Y-18109914D01*
X94479242Y-17903286D01*
X94318925Y-17721131D01*
X94318924Y-17721130D01*
X94318920Y-17721126D01*
X94130129Y-17568688D01*
X93918290Y-17450347D01*
X93689500Y-17369511D01*
X93689486Y-17369507D01*
X93450337Y-17328500D01*
X93450328Y-17328500D01*
X92070446Y-17328500D01*
X92070427Y-17328500D01*
X91889224Y-17343923D01*
X91889222Y-17343924D01*
X91654391Y-17405068D01*
X91654388Y-17405069D01*
X91433286Y-17505013D01*
X91433274Y-17505020D01*
X91232234Y-17640900D01*
X91232232Y-17640902D01*
X91057047Y-17808803D01*
X91057046Y-17808804D01*
X90912758Y-18003893D01*
X90803515Y-18220565D01*
X90803512Y-18220571D01*
X90732456Y-18452594D01*
X90701635Y-18693281D01*
X82253206Y-18693281D01*
X82248066Y-18572281D01*
X82196944Y-18335072D01*
X82106468Y-18109914D01*
X81979242Y-17903286D01*
X81818925Y-17721131D01*
X81818924Y-17721130D01*
X81818920Y-17721126D01*
X81630129Y-17568688D01*
X81418290Y-17450347D01*
X81189500Y-17369511D01*
X81189486Y-17369507D01*
X80950337Y-17328500D01*
X80950328Y-17328500D01*
X79570446Y-17328500D01*
X79570427Y-17328500D01*
X79389224Y-17343923D01*
X79389222Y-17343924D01*
X79154391Y-17405068D01*
X79154388Y-17405069D01*
X78933286Y-17505013D01*
X78933274Y-17505020D01*
X78732234Y-17640900D01*
X78732232Y-17640902D01*
X78557047Y-17808803D01*
X78557046Y-17808804D01*
X78412758Y-18003893D01*
X78303515Y-18220565D01*
X78303512Y-18220571D01*
X78232456Y-18452594D01*
X78201635Y-18693281D01*
X62230500Y-18693281D01*
X62230500Y-15663572D01*
X67304500Y-15663572D01*
X67319923Y-15844775D01*
X67319924Y-15844777D01*
X67381068Y-16079608D01*
X67381069Y-16079611D01*
X67481013Y-16300713D01*
X67481020Y-16300725D01*
X67616900Y-16501765D01*
X67616902Y-16501767D01*
X67784803Y-16676952D01*
X67784804Y-16676953D01*
X67979893Y-16821241D01*
X67979895Y-16821242D01*
X67979898Y-16821244D01*
X68196571Y-16930488D01*
X68428591Y-17001543D01*
X68669281Y-17032365D01*
X68911719Y-17022066D01*
X69148928Y-16970944D01*
X69374086Y-16880468D01*
X69580714Y-16753242D01*
X69762869Y-16592925D01*
X69915311Y-16404130D01*
X70033653Y-16192288D01*
X70114491Y-15963493D01*
X70134847Y-15844775D01*
X70155499Y-15724337D01*
X70155500Y-15724326D01*
X70155500Y-15663550D01*
X72305000Y-15663550D01*
X72320417Y-15844692D01*
X72381541Y-16079440D01*
X72481453Y-16300472D01*
X72481458Y-16300480D01*
X72617291Y-16501450D01*
X72617293Y-16501453D01*
X72785135Y-16676575D01*
X72785136Y-16676576D01*
X72980156Y-16820813D01*
X73196757Y-16930021D01*
X73428701Y-17001053D01*
X73428699Y-17001053D01*
X73479999Y-17007622D01*
X73480000Y-17007622D01*
X73480000Y-15608310D01*
X73488817Y-15613158D01*
X73647886Y-15654000D01*
X73770894Y-15654000D01*
X73892933Y-15638583D01*
X73980000Y-15604110D01*
X73980000Y-17006837D01*
X74148781Y-16970463D01*
X74148782Y-16970463D01*
X74373856Y-16880021D01*
X74580415Y-16752838D01*
X74762507Y-16592577D01*
X74762511Y-16592573D01*
X74914890Y-16403855D01*
X74914894Y-16403849D01*
X75033194Y-16192082D01*
X75114003Y-15963370D01*
X75114005Y-15963362D01*
X75154999Y-15724293D01*
X75155000Y-15724285D01*
X75155000Y-15663550D01*
X97805000Y-15663550D01*
X97820417Y-15844692D01*
X97881541Y-16079440D01*
X97981453Y-16300472D01*
X97981458Y-16300480D01*
X98117291Y-16501450D01*
X98117293Y-16501453D01*
X98285135Y-16676575D01*
X98285136Y-16676576D01*
X98480156Y-16820813D01*
X98696757Y-16930021D01*
X98928701Y-17001053D01*
X98928699Y-17001053D01*
X98979999Y-17007622D01*
X98980000Y-17007622D01*
X98980000Y-15608310D01*
X98988817Y-15613158D01*
X99147886Y-15654000D01*
X99270894Y-15654000D01*
X99392933Y-15638583D01*
X99480000Y-15604110D01*
X99480000Y-17006837D01*
X99648781Y-16970463D01*
X99648782Y-16970463D01*
X99873856Y-16880021D01*
X100080415Y-16752838D01*
X100262507Y-16592577D01*
X100262511Y-16592573D01*
X100414890Y-16403855D01*
X100414894Y-16403849D01*
X100533194Y-16192082D01*
X100614003Y-15963370D01*
X100614005Y-15963362D01*
X100654999Y-15724293D01*
X100655000Y-15724285D01*
X100655000Y-15663572D01*
X102804500Y-15663572D01*
X102819923Y-15844775D01*
X102819924Y-15844777D01*
X102881068Y-16079608D01*
X102881069Y-16079611D01*
X102981013Y-16300713D01*
X102981020Y-16300725D01*
X103116900Y-16501765D01*
X103116902Y-16501767D01*
X103284803Y-16676952D01*
X103284804Y-16676953D01*
X103479893Y-16821241D01*
X103479895Y-16821242D01*
X103479898Y-16821244D01*
X103696571Y-16930488D01*
X103928591Y-17001543D01*
X104169281Y-17032365D01*
X104411719Y-17022066D01*
X104648928Y-16970944D01*
X104874086Y-16880468D01*
X105080714Y-16753242D01*
X105262869Y-16592925D01*
X105415311Y-16404130D01*
X105533653Y-16192288D01*
X105614491Y-15963493D01*
X105634847Y-15844775D01*
X105655499Y-15724337D01*
X105655500Y-15724326D01*
X105655500Y-14344446D01*
X105655499Y-14344427D01*
X105640076Y-14163224D01*
X105640075Y-14163222D01*
X105640075Y-14163218D01*
X105591159Y-13975357D01*
X105578931Y-13928391D01*
X105578930Y-13928388D01*
X105478986Y-13707286D01*
X105478979Y-13707274D01*
X105343099Y-13506234D01*
X105343097Y-13506232D01*
X105175196Y-13331047D01*
X105175195Y-13331046D01*
X104980106Y-13186758D01*
X104972784Y-13183066D01*
X104763429Y-13077512D01*
X104531409Y-13006457D01*
X104531407Y-13006456D01*
X104531405Y-13006456D01*
X104290713Y-12975634D01*
X104048284Y-12985933D01*
X104048280Y-12985933D01*
X103811070Y-13037056D01*
X103811067Y-13037057D01*
X103585917Y-13127530D01*
X103379286Y-13254757D01*
X103197130Y-13415075D01*
X103197126Y-13415079D01*
X103044688Y-13603870D01*
X102926347Y-13815709D01*
X102845511Y-14044499D01*
X102845507Y-14044513D01*
X102804500Y-14283662D01*
X102804500Y-15663572D01*
X100655000Y-15663572D01*
X100655000Y-15254000D01*
X99830728Y-15254000D01*
X99853100Y-15206457D01*
X99883873Y-15045138D01*
X99873561Y-14881234D01*
X99832220Y-14754000D01*
X100655000Y-14754000D01*
X100655000Y-14344467D01*
X100654999Y-14344449D01*
X100639582Y-14163307D01*
X100578458Y-13928559D01*
X100478546Y-13707527D01*
X100478541Y-13707519D01*
X100342708Y-13506549D01*
X100342706Y-13506546D01*
X100174864Y-13331424D01*
X100174863Y-13331423D01*
X99979843Y-13187186D01*
X99763242Y-13077978D01*
X99531304Y-13006947D01*
X99531297Y-13006946D01*
X99480000Y-13000376D01*
X99480000Y-14399689D01*
X99471183Y-14394842D01*
X99312114Y-14354000D01*
X99189106Y-14354000D01*
X99067067Y-14369417D01*
X98980000Y-14403889D01*
X98980000Y-13001161D01*
X98811217Y-13037536D01*
X98811214Y-13037537D01*
X98586143Y-13127978D01*
X98379584Y-13255161D01*
X98197492Y-13415422D01*
X98197488Y-13415426D01*
X98045109Y-13604144D01*
X98045105Y-13604150D01*
X97926805Y-13815917D01*
X97845996Y-14044629D01*
X97845994Y-14044637D01*
X97805000Y-14283706D01*
X97805000Y-14754000D01*
X98629272Y-14754000D01*
X98606900Y-14801543D01*
X98576127Y-14962862D01*
X98586439Y-15126766D01*
X98627780Y-15254000D01*
X97805000Y-15254000D01*
X97805000Y-15663550D01*
X75155000Y-15663550D01*
X75155000Y-15254000D01*
X74330728Y-15254000D01*
X74353100Y-15206457D01*
X74383873Y-15045138D01*
X74373561Y-14881234D01*
X74332220Y-14754000D01*
X75155000Y-14754000D01*
X75155000Y-14344467D01*
X75154999Y-14344449D01*
X75139582Y-14163307D01*
X75078458Y-13928559D01*
X74978546Y-13707527D01*
X74978541Y-13707519D01*
X74842708Y-13506549D01*
X74842706Y-13506546D01*
X74674864Y-13331424D01*
X74674863Y-13331423D01*
X74479843Y-13187186D01*
X74263242Y-13077978D01*
X74031304Y-13006947D01*
X74031297Y-13006946D01*
X73980000Y-13000376D01*
X73980000Y-14399689D01*
X73971183Y-14394842D01*
X73812114Y-14354000D01*
X73689106Y-14354000D01*
X73567067Y-14369417D01*
X73480000Y-14403889D01*
X73480000Y-13001161D01*
X73311217Y-13037536D01*
X73311214Y-13037537D01*
X73086143Y-13127978D01*
X72879584Y-13255161D01*
X72697492Y-13415422D01*
X72697488Y-13415426D01*
X72545109Y-13604144D01*
X72545105Y-13604150D01*
X72426805Y-13815917D01*
X72345996Y-14044629D01*
X72345994Y-14044637D01*
X72305000Y-14283706D01*
X72305000Y-14754000D01*
X73129272Y-14754000D01*
X73106900Y-14801543D01*
X73076127Y-14962862D01*
X73086439Y-15126766D01*
X73127780Y-15254000D01*
X72305000Y-15254000D01*
X72305000Y-15663550D01*
X70155500Y-15663550D01*
X70155500Y-14344446D01*
X70155499Y-14344427D01*
X70140076Y-14163224D01*
X70140075Y-14163222D01*
X70140075Y-14163218D01*
X70091159Y-13975357D01*
X70078931Y-13928391D01*
X70078930Y-13928388D01*
X69978986Y-13707286D01*
X69978979Y-13707274D01*
X69843099Y-13506234D01*
X69843097Y-13506232D01*
X69675196Y-13331047D01*
X69675195Y-13331046D01*
X69480106Y-13186758D01*
X69472784Y-13183066D01*
X69263429Y-13077512D01*
X69031409Y-13006457D01*
X69031407Y-13006456D01*
X69031405Y-13006456D01*
X68790713Y-12975634D01*
X68548284Y-12985933D01*
X68548280Y-12985933D01*
X68311070Y-13037056D01*
X68311067Y-13037057D01*
X68085917Y-13127530D01*
X67879286Y-13254757D01*
X67697130Y-13415075D01*
X67697126Y-13415079D01*
X67544688Y-13603870D01*
X67426347Y-13815709D01*
X67345511Y-14044499D01*
X67345507Y-14044513D01*
X67304500Y-14283662D01*
X67304500Y-15663572D01*
X62230500Y-15663572D01*
X62230500Y-8503999D01*
X78226377Y-8503999D01*
X78226378Y-8504000D01*
X79629272Y-8504000D01*
X79606900Y-8551543D01*
X79576127Y-8712862D01*
X79586439Y-8876766D01*
X79627780Y-9004000D01*
X78227161Y-9004000D01*
X78263536Y-9172782D01*
X78263537Y-9172785D01*
X78353978Y-9397856D01*
X78481161Y-9604415D01*
X78641422Y-9786507D01*
X78641426Y-9786511D01*
X78830144Y-9938890D01*
X78830150Y-9938894D01*
X79041917Y-10057194D01*
X79270629Y-10138003D01*
X79270637Y-10138005D01*
X79509706Y-10178999D01*
X79509715Y-10179000D01*
X79980000Y-10179000D01*
X79980000Y-9358310D01*
X79988817Y-9363158D01*
X80147886Y-9404000D01*
X80270894Y-9404000D01*
X80392933Y-9388583D01*
X80480000Y-9354110D01*
X80480000Y-10179000D01*
X80889533Y-10179000D01*
X80889550Y-10178999D01*
X81070692Y-10163582D01*
X81305440Y-10102458D01*
X81526472Y-10002546D01*
X81526480Y-10002541D01*
X81727450Y-9866708D01*
X81727453Y-9866706D01*
X81902575Y-9698864D01*
X81902576Y-9698863D01*
X82046813Y-9503843D01*
X82156021Y-9287242D01*
X82227053Y-9055299D01*
X82233622Y-9004000D01*
X80830728Y-9004000D01*
X80853100Y-8956457D01*
X80883873Y-8795138D01*
X80873561Y-8631234D01*
X80832220Y-8504000D01*
X82232839Y-8504000D01*
X82232839Y-8503999D01*
X90726377Y-8503999D01*
X90726378Y-8504000D01*
X92129272Y-8504000D01*
X92106900Y-8551543D01*
X92076127Y-8712862D01*
X92086439Y-8876766D01*
X92127780Y-9004000D01*
X90727161Y-9004000D01*
X90763536Y-9172782D01*
X90763537Y-9172785D01*
X90853978Y-9397856D01*
X90981161Y-9604415D01*
X91141422Y-9786507D01*
X91141426Y-9786511D01*
X91330144Y-9938890D01*
X91330150Y-9938894D01*
X91541917Y-10057194D01*
X91770629Y-10138003D01*
X91770637Y-10138005D01*
X92009706Y-10178999D01*
X92009715Y-10179000D01*
X92480000Y-10179000D01*
X92480000Y-9358310D01*
X92488817Y-9363158D01*
X92647886Y-9404000D01*
X92770894Y-9404000D01*
X92892933Y-9388583D01*
X92980000Y-9354110D01*
X92980000Y-10179000D01*
X93389533Y-10179000D01*
X93389550Y-10178999D01*
X93570692Y-10163582D01*
X93805440Y-10102458D01*
X94026472Y-10002546D01*
X94026480Y-10002541D01*
X94227450Y-9866708D01*
X94227453Y-9866706D01*
X94402575Y-9698864D01*
X94402576Y-9698863D01*
X94546813Y-9503843D01*
X94656021Y-9287242D01*
X94727053Y-9055299D01*
X94733622Y-9004000D01*
X93330728Y-9004000D01*
X93353100Y-8956457D01*
X93383873Y-8795138D01*
X93373561Y-8631234D01*
X93332220Y-8504000D01*
X94732839Y-8504000D01*
X94696463Y-8335217D01*
X94696462Y-8335214D01*
X94606021Y-8110143D01*
X94478838Y-7903584D01*
X94318577Y-7721492D01*
X94318573Y-7721488D01*
X94129855Y-7569109D01*
X94129849Y-7569105D01*
X93918082Y-7450805D01*
X93689370Y-7369996D01*
X93689362Y-7369994D01*
X93450293Y-7329000D01*
X92980000Y-7329000D01*
X92980000Y-8149689D01*
X92971183Y-8144842D01*
X92812114Y-8104000D01*
X92689106Y-8104000D01*
X92567067Y-8119417D01*
X92480000Y-8153889D01*
X92480000Y-7329000D01*
X92070449Y-7329000D01*
X91889307Y-7344417D01*
X91654559Y-7405541D01*
X91433527Y-7505453D01*
X91433519Y-7505458D01*
X91232549Y-7641291D01*
X91232546Y-7641293D01*
X91057424Y-7809135D01*
X91057423Y-7809136D01*
X90913186Y-8004156D01*
X90803978Y-8220757D01*
X90732946Y-8452700D01*
X90726377Y-8503999D01*
X82232839Y-8503999D01*
X82196463Y-8335217D01*
X82196462Y-8335214D01*
X82106021Y-8110143D01*
X81978838Y-7903584D01*
X81818577Y-7721492D01*
X81818573Y-7721488D01*
X81629855Y-7569109D01*
X81629849Y-7569105D01*
X81418082Y-7450805D01*
X81189370Y-7369996D01*
X81189362Y-7369994D01*
X80950293Y-7329000D01*
X80480000Y-7329000D01*
X80480000Y-8149689D01*
X80471183Y-8144842D01*
X80312114Y-8104000D01*
X80189106Y-8104000D01*
X80067067Y-8119417D01*
X79980000Y-8153889D01*
X79980000Y-7329000D01*
X79570449Y-7329000D01*
X79389307Y-7344417D01*
X79154559Y-7405541D01*
X78933527Y-7505453D01*
X78933519Y-7505458D01*
X78732549Y-7641291D01*
X78732546Y-7641293D01*
X78557424Y-7809135D01*
X78557423Y-7809136D01*
X78413186Y-8004156D01*
X78303978Y-8220757D01*
X78232946Y-8452700D01*
X78226377Y-8503999D01*
X62230500Y-8503999D01*
X62230500Y-3693281D01*
X78201635Y-3693281D01*
X78211933Y-3935715D01*
X78211933Y-3935719D01*
X78263056Y-4172929D01*
X78263057Y-4172932D01*
X78353530Y-4398082D01*
X78480757Y-4604713D01*
X78641075Y-4786869D01*
X78641079Y-4786873D01*
X78829870Y-4939311D01*
X79041709Y-5057652D01*
X79041712Y-5057653D01*
X79270507Y-5138491D01*
X79270513Y-5138492D01*
X79509662Y-5179499D01*
X79509670Y-5179499D01*
X79509672Y-5179500D01*
X79509673Y-5179500D01*
X80889553Y-5179500D01*
X80889554Y-5179500D01*
X80889555Y-5179499D01*
X80889572Y-5179499D01*
X81070775Y-5164076D01*
X81070775Y-5164075D01*
X81070782Y-5164075D01*
X81305608Y-5102931D01*
X81305611Y-5102930D01*
X81526713Y-5002986D01*
X81526716Y-5002983D01*
X81526723Y-5002981D01*
X81727765Y-4867100D01*
X81902952Y-4699197D01*
X82047244Y-4504102D01*
X82156488Y-4287429D01*
X82227543Y-4055409D01*
X82258365Y-3814719D01*
X82253206Y-3693281D01*
X90701635Y-3693281D01*
X90711933Y-3935715D01*
X90711933Y-3935719D01*
X90763056Y-4172929D01*
X90763057Y-4172932D01*
X90853530Y-4398082D01*
X90980757Y-4604713D01*
X91141075Y-4786869D01*
X91141079Y-4786873D01*
X91329870Y-4939311D01*
X91541709Y-5057652D01*
X91541712Y-5057653D01*
X91770507Y-5138491D01*
X91770513Y-5138492D01*
X92009662Y-5179499D01*
X92009670Y-5179499D01*
X92009672Y-5179500D01*
X92009673Y-5179500D01*
X93389553Y-5179500D01*
X93389554Y-5179500D01*
X93389555Y-5179499D01*
X93389572Y-5179499D01*
X93570775Y-5164076D01*
X93570775Y-5164075D01*
X93570782Y-5164075D01*
X93805608Y-5102931D01*
X93805611Y-5102930D01*
X94026713Y-5002986D01*
X94026716Y-5002983D01*
X94026723Y-5002981D01*
X94227765Y-4867100D01*
X94402952Y-4699197D01*
X94547244Y-4504102D01*
X94656488Y-4287429D01*
X94727543Y-4055409D01*
X94758365Y-3814719D01*
X94748066Y-3572281D01*
X94696944Y-3335072D01*
X94606468Y-3109914D01*
X94479242Y-2903286D01*
X94318925Y-2721131D01*
X94318924Y-2721130D01*
X94318920Y-2721126D01*
X94130129Y-2568688D01*
X93918290Y-2450347D01*
X93689500Y-2369511D01*
X93689486Y-2369507D01*
X93450337Y-2328500D01*
X93450328Y-2328500D01*
X92070446Y-2328500D01*
X92070427Y-2328500D01*
X91889224Y-2343923D01*
X91889222Y-2343924D01*
X91654391Y-2405068D01*
X91654388Y-2405069D01*
X91433286Y-2505013D01*
X91433274Y-2505020D01*
X91232234Y-2640900D01*
X91232232Y-2640902D01*
X91057047Y-2808803D01*
X91057046Y-2808804D01*
X90912758Y-3003893D01*
X90803515Y-3220565D01*
X90803512Y-3220571D01*
X90732456Y-3452594D01*
X90701635Y-3693281D01*
X82253206Y-3693281D01*
X82248066Y-3572281D01*
X82196944Y-3335072D01*
X82106468Y-3109914D01*
X81979242Y-2903286D01*
X81818925Y-2721131D01*
X81818924Y-2721130D01*
X81818920Y-2721126D01*
X81630129Y-2568688D01*
X81418290Y-2450347D01*
X81189500Y-2369511D01*
X81189486Y-2369507D01*
X80950337Y-2328500D01*
X80950328Y-2328500D01*
X79570446Y-2328500D01*
X79570427Y-2328500D01*
X79389224Y-2343923D01*
X79389222Y-2343924D01*
X79154391Y-2405068D01*
X79154388Y-2405069D01*
X78933286Y-2505013D01*
X78933274Y-2505020D01*
X78732234Y-2640900D01*
X78732232Y-2640902D01*
X78557047Y-2808803D01*
X78557046Y-2808804D01*
X78412758Y-3003893D01*
X78303515Y-3220565D01*
X78303512Y-3220571D01*
X78232456Y-3452594D01*
X78201635Y-3693281D01*
X62230500Y-3693281D01*
X62230500Y-378500D01*
X62250185Y-311461D01*
X62302989Y-265706D01*
X62354500Y-254500D01*
X110111500Y-254500D01*
X110178539Y-274185D01*
G37*
G04 #@! TD.AperFunction*
M02*
