%TF.GenerationSoftware,KiCad,Pcbnew,7.0.10*%
%TF.CreationDate,2024-08-15T01:47:56-04:00*%
%TF.ProjectId,Mainboard PCB,4d61696e-626f-4617-9264-205043422e6b,rev?*%
%TF.SameCoordinates,Original*%
%TF.FileFunction,Drillmap*%
%TF.FilePolarity,Positive*%
%FSLAX45Y45*%
G04 Gerber Fmt 4.5, Leading zero omitted, Abs format (unit mm)*
G04 Created by KiCad (PCBNEW 7.0.10) date 2024-08-15 01:47:56*
%MOMM*%
%LPD*%
G01*
G04 APERTURE LIST*
%ADD10C,0.150000*%
%ADD11C,0.100000*%
%ADD12C,0.200000*%
G04 APERTURE END LIST*
D10*
X1200000Y-1200000D02*
X7500000Y-1200000D01*
X7500000Y-6352300D01*
X1200000Y-6352300D01*
X1200000Y-1200000D01*
D11*
X5704923Y-3629577D02*
G75*
G03*
X5394877Y-3629577I-155023J0D01*
G01*
X5394877Y-3629577D02*
G75*
G03*
X5704923Y-3629577I155023J0D01*
G01*
X5806523Y-6083300D02*
G75*
G03*
X5496477Y-6083300I-155023J0D01*
G01*
X5496477Y-6083300D02*
G75*
G03*
X5806523Y-6083300I155023J0D01*
G01*
X1615523Y-1534077D02*
G75*
G03*
X1305477Y-1534077I-155023J0D01*
G01*
X1305477Y-1534077D02*
G75*
G03*
X1615523Y-1534077I155023J0D01*
G01*
D12*
D11*
X2824800Y-3370900D02*
X2864800Y-3410900D01*
X2864800Y-3370900D02*
X2824800Y-3410900D01*
X5666646Y-4758154D02*
X5706646Y-4798154D01*
X5706646Y-4758154D02*
X5666646Y-4798154D01*
X5783900Y-4996500D02*
X5823900Y-5036500D01*
X5823900Y-4996500D02*
X5783900Y-5036500D01*
X5847400Y-5250500D02*
X5887400Y-5290500D01*
X5887400Y-5250500D02*
X5847400Y-5290500D01*
X6304600Y-5491800D02*
X6344600Y-5531800D01*
X6344600Y-5491800D02*
X6304600Y-5531800D01*
X6520500Y-5275900D02*
X6560500Y-5315900D01*
X6560500Y-5275900D02*
X6520500Y-5315900D01*
X6584000Y-5758500D02*
X6624000Y-5798500D01*
X6624000Y-5758500D02*
X6584000Y-5798500D01*
X6799900Y-5542600D02*
X6839900Y-5582600D01*
X6839900Y-5542600D02*
X6799900Y-5582600D01*
X6825300Y-2862900D02*
X6865300Y-2902900D01*
X6865300Y-2862900D02*
X6825300Y-2902900D01*
X6850700Y-3066100D02*
X6890700Y-3106100D01*
X6890700Y-3066100D02*
X6850700Y-3106100D01*
X6850700Y-3282000D02*
X6890700Y-3322000D01*
X6890700Y-3282000D02*
X6850700Y-3322000D01*
X7028500Y-5028900D02*
X7068500Y-5068900D01*
X7068500Y-5028900D02*
X7028500Y-5068900D01*
X7168200Y-3078800D02*
X7208200Y-3118800D01*
X7208200Y-3078800D02*
X7168200Y-3118800D01*
X7295200Y-2634300D02*
X7335200Y-2674300D01*
X7335200Y-2634300D02*
X7295200Y-2674300D01*
X1473200Y-2044700D02*
G75*
G03*
X1397000Y-2044700I-38100J0D01*
G01*
X1397000Y-2044700D02*
G75*
G03*
X1473200Y-2044700I38100J0D01*
G01*
X1473200Y-6014700D02*
G75*
G03*
X1397000Y-6014700I-38100J0D01*
G01*
X1397000Y-6014700D02*
G75*
G03*
X1473200Y-6014700I38100J0D01*
G01*
X2672900Y-1548900D02*
G75*
G03*
X2596700Y-1548900I-38100J0D01*
G01*
X2596700Y-1548900D02*
G75*
G03*
X2672900Y-1548900I38100J0D01*
G01*
X2926900Y-1548900D02*
G75*
G03*
X2850700Y-1548900I-38100J0D01*
G01*
X2850700Y-1548900D02*
G75*
G03*
X2926900Y-1548900I38100J0D01*
G01*
X3133200Y-2044700D02*
G75*
G03*
X3057000Y-2044700I-38100J0D01*
G01*
X3057000Y-2044700D02*
G75*
G03*
X3133200Y-2044700I38100J0D01*
G01*
X3133200Y-6014700D02*
G75*
G03*
X3057000Y-6014700I-38100J0D01*
G01*
X3057000Y-6014700D02*
G75*
G03*
X3133200Y-6014700I38100J0D01*
G01*
X3180900Y-1548900D02*
G75*
G03*
X3104700Y-1548900I-38100J0D01*
G01*
X3104700Y-1548900D02*
G75*
G03*
X3180900Y-1548900I38100J0D01*
G01*
X3670400Y-4003400D02*
G75*
G03*
X3594200Y-4003400I-38100J0D01*
G01*
X3594200Y-4003400D02*
G75*
G03*
X3670400Y-4003400I38100J0D01*
G01*
X3670400Y-4257400D02*
G75*
G03*
X3594200Y-4257400I-38100J0D01*
G01*
X3594200Y-4257400D02*
G75*
G03*
X3670400Y-4257400I38100J0D01*
G01*
X3670400Y-4511400D02*
G75*
G03*
X3594200Y-4511400I-38100J0D01*
G01*
X3594200Y-4511400D02*
G75*
G03*
X3670400Y-4511400I38100J0D01*
G01*
X3670400Y-4765400D02*
G75*
G03*
X3594200Y-4765400I-38100J0D01*
G01*
X3594200Y-4765400D02*
G75*
G03*
X3670400Y-4765400I38100J0D01*
G01*
X3670400Y-5019400D02*
G75*
G03*
X3594200Y-5019400I-38100J0D01*
G01*
X3594200Y-5019400D02*
G75*
G03*
X3670400Y-5019400I38100J0D01*
G01*
X3670400Y-5273400D02*
G75*
G03*
X3594200Y-5273400I-38100J0D01*
G01*
X3594200Y-5273400D02*
G75*
G03*
X3670400Y-5273400I38100J0D01*
G01*
X3670400Y-5527400D02*
G75*
G03*
X3594200Y-5527400I-38100J0D01*
G01*
X3594200Y-5527400D02*
G75*
G03*
X3670400Y-5527400I38100J0D01*
G01*
X3670400Y-5781400D02*
G75*
G03*
X3594200Y-5781400I-38100J0D01*
G01*
X3594200Y-5781400D02*
G75*
G03*
X3670400Y-5781400I38100J0D01*
G01*
X3670400Y-6035400D02*
G75*
G03*
X3594200Y-6035400I-38100J0D01*
G01*
X3594200Y-6035400D02*
G75*
G03*
X3670400Y-6035400I38100J0D01*
G01*
X5270400Y-4003400D02*
G75*
G03*
X5194200Y-4003400I-38100J0D01*
G01*
X5194200Y-4003400D02*
G75*
G03*
X5270400Y-4003400I38100J0D01*
G01*
X5270400Y-4257400D02*
G75*
G03*
X5194200Y-4257400I-38100J0D01*
G01*
X5194200Y-4257400D02*
G75*
G03*
X5270400Y-4257400I38100J0D01*
G01*
X5270400Y-4511400D02*
G75*
G03*
X5194200Y-4511400I-38100J0D01*
G01*
X5194200Y-4511400D02*
G75*
G03*
X5270400Y-4511400I38100J0D01*
G01*
X5270400Y-4765400D02*
G75*
G03*
X5194200Y-4765400I-38100J0D01*
G01*
X5194200Y-4765400D02*
G75*
G03*
X5270400Y-4765400I38100J0D01*
G01*
X5270400Y-5019400D02*
G75*
G03*
X5194200Y-5019400I-38100J0D01*
G01*
X5194200Y-5019400D02*
G75*
G03*
X5270400Y-5019400I38100J0D01*
G01*
X5270400Y-5273400D02*
G75*
G03*
X5194200Y-5273400I-38100J0D01*
G01*
X5194200Y-5273400D02*
G75*
G03*
X5270400Y-5273400I38100J0D01*
G01*
X5270400Y-5527400D02*
G75*
G03*
X5194200Y-5527400I-38100J0D01*
G01*
X5194200Y-5527400D02*
G75*
G03*
X5270400Y-5527400I38100J0D01*
G01*
X5270400Y-5781400D02*
G75*
G03*
X5194200Y-5781400I-38100J0D01*
G01*
X5194200Y-5781400D02*
G75*
G03*
X5270400Y-5781400I38100J0D01*
G01*
X5270400Y-6035400D02*
G75*
G03*
X5194200Y-6035400I-38100J0D01*
G01*
X5194200Y-6035400D02*
G75*
G03*
X5270400Y-6035400I38100J0D01*
G01*
X7340600Y-3784600D02*
G75*
G03*
X7264400Y-3784600I-38100J0D01*
G01*
X7264400Y-3784600D02*
G75*
G03*
X7340600Y-3784600I38100J0D01*
G01*
X7340600Y-4038600D02*
G75*
G03*
X7264400Y-4038600I-38100J0D01*
G01*
X7264400Y-4038600D02*
G75*
G03*
X7340600Y-4038600I38100J0D01*
G01*
X7340600Y-4292600D02*
G75*
G03*
X7264400Y-4292600I-38100J0D01*
G01*
X7264400Y-4292600D02*
G75*
G03*
X7340600Y-4292600I38100J0D01*
G01*
X7340600Y-4546600D02*
G75*
G03*
X7264400Y-4546600I-38100J0D01*
G01*
X7264400Y-4546600D02*
G75*
G03*
X7340600Y-4546600I38100J0D01*
G01*
X7340600Y-4800600D02*
G75*
G03*
X7264400Y-4800600I-38100J0D01*
G01*
X7264400Y-4800600D02*
G75*
G03*
X7340600Y-4800600I38100J0D01*
G01*
X7340600Y-5054600D02*
G75*
G03*
X7264400Y-5054600I-38100J0D01*
G01*
X7264400Y-5054600D02*
G75*
G03*
X7340600Y-5054600I38100J0D01*
G01*
X7340600Y-5308600D02*
G75*
G03*
X7264400Y-5308600I-38100J0D01*
G01*
X7264400Y-5308600D02*
G75*
G03*
X7340600Y-5308600I38100J0D01*
G01*
X7340600Y-5562600D02*
G75*
G03*
X7264400Y-5562600I-38100J0D01*
G01*
X7264400Y-5562600D02*
G75*
G03*
X7340600Y-5562600I38100J0D01*
G01*
X7340600Y-5816600D02*
G75*
G03*
X7264400Y-5816600I-38100J0D01*
G01*
X7264400Y-5816600D02*
G75*
G03*
X7340600Y-5816600I38100J0D01*
G01*
X7340600Y-6070600D02*
G75*
G03*
X7264400Y-6070600I-38100J0D01*
G01*
X7264400Y-6070600D02*
G75*
G03*
X7340600Y-6070600I38100J0D01*
G01*
X1934300Y-1514100D02*
X1934300Y-1614100D01*
X1884300Y-1564100D02*
X1984300Y-1564100D01*
X2188300Y-1514100D02*
X2188300Y-1614100D01*
X2138300Y-1564100D02*
X2238300Y-1564100D01*
X3746500Y-1562900D02*
X3746500Y-1662900D01*
X3696500Y-1612900D02*
X3796500Y-1612900D01*
X3746500Y-1816900D02*
X3746500Y-1916900D01*
X3696500Y-1866900D02*
X3796500Y-1866900D01*
X3746500Y-2070900D02*
X3746500Y-2170900D01*
X3696500Y-2120900D02*
X3796500Y-2120900D01*
X5245100Y-1499400D02*
X5245100Y-1599400D01*
X5195100Y-1549400D02*
X5295100Y-1549400D01*
X5245100Y-1753400D02*
X5245100Y-1853400D01*
X5195100Y-1803400D02*
X5295100Y-1803400D01*
X5245100Y-2007400D02*
X5245100Y-2107400D01*
X5195100Y-2057400D02*
X5295100Y-2057400D01*
X5245100Y-2261400D02*
X5245100Y-2361400D01*
X5195100Y-2311400D02*
X5295100Y-2311400D01*
X5245100Y-2515400D02*
X5245100Y-2615400D01*
X5195100Y-2565400D02*
X5295100Y-2565400D01*
X5882600Y-2885700D02*
X5882600Y-2985700D01*
X5832600Y-2935700D02*
X5932600Y-2935700D01*
X5882600Y-3139700D02*
X5882600Y-3239700D01*
X5832600Y-3189700D02*
X5932600Y-3189700D01*
X5892800Y-1499400D02*
X5892800Y-1599400D01*
X5842800Y-1549400D02*
X5942800Y-1549400D01*
X5892800Y-1753400D02*
X5892800Y-1853400D01*
X5842800Y-1803400D02*
X5942800Y-1803400D01*
X5892800Y-2007400D02*
X5892800Y-2107400D01*
X5842800Y-2057400D02*
X5942800Y-2057400D01*
X5892800Y-2261400D02*
X5892800Y-2361400D01*
X5842800Y-2311400D02*
X5942800Y-2311400D01*
X6578600Y-1499400D02*
X6578600Y-1599400D01*
X6528600Y-1549400D02*
X6628600Y-1549400D01*
X6578600Y-1753400D02*
X6578600Y-1853400D01*
X6528600Y-1803400D02*
X6628600Y-1803400D01*
X6578600Y-2007400D02*
X6578600Y-2107400D01*
X6528600Y-2057400D02*
X6628600Y-2057400D01*
X6578600Y-2261400D02*
X6578600Y-2361400D01*
X6528600Y-2311400D02*
X6628600Y-2311400D01*
X7239000Y-1486700D02*
X7239000Y-1586700D01*
X7189000Y-1536700D02*
X7289000Y-1536700D01*
X7239000Y-1740700D02*
X7239000Y-1840700D01*
X7189000Y-1790700D02*
X7289000Y-1790700D01*
X7239000Y-1994700D02*
X7239000Y-2094700D01*
X7189000Y-2044700D02*
X7289000Y-2044700D01*
D12*
X1453277Y-6671284D02*
X1453277Y-6471284D01*
X1453277Y-6471284D02*
X1500896Y-6471284D01*
X1500896Y-6471284D02*
X1529467Y-6480808D01*
X1529467Y-6480808D02*
X1548515Y-6499855D01*
X1548515Y-6499855D02*
X1558039Y-6518903D01*
X1558039Y-6518903D02*
X1567562Y-6556998D01*
X1567562Y-6556998D02*
X1567562Y-6585569D01*
X1567562Y-6585569D02*
X1558039Y-6623665D01*
X1558039Y-6623665D02*
X1548515Y-6642712D01*
X1548515Y-6642712D02*
X1529467Y-6661760D01*
X1529467Y-6661760D02*
X1500896Y-6671284D01*
X1500896Y-6671284D02*
X1453277Y-6671284D01*
X1653277Y-6671284D02*
X1653277Y-6537950D01*
X1653277Y-6576046D02*
X1662801Y-6556998D01*
X1662801Y-6556998D02*
X1672324Y-6547474D01*
X1672324Y-6547474D02*
X1691372Y-6537950D01*
X1691372Y-6537950D02*
X1710420Y-6537950D01*
X1777086Y-6671284D02*
X1777086Y-6537950D01*
X1777086Y-6471284D02*
X1767562Y-6480808D01*
X1767562Y-6480808D02*
X1777086Y-6490331D01*
X1777086Y-6490331D02*
X1786610Y-6480808D01*
X1786610Y-6480808D02*
X1777086Y-6471284D01*
X1777086Y-6471284D02*
X1777086Y-6490331D01*
X1900896Y-6671284D02*
X1881848Y-6661760D01*
X1881848Y-6661760D02*
X1872324Y-6642712D01*
X1872324Y-6642712D02*
X1872324Y-6471284D01*
X2005658Y-6671284D02*
X1986610Y-6661760D01*
X1986610Y-6661760D02*
X1977086Y-6642712D01*
X1977086Y-6642712D02*
X1977086Y-6471284D01*
X2234229Y-6671284D02*
X2234229Y-6471284D01*
X2234229Y-6471284D02*
X2300896Y-6614141D01*
X2300896Y-6614141D02*
X2367563Y-6471284D01*
X2367563Y-6471284D02*
X2367563Y-6671284D01*
X2548515Y-6671284D02*
X2548515Y-6566522D01*
X2548515Y-6566522D02*
X2538991Y-6547474D01*
X2538991Y-6547474D02*
X2519944Y-6537950D01*
X2519944Y-6537950D02*
X2481848Y-6537950D01*
X2481848Y-6537950D02*
X2462801Y-6547474D01*
X2548515Y-6661760D02*
X2529467Y-6671284D01*
X2529467Y-6671284D02*
X2481848Y-6671284D01*
X2481848Y-6671284D02*
X2462801Y-6661760D01*
X2462801Y-6661760D02*
X2453277Y-6642712D01*
X2453277Y-6642712D02*
X2453277Y-6623665D01*
X2453277Y-6623665D02*
X2462801Y-6604617D01*
X2462801Y-6604617D02*
X2481848Y-6595093D01*
X2481848Y-6595093D02*
X2529467Y-6595093D01*
X2529467Y-6595093D02*
X2548515Y-6585569D01*
X2643753Y-6537950D02*
X2643753Y-6737950D01*
X2643753Y-6547474D02*
X2662801Y-6537950D01*
X2662801Y-6537950D02*
X2700896Y-6537950D01*
X2700896Y-6537950D02*
X2719944Y-6547474D01*
X2719944Y-6547474D02*
X2729467Y-6556998D01*
X2729467Y-6556998D02*
X2738991Y-6576046D01*
X2738991Y-6576046D02*
X2738991Y-6633188D01*
X2738991Y-6633188D02*
X2729467Y-6652236D01*
X2729467Y-6652236D02*
X2719944Y-6661760D01*
X2719944Y-6661760D02*
X2700896Y-6671284D01*
X2700896Y-6671284D02*
X2662801Y-6671284D01*
X2662801Y-6671284D02*
X2643753Y-6661760D01*
X2824705Y-6652236D02*
X2834229Y-6661760D01*
X2834229Y-6661760D02*
X2824705Y-6671284D01*
X2824705Y-6671284D02*
X2815182Y-6661760D01*
X2815182Y-6661760D02*
X2824705Y-6652236D01*
X2824705Y-6652236D02*
X2824705Y-6671284D01*
X2824705Y-6547474D02*
X2834229Y-6556998D01*
X2834229Y-6556998D02*
X2824705Y-6566522D01*
X2824705Y-6566522D02*
X2815182Y-6556998D01*
X2815182Y-6556998D02*
X2824705Y-6547474D01*
X2824705Y-6547474D02*
X2824705Y-6566522D01*
D11*
X1152500Y-6979800D02*
X1192500Y-7019800D01*
X1192500Y-6979800D02*
X1152500Y-7019800D01*
D12*
X1491372Y-6891284D02*
X1510420Y-6891284D01*
X1510420Y-6891284D02*
X1529467Y-6900808D01*
X1529467Y-6900808D02*
X1538991Y-6910331D01*
X1538991Y-6910331D02*
X1548515Y-6929379D01*
X1548515Y-6929379D02*
X1558039Y-6967474D01*
X1558039Y-6967474D02*
X1558039Y-7015093D01*
X1558039Y-7015093D02*
X1548515Y-7053188D01*
X1548515Y-7053188D02*
X1538991Y-7072236D01*
X1538991Y-7072236D02*
X1529467Y-7081760D01*
X1529467Y-7081760D02*
X1510420Y-7091284D01*
X1510420Y-7091284D02*
X1491372Y-7091284D01*
X1491372Y-7091284D02*
X1472324Y-7081760D01*
X1472324Y-7081760D02*
X1462801Y-7072236D01*
X1462801Y-7072236D02*
X1453277Y-7053188D01*
X1453277Y-7053188D02*
X1443753Y-7015093D01*
X1443753Y-7015093D02*
X1443753Y-6967474D01*
X1443753Y-6967474D02*
X1453277Y-6929379D01*
X1453277Y-6929379D02*
X1462801Y-6910331D01*
X1462801Y-6910331D02*
X1472324Y-6900808D01*
X1472324Y-6900808D02*
X1491372Y-6891284D01*
X1643753Y-7072236D02*
X1653277Y-7081760D01*
X1653277Y-7081760D02*
X1643753Y-7091284D01*
X1643753Y-7091284D02*
X1634229Y-7081760D01*
X1634229Y-7081760D02*
X1643753Y-7072236D01*
X1643753Y-7072236D02*
X1643753Y-7091284D01*
X1824705Y-6957950D02*
X1824705Y-7091284D01*
X1777086Y-6881760D02*
X1729467Y-7024617D01*
X1729467Y-7024617D02*
X1853277Y-7024617D01*
X1967562Y-6891284D02*
X1986610Y-6891284D01*
X1986610Y-6891284D02*
X2005658Y-6900808D01*
X2005658Y-6900808D02*
X2015182Y-6910331D01*
X2015182Y-6910331D02*
X2024705Y-6929379D01*
X2024705Y-6929379D02*
X2034229Y-6967474D01*
X2034229Y-6967474D02*
X2034229Y-7015093D01*
X2034229Y-7015093D02*
X2024705Y-7053188D01*
X2024705Y-7053188D02*
X2015182Y-7072236D01*
X2015182Y-7072236D02*
X2005658Y-7081760D01*
X2005658Y-7081760D02*
X1986610Y-7091284D01*
X1986610Y-7091284D02*
X1967562Y-7091284D01*
X1967562Y-7091284D02*
X1948515Y-7081760D01*
X1948515Y-7081760D02*
X1938991Y-7072236D01*
X1938991Y-7072236D02*
X1929467Y-7053188D01*
X1929467Y-7053188D02*
X1919943Y-7015093D01*
X1919943Y-7015093D02*
X1919943Y-6967474D01*
X1919943Y-6967474D02*
X1929467Y-6929379D01*
X1929467Y-6929379D02*
X1938991Y-6910331D01*
X1938991Y-6910331D02*
X1948515Y-6900808D01*
X1948515Y-6900808D02*
X1967562Y-6891284D01*
X2158039Y-6891284D02*
X2177086Y-6891284D01*
X2177086Y-6891284D02*
X2196134Y-6900808D01*
X2196134Y-6900808D02*
X2205658Y-6910331D01*
X2205658Y-6910331D02*
X2215182Y-6929379D01*
X2215182Y-6929379D02*
X2224705Y-6967474D01*
X2224705Y-6967474D02*
X2224705Y-7015093D01*
X2224705Y-7015093D02*
X2215182Y-7053188D01*
X2215182Y-7053188D02*
X2205658Y-7072236D01*
X2205658Y-7072236D02*
X2196134Y-7081760D01*
X2196134Y-7081760D02*
X2177086Y-7091284D01*
X2177086Y-7091284D02*
X2158039Y-7091284D01*
X2158039Y-7091284D02*
X2138991Y-7081760D01*
X2138991Y-7081760D02*
X2129467Y-7072236D01*
X2129467Y-7072236D02*
X2119944Y-7053188D01*
X2119944Y-7053188D02*
X2110420Y-7015093D01*
X2110420Y-7015093D02*
X2110420Y-6967474D01*
X2110420Y-6967474D02*
X2119944Y-6929379D01*
X2119944Y-6929379D02*
X2129467Y-6910331D01*
X2129467Y-6910331D02*
X2138991Y-6900808D01*
X2138991Y-6900808D02*
X2158039Y-6891284D01*
X2310420Y-7091284D02*
X2310420Y-6957950D01*
X2310420Y-6976998D02*
X2319944Y-6967474D01*
X2319944Y-6967474D02*
X2338991Y-6957950D01*
X2338991Y-6957950D02*
X2367563Y-6957950D01*
X2367563Y-6957950D02*
X2386610Y-6967474D01*
X2386610Y-6967474D02*
X2396134Y-6986522D01*
X2396134Y-6986522D02*
X2396134Y-7091284D01*
X2396134Y-6986522D02*
X2405658Y-6967474D01*
X2405658Y-6967474D02*
X2424705Y-6957950D01*
X2424705Y-6957950D02*
X2453277Y-6957950D01*
X2453277Y-6957950D02*
X2472325Y-6967474D01*
X2472325Y-6967474D02*
X2481848Y-6986522D01*
X2481848Y-6986522D02*
X2481848Y-7091284D01*
X2577086Y-7091284D02*
X2577086Y-6957950D01*
X2577086Y-6976998D02*
X2586610Y-6967474D01*
X2586610Y-6967474D02*
X2605658Y-6957950D01*
X2605658Y-6957950D02*
X2634229Y-6957950D01*
X2634229Y-6957950D02*
X2653277Y-6967474D01*
X2653277Y-6967474D02*
X2662801Y-6986522D01*
X2662801Y-6986522D02*
X2662801Y-7091284D01*
X2662801Y-6986522D02*
X2672325Y-6967474D01*
X2672325Y-6967474D02*
X2691372Y-6957950D01*
X2691372Y-6957950D02*
X2719944Y-6957950D01*
X2719944Y-6957950D02*
X2738991Y-6967474D01*
X2738991Y-6967474D02*
X2748515Y-6986522D01*
X2748515Y-6986522D02*
X2748515Y-7091284D01*
X3138991Y-6881760D02*
X2967563Y-7138903D01*
X3396134Y-6891284D02*
X3415182Y-6891284D01*
X3415182Y-6891284D02*
X3434229Y-6900808D01*
X3434229Y-6900808D02*
X3443753Y-6910331D01*
X3443753Y-6910331D02*
X3453277Y-6929379D01*
X3453277Y-6929379D02*
X3462801Y-6967474D01*
X3462801Y-6967474D02*
X3462801Y-7015093D01*
X3462801Y-7015093D02*
X3453277Y-7053188D01*
X3453277Y-7053188D02*
X3443753Y-7072236D01*
X3443753Y-7072236D02*
X3434229Y-7081760D01*
X3434229Y-7081760D02*
X3415182Y-7091284D01*
X3415182Y-7091284D02*
X3396134Y-7091284D01*
X3396134Y-7091284D02*
X3377086Y-7081760D01*
X3377086Y-7081760D02*
X3367563Y-7072236D01*
X3367563Y-7072236D02*
X3358039Y-7053188D01*
X3358039Y-7053188D02*
X3348515Y-7015093D01*
X3348515Y-7015093D02*
X3348515Y-6967474D01*
X3348515Y-6967474D02*
X3358039Y-6929379D01*
X3358039Y-6929379D02*
X3367563Y-6910331D01*
X3367563Y-6910331D02*
X3377086Y-6900808D01*
X3377086Y-6900808D02*
X3396134Y-6891284D01*
X3548515Y-7072236D02*
X3558039Y-7081760D01*
X3558039Y-7081760D02*
X3548515Y-7091284D01*
X3548515Y-7091284D02*
X3538991Y-7081760D01*
X3538991Y-7081760D02*
X3548515Y-7072236D01*
X3548515Y-7072236D02*
X3548515Y-7091284D01*
X3681848Y-6891284D02*
X3700896Y-6891284D01*
X3700896Y-6891284D02*
X3719944Y-6900808D01*
X3719944Y-6900808D02*
X3729467Y-6910331D01*
X3729467Y-6910331D02*
X3738991Y-6929379D01*
X3738991Y-6929379D02*
X3748515Y-6967474D01*
X3748515Y-6967474D02*
X3748515Y-7015093D01*
X3748515Y-7015093D02*
X3738991Y-7053188D01*
X3738991Y-7053188D02*
X3729467Y-7072236D01*
X3729467Y-7072236D02*
X3719944Y-7081760D01*
X3719944Y-7081760D02*
X3700896Y-7091284D01*
X3700896Y-7091284D02*
X3681848Y-7091284D01*
X3681848Y-7091284D02*
X3662801Y-7081760D01*
X3662801Y-7081760D02*
X3653277Y-7072236D01*
X3653277Y-7072236D02*
X3643753Y-7053188D01*
X3643753Y-7053188D02*
X3634229Y-7015093D01*
X3634229Y-7015093D02*
X3634229Y-6967474D01*
X3634229Y-6967474D02*
X3643753Y-6929379D01*
X3643753Y-6929379D02*
X3653277Y-6910331D01*
X3653277Y-6910331D02*
X3662801Y-6900808D01*
X3662801Y-6900808D02*
X3681848Y-6891284D01*
X3938991Y-7091284D02*
X3824706Y-7091284D01*
X3881848Y-7091284D02*
X3881848Y-6891284D01*
X3881848Y-6891284D02*
X3862801Y-6919855D01*
X3862801Y-6919855D02*
X3843753Y-6938903D01*
X3843753Y-6938903D02*
X3824706Y-6948427D01*
X4119944Y-6891284D02*
X4024706Y-6891284D01*
X4024706Y-6891284D02*
X4015182Y-6986522D01*
X4015182Y-6986522D02*
X4024706Y-6976998D01*
X4024706Y-6976998D02*
X4043753Y-6967474D01*
X4043753Y-6967474D02*
X4091372Y-6967474D01*
X4091372Y-6967474D02*
X4110420Y-6976998D01*
X4110420Y-6976998D02*
X4119944Y-6986522D01*
X4119944Y-6986522D02*
X4129467Y-7005569D01*
X4129467Y-7005569D02*
X4129467Y-7053188D01*
X4129467Y-7053188D02*
X4119944Y-7072236D01*
X4119944Y-7072236D02*
X4110420Y-7081760D01*
X4110420Y-7081760D02*
X4091372Y-7091284D01*
X4091372Y-7091284D02*
X4043753Y-7091284D01*
X4043753Y-7091284D02*
X4024706Y-7081760D01*
X4024706Y-7081760D02*
X4015182Y-7072236D01*
X4196134Y-6891284D02*
X4329468Y-6891284D01*
X4329468Y-6891284D02*
X4243753Y-7091284D01*
X4396134Y-6891284D02*
X4396134Y-6929379D01*
X4472325Y-6891284D02*
X4472325Y-6929379D01*
X4767563Y-7167474D02*
X4758039Y-7157950D01*
X4758039Y-7157950D02*
X4738991Y-7129379D01*
X4738991Y-7129379D02*
X4729468Y-7110331D01*
X4729468Y-7110331D02*
X4719944Y-7081760D01*
X4719944Y-7081760D02*
X4710420Y-7034141D01*
X4710420Y-7034141D02*
X4710420Y-6996046D01*
X4710420Y-6996046D02*
X4719944Y-6948427D01*
X4719944Y-6948427D02*
X4729468Y-6919855D01*
X4729468Y-6919855D02*
X4738991Y-6900808D01*
X4738991Y-6900808D02*
X4758039Y-6872236D01*
X4758039Y-6872236D02*
X4767563Y-6862712D01*
X4948515Y-7091284D02*
X4834230Y-7091284D01*
X4891372Y-7091284D02*
X4891372Y-6891284D01*
X4891372Y-6891284D02*
X4872325Y-6919855D01*
X4872325Y-6919855D02*
X4853277Y-6938903D01*
X4853277Y-6938903D02*
X4834230Y-6948427D01*
X5119944Y-6957950D02*
X5119944Y-7091284D01*
X5072325Y-6881760D02*
X5024706Y-7024617D01*
X5024706Y-7024617D02*
X5148515Y-7024617D01*
X5377087Y-7091284D02*
X5377087Y-6891284D01*
X5462801Y-7091284D02*
X5462801Y-6986522D01*
X5462801Y-6986522D02*
X5453277Y-6967474D01*
X5453277Y-6967474D02*
X5434230Y-6957950D01*
X5434230Y-6957950D02*
X5405658Y-6957950D01*
X5405658Y-6957950D02*
X5386611Y-6967474D01*
X5386611Y-6967474D02*
X5377087Y-6976998D01*
X5586611Y-7091284D02*
X5567563Y-7081760D01*
X5567563Y-7081760D02*
X5558039Y-7072236D01*
X5558039Y-7072236D02*
X5548515Y-7053188D01*
X5548515Y-7053188D02*
X5548515Y-6996046D01*
X5548515Y-6996046D02*
X5558039Y-6976998D01*
X5558039Y-6976998D02*
X5567563Y-6967474D01*
X5567563Y-6967474D02*
X5586611Y-6957950D01*
X5586611Y-6957950D02*
X5615182Y-6957950D01*
X5615182Y-6957950D02*
X5634230Y-6967474D01*
X5634230Y-6967474D02*
X5643753Y-6976998D01*
X5643753Y-6976998D02*
X5653277Y-6996046D01*
X5653277Y-6996046D02*
X5653277Y-7053188D01*
X5653277Y-7053188D02*
X5643753Y-7072236D01*
X5643753Y-7072236D02*
X5634230Y-7081760D01*
X5634230Y-7081760D02*
X5615182Y-7091284D01*
X5615182Y-7091284D02*
X5586611Y-7091284D01*
X5767563Y-7091284D02*
X5748515Y-7081760D01*
X5748515Y-7081760D02*
X5738991Y-7062712D01*
X5738991Y-7062712D02*
X5738991Y-6891284D01*
X5919944Y-7081760D02*
X5900896Y-7091284D01*
X5900896Y-7091284D02*
X5862801Y-7091284D01*
X5862801Y-7091284D02*
X5843753Y-7081760D01*
X5843753Y-7081760D02*
X5834230Y-7062712D01*
X5834230Y-7062712D02*
X5834230Y-6986522D01*
X5834230Y-6986522D02*
X5843753Y-6967474D01*
X5843753Y-6967474D02*
X5862801Y-6957950D01*
X5862801Y-6957950D02*
X5900896Y-6957950D01*
X5900896Y-6957950D02*
X5919944Y-6967474D01*
X5919944Y-6967474D02*
X5929468Y-6986522D01*
X5929468Y-6986522D02*
X5929468Y-7005569D01*
X5929468Y-7005569D02*
X5834230Y-7024617D01*
X6005658Y-7081760D02*
X6024706Y-7091284D01*
X6024706Y-7091284D02*
X6062801Y-7091284D01*
X6062801Y-7091284D02*
X6081849Y-7081760D01*
X6081849Y-7081760D02*
X6091372Y-7062712D01*
X6091372Y-7062712D02*
X6091372Y-7053188D01*
X6091372Y-7053188D02*
X6081849Y-7034141D01*
X6081849Y-7034141D02*
X6062801Y-7024617D01*
X6062801Y-7024617D02*
X6034230Y-7024617D01*
X6034230Y-7024617D02*
X6015182Y-7015093D01*
X6015182Y-7015093D02*
X6005658Y-6996046D01*
X6005658Y-6996046D02*
X6005658Y-6986522D01*
X6005658Y-6986522D02*
X6015182Y-6967474D01*
X6015182Y-6967474D02*
X6034230Y-6957950D01*
X6034230Y-6957950D02*
X6062801Y-6957950D01*
X6062801Y-6957950D02*
X6081849Y-6967474D01*
X6158039Y-7167474D02*
X6167563Y-7157950D01*
X6167563Y-7157950D02*
X6186611Y-7129379D01*
X6186611Y-7129379D02*
X6196134Y-7110331D01*
X6196134Y-7110331D02*
X6205658Y-7081760D01*
X6205658Y-7081760D02*
X6215182Y-7034141D01*
X6215182Y-7034141D02*
X6215182Y-6996046D01*
X6215182Y-6996046D02*
X6205658Y-6948427D01*
X6205658Y-6948427D02*
X6196134Y-6919855D01*
X6196134Y-6919855D02*
X6186611Y-6900808D01*
X6186611Y-6900808D02*
X6167563Y-6872236D01*
X6167563Y-6872236D02*
X6158039Y-6862712D01*
D11*
X1192500Y-7263800D02*
G75*
G03*
X1116300Y-7263800I-38100J0D01*
G01*
X1116300Y-7263800D02*
G75*
G03*
X1192500Y-7263800I38100J0D01*
G01*
D12*
X1491372Y-7155284D02*
X1510420Y-7155284D01*
X1510420Y-7155284D02*
X1529467Y-7164808D01*
X1529467Y-7164808D02*
X1538991Y-7174331D01*
X1538991Y-7174331D02*
X1548515Y-7193379D01*
X1548515Y-7193379D02*
X1558039Y-7231474D01*
X1558039Y-7231474D02*
X1558039Y-7279093D01*
X1558039Y-7279093D02*
X1548515Y-7317188D01*
X1548515Y-7317188D02*
X1538991Y-7336236D01*
X1538991Y-7336236D02*
X1529467Y-7345760D01*
X1529467Y-7345760D02*
X1510420Y-7355284D01*
X1510420Y-7355284D02*
X1491372Y-7355284D01*
X1491372Y-7355284D02*
X1472324Y-7345760D01*
X1472324Y-7345760D02*
X1462801Y-7336236D01*
X1462801Y-7336236D02*
X1453277Y-7317188D01*
X1453277Y-7317188D02*
X1443753Y-7279093D01*
X1443753Y-7279093D02*
X1443753Y-7231474D01*
X1443753Y-7231474D02*
X1453277Y-7193379D01*
X1453277Y-7193379D02*
X1462801Y-7174331D01*
X1462801Y-7174331D02*
X1472324Y-7164808D01*
X1472324Y-7164808D02*
X1491372Y-7155284D01*
X1643753Y-7336236D02*
X1653277Y-7345760D01*
X1653277Y-7345760D02*
X1643753Y-7355284D01*
X1643753Y-7355284D02*
X1634229Y-7345760D01*
X1634229Y-7345760D02*
X1643753Y-7336236D01*
X1643753Y-7336236D02*
X1643753Y-7355284D01*
X1719943Y-7155284D02*
X1853277Y-7155284D01*
X1853277Y-7155284D02*
X1767562Y-7355284D01*
X2015182Y-7155284D02*
X1977086Y-7155284D01*
X1977086Y-7155284D02*
X1958039Y-7164808D01*
X1958039Y-7164808D02*
X1948515Y-7174331D01*
X1948515Y-7174331D02*
X1929467Y-7202903D01*
X1929467Y-7202903D02*
X1919943Y-7240998D01*
X1919943Y-7240998D02*
X1919943Y-7317188D01*
X1919943Y-7317188D02*
X1929467Y-7336236D01*
X1929467Y-7336236D02*
X1938991Y-7345760D01*
X1938991Y-7345760D02*
X1958039Y-7355284D01*
X1958039Y-7355284D02*
X1996134Y-7355284D01*
X1996134Y-7355284D02*
X2015182Y-7345760D01*
X2015182Y-7345760D02*
X2024705Y-7336236D01*
X2024705Y-7336236D02*
X2034229Y-7317188D01*
X2034229Y-7317188D02*
X2034229Y-7269569D01*
X2034229Y-7269569D02*
X2024705Y-7250522D01*
X2024705Y-7250522D02*
X2015182Y-7240998D01*
X2015182Y-7240998D02*
X1996134Y-7231474D01*
X1996134Y-7231474D02*
X1958039Y-7231474D01*
X1958039Y-7231474D02*
X1938991Y-7240998D01*
X1938991Y-7240998D02*
X1929467Y-7250522D01*
X1929467Y-7250522D02*
X1919943Y-7269569D01*
X2110420Y-7174331D02*
X2119944Y-7164808D01*
X2119944Y-7164808D02*
X2138991Y-7155284D01*
X2138991Y-7155284D02*
X2186610Y-7155284D01*
X2186610Y-7155284D02*
X2205658Y-7164808D01*
X2205658Y-7164808D02*
X2215182Y-7174331D01*
X2215182Y-7174331D02*
X2224705Y-7193379D01*
X2224705Y-7193379D02*
X2224705Y-7212427D01*
X2224705Y-7212427D02*
X2215182Y-7240998D01*
X2215182Y-7240998D02*
X2100896Y-7355284D01*
X2100896Y-7355284D02*
X2224705Y-7355284D01*
X2310420Y-7355284D02*
X2310420Y-7221950D01*
X2310420Y-7240998D02*
X2319944Y-7231474D01*
X2319944Y-7231474D02*
X2338991Y-7221950D01*
X2338991Y-7221950D02*
X2367563Y-7221950D01*
X2367563Y-7221950D02*
X2386610Y-7231474D01*
X2386610Y-7231474D02*
X2396134Y-7250522D01*
X2396134Y-7250522D02*
X2396134Y-7355284D01*
X2396134Y-7250522D02*
X2405658Y-7231474D01*
X2405658Y-7231474D02*
X2424705Y-7221950D01*
X2424705Y-7221950D02*
X2453277Y-7221950D01*
X2453277Y-7221950D02*
X2472325Y-7231474D01*
X2472325Y-7231474D02*
X2481848Y-7250522D01*
X2481848Y-7250522D02*
X2481848Y-7355284D01*
X2577086Y-7355284D02*
X2577086Y-7221950D01*
X2577086Y-7240998D02*
X2586610Y-7231474D01*
X2586610Y-7231474D02*
X2605658Y-7221950D01*
X2605658Y-7221950D02*
X2634229Y-7221950D01*
X2634229Y-7221950D02*
X2653277Y-7231474D01*
X2653277Y-7231474D02*
X2662801Y-7250522D01*
X2662801Y-7250522D02*
X2662801Y-7355284D01*
X2662801Y-7250522D02*
X2672325Y-7231474D01*
X2672325Y-7231474D02*
X2691372Y-7221950D01*
X2691372Y-7221950D02*
X2719944Y-7221950D01*
X2719944Y-7221950D02*
X2738991Y-7231474D01*
X2738991Y-7231474D02*
X2748515Y-7250522D01*
X2748515Y-7250522D02*
X2748515Y-7355284D01*
X3138991Y-7145760D02*
X2967563Y-7402903D01*
X3396134Y-7155284D02*
X3415182Y-7155284D01*
X3415182Y-7155284D02*
X3434229Y-7164808D01*
X3434229Y-7164808D02*
X3443753Y-7174331D01*
X3443753Y-7174331D02*
X3453277Y-7193379D01*
X3453277Y-7193379D02*
X3462801Y-7231474D01*
X3462801Y-7231474D02*
X3462801Y-7279093D01*
X3462801Y-7279093D02*
X3453277Y-7317188D01*
X3453277Y-7317188D02*
X3443753Y-7336236D01*
X3443753Y-7336236D02*
X3434229Y-7345760D01*
X3434229Y-7345760D02*
X3415182Y-7355284D01*
X3415182Y-7355284D02*
X3396134Y-7355284D01*
X3396134Y-7355284D02*
X3377086Y-7345760D01*
X3377086Y-7345760D02*
X3367563Y-7336236D01*
X3367563Y-7336236D02*
X3358039Y-7317188D01*
X3358039Y-7317188D02*
X3348515Y-7279093D01*
X3348515Y-7279093D02*
X3348515Y-7231474D01*
X3348515Y-7231474D02*
X3358039Y-7193379D01*
X3358039Y-7193379D02*
X3367563Y-7174331D01*
X3367563Y-7174331D02*
X3377086Y-7164808D01*
X3377086Y-7164808D02*
X3396134Y-7155284D01*
X3548515Y-7336236D02*
X3558039Y-7345760D01*
X3558039Y-7345760D02*
X3548515Y-7355284D01*
X3548515Y-7355284D02*
X3538991Y-7345760D01*
X3538991Y-7345760D02*
X3548515Y-7336236D01*
X3548515Y-7336236D02*
X3548515Y-7355284D01*
X3681848Y-7155284D02*
X3700896Y-7155284D01*
X3700896Y-7155284D02*
X3719944Y-7164808D01*
X3719944Y-7164808D02*
X3729467Y-7174331D01*
X3729467Y-7174331D02*
X3738991Y-7193379D01*
X3738991Y-7193379D02*
X3748515Y-7231474D01*
X3748515Y-7231474D02*
X3748515Y-7279093D01*
X3748515Y-7279093D02*
X3738991Y-7317188D01*
X3738991Y-7317188D02*
X3729467Y-7336236D01*
X3729467Y-7336236D02*
X3719944Y-7345760D01*
X3719944Y-7345760D02*
X3700896Y-7355284D01*
X3700896Y-7355284D02*
X3681848Y-7355284D01*
X3681848Y-7355284D02*
X3662801Y-7345760D01*
X3662801Y-7345760D02*
X3653277Y-7336236D01*
X3653277Y-7336236D02*
X3643753Y-7317188D01*
X3643753Y-7317188D02*
X3634229Y-7279093D01*
X3634229Y-7279093D02*
X3634229Y-7231474D01*
X3634229Y-7231474D02*
X3643753Y-7193379D01*
X3643753Y-7193379D02*
X3653277Y-7174331D01*
X3653277Y-7174331D02*
X3662801Y-7164808D01*
X3662801Y-7164808D02*
X3681848Y-7155284D01*
X3815182Y-7155284D02*
X3938991Y-7155284D01*
X3938991Y-7155284D02*
X3872325Y-7231474D01*
X3872325Y-7231474D02*
X3900896Y-7231474D01*
X3900896Y-7231474D02*
X3919944Y-7240998D01*
X3919944Y-7240998D02*
X3929467Y-7250522D01*
X3929467Y-7250522D02*
X3938991Y-7269569D01*
X3938991Y-7269569D02*
X3938991Y-7317188D01*
X3938991Y-7317188D02*
X3929467Y-7336236D01*
X3929467Y-7336236D02*
X3919944Y-7345760D01*
X3919944Y-7345760D02*
X3900896Y-7355284D01*
X3900896Y-7355284D02*
X3843753Y-7355284D01*
X3843753Y-7355284D02*
X3824706Y-7345760D01*
X3824706Y-7345760D02*
X3815182Y-7336236D01*
X4062801Y-7155284D02*
X4081848Y-7155284D01*
X4081848Y-7155284D02*
X4100896Y-7164808D01*
X4100896Y-7164808D02*
X4110420Y-7174331D01*
X4110420Y-7174331D02*
X4119944Y-7193379D01*
X4119944Y-7193379D02*
X4129467Y-7231474D01*
X4129467Y-7231474D02*
X4129467Y-7279093D01*
X4129467Y-7279093D02*
X4119944Y-7317188D01*
X4119944Y-7317188D02*
X4110420Y-7336236D01*
X4110420Y-7336236D02*
X4100896Y-7345760D01*
X4100896Y-7345760D02*
X4081848Y-7355284D01*
X4081848Y-7355284D02*
X4062801Y-7355284D01*
X4062801Y-7355284D02*
X4043753Y-7345760D01*
X4043753Y-7345760D02*
X4034229Y-7336236D01*
X4034229Y-7336236D02*
X4024706Y-7317188D01*
X4024706Y-7317188D02*
X4015182Y-7279093D01*
X4015182Y-7279093D02*
X4015182Y-7231474D01*
X4015182Y-7231474D02*
X4024706Y-7193379D01*
X4024706Y-7193379D02*
X4034229Y-7174331D01*
X4034229Y-7174331D02*
X4043753Y-7164808D01*
X4043753Y-7164808D02*
X4062801Y-7155284D01*
X4253277Y-7155284D02*
X4272325Y-7155284D01*
X4272325Y-7155284D02*
X4291372Y-7164808D01*
X4291372Y-7164808D02*
X4300896Y-7174331D01*
X4300896Y-7174331D02*
X4310420Y-7193379D01*
X4310420Y-7193379D02*
X4319944Y-7231474D01*
X4319944Y-7231474D02*
X4319944Y-7279093D01*
X4319944Y-7279093D02*
X4310420Y-7317188D01*
X4310420Y-7317188D02*
X4300896Y-7336236D01*
X4300896Y-7336236D02*
X4291372Y-7345760D01*
X4291372Y-7345760D02*
X4272325Y-7355284D01*
X4272325Y-7355284D02*
X4253277Y-7355284D01*
X4253277Y-7355284D02*
X4234229Y-7345760D01*
X4234229Y-7345760D02*
X4224706Y-7336236D01*
X4224706Y-7336236D02*
X4215182Y-7317188D01*
X4215182Y-7317188D02*
X4205658Y-7279093D01*
X4205658Y-7279093D02*
X4205658Y-7231474D01*
X4205658Y-7231474D02*
X4215182Y-7193379D01*
X4215182Y-7193379D02*
X4224706Y-7174331D01*
X4224706Y-7174331D02*
X4234229Y-7164808D01*
X4234229Y-7164808D02*
X4253277Y-7155284D01*
X4396134Y-7155284D02*
X4396134Y-7193379D01*
X4472325Y-7155284D02*
X4472325Y-7193379D01*
X4767563Y-7431474D02*
X4758039Y-7421950D01*
X4758039Y-7421950D02*
X4738991Y-7393379D01*
X4738991Y-7393379D02*
X4729468Y-7374331D01*
X4729468Y-7374331D02*
X4719944Y-7345760D01*
X4719944Y-7345760D02*
X4710420Y-7298141D01*
X4710420Y-7298141D02*
X4710420Y-7260046D01*
X4710420Y-7260046D02*
X4719944Y-7212427D01*
X4719944Y-7212427D02*
X4729468Y-7183855D01*
X4729468Y-7183855D02*
X4738991Y-7164808D01*
X4738991Y-7164808D02*
X4758039Y-7136236D01*
X4758039Y-7136236D02*
X4767563Y-7126712D01*
X4824706Y-7155284D02*
X4948515Y-7155284D01*
X4948515Y-7155284D02*
X4881849Y-7231474D01*
X4881849Y-7231474D02*
X4910420Y-7231474D01*
X4910420Y-7231474D02*
X4929468Y-7240998D01*
X4929468Y-7240998D02*
X4938991Y-7250522D01*
X4938991Y-7250522D02*
X4948515Y-7269569D01*
X4948515Y-7269569D02*
X4948515Y-7317188D01*
X4948515Y-7317188D02*
X4938991Y-7336236D01*
X4938991Y-7336236D02*
X4929468Y-7345760D01*
X4929468Y-7345760D02*
X4910420Y-7355284D01*
X4910420Y-7355284D02*
X4853277Y-7355284D01*
X4853277Y-7355284D02*
X4834230Y-7345760D01*
X4834230Y-7345760D02*
X4824706Y-7336236D01*
X5129468Y-7155284D02*
X5034230Y-7155284D01*
X5034230Y-7155284D02*
X5024706Y-7250522D01*
X5024706Y-7250522D02*
X5034230Y-7240998D01*
X5034230Y-7240998D02*
X5053277Y-7231474D01*
X5053277Y-7231474D02*
X5100896Y-7231474D01*
X5100896Y-7231474D02*
X5119944Y-7240998D01*
X5119944Y-7240998D02*
X5129468Y-7250522D01*
X5129468Y-7250522D02*
X5138991Y-7269569D01*
X5138991Y-7269569D02*
X5138991Y-7317188D01*
X5138991Y-7317188D02*
X5129468Y-7336236D01*
X5129468Y-7336236D02*
X5119944Y-7345760D01*
X5119944Y-7345760D02*
X5100896Y-7355284D01*
X5100896Y-7355284D02*
X5053277Y-7355284D01*
X5053277Y-7355284D02*
X5034230Y-7345760D01*
X5034230Y-7345760D02*
X5024706Y-7336236D01*
X5377087Y-7355284D02*
X5377087Y-7155284D01*
X5462801Y-7355284D02*
X5462801Y-7250522D01*
X5462801Y-7250522D02*
X5453277Y-7231474D01*
X5453277Y-7231474D02*
X5434230Y-7221950D01*
X5434230Y-7221950D02*
X5405658Y-7221950D01*
X5405658Y-7221950D02*
X5386611Y-7231474D01*
X5386611Y-7231474D02*
X5377087Y-7240998D01*
X5586611Y-7355284D02*
X5567563Y-7345760D01*
X5567563Y-7345760D02*
X5558039Y-7336236D01*
X5558039Y-7336236D02*
X5548515Y-7317188D01*
X5548515Y-7317188D02*
X5548515Y-7260046D01*
X5548515Y-7260046D02*
X5558039Y-7240998D01*
X5558039Y-7240998D02*
X5567563Y-7231474D01*
X5567563Y-7231474D02*
X5586611Y-7221950D01*
X5586611Y-7221950D02*
X5615182Y-7221950D01*
X5615182Y-7221950D02*
X5634230Y-7231474D01*
X5634230Y-7231474D02*
X5643753Y-7240998D01*
X5643753Y-7240998D02*
X5653277Y-7260046D01*
X5653277Y-7260046D02*
X5653277Y-7317188D01*
X5653277Y-7317188D02*
X5643753Y-7336236D01*
X5643753Y-7336236D02*
X5634230Y-7345760D01*
X5634230Y-7345760D02*
X5615182Y-7355284D01*
X5615182Y-7355284D02*
X5586611Y-7355284D01*
X5767563Y-7355284D02*
X5748515Y-7345760D01*
X5748515Y-7345760D02*
X5738991Y-7326712D01*
X5738991Y-7326712D02*
X5738991Y-7155284D01*
X5919944Y-7345760D02*
X5900896Y-7355284D01*
X5900896Y-7355284D02*
X5862801Y-7355284D01*
X5862801Y-7355284D02*
X5843753Y-7345760D01*
X5843753Y-7345760D02*
X5834230Y-7326712D01*
X5834230Y-7326712D02*
X5834230Y-7250522D01*
X5834230Y-7250522D02*
X5843753Y-7231474D01*
X5843753Y-7231474D02*
X5862801Y-7221950D01*
X5862801Y-7221950D02*
X5900896Y-7221950D01*
X5900896Y-7221950D02*
X5919944Y-7231474D01*
X5919944Y-7231474D02*
X5929468Y-7250522D01*
X5929468Y-7250522D02*
X5929468Y-7269569D01*
X5929468Y-7269569D02*
X5834230Y-7288617D01*
X6005658Y-7345760D02*
X6024706Y-7355284D01*
X6024706Y-7355284D02*
X6062801Y-7355284D01*
X6062801Y-7355284D02*
X6081849Y-7345760D01*
X6081849Y-7345760D02*
X6091372Y-7326712D01*
X6091372Y-7326712D02*
X6091372Y-7317188D01*
X6091372Y-7317188D02*
X6081849Y-7298141D01*
X6081849Y-7298141D02*
X6062801Y-7288617D01*
X6062801Y-7288617D02*
X6034230Y-7288617D01*
X6034230Y-7288617D02*
X6015182Y-7279093D01*
X6015182Y-7279093D02*
X6005658Y-7260046D01*
X6005658Y-7260046D02*
X6005658Y-7250522D01*
X6005658Y-7250522D02*
X6015182Y-7231474D01*
X6015182Y-7231474D02*
X6034230Y-7221950D01*
X6034230Y-7221950D02*
X6062801Y-7221950D01*
X6062801Y-7221950D02*
X6081849Y-7231474D01*
X6158039Y-7431474D02*
X6167563Y-7421950D01*
X6167563Y-7421950D02*
X6186611Y-7393379D01*
X6186611Y-7393379D02*
X6196134Y-7374331D01*
X6196134Y-7374331D02*
X6205658Y-7345760D01*
X6205658Y-7345760D02*
X6215182Y-7298141D01*
X6215182Y-7298141D02*
X6215182Y-7260046D01*
X6215182Y-7260046D02*
X6205658Y-7212427D01*
X6205658Y-7212427D02*
X6196134Y-7183855D01*
X6196134Y-7183855D02*
X6186611Y-7164808D01*
X6186611Y-7164808D02*
X6167563Y-7136236D01*
X6167563Y-7136236D02*
X6158039Y-7126712D01*
D11*
X1142500Y-7477800D02*
X1142500Y-7577800D01*
X1092500Y-7527800D02*
X1192500Y-7527800D01*
D12*
X1558039Y-7619284D02*
X1443753Y-7619284D01*
X1500896Y-7619284D02*
X1500896Y-7419284D01*
X1500896Y-7419284D02*
X1481848Y-7447855D01*
X1481848Y-7447855D02*
X1462801Y-7466903D01*
X1462801Y-7466903D02*
X1443753Y-7476427D01*
X1643753Y-7600236D02*
X1653277Y-7609760D01*
X1653277Y-7609760D02*
X1643753Y-7619284D01*
X1643753Y-7619284D02*
X1634229Y-7609760D01*
X1634229Y-7609760D02*
X1643753Y-7600236D01*
X1643753Y-7600236D02*
X1643753Y-7619284D01*
X1777086Y-7419284D02*
X1796134Y-7419284D01*
X1796134Y-7419284D02*
X1815182Y-7428808D01*
X1815182Y-7428808D02*
X1824705Y-7438331D01*
X1824705Y-7438331D02*
X1834229Y-7457379D01*
X1834229Y-7457379D02*
X1843753Y-7495474D01*
X1843753Y-7495474D02*
X1843753Y-7543093D01*
X1843753Y-7543093D02*
X1834229Y-7581188D01*
X1834229Y-7581188D02*
X1824705Y-7600236D01*
X1824705Y-7600236D02*
X1815182Y-7609760D01*
X1815182Y-7609760D02*
X1796134Y-7619284D01*
X1796134Y-7619284D02*
X1777086Y-7619284D01*
X1777086Y-7619284D02*
X1758039Y-7609760D01*
X1758039Y-7609760D02*
X1748515Y-7600236D01*
X1748515Y-7600236D02*
X1738991Y-7581188D01*
X1738991Y-7581188D02*
X1729467Y-7543093D01*
X1729467Y-7543093D02*
X1729467Y-7495474D01*
X1729467Y-7495474D02*
X1738991Y-7457379D01*
X1738991Y-7457379D02*
X1748515Y-7438331D01*
X1748515Y-7438331D02*
X1758039Y-7428808D01*
X1758039Y-7428808D02*
X1777086Y-7419284D01*
X1967562Y-7419284D02*
X1986610Y-7419284D01*
X1986610Y-7419284D02*
X2005658Y-7428808D01*
X2005658Y-7428808D02*
X2015182Y-7438331D01*
X2015182Y-7438331D02*
X2024705Y-7457379D01*
X2024705Y-7457379D02*
X2034229Y-7495474D01*
X2034229Y-7495474D02*
X2034229Y-7543093D01*
X2034229Y-7543093D02*
X2024705Y-7581188D01*
X2024705Y-7581188D02*
X2015182Y-7600236D01*
X2015182Y-7600236D02*
X2005658Y-7609760D01*
X2005658Y-7609760D02*
X1986610Y-7619284D01*
X1986610Y-7619284D02*
X1967562Y-7619284D01*
X1967562Y-7619284D02*
X1948515Y-7609760D01*
X1948515Y-7609760D02*
X1938991Y-7600236D01*
X1938991Y-7600236D02*
X1929467Y-7581188D01*
X1929467Y-7581188D02*
X1919943Y-7543093D01*
X1919943Y-7543093D02*
X1919943Y-7495474D01*
X1919943Y-7495474D02*
X1929467Y-7457379D01*
X1929467Y-7457379D02*
X1938991Y-7438331D01*
X1938991Y-7438331D02*
X1948515Y-7428808D01*
X1948515Y-7428808D02*
X1967562Y-7419284D01*
X2158039Y-7419284D02*
X2177086Y-7419284D01*
X2177086Y-7419284D02*
X2196134Y-7428808D01*
X2196134Y-7428808D02*
X2205658Y-7438331D01*
X2205658Y-7438331D02*
X2215182Y-7457379D01*
X2215182Y-7457379D02*
X2224705Y-7495474D01*
X2224705Y-7495474D02*
X2224705Y-7543093D01*
X2224705Y-7543093D02*
X2215182Y-7581188D01*
X2215182Y-7581188D02*
X2205658Y-7600236D01*
X2205658Y-7600236D02*
X2196134Y-7609760D01*
X2196134Y-7609760D02*
X2177086Y-7619284D01*
X2177086Y-7619284D02*
X2158039Y-7619284D01*
X2158039Y-7619284D02*
X2138991Y-7609760D01*
X2138991Y-7609760D02*
X2129467Y-7600236D01*
X2129467Y-7600236D02*
X2119944Y-7581188D01*
X2119944Y-7581188D02*
X2110420Y-7543093D01*
X2110420Y-7543093D02*
X2110420Y-7495474D01*
X2110420Y-7495474D02*
X2119944Y-7457379D01*
X2119944Y-7457379D02*
X2129467Y-7438331D01*
X2129467Y-7438331D02*
X2138991Y-7428808D01*
X2138991Y-7428808D02*
X2158039Y-7419284D01*
X2310420Y-7619284D02*
X2310420Y-7485950D01*
X2310420Y-7504998D02*
X2319944Y-7495474D01*
X2319944Y-7495474D02*
X2338991Y-7485950D01*
X2338991Y-7485950D02*
X2367563Y-7485950D01*
X2367563Y-7485950D02*
X2386610Y-7495474D01*
X2386610Y-7495474D02*
X2396134Y-7514522D01*
X2396134Y-7514522D02*
X2396134Y-7619284D01*
X2396134Y-7514522D02*
X2405658Y-7495474D01*
X2405658Y-7495474D02*
X2424705Y-7485950D01*
X2424705Y-7485950D02*
X2453277Y-7485950D01*
X2453277Y-7485950D02*
X2472325Y-7495474D01*
X2472325Y-7495474D02*
X2481848Y-7514522D01*
X2481848Y-7514522D02*
X2481848Y-7619284D01*
X2577086Y-7619284D02*
X2577086Y-7485950D01*
X2577086Y-7504998D02*
X2586610Y-7495474D01*
X2586610Y-7495474D02*
X2605658Y-7485950D01*
X2605658Y-7485950D02*
X2634229Y-7485950D01*
X2634229Y-7485950D02*
X2653277Y-7495474D01*
X2653277Y-7495474D02*
X2662801Y-7514522D01*
X2662801Y-7514522D02*
X2662801Y-7619284D01*
X2662801Y-7514522D02*
X2672325Y-7495474D01*
X2672325Y-7495474D02*
X2691372Y-7485950D01*
X2691372Y-7485950D02*
X2719944Y-7485950D01*
X2719944Y-7485950D02*
X2738991Y-7495474D01*
X2738991Y-7495474D02*
X2748515Y-7514522D01*
X2748515Y-7514522D02*
X2748515Y-7619284D01*
X3138991Y-7409760D02*
X2967563Y-7666903D01*
X3396134Y-7419284D02*
X3415182Y-7419284D01*
X3415182Y-7419284D02*
X3434229Y-7428808D01*
X3434229Y-7428808D02*
X3443753Y-7438331D01*
X3443753Y-7438331D02*
X3453277Y-7457379D01*
X3453277Y-7457379D02*
X3462801Y-7495474D01*
X3462801Y-7495474D02*
X3462801Y-7543093D01*
X3462801Y-7543093D02*
X3453277Y-7581188D01*
X3453277Y-7581188D02*
X3443753Y-7600236D01*
X3443753Y-7600236D02*
X3434229Y-7609760D01*
X3434229Y-7609760D02*
X3415182Y-7619284D01*
X3415182Y-7619284D02*
X3396134Y-7619284D01*
X3396134Y-7619284D02*
X3377086Y-7609760D01*
X3377086Y-7609760D02*
X3367563Y-7600236D01*
X3367563Y-7600236D02*
X3358039Y-7581188D01*
X3358039Y-7581188D02*
X3348515Y-7543093D01*
X3348515Y-7543093D02*
X3348515Y-7495474D01*
X3348515Y-7495474D02*
X3358039Y-7457379D01*
X3358039Y-7457379D02*
X3367563Y-7438331D01*
X3367563Y-7438331D02*
X3377086Y-7428808D01*
X3377086Y-7428808D02*
X3396134Y-7419284D01*
X3548515Y-7600236D02*
X3558039Y-7609760D01*
X3558039Y-7609760D02*
X3548515Y-7619284D01*
X3548515Y-7619284D02*
X3538991Y-7609760D01*
X3538991Y-7609760D02*
X3548515Y-7600236D01*
X3548515Y-7600236D02*
X3548515Y-7619284D01*
X3681848Y-7419284D02*
X3700896Y-7419284D01*
X3700896Y-7419284D02*
X3719944Y-7428808D01*
X3719944Y-7428808D02*
X3729467Y-7438331D01*
X3729467Y-7438331D02*
X3738991Y-7457379D01*
X3738991Y-7457379D02*
X3748515Y-7495474D01*
X3748515Y-7495474D02*
X3748515Y-7543093D01*
X3748515Y-7543093D02*
X3738991Y-7581188D01*
X3738991Y-7581188D02*
X3729467Y-7600236D01*
X3729467Y-7600236D02*
X3719944Y-7609760D01*
X3719944Y-7609760D02*
X3700896Y-7619284D01*
X3700896Y-7619284D02*
X3681848Y-7619284D01*
X3681848Y-7619284D02*
X3662801Y-7609760D01*
X3662801Y-7609760D02*
X3653277Y-7600236D01*
X3653277Y-7600236D02*
X3643753Y-7581188D01*
X3643753Y-7581188D02*
X3634229Y-7543093D01*
X3634229Y-7543093D02*
X3634229Y-7495474D01*
X3634229Y-7495474D02*
X3643753Y-7457379D01*
X3643753Y-7457379D02*
X3653277Y-7438331D01*
X3653277Y-7438331D02*
X3662801Y-7428808D01*
X3662801Y-7428808D02*
X3681848Y-7419284D01*
X3815182Y-7419284D02*
X3938991Y-7419284D01*
X3938991Y-7419284D02*
X3872325Y-7495474D01*
X3872325Y-7495474D02*
X3900896Y-7495474D01*
X3900896Y-7495474D02*
X3919944Y-7504998D01*
X3919944Y-7504998D02*
X3929467Y-7514522D01*
X3929467Y-7514522D02*
X3938991Y-7533569D01*
X3938991Y-7533569D02*
X3938991Y-7581188D01*
X3938991Y-7581188D02*
X3929467Y-7600236D01*
X3929467Y-7600236D02*
X3919944Y-7609760D01*
X3919944Y-7609760D02*
X3900896Y-7619284D01*
X3900896Y-7619284D02*
X3843753Y-7619284D01*
X3843753Y-7619284D02*
X3824706Y-7609760D01*
X3824706Y-7609760D02*
X3815182Y-7600236D01*
X4034229Y-7619284D02*
X4072325Y-7619284D01*
X4072325Y-7619284D02*
X4091372Y-7609760D01*
X4091372Y-7609760D02*
X4100896Y-7600236D01*
X4100896Y-7600236D02*
X4119944Y-7571665D01*
X4119944Y-7571665D02*
X4129467Y-7533569D01*
X4129467Y-7533569D02*
X4129467Y-7457379D01*
X4129467Y-7457379D02*
X4119944Y-7438331D01*
X4119944Y-7438331D02*
X4110420Y-7428808D01*
X4110420Y-7428808D02*
X4091372Y-7419284D01*
X4091372Y-7419284D02*
X4053277Y-7419284D01*
X4053277Y-7419284D02*
X4034229Y-7428808D01*
X4034229Y-7428808D02*
X4024706Y-7438331D01*
X4024706Y-7438331D02*
X4015182Y-7457379D01*
X4015182Y-7457379D02*
X4015182Y-7504998D01*
X4015182Y-7504998D02*
X4024706Y-7524046D01*
X4024706Y-7524046D02*
X4034229Y-7533569D01*
X4034229Y-7533569D02*
X4053277Y-7543093D01*
X4053277Y-7543093D02*
X4091372Y-7543093D01*
X4091372Y-7543093D02*
X4110420Y-7533569D01*
X4110420Y-7533569D02*
X4119944Y-7524046D01*
X4119944Y-7524046D02*
X4129467Y-7504998D01*
X4300896Y-7485950D02*
X4300896Y-7619284D01*
X4253277Y-7409760D02*
X4205658Y-7552617D01*
X4205658Y-7552617D02*
X4329468Y-7552617D01*
X4396134Y-7419284D02*
X4396134Y-7457379D01*
X4472325Y-7419284D02*
X4472325Y-7457379D01*
X4767563Y-7695474D02*
X4758039Y-7685950D01*
X4758039Y-7685950D02*
X4738991Y-7657379D01*
X4738991Y-7657379D02*
X4729468Y-7638331D01*
X4729468Y-7638331D02*
X4719944Y-7609760D01*
X4719944Y-7609760D02*
X4710420Y-7562141D01*
X4710420Y-7562141D02*
X4710420Y-7524046D01*
X4710420Y-7524046D02*
X4719944Y-7476427D01*
X4719944Y-7476427D02*
X4729468Y-7447855D01*
X4729468Y-7447855D02*
X4738991Y-7428808D01*
X4738991Y-7428808D02*
X4758039Y-7400236D01*
X4758039Y-7400236D02*
X4767563Y-7390712D01*
X4834230Y-7438331D02*
X4843753Y-7428808D01*
X4843753Y-7428808D02*
X4862801Y-7419284D01*
X4862801Y-7419284D02*
X4910420Y-7419284D01*
X4910420Y-7419284D02*
X4929468Y-7428808D01*
X4929468Y-7428808D02*
X4938991Y-7438331D01*
X4938991Y-7438331D02*
X4948515Y-7457379D01*
X4948515Y-7457379D02*
X4948515Y-7476427D01*
X4948515Y-7476427D02*
X4938991Y-7504998D01*
X4938991Y-7504998D02*
X4824706Y-7619284D01*
X4824706Y-7619284D02*
X4948515Y-7619284D01*
X5015182Y-7419284D02*
X5138991Y-7419284D01*
X5138991Y-7419284D02*
X5072325Y-7495474D01*
X5072325Y-7495474D02*
X5100896Y-7495474D01*
X5100896Y-7495474D02*
X5119944Y-7504998D01*
X5119944Y-7504998D02*
X5129468Y-7514522D01*
X5129468Y-7514522D02*
X5138991Y-7533569D01*
X5138991Y-7533569D02*
X5138991Y-7581188D01*
X5138991Y-7581188D02*
X5129468Y-7600236D01*
X5129468Y-7600236D02*
X5119944Y-7609760D01*
X5119944Y-7609760D02*
X5100896Y-7619284D01*
X5100896Y-7619284D02*
X5043753Y-7619284D01*
X5043753Y-7619284D02*
X5024706Y-7609760D01*
X5024706Y-7609760D02*
X5015182Y-7600236D01*
X5377087Y-7619284D02*
X5377087Y-7419284D01*
X5462801Y-7619284D02*
X5462801Y-7514522D01*
X5462801Y-7514522D02*
X5453277Y-7495474D01*
X5453277Y-7495474D02*
X5434230Y-7485950D01*
X5434230Y-7485950D02*
X5405658Y-7485950D01*
X5405658Y-7485950D02*
X5386611Y-7495474D01*
X5386611Y-7495474D02*
X5377087Y-7504998D01*
X5586611Y-7619284D02*
X5567563Y-7609760D01*
X5567563Y-7609760D02*
X5558039Y-7600236D01*
X5558039Y-7600236D02*
X5548515Y-7581188D01*
X5548515Y-7581188D02*
X5548515Y-7524046D01*
X5548515Y-7524046D02*
X5558039Y-7504998D01*
X5558039Y-7504998D02*
X5567563Y-7495474D01*
X5567563Y-7495474D02*
X5586611Y-7485950D01*
X5586611Y-7485950D02*
X5615182Y-7485950D01*
X5615182Y-7485950D02*
X5634230Y-7495474D01*
X5634230Y-7495474D02*
X5643753Y-7504998D01*
X5643753Y-7504998D02*
X5653277Y-7524046D01*
X5653277Y-7524046D02*
X5653277Y-7581188D01*
X5653277Y-7581188D02*
X5643753Y-7600236D01*
X5643753Y-7600236D02*
X5634230Y-7609760D01*
X5634230Y-7609760D02*
X5615182Y-7619284D01*
X5615182Y-7619284D02*
X5586611Y-7619284D01*
X5767563Y-7619284D02*
X5748515Y-7609760D01*
X5748515Y-7609760D02*
X5738991Y-7590712D01*
X5738991Y-7590712D02*
X5738991Y-7419284D01*
X5919944Y-7609760D02*
X5900896Y-7619284D01*
X5900896Y-7619284D02*
X5862801Y-7619284D01*
X5862801Y-7619284D02*
X5843753Y-7609760D01*
X5843753Y-7609760D02*
X5834230Y-7590712D01*
X5834230Y-7590712D02*
X5834230Y-7514522D01*
X5834230Y-7514522D02*
X5843753Y-7495474D01*
X5843753Y-7495474D02*
X5862801Y-7485950D01*
X5862801Y-7485950D02*
X5900896Y-7485950D01*
X5900896Y-7485950D02*
X5919944Y-7495474D01*
X5919944Y-7495474D02*
X5929468Y-7514522D01*
X5929468Y-7514522D02*
X5929468Y-7533569D01*
X5929468Y-7533569D02*
X5834230Y-7552617D01*
X6005658Y-7609760D02*
X6024706Y-7619284D01*
X6024706Y-7619284D02*
X6062801Y-7619284D01*
X6062801Y-7619284D02*
X6081849Y-7609760D01*
X6081849Y-7609760D02*
X6091372Y-7590712D01*
X6091372Y-7590712D02*
X6091372Y-7581188D01*
X6091372Y-7581188D02*
X6081849Y-7562141D01*
X6081849Y-7562141D02*
X6062801Y-7552617D01*
X6062801Y-7552617D02*
X6034230Y-7552617D01*
X6034230Y-7552617D02*
X6015182Y-7543093D01*
X6015182Y-7543093D02*
X6005658Y-7524046D01*
X6005658Y-7524046D02*
X6005658Y-7514522D01*
X6005658Y-7514522D02*
X6015182Y-7495474D01*
X6015182Y-7495474D02*
X6034230Y-7485950D01*
X6034230Y-7485950D02*
X6062801Y-7485950D01*
X6062801Y-7485950D02*
X6081849Y-7495474D01*
X6158039Y-7695474D02*
X6167563Y-7685950D01*
X6167563Y-7685950D02*
X6186611Y-7657379D01*
X6186611Y-7657379D02*
X6196134Y-7638331D01*
X6196134Y-7638331D02*
X6205658Y-7609760D01*
X6205658Y-7609760D02*
X6215182Y-7562141D01*
X6215182Y-7562141D02*
X6215182Y-7524046D01*
X6215182Y-7524046D02*
X6205658Y-7476427D01*
X6205658Y-7476427D02*
X6196134Y-7447855D01*
X6196134Y-7447855D02*
X6186611Y-7428808D01*
X6186611Y-7428808D02*
X6167563Y-7400236D01*
X6167563Y-7400236D02*
X6158039Y-7390712D01*
M02*
