G04 #@! TF.GenerationSoftware,KiCad,Pcbnew,7.0.10*
G04 #@! TF.CreationDate,2024-08-15T01:47:54-04:00*
G04 #@! TF.ProjectId,Mainboard PCB,4d61696e-626f-4617-9264-205043422e6b,rev?*
G04 #@! TF.SameCoordinates,Original*
G04 #@! TF.FileFunction,Copper,L2,Bot*
G04 #@! TF.FilePolarity,Positive*
%FSLAX46Y46*%
G04 Gerber Fmt 4.6, Leading zero omitted, Abs format (unit mm)*
G04 Created by KiCad (PCBNEW 7.0.10) date 2024-08-15 01:47:54*
%MOMM*%
%LPD*%
G01*
G04 APERTURE LIST*
G04 #@! TA.AperFunction,ComponentPad*
%ADD10R,1.700000X1.700000*%
G04 #@! TD*
G04 #@! TA.AperFunction,ComponentPad*
%ADD11O,1.700000X1.700000*%
G04 #@! TD*
G04 #@! TA.AperFunction,ComponentPad*
%ADD12C,1.524000*%
G04 #@! TD*
G04 #@! TA.AperFunction,ViaPad*
%ADD13C,0.800000*%
G04 #@! TD*
G04 #@! TA.AperFunction,Conductor*
%ADD14C,1.000000*%
G04 #@! TD*
G04 #@! TA.AperFunction,Conductor*
%ADD15C,0.600000*%
G04 #@! TD*
G04 #@! TA.AperFunction,Conductor*
%ADD16C,0.250000*%
G04 #@! TD*
G04 APERTURE END LIST*
D10*
X65786000Y-15494000D03*
D11*
X65786000Y-18034000D03*
X65786000Y-20574000D03*
X65786000Y-23114000D03*
D10*
X58928000Y-15494000D03*
D11*
X58928000Y-18034000D03*
X58928000Y-20574000D03*
X58928000Y-23114000D03*
D10*
X58826000Y-29357000D03*
D11*
X58826000Y-31897000D03*
D10*
X37465000Y-16129000D03*
D11*
X37465000Y-18669000D03*
X37465000Y-21209000D03*
D12*
X73025000Y-60706000D03*
X73025000Y-58166000D03*
X73025000Y-55626000D03*
X73025000Y-53086000D03*
X73025000Y-50546000D03*
X73025000Y-48006000D03*
X73025000Y-45466000D03*
X73025000Y-42926000D03*
X73025000Y-40386000D03*
X73025000Y-37846000D03*
X14351000Y-20447000D03*
X30951000Y-20447000D03*
X14351000Y-60147000D03*
X30951000Y-60147000D03*
D10*
X72390000Y-15367000D03*
D11*
X72390000Y-17907000D03*
X72390000Y-20447000D03*
D12*
X26348000Y-15489000D03*
X28888000Y-15489000D03*
X31428000Y-15489000D03*
D10*
X21883000Y-15641000D03*
D11*
X19343000Y-15641000D03*
D10*
X52451000Y-15494000D03*
D11*
X52451000Y-18034000D03*
X52451000Y-20574000D03*
X52451000Y-23114000D03*
X52451000Y-25654000D03*
D12*
X36323000Y-40034000D03*
X36323000Y-42574000D03*
X36323000Y-45114000D03*
X36323000Y-47654000D03*
X36323000Y-50194000D03*
X36323000Y-52734000D03*
X36323000Y-55274000D03*
X36323000Y-57814000D03*
X36323000Y-60354000D03*
X52323000Y-60354000D03*
X52323000Y-57814000D03*
X52323000Y-55274000D03*
X52323000Y-52734000D03*
X52323000Y-50194000D03*
X52323000Y-47654000D03*
X52323000Y-45114000D03*
X52323000Y-42574000D03*
X52323000Y-40034000D03*
D13*
X28448000Y-33909000D03*
X70485000Y-50489000D03*
X73152000Y-26543000D03*
X71882000Y-30988000D03*
X58674000Y-52705000D03*
X68707000Y-33020000D03*
X58039000Y-50165000D03*
X68707000Y-30861000D03*
X68453000Y-28829000D03*
X56866459Y-47781541D03*
X65405000Y-52959000D03*
X63246000Y-55118000D03*
X68199000Y-55626000D03*
X66040000Y-57785000D03*
D14*
X37465000Y-16129000D02*
X38100000Y-15494000D01*
D15*
X70739000Y-58166000D02*
X73025000Y-58166000D01*
D14*
X21888000Y-15646000D02*
X21888000Y-18840000D01*
D15*
X70288000Y-50489000D02*
X69596000Y-51181000D01*
D14*
X38100000Y-15494000D02*
X52451000Y-15494000D01*
X30951000Y-20447000D02*
X28448000Y-22950000D01*
D15*
X69596000Y-51181000D02*
X69596000Y-57023000D01*
D14*
X35269000Y-16129000D02*
X37465000Y-16129000D01*
X30951000Y-20447000D02*
X35269000Y-16129000D01*
X58928000Y-15494000D02*
X65786000Y-15494000D01*
D15*
X69596000Y-57023000D02*
X70739000Y-58166000D01*
D14*
X23495000Y-20447000D02*
X30951000Y-20447000D01*
X21888000Y-18840000D02*
X23495000Y-20447000D01*
X28448000Y-22950000D02*
X28448000Y-57644000D01*
X28448000Y-57644000D02*
X30951000Y-60147000D01*
X52451000Y-15494000D02*
X58928000Y-15494000D01*
D16*
X69596000Y-22987000D02*
X73152000Y-26543000D01*
X69596000Y-16383000D02*
X69596000Y-22987000D01*
X70612000Y-15367000D02*
X69596000Y-16383000D01*
X72390000Y-15367000D02*
X70612000Y-15367000D01*
X74041000Y-28829000D02*
X71882000Y-30988000D01*
X72390000Y-17907000D02*
X74041000Y-19558000D01*
X74041000Y-19558000D02*
X74041000Y-28829000D01*
X68707000Y-33020000D02*
X68707000Y-42672000D01*
X68707000Y-42672000D02*
X58674000Y-52705000D01*
X67183000Y-41021000D02*
X58039000Y-50165000D01*
X67183000Y-32385000D02*
X67183000Y-41021000D01*
X68707000Y-30861000D02*
X67183000Y-32385000D01*
X68453000Y-28829000D02*
X65544000Y-31738000D01*
X65544000Y-31738000D02*
X65544000Y-39104000D01*
X65544000Y-39104000D02*
X56866459Y-47781541D01*
X65405000Y-52959000D02*
X63246000Y-55118000D01*
X68199000Y-55626000D02*
X66040000Y-57785000D01*
X47498000Y-34290000D02*
X47498000Y-43307000D01*
X58928000Y-18034000D02*
X58801000Y-18034000D01*
X47498000Y-43307000D02*
X36323000Y-54482000D01*
X54737000Y-22098000D02*
X54737000Y-27051000D01*
X58801000Y-18034000D02*
X54737000Y-22098000D01*
X36323000Y-54482000D02*
X36323000Y-55274000D01*
X58928000Y-18034000D02*
X65786000Y-18034000D01*
X54737000Y-27051000D02*
X47498000Y-34290000D01*
X58928000Y-20574000D02*
X65786000Y-20574000D01*
X48895000Y-34544000D02*
X48895000Y-45242000D01*
X56007000Y-27432000D02*
X48895000Y-34544000D01*
X56007000Y-23495000D02*
X56007000Y-27432000D01*
X58928000Y-20574000D02*
X56007000Y-23495000D01*
X48895000Y-45242000D02*
X36323000Y-57814000D01*
X41910000Y-28575000D02*
X41910000Y-42067000D01*
X41910000Y-42067000D02*
X36323000Y-47654000D01*
X52451000Y-18034000D02*
X41910000Y-28575000D01*
X43942000Y-42575000D02*
X36323000Y-50194000D01*
X43942000Y-29083000D02*
X43942000Y-42575000D01*
X52451000Y-20574000D02*
X43942000Y-29083000D01*
X37465000Y-21209000D02*
X31369000Y-27305000D01*
X31369000Y-27305000D02*
X31369000Y-44450000D01*
X32033000Y-45114000D02*
X36323000Y-45114000D01*
X31369000Y-44450000D02*
X32033000Y-45114000D01*
X58826000Y-29357000D02*
X58826000Y-30099000D01*
X36323000Y-60354000D02*
X50165000Y-46512000D01*
X50165000Y-35179000D02*
X56134000Y-29210000D01*
X58679000Y-29210000D02*
X58826000Y-29357000D01*
X56134000Y-29210000D02*
X58679000Y-29210000D01*
X50165000Y-46512000D02*
X50165000Y-35179000D01*
X56032000Y-40488000D02*
X59182000Y-37338000D01*
X52323000Y-60354000D02*
X53184000Y-60354000D01*
X59182000Y-32253000D02*
X58826000Y-31897000D01*
X59182000Y-37338000D02*
X59182000Y-32253000D01*
X53184000Y-60354000D02*
X56032000Y-57506000D01*
X56032000Y-57506000D02*
X56032000Y-40488000D01*
X46101000Y-32004000D02*
X46101000Y-42956000D01*
X46101000Y-42956000D02*
X36323000Y-52734000D01*
X52451000Y-25654000D02*
X46101000Y-32004000D01*
M02*
