G04 #@! TF.GenerationSoftware,KiCad,Pcbnew,7.0.10*
G04 #@! TF.CreationDate,2024-08-15T01:47:54-04:00*
G04 #@! TF.ProjectId,Mainboard PCB,4d61696e-626f-4617-9264-205043422e6b,rev?*
G04 #@! TF.SameCoordinates,Original*
G04 #@! TF.FileFunction,Copper,L1,Top*
G04 #@! TF.FilePolarity,Positive*
%FSLAX46Y46*%
G04 Gerber Fmt 4.6, Leading zero omitted, Abs format (unit mm)*
G04 Created by KiCad (PCBNEW 7.0.10) date 2024-08-15 01:47:54*
%MOMM*%
%LPD*%
G01*
G04 APERTURE LIST*
G04 Aperture macros list*
%AMRoundRect*
0 Rectangle with rounded corners*
0 $1 Rounding radius*
0 $2 $3 $4 $5 $6 $7 $8 $9 X,Y pos of 4 corners*
0 Add a 4 corners polygon primitive as box body*
4,1,4,$2,$3,$4,$5,$6,$7,$8,$9,$2,$3,0*
0 Add four circle primitives for the rounded corners*
1,1,$1+$1,$2,$3*
1,1,$1+$1,$4,$5*
1,1,$1+$1,$6,$7*
1,1,$1+$1,$8,$9*
0 Add four rect primitives between the rounded corners*
20,1,$1+$1,$2,$3,$4,$5,0*
20,1,$1+$1,$4,$5,$6,$7,0*
20,1,$1+$1,$6,$7,$8,$9,0*
20,1,$1+$1,$8,$9,$2,$3,0*%
G04 Aperture macros list end*
G04 #@! TA.AperFunction,SMDPad,CuDef*
%ADD10RoundRect,0.237500X0.250000X0.237500X-0.250000X0.237500X-0.250000X-0.237500X0.250000X-0.237500X0*%
G04 #@! TD*
G04 #@! TA.AperFunction,SMDPad,CuDef*
%ADD11RoundRect,0.237500X-0.250000X-0.237500X0.250000X-0.237500X0.250000X0.237500X-0.250000X0.237500X0*%
G04 #@! TD*
G04 #@! TA.AperFunction,ComponentPad*
%ADD12R,1.700000X1.700000*%
G04 #@! TD*
G04 #@! TA.AperFunction,ComponentPad*
%ADD13O,1.700000X1.700000*%
G04 #@! TD*
G04 #@! TA.AperFunction,ComponentPad*
%ADD14C,1.524000*%
G04 #@! TD*
G04 #@! TA.AperFunction,SMDPad,CuDef*
%ADD15RoundRect,0.500000X-1.000000X-0.500000X1.000000X-0.500000X1.000000X0.500000X-1.000000X0.500000X0*%
G04 #@! TD*
G04 #@! TA.AperFunction,ViaPad*
%ADD16C,0.800000*%
G04 #@! TD*
G04 #@! TA.AperFunction,Conductor*
%ADD17C,1.000000*%
G04 #@! TD*
G04 #@! TA.AperFunction,Conductor*
%ADD18C,0.250000*%
G04 #@! TD*
G04 #@! TA.AperFunction,Conductor*
%ADD19C,0.500000*%
G04 #@! TD*
G04 APERTURE END LIST*
D10*
X71905500Y-33020000D03*
X70080500Y-33020000D03*
D11*
X65381500Y-30861000D03*
X67206500Y-30861000D03*
D12*
X65786000Y-15494000D03*
D13*
X65786000Y-18034000D03*
X65786000Y-20574000D03*
X65786000Y-23114000D03*
D12*
X58928000Y-15494000D03*
D13*
X58928000Y-18034000D03*
X58928000Y-20574000D03*
X58928000Y-23114000D03*
D12*
X58826000Y-29357000D03*
D13*
X58826000Y-31897000D03*
D12*
X37465000Y-16129000D03*
D13*
X37465000Y-18669000D03*
X37465000Y-21209000D03*
D14*
X73025000Y-60706000D03*
X73025000Y-58166000D03*
X73025000Y-55626000D03*
X73025000Y-53086000D03*
X73025000Y-50546000D03*
X73025000Y-48006000D03*
X73025000Y-45466000D03*
X73025000Y-42926000D03*
X73025000Y-40386000D03*
X73025000Y-37846000D03*
X14351000Y-20447000D03*
X30951000Y-20447000D03*
X14351000Y-60147000D03*
X30951000Y-60147000D03*
D12*
X72390000Y-15367000D03*
D13*
X72390000Y-17907000D03*
X72390000Y-20447000D03*
D10*
X71929000Y-28829000D03*
X70104000Y-28829000D03*
D14*
X26348000Y-15489000D03*
X28888000Y-15489000D03*
X31428000Y-15489000D03*
D12*
X21883000Y-15641000D03*
D13*
X19343000Y-15641000D03*
D10*
X67206500Y-28829000D03*
X65381500Y-28829000D03*
D12*
X52451000Y-15494000D03*
D13*
X52451000Y-18034000D03*
X52451000Y-20574000D03*
X52451000Y-23114000D03*
X52451000Y-25654000D03*
D10*
X67206500Y-33020000D03*
X65381500Y-33020000D03*
X71905500Y-30861000D03*
X70080500Y-30861000D03*
D15*
X35823000Y-40034000D03*
D14*
X36323000Y-40034000D03*
D15*
X35823000Y-42574000D03*
D14*
X36323000Y-42574000D03*
D15*
X35823000Y-45114000D03*
D14*
X36323000Y-45114000D03*
D15*
X35823000Y-47654000D03*
D14*
X36323000Y-47654000D03*
D15*
X35823000Y-50194000D03*
D14*
X36323000Y-50194000D03*
D15*
X35823000Y-52734000D03*
D14*
X36323000Y-52734000D03*
D15*
X35823000Y-55274000D03*
D14*
X36323000Y-55274000D03*
D15*
X35823000Y-57814000D03*
D14*
X36323000Y-57814000D03*
D15*
X35823000Y-60354000D03*
D14*
X36323000Y-60354000D03*
X52323000Y-60354000D03*
D15*
X52823000Y-60354000D03*
D14*
X52323000Y-57814000D03*
D15*
X52823000Y-57814000D03*
D14*
X52323000Y-55274000D03*
D15*
X52823000Y-55274000D03*
D14*
X52323000Y-52734000D03*
D15*
X52823000Y-52734000D03*
D14*
X52323000Y-50194000D03*
D15*
X52823000Y-50194000D03*
D14*
X52323000Y-47654000D03*
D15*
X52823000Y-47654000D03*
D14*
X52323000Y-45114000D03*
D15*
X52823000Y-45114000D03*
D14*
X52323000Y-42574000D03*
D15*
X52823000Y-42574000D03*
D14*
X52323000Y-40034000D03*
D15*
X52823000Y-40034000D03*
D16*
X28448000Y-33909000D03*
X70485000Y-50489000D03*
X73152000Y-26543000D03*
X71882000Y-30988000D03*
X58674000Y-52705000D03*
X68707000Y-33020000D03*
X58039000Y-50165000D03*
X68707000Y-30861000D03*
X68453000Y-28829000D03*
X56866459Y-47781541D03*
X65405000Y-52959000D03*
X63246000Y-55118000D03*
X68199000Y-55626000D03*
X66040000Y-57785000D03*
D17*
X40767000Y-33909000D02*
X49432000Y-42574000D01*
X55827500Y-42574000D02*
X58535250Y-39866250D01*
X52823000Y-42574000D02*
X55827500Y-42574000D01*
X28448000Y-33909000D02*
X40767000Y-33909000D01*
X58535250Y-39866250D02*
X65381500Y-33020000D01*
X65381500Y-28829000D02*
X65381500Y-33020000D01*
X58535250Y-39866250D02*
X69215000Y-50546000D01*
X49432000Y-42574000D02*
X52323000Y-42574000D01*
X69215000Y-50546000D02*
X73025000Y-50546000D01*
D18*
X73152000Y-26543000D02*
X73152000Y-31773500D01*
X73152000Y-31773500D02*
X71905500Y-33020000D01*
X71929000Y-28448000D02*
X71929000Y-20908000D01*
X71929000Y-20908000D02*
X72390000Y-20447000D01*
X58645000Y-52734000D02*
X52323000Y-52734000D01*
X67206500Y-33020000D02*
X70080500Y-33020000D01*
X58674000Y-52705000D02*
X58645000Y-52734000D01*
X58039000Y-50165000D02*
X58010000Y-50194000D01*
X58010000Y-50194000D02*
X52823000Y-50194000D01*
X67206500Y-30861000D02*
X70080500Y-30861000D01*
X56738918Y-47654000D02*
X56866459Y-47781541D01*
X67206500Y-28829000D02*
X70104000Y-28829000D01*
X52823000Y-47654000D02*
X56738918Y-47654000D01*
D17*
X25400000Y-16437000D02*
X25400000Y-49098000D01*
X25400000Y-49098000D02*
X14351000Y-60147000D01*
X26348000Y-15489000D02*
X25400000Y-16437000D01*
D19*
X51435000Y-39146000D02*
X52323000Y-40034000D01*
X28893000Y-15494000D02*
X32068000Y-18669000D01*
X51562000Y-23114000D02*
X58928000Y-23114000D01*
X48006000Y-23114000D02*
X51562000Y-23114000D01*
X51562000Y-23114000D02*
X52451000Y-23114000D01*
X58928000Y-23114000D02*
X65786000Y-23114000D01*
X51435000Y-31750000D02*
X51435000Y-39146000D01*
X43561000Y-18669000D02*
X48006000Y-23114000D01*
X48006000Y-23114000D02*
X48006000Y-28321000D01*
X48006000Y-28321000D02*
X51435000Y-31750000D01*
X32068000Y-18669000D02*
X37465000Y-18669000D01*
X37465000Y-18669000D02*
X43561000Y-18669000D01*
D18*
X63090000Y-55274000D02*
X52823000Y-55274000D01*
X63246000Y-55118000D02*
X63090000Y-55274000D01*
X73025000Y-53086000D02*
X72968000Y-53029000D01*
X72968000Y-53029000D02*
X65475000Y-53029000D01*
X65475000Y-53029000D02*
X65405000Y-52959000D01*
X68199000Y-55626000D02*
X68072000Y-55753000D01*
X68256000Y-55569000D02*
X68199000Y-55626000D01*
X73025000Y-55626000D02*
X72968000Y-55569000D01*
X72968000Y-55569000D02*
X68256000Y-55569000D01*
X66040000Y-57785000D02*
X66011000Y-57814000D01*
X66011000Y-57814000D02*
X52823000Y-57814000D01*
D19*
X63373000Y-53086000D02*
X70993000Y-60706000D01*
X57687000Y-45114000D02*
X63373000Y-50800000D01*
X70993000Y-60706000D02*
X73025000Y-60706000D01*
X63373000Y-50800000D02*
X63373000Y-53086000D01*
X52823000Y-45114000D02*
X57687000Y-45114000D01*
D17*
X16002000Y-20447000D02*
X14351000Y-20447000D01*
X19343000Y-15641000D02*
X19343000Y-17106000D01*
X19343000Y-17106000D02*
X16002000Y-20447000D01*
M02*
