G04 #@! TF.GenerationSoftware,KiCad,Pcbnew,7.0.10*
G04 #@! TF.CreationDate,2024-08-15T01:47:54-04:00*
G04 #@! TF.ProjectId,Mainboard PCB,4d61696e-626f-4617-9264-205043422e6b,rev?*
G04 #@! TF.SameCoordinates,Original*
G04 #@! TF.FileFunction,Soldermask,Bot*
G04 #@! TF.FilePolarity,Negative*
%FSLAX46Y46*%
G04 Gerber Fmt 4.6, Leading zero omitted, Abs format (unit mm)*
G04 Created by KiCad (PCBNEW 7.0.10) date 2024-08-15 01:47:54*
%MOMM*%
%LPD*%
G01*
G04 APERTURE LIST*
%ADD10R,1.700000X1.700000*%
%ADD11O,1.700000X1.700000*%
%ADD12C,1.524000*%
G04 APERTURE END LIST*
D10*
X65786000Y-15494000D03*
D11*
X65786000Y-18034000D03*
X65786000Y-20574000D03*
X65786000Y-23114000D03*
D10*
X58928000Y-15494000D03*
D11*
X58928000Y-18034000D03*
X58928000Y-20574000D03*
X58928000Y-23114000D03*
D10*
X58826000Y-29357000D03*
D11*
X58826000Y-31897000D03*
D10*
X37465000Y-16129000D03*
D11*
X37465000Y-18669000D03*
X37465000Y-21209000D03*
D12*
X73025000Y-60706000D03*
X73025000Y-58166000D03*
X73025000Y-55626000D03*
X73025000Y-53086000D03*
X73025000Y-50546000D03*
X73025000Y-48006000D03*
X73025000Y-45466000D03*
X73025000Y-42926000D03*
X73025000Y-40386000D03*
X73025000Y-37846000D03*
X14351000Y-20447000D03*
X30951000Y-20447000D03*
X14351000Y-60147000D03*
X30951000Y-60147000D03*
D10*
X72390000Y-15367000D03*
D11*
X72390000Y-17907000D03*
X72390000Y-20447000D03*
D12*
X26348000Y-15489000D03*
X28888000Y-15489000D03*
X31428000Y-15489000D03*
D10*
X21883000Y-15641000D03*
D11*
X19343000Y-15641000D03*
D10*
X52451000Y-15494000D03*
D11*
X52451000Y-18034000D03*
X52451000Y-20574000D03*
X52451000Y-23114000D03*
X52451000Y-25654000D03*
D12*
X36323000Y-40034000D03*
X36323000Y-42574000D03*
X36323000Y-45114000D03*
X36323000Y-47654000D03*
X36323000Y-50194000D03*
X36323000Y-52734000D03*
X36323000Y-55274000D03*
X36323000Y-57814000D03*
X36323000Y-60354000D03*
X52323000Y-60354000D03*
X52323000Y-57814000D03*
X52323000Y-55274000D03*
X52323000Y-52734000D03*
X52323000Y-50194000D03*
X52323000Y-47654000D03*
X52323000Y-45114000D03*
X52323000Y-42574000D03*
X52323000Y-40034000D03*
M02*
