%TF.GenerationSoftware,KiCad,Pcbnew,7.0.10*%
%TF.CreationDate,2024-02-28T22:59:02-05:00*%
%TF.ProjectId,DW1000 BU-01,44573130-3030-4204-9255-2d30312e6b69,rev?*%
%TF.SameCoordinates,Original*%
%TF.FileFunction,Copper,L2,Bot*%
%TF.FilePolarity,Positive*%
%FSLAX46Y46*%
G04 Gerber Fmt 4.6, Leading zero omitted, Abs format (unit mm)*
G04 Created by KiCad (PCBNEW 7.0.10) date 2024-02-28 22:59:02*
%MOMM*%
%LPD*%
G01*
G04 APERTURE LIST*
%TA.AperFunction,ComponentPad*%
%ADD10R,1.800000X1.800000*%
%TD*%
%TA.AperFunction,ComponentPad*%
%ADD11C,1.800000*%
%TD*%
%TA.AperFunction,ComponentPad*%
%ADD12R,1.700000X1.700000*%
%TD*%
%TA.AperFunction,ComponentPad*%
%ADD13O,1.700000X1.700000*%
%TD*%
%TA.AperFunction,ComponentPad*%
%ADD14R,1.600000X1.600000*%
%TD*%
%TA.AperFunction,ComponentPad*%
%ADD15C,1.600000*%
%TD*%
%TA.AperFunction,ViaPad*%
%ADD16C,0.800000*%
%TD*%
%TA.AperFunction,Conductor*%
%ADD17C,0.250000*%
%TD*%
G04 APERTURE END LIST*
D10*
%TO.P,D4,1,K*%
%TO.N,GND*%
X16475000Y-3000000D03*
D11*
%TO.P,D4,2,A*%
%TO.N,Net-(D4-A)*%
X19015000Y-3000000D03*
%TD*%
D10*
%TO.P,D3,1,K*%
%TO.N,GND*%
X11475000Y-3000000D03*
D11*
%TO.P,D3,2,A*%
%TO.N,Net-(D3-A)*%
X14015000Y-3000000D03*
%TD*%
D12*
%TO.P,J1,1,Pin_1*%
%TO.N,+3.3V*%
X21500000Y-9210000D03*
D13*
%TO.P,J1,2,Pin_2*%
%TO.N,GND*%
X21500000Y-11750000D03*
%TO.P,J1,3,Pin_3*%
%TO.N,Net-(J1-Pin_3)*%
X21500000Y-14290000D03*
%TO.P,J1,4,Pin_4*%
%TO.N,Net-(J1-Pin_4)*%
X21500000Y-16830000D03*
%TO.P,J1,5,Pin_5*%
%TO.N,Net-(J1-Pin_5)*%
X21500000Y-19370000D03*
%TO.P,J1,6,Pin_6*%
%TO.N,Net-(DWM1-SPICSn)*%
X21500000Y-21910000D03*
%TO.P,J1,7,Pin_7*%
%TO.N,Net-(DWM1-SPIMOSI)*%
X21500000Y-24450000D03*
%TO.P,J1,8,Pin_8*%
%TO.N,Net-(DWM1-SPIMISO)*%
X21500000Y-26990000D03*
%TO.P,J1,9,Pin_9*%
%TO.N,Net-(DWM1-SPICLK)*%
X21500000Y-29530000D03*
%TO.P,J1,10,Pin_10*%
%TO.N,Net-(DWM1-IRQ{slash}GPIO8)*%
X21500000Y-32070000D03*
%TD*%
D10*
%TO.P,D1,1,K*%
%TO.N,GND*%
X1475000Y-3000000D03*
D11*
%TO.P,D1,2,A*%
%TO.N,Net-(D1-A)*%
X4015000Y-3000000D03*
%TD*%
D14*
%TO.P,C3,1*%
%TO.N,+3.3V*%
X16250000Y-31750000D03*
D15*
%TO.P,C3,2*%
%TO.N,GND*%
X16250000Y-29250000D03*
%TD*%
D10*
%TO.P,D2,1,K*%
%TO.N,GND*%
X6475000Y-3000000D03*
D11*
%TO.P,D2,2,A*%
%TO.N,Net-(D2-A)*%
X9015000Y-3000000D03*
%TD*%
D16*
%TO.N,GND*%
X2750000Y-31000000D03*
X16250000Y-23000000D03*
X19500000Y-38500000D03*
X16500000Y-20750000D03*
X13000000Y-38500000D03*
X4750000Y-29500000D03*
X2000000Y-32750000D03*
X11750000Y-9500000D03*
X6750000Y-38500000D03*
X17250000Y-19000000D03*
%TO.N,Net-(DWM1-SPICSn)*%
X11500000Y-13500000D03*
%TO.N,Net-(DWM1-SPIMOSI)*%
X9250000Y-15250000D03*
%TO.N,Net-(DWM1-SPIMISO)*%
X7500000Y-16500000D03*
%TO.N,Net-(DWM1-SPICLK)*%
X6000000Y-18250000D03*
%TO.N,Net-(DWM1-IRQ{slash}GPIO8)*%
X3250000Y-20750000D03*
%TO.N,Net-(J1-Pin_4)*%
X25025000Y-16525000D03*
%TO.N,Net-(J1-Pin_5)*%
X25750000Y-19250000D03*
%TD*%
D17*
%TO.N,Net-(DWM1-SPICSn)*%
X13090000Y-13500000D02*
X21500000Y-21910000D01*
X11500000Y-13500000D02*
X13090000Y-13500000D01*
%TO.N,Net-(DWM1-SPIMOSI)*%
X12300000Y-15250000D02*
X21500000Y-24450000D01*
X9250000Y-15250000D02*
X12300000Y-15250000D01*
%TO.N,Net-(DWM1-SPIMISO)*%
X7500000Y-16500000D02*
X11010000Y-16500000D01*
X11010000Y-16500000D02*
X21500000Y-26990000D01*
%TO.N,Net-(DWM1-SPICLK)*%
X6000000Y-18250000D02*
X10220000Y-18250000D01*
X10220000Y-18250000D02*
X21500000Y-29530000D01*
%TO.N,Net-(DWM1-IRQ{slash}GPIO8)*%
X10180000Y-20750000D02*
X21500000Y-32070000D01*
X3250000Y-20750000D02*
X10180000Y-20750000D01*
%TO.N,Net-(J1-Pin_4)*%
X23115000Y-16830000D02*
X21500000Y-16830000D01*
X23250000Y-16695000D02*
X23115000Y-16830000D01*
X23250000Y-16695000D02*
X24855000Y-16695000D01*
X24855000Y-16695000D02*
X25025000Y-16525000D01*
%TO.N,Net-(J1-Pin_5)*%
X23115000Y-19370000D02*
X21500000Y-19370000D01*
X23250000Y-19235000D02*
X23115000Y-19370000D01*
X25750000Y-19250000D02*
X25735000Y-19235000D01*
X25735000Y-19235000D02*
X23250000Y-19235000D01*
%TD*%
%TA.AperFunction,Conductor*%
%TO.N,GND*%
G36*
X26192539Y-270185D02*
G01*
X26238294Y-322989D01*
X26249500Y-374500D01*
X26249500Y-18295728D01*
X26229815Y-18362767D01*
X26177011Y-18408522D01*
X26107853Y-18418466D01*
X26075064Y-18409007D01*
X26029807Y-18388857D01*
X26029802Y-18388855D01*
X25884001Y-18357865D01*
X25844646Y-18349500D01*
X25655354Y-18349500D01*
X25622897Y-18356398D01*
X25470197Y-18388855D01*
X25470192Y-18388857D01*
X25297270Y-18465848D01*
X25297265Y-18465851D01*
X25144135Y-18577106D01*
X25143536Y-18577647D01*
X25143112Y-18577850D01*
X25138871Y-18580932D01*
X25138307Y-18580156D01*
X25080546Y-18607879D01*
X25060560Y-18609500D01*
X23332743Y-18609500D01*
X23317122Y-18607775D01*
X23317096Y-18608061D01*
X23309334Y-18607327D01*
X23309333Y-18607327D01*
X23247109Y-18609282D01*
X23242127Y-18609439D01*
X23238232Y-18609500D01*
X23210647Y-18609500D01*
X23206661Y-18610003D01*
X23195033Y-18610918D01*
X23151373Y-18612290D01*
X23132129Y-18617881D01*
X23113079Y-18621825D01*
X23093211Y-18624334D01*
X23093210Y-18624334D01*
X23052599Y-18640413D01*
X23041554Y-18644194D01*
X22999614Y-18656379D01*
X22999610Y-18656381D01*
X22982366Y-18666579D01*
X22964905Y-18675133D01*
X22946274Y-18682510D01*
X22946262Y-18682517D01*
X22910933Y-18708185D01*
X22901174Y-18714596D01*
X22879811Y-18727230D01*
X22816688Y-18744500D01*
X22775227Y-18744500D01*
X22708188Y-18724815D01*
X22673652Y-18691623D01*
X22538494Y-18498597D01*
X22371402Y-18331506D01*
X22371396Y-18331501D01*
X22185842Y-18201575D01*
X22142217Y-18146998D01*
X22135023Y-18077500D01*
X22166546Y-18015145D01*
X22185842Y-17998425D01*
X22208026Y-17982891D01*
X22371401Y-17868495D01*
X22538495Y-17701401D01*
X22673652Y-17508377D01*
X22728229Y-17464752D01*
X22775227Y-17455500D01*
X23032257Y-17455500D01*
X23047877Y-17457224D01*
X23047904Y-17456939D01*
X23055660Y-17457671D01*
X23055667Y-17457673D01*
X23122873Y-17455561D01*
X23126768Y-17455500D01*
X23154346Y-17455500D01*
X23154350Y-17455500D01*
X23158324Y-17454997D01*
X23169963Y-17454080D01*
X23213627Y-17452709D01*
X23232869Y-17447117D01*
X23251912Y-17443174D01*
X23271792Y-17440664D01*
X23312401Y-17424585D01*
X23323444Y-17420803D01*
X23365390Y-17408618D01*
X23382629Y-17398422D01*
X23400103Y-17389862D01*
X23418729Y-17382487D01*
X23418728Y-17382487D01*
X23418732Y-17382486D01*
X23454069Y-17356810D01*
X23463830Y-17350400D01*
X23485192Y-17337767D01*
X23548311Y-17320500D01*
X24571403Y-17320500D01*
X24621839Y-17331221D01*
X24745192Y-17386142D01*
X24745197Y-17386144D01*
X24930354Y-17425500D01*
X24930355Y-17425500D01*
X25119644Y-17425500D01*
X25119646Y-17425500D01*
X25304803Y-17386144D01*
X25477730Y-17309151D01*
X25630871Y-17197888D01*
X25757533Y-17057216D01*
X25852179Y-16893284D01*
X25910674Y-16713256D01*
X25930460Y-16525000D01*
X25910674Y-16336744D01*
X25852179Y-16156716D01*
X25757533Y-15992784D01*
X25630871Y-15852112D01*
X25605218Y-15833474D01*
X25477734Y-15740851D01*
X25477729Y-15740848D01*
X25304807Y-15663857D01*
X25304802Y-15663855D01*
X25159001Y-15632865D01*
X25119646Y-15624500D01*
X24930354Y-15624500D01*
X24897897Y-15631398D01*
X24745197Y-15663855D01*
X24745192Y-15663857D01*
X24572270Y-15740848D01*
X24572265Y-15740851D01*
X24419129Y-15852111D01*
X24292466Y-15992785D01*
X24283969Y-16007502D01*
X24233402Y-16055716D01*
X24176583Y-16069500D01*
X23332743Y-16069500D01*
X23317122Y-16067775D01*
X23317096Y-16068061D01*
X23309334Y-16067327D01*
X23309333Y-16067327D01*
X23247109Y-16069282D01*
X23242127Y-16069439D01*
X23238232Y-16069500D01*
X23210647Y-16069500D01*
X23206661Y-16070003D01*
X23195033Y-16070918D01*
X23151373Y-16072290D01*
X23132129Y-16077881D01*
X23113079Y-16081825D01*
X23093211Y-16084334D01*
X23093210Y-16084334D01*
X23052599Y-16100413D01*
X23041554Y-16104194D01*
X22999614Y-16116379D01*
X22999610Y-16116381D01*
X22982366Y-16126579D01*
X22964905Y-16135133D01*
X22946274Y-16142510D01*
X22946262Y-16142517D01*
X22910933Y-16168185D01*
X22901174Y-16174596D01*
X22879811Y-16187230D01*
X22816688Y-16204500D01*
X22775227Y-16204500D01*
X22708188Y-16184815D01*
X22673652Y-16151623D01*
X22538494Y-15958597D01*
X22371402Y-15791506D01*
X22371396Y-15791501D01*
X22185842Y-15661575D01*
X22142217Y-15606998D01*
X22135023Y-15537500D01*
X22166546Y-15475145D01*
X22185842Y-15458425D01*
X22214646Y-15438256D01*
X22371401Y-15328495D01*
X22538495Y-15161401D01*
X22674035Y-14967830D01*
X22773903Y-14753663D01*
X22835063Y-14525408D01*
X22855659Y-14290000D01*
X22835063Y-14054592D01*
X22773903Y-13826337D01*
X22674035Y-13612171D01*
X22595493Y-13500000D01*
X22538494Y-13418597D01*
X22371402Y-13251506D01*
X22371401Y-13251505D01*
X22185405Y-13121269D01*
X22141781Y-13066692D01*
X22134588Y-12997193D01*
X22166110Y-12934839D01*
X22185405Y-12918119D01*
X22371082Y-12788105D01*
X22538105Y-12621082D01*
X22673600Y-12427578D01*
X22773429Y-12213492D01*
X22773432Y-12213486D01*
X22830636Y-12000000D01*
X21933686Y-12000000D01*
X21959493Y-11959844D01*
X22000000Y-11821889D01*
X22000000Y-11678111D01*
X21959493Y-11540156D01*
X21933686Y-11500000D01*
X22830636Y-11500000D01*
X22830635Y-11499999D01*
X22773432Y-11286513D01*
X22773429Y-11286507D01*
X22673600Y-11072422D01*
X22673599Y-11072420D01*
X22538113Y-10878926D01*
X22538108Y-10878920D01*
X22416053Y-10756865D01*
X22382568Y-10695542D01*
X22387552Y-10625850D01*
X22429424Y-10569917D01*
X22460400Y-10553002D01*
X22592331Y-10503796D01*
X22707546Y-10417546D01*
X22793796Y-10302331D01*
X22844091Y-10167483D01*
X22850500Y-10107873D01*
X22850499Y-8312128D01*
X22844091Y-8252517D01*
X22793796Y-8117669D01*
X22793795Y-8117668D01*
X22793793Y-8117664D01*
X22707547Y-8002455D01*
X22707544Y-8002452D01*
X22592335Y-7916206D01*
X22592328Y-7916202D01*
X22457482Y-7865908D01*
X22457483Y-7865908D01*
X22397883Y-7859501D01*
X22397881Y-7859500D01*
X22397873Y-7859500D01*
X22397864Y-7859500D01*
X20602129Y-7859500D01*
X20602123Y-7859501D01*
X20542516Y-7865908D01*
X20407671Y-7916202D01*
X20407664Y-7916206D01*
X20292455Y-8002452D01*
X20292452Y-8002455D01*
X20206206Y-8117664D01*
X20206202Y-8117671D01*
X20155908Y-8252517D01*
X20149501Y-8312116D01*
X20149501Y-8312123D01*
X20149500Y-8312135D01*
X20149500Y-10107870D01*
X20149501Y-10107876D01*
X20155908Y-10167483D01*
X20206202Y-10302328D01*
X20206206Y-10302335D01*
X20292452Y-10417544D01*
X20292455Y-10417547D01*
X20407664Y-10503793D01*
X20407671Y-10503797D01*
X20407674Y-10503798D01*
X20539598Y-10553002D01*
X20595531Y-10594873D01*
X20619949Y-10660337D01*
X20605098Y-10728610D01*
X20583947Y-10756865D01*
X20461886Y-10878926D01*
X20326400Y-11072420D01*
X20326399Y-11072422D01*
X20226570Y-11286507D01*
X20226567Y-11286513D01*
X20169364Y-11499999D01*
X20169364Y-11500000D01*
X21066314Y-11500000D01*
X21040507Y-11540156D01*
X21000000Y-11678111D01*
X21000000Y-11821889D01*
X21040507Y-11959844D01*
X21066314Y-12000000D01*
X20169364Y-12000000D01*
X20226567Y-12213486D01*
X20226570Y-12213492D01*
X20326399Y-12427578D01*
X20461894Y-12621082D01*
X20628917Y-12788105D01*
X20814595Y-12918119D01*
X20858219Y-12972696D01*
X20865412Y-13042195D01*
X20833890Y-13104549D01*
X20814595Y-13121269D01*
X20628594Y-13251508D01*
X20461505Y-13418597D01*
X20325965Y-13612169D01*
X20325964Y-13612171D01*
X20226098Y-13826335D01*
X20226094Y-13826344D01*
X20164938Y-14054586D01*
X20164936Y-14054596D01*
X20144341Y-14289999D01*
X20144341Y-14290000D01*
X20164936Y-14525403D01*
X20164938Y-14525413D01*
X20226094Y-14753655D01*
X20226096Y-14753659D01*
X20226097Y-14753663D01*
X20270144Y-14848122D01*
X20325965Y-14967830D01*
X20325967Y-14967834D01*
X20461501Y-15161395D01*
X20461506Y-15161402D01*
X20628597Y-15328493D01*
X20628603Y-15328498D01*
X20814158Y-15458425D01*
X20857783Y-15513002D01*
X20864977Y-15582500D01*
X20833454Y-15644855D01*
X20814158Y-15661575D01*
X20628597Y-15791505D01*
X20461505Y-15958597D01*
X20325965Y-16152169D01*
X20325964Y-16152171D01*
X20226098Y-16366335D01*
X20226094Y-16366344D01*
X20164938Y-16594586D01*
X20164936Y-16594596D01*
X20144341Y-16829999D01*
X20144341Y-16830000D01*
X20164936Y-17065403D01*
X20164938Y-17065413D01*
X20226094Y-17293655D01*
X20226096Y-17293659D01*
X20226097Y-17293663D01*
X20306389Y-17465849D01*
X20325965Y-17507830D01*
X20325967Y-17507834D01*
X20404395Y-17619840D01*
X20461501Y-17701396D01*
X20461506Y-17701402D01*
X20628597Y-17868493D01*
X20628603Y-17868498D01*
X20814158Y-17998425D01*
X20857783Y-18053002D01*
X20864977Y-18122500D01*
X20833454Y-18184855D01*
X20814158Y-18201575D01*
X20628597Y-18331505D01*
X20461505Y-18498597D01*
X20325965Y-18692169D01*
X20325964Y-18692171D01*
X20226098Y-18906335D01*
X20226094Y-18906344D01*
X20164938Y-19134586D01*
X20164936Y-19134596D01*
X20144341Y-19369999D01*
X20144341Y-19370388D01*
X20144292Y-19370553D01*
X20143869Y-19375394D01*
X20142896Y-19375308D01*
X20124656Y-19437427D01*
X20071852Y-19483182D01*
X20002694Y-19493126D01*
X19939138Y-19464101D01*
X19932660Y-19458069D01*
X13590803Y-13116212D01*
X13580980Y-13103950D01*
X13580759Y-13104134D01*
X13575786Y-13098122D01*
X13526776Y-13052099D01*
X13523977Y-13049386D01*
X13504477Y-13029885D01*
X13504471Y-13029880D01*
X13501286Y-13027409D01*
X13492434Y-13019848D01*
X13460582Y-12989938D01*
X13460580Y-12989936D01*
X13460577Y-12989935D01*
X13443029Y-12980288D01*
X13426763Y-12969604D01*
X13410932Y-12957324D01*
X13370849Y-12939978D01*
X13360363Y-12934841D01*
X13322094Y-12913803D01*
X13322092Y-12913802D01*
X13302693Y-12908822D01*
X13284281Y-12902518D01*
X13265898Y-12894562D01*
X13265892Y-12894560D01*
X13222760Y-12887729D01*
X13211322Y-12885361D01*
X13169020Y-12874500D01*
X13169019Y-12874500D01*
X13148984Y-12874500D01*
X13129586Y-12872973D01*
X13122162Y-12871797D01*
X13109805Y-12869840D01*
X13109804Y-12869840D01*
X13066325Y-12873950D01*
X13054656Y-12874500D01*
X12203748Y-12874500D01*
X12136709Y-12854815D01*
X12111600Y-12833474D01*
X12105873Y-12827114D01*
X12105869Y-12827110D01*
X11952734Y-12715851D01*
X11952729Y-12715848D01*
X11779807Y-12638857D01*
X11779802Y-12638855D01*
X11634001Y-12607865D01*
X11594646Y-12599500D01*
X11405354Y-12599500D01*
X11372897Y-12606398D01*
X11220197Y-12638855D01*
X11220192Y-12638857D01*
X11047270Y-12715848D01*
X11047265Y-12715851D01*
X10894129Y-12827111D01*
X10767466Y-12967785D01*
X10672821Y-13131715D01*
X10672818Y-13131722D01*
X10614327Y-13311740D01*
X10614326Y-13311744D01*
X10594540Y-13500000D01*
X10614326Y-13688256D01*
X10614327Y-13688259D01*
X10672818Y-13868277D01*
X10672821Y-13868284D01*
X10767467Y-14032216D01*
X10869185Y-14145185D01*
X10894129Y-14172888D01*
X11047265Y-14284148D01*
X11047270Y-14284151D01*
X11220192Y-14361142D01*
X11220197Y-14361144D01*
X11305191Y-14379210D01*
X11366673Y-14412402D01*
X11400449Y-14473565D01*
X11395797Y-14543280D01*
X11354192Y-14599412D01*
X11288845Y-14624141D01*
X11279410Y-14624500D01*
X9953748Y-14624500D01*
X9886709Y-14604815D01*
X9861600Y-14583474D01*
X9855873Y-14577114D01*
X9855869Y-14577110D01*
X9702734Y-14465851D01*
X9702729Y-14465848D01*
X9529807Y-14388857D01*
X9529802Y-14388855D01*
X9384001Y-14357865D01*
X9344646Y-14349500D01*
X9155354Y-14349500D01*
X9122897Y-14356398D01*
X8970197Y-14388855D01*
X8970192Y-14388857D01*
X8797270Y-14465848D01*
X8797265Y-14465851D01*
X8644129Y-14577111D01*
X8517466Y-14717785D01*
X8422821Y-14881715D01*
X8422818Y-14881722D01*
X8394839Y-14967834D01*
X8364326Y-15061744D01*
X8344540Y-15250000D01*
X8364326Y-15438256D01*
X8364327Y-15438259D01*
X8422818Y-15618277D01*
X8422823Y-15618289D01*
X8463360Y-15688501D01*
X8479833Y-15756401D01*
X8456980Y-15822428D01*
X8402059Y-15865618D01*
X8355973Y-15874500D01*
X8203748Y-15874500D01*
X8136709Y-15854815D01*
X8111600Y-15833474D01*
X8105873Y-15827114D01*
X8105869Y-15827110D01*
X7952734Y-15715851D01*
X7952729Y-15715848D01*
X7779807Y-15638857D01*
X7779802Y-15638855D01*
X7629922Y-15606998D01*
X7594646Y-15599500D01*
X7405354Y-15599500D01*
X7372897Y-15606398D01*
X7220197Y-15638855D01*
X7220192Y-15638857D01*
X7047270Y-15715848D01*
X7047265Y-15715851D01*
X6894129Y-15827111D01*
X6767466Y-15967785D01*
X6672821Y-16131715D01*
X6672818Y-16131722D01*
X6614327Y-16311740D01*
X6614326Y-16311744D01*
X6594540Y-16500000D01*
X6614326Y-16688256D01*
X6614327Y-16688259D01*
X6672818Y-16868277D01*
X6672821Y-16868284D01*
X6767467Y-17032216D01*
X6869185Y-17145185D01*
X6894129Y-17172888D01*
X7047265Y-17284148D01*
X7047270Y-17284151D01*
X7220192Y-17361142D01*
X7220197Y-17361144D01*
X7305191Y-17379210D01*
X7366673Y-17412402D01*
X7400449Y-17473565D01*
X7395797Y-17543280D01*
X7354192Y-17599412D01*
X7288845Y-17624141D01*
X7279410Y-17624500D01*
X6703748Y-17624500D01*
X6636709Y-17604815D01*
X6611600Y-17583474D01*
X6605873Y-17577114D01*
X6605869Y-17577110D01*
X6452734Y-17465851D01*
X6452729Y-17465848D01*
X6279807Y-17388857D01*
X6279802Y-17388855D01*
X6129065Y-17356816D01*
X6094646Y-17349500D01*
X5905354Y-17349500D01*
X5887114Y-17353377D01*
X5720197Y-17388855D01*
X5720192Y-17388857D01*
X5547270Y-17465848D01*
X5547265Y-17465851D01*
X5394129Y-17577111D01*
X5267466Y-17717785D01*
X5172821Y-17881715D01*
X5172818Y-17881722D01*
X5129467Y-18015145D01*
X5114326Y-18061744D01*
X5094540Y-18250000D01*
X5114326Y-18438256D01*
X5114327Y-18438259D01*
X5172818Y-18618277D01*
X5172821Y-18618284D01*
X5267467Y-18782216D01*
X5369185Y-18895185D01*
X5394129Y-18922888D01*
X5547265Y-19034148D01*
X5547270Y-19034151D01*
X5720192Y-19111142D01*
X5720197Y-19111144D01*
X5905354Y-19150500D01*
X5905355Y-19150500D01*
X6094644Y-19150500D01*
X6094646Y-19150500D01*
X6279803Y-19111144D01*
X6452730Y-19034151D01*
X6605871Y-18922888D01*
X6608788Y-18919647D01*
X6611600Y-18916526D01*
X6671087Y-18879879D01*
X6703748Y-18875500D01*
X9909548Y-18875500D01*
X9976587Y-18895185D01*
X9997229Y-18911819D01*
X20159761Y-29074352D01*
X20193246Y-29135675D01*
X20191855Y-29194124D01*
X20164937Y-29294589D01*
X20164937Y-29294590D01*
X20144341Y-29529999D01*
X20144341Y-29530388D01*
X20144292Y-29530553D01*
X20143869Y-29535394D01*
X20142896Y-29535308D01*
X20124656Y-29597427D01*
X20071852Y-29643182D01*
X20002694Y-29653126D01*
X19939138Y-29624101D01*
X19932660Y-29618069D01*
X10680803Y-20366212D01*
X10670980Y-20353950D01*
X10670759Y-20354134D01*
X10665786Y-20348122D01*
X10616776Y-20302099D01*
X10613977Y-20299386D01*
X10594477Y-20279885D01*
X10594471Y-20279880D01*
X10591286Y-20277409D01*
X10582434Y-20269848D01*
X10550582Y-20239938D01*
X10550580Y-20239936D01*
X10550577Y-20239935D01*
X10533029Y-20230288D01*
X10516763Y-20219604D01*
X10500932Y-20207324D01*
X10460849Y-20189978D01*
X10450363Y-20184841D01*
X10412094Y-20163803D01*
X10412092Y-20163802D01*
X10392693Y-20158822D01*
X10374281Y-20152518D01*
X10355898Y-20144562D01*
X10355892Y-20144560D01*
X10312760Y-20137729D01*
X10301322Y-20135361D01*
X10259020Y-20124500D01*
X10259019Y-20124500D01*
X10238984Y-20124500D01*
X10219586Y-20122973D01*
X10212162Y-20121797D01*
X10199805Y-20119840D01*
X10199804Y-20119840D01*
X10156325Y-20123950D01*
X10144656Y-20124500D01*
X3953748Y-20124500D01*
X3886709Y-20104815D01*
X3861600Y-20083474D01*
X3855873Y-20077114D01*
X3855869Y-20077110D01*
X3702734Y-19965851D01*
X3702729Y-19965848D01*
X3529807Y-19888857D01*
X3529802Y-19888855D01*
X3384001Y-19857865D01*
X3344646Y-19849500D01*
X3155354Y-19849500D01*
X3122897Y-19856398D01*
X2970197Y-19888855D01*
X2970192Y-19888857D01*
X2797270Y-19965848D01*
X2797265Y-19965851D01*
X2644129Y-20077111D01*
X2517466Y-20217785D01*
X2422821Y-20381715D01*
X2422818Y-20381722D01*
X2370080Y-20544035D01*
X2364326Y-20561744D01*
X2344540Y-20750000D01*
X2364326Y-20938256D01*
X2364327Y-20938259D01*
X2422818Y-21118277D01*
X2422821Y-21118284D01*
X2517467Y-21282216D01*
X2619185Y-21395185D01*
X2644129Y-21422888D01*
X2797265Y-21534148D01*
X2797270Y-21534151D01*
X2970192Y-21611142D01*
X2970197Y-21611144D01*
X3155354Y-21650500D01*
X3155355Y-21650500D01*
X3344644Y-21650500D01*
X3344646Y-21650500D01*
X3529803Y-21611144D01*
X3702730Y-21534151D01*
X3855871Y-21422888D01*
X3858788Y-21419647D01*
X3861600Y-21416526D01*
X3921087Y-21379879D01*
X3953748Y-21375500D01*
X9869548Y-21375500D01*
X9936587Y-21395185D01*
X9957229Y-21411819D01*
X16283067Y-27737657D01*
X16316552Y-27798980D01*
X16311568Y-27868672D01*
X16269696Y-27924605D01*
X16206194Y-27948866D01*
X16023399Y-27964858D01*
X16023389Y-27964860D01*
X15803682Y-28023730D01*
X15803673Y-28023734D01*
X15597516Y-28119866D01*
X15597512Y-28119868D01*
X15524526Y-28170973D01*
X15524526Y-28170974D01*
X16205599Y-28852046D01*
X16124852Y-28864835D01*
X16011955Y-28922359D01*
X15922359Y-29011955D01*
X15864835Y-29124852D01*
X15852046Y-29205598D01*
X15170974Y-28524526D01*
X15170973Y-28524526D01*
X15119868Y-28597512D01*
X15119866Y-28597516D01*
X15023734Y-28803673D01*
X15023730Y-28803682D01*
X14964860Y-29023389D01*
X14964858Y-29023400D01*
X14945034Y-29249997D01*
X14945034Y-29250002D01*
X14964858Y-29476599D01*
X14964860Y-29476610D01*
X15023730Y-29696317D01*
X15023735Y-29696331D01*
X15119863Y-29902478D01*
X15170974Y-29975472D01*
X15852046Y-29294400D01*
X15864835Y-29375148D01*
X15922359Y-29488045D01*
X16011955Y-29577641D01*
X16124852Y-29635165D01*
X16205599Y-29647953D01*
X15519352Y-30334199D01*
X15509506Y-30383194D01*
X15460890Y-30433377D01*
X15405367Y-30448049D01*
X15405423Y-30449099D01*
X15405429Y-30449146D01*
X15405426Y-30449146D01*
X15405436Y-30449324D01*
X15402123Y-30449501D01*
X15342516Y-30455908D01*
X15207671Y-30506202D01*
X15207664Y-30506206D01*
X15092455Y-30592452D01*
X15092452Y-30592455D01*
X15006206Y-30707664D01*
X15006202Y-30707671D01*
X14955908Y-30842517D01*
X14949559Y-30901575D01*
X14949501Y-30902123D01*
X14949500Y-30902135D01*
X14949500Y-32597870D01*
X14949501Y-32597876D01*
X14955908Y-32657483D01*
X15006202Y-32792328D01*
X15006206Y-32792335D01*
X15092452Y-32907544D01*
X15092455Y-32907547D01*
X15207664Y-32993793D01*
X15207671Y-32993797D01*
X15342517Y-33044091D01*
X15342516Y-33044091D01*
X15349444Y-33044835D01*
X15402127Y-33050500D01*
X17097872Y-33050499D01*
X17157483Y-33044091D01*
X17292331Y-32993796D01*
X17407546Y-32907546D01*
X17493796Y-32792331D01*
X17544091Y-32657483D01*
X17550500Y-32597873D01*
X17550499Y-30902128D01*
X17544091Y-30842517D01*
X17528233Y-30800000D01*
X17493797Y-30707671D01*
X17493793Y-30707664D01*
X17407547Y-30592455D01*
X17407544Y-30592452D01*
X17292335Y-30506206D01*
X17292328Y-30506202D01*
X17157482Y-30455908D01*
X17157483Y-30455908D01*
X17097883Y-30449501D01*
X17097881Y-30449500D01*
X17097873Y-30449500D01*
X17097864Y-30449500D01*
X17094548Y-30449322D01*
X17094627Y-30447847D01*
X17033215Y-30429815D01*
X16987460Y-30377011D01*
X16979969Y-30333522D01*
X16294400Y-29647953D01*
X16375148Y-29635165D01*
X16488045Y-29577641D01*
X16577641Y-29488045D01*
X16635165Y-29375148D01*
X16647953Y-29294400D01*
X17329024Y-29975471D01*
X17380136Y-29902478D01*
X17476264Y-29696331D01*
X17476269Y-29696317D01*
X17535139Y-29476610D01*
X17535141Y-29476599D01*
X17551133Y-29293806D01*
X17576585Y-29228737D01*
X17633176Y-29187758D01*
X17702938Y-29183880D01*
X17762342Y-29216932D01*
X20159762Y-31614352D01*
X20193247Y-31675675D01*
X20191856Y-31734126D01*
X20164938Y-31834586D01*
X20164936Y-31834596D01*
X20144341Y-32069999D01*
X20144341Y-32070000D01*
X20164936Y-32305403D01*
X20164938Y-32305413D01*
X20226094Y-32533655D01*
X20226096Y-32533659D01*
X20226097Y-32533663D01*
X20325965Y-32747830D01*
X20325967Y-32747834D01*
X20434281Y-32902521D01*
X20461505Y-32941401D01*
X20628599Y-33108495D01*
X20725384Y-33176265D01*
X20822165Y-33244032D01*
X20822167Y-33244033D01*
X20822170Y-33244035D01*
X21036337Y-33343903D01*
X21264592Y-33405063D01*
X21452918Y-33421539D01*
X21499999Y-33425659D01*
X21500000Y-33425659D01*
X21500001Y-33425659D01*
X21539234Y-33422226D01*
X21735408Y-33405063D01*
X21963663Y-33343903D01*
X22177830Y-33244035D01*
X22371401Y-33108495D01*
X22538495Y-32941401D01*
X22674035Y-32747830D01*
X22773903Y-32533663D01*
X22835063Y-32305408D01*
X22855659Y-32070000D01*
X22835063Y-31834592D01*
X22773903Y-31606337D01*
X22674035Y-31392171D01*
X22538495Y-31198599D01*
X22538494Y-31198597D01*
X22371402Y-31031506D01*
X22371396Y-31031501D01*
X22185842Y-30901575D01*
X22142217Y-30846998D01*
X22135023Y-30777500D01*
X22166546Y-30715145D01*
X22185842Y-30698425D01*
X22208026Y-30682891D01*
X22371401Y-30568495D01*
X22538495Y-30401401D01*
X22674035Y-30207830D01*
X22773903Y-29993663D01*
X22835063Y-29765408D01*
X22855659Y-29530000D01*
X22835063Y-29294592D01*
X22773903Y-29066337D01*
X22674035Y-28852171D01*
X22640077Y-28803673D01*
X22538494Y-28658597D01*
X22371402Y-28491506D01*
X22371396Y-28491501D01*
X22185842Y-28361575D01*
X22142217Y-28306998D01*
X22135023Y-28237500D01*
X22166546Y-28175145D01*
X22185842Y-28158425D01*
X22240910Y-28119866D01*
X22371401Y-28028495D01*
X22538495Y-27861401D01*
X22674035Y-27667830D01*
X22773903Y-27453663D01*
X22835063Y-27225408D01*
X22855659Y-26990000D01*
X22835063Y-26754592D01*
X22773903Y-26526337D01*
X22674035Y-26312171D01*
X22538495Y-26118599D01*
X22538494Y-26118597D01*
X22371402Y-25951506D01*
X22371396Y-25951501D01*
X22185842Y-25821575D01*
X22142217Y-25766998D01*
X22135023Y-25697500D01*
X22166546Y-25635145D01*
X22185842Y-25618425D01*
X22208026Y-25602891D01*
X22371401Y-25488495D01*
X22538495Y-25321401D01*
X22674035Y-25127830D01*
X22773903Y-24913663D01*
X22835063Y-24685408D01*
X22855659Y-24450000D01*
X22835063Y-24214592D01*
X22773903Y-23986337D01*
X22674035Y-23772171D01*
X22538495Y-23578599D01*
X22538494Y-23578597D01*
X22371402Y-23411506D01*
X22371396Y-23411501D01*
X22185842Y-23281575D01*
X22142217Y-23226998D01*
X22135023Y-23157500D01*
X22166546Y-23095145D01*
X22185842Y-23078425D01*
X22208026Y-23062891D01*
X22371401Y-22948495D01*
X22538495Y-22781401D01*
X22674035Y-22587830D01*
X22773903Y-22373663D01*
X22835063Y-22145408D01*
X22855659Y-21910000D01*
X22835063Y-21674592D01*
X22773903Y-21446337D01*
X22674035Y-21232171D01*
X22538495Y-21038599D01*
X22538494Y-21038597D01*
X22371402Y-20871506D01*
X22371396Y-20871501D01*
X22185842Y-20741575D01*
X22142217Y-20686998D01*
X22135023Y-20617500D01*
X22166546Y-20555145D01*
X22185842Y-20538425D01*
X22208026Y-20522891D01*
X22371401Y-20408495D01*
X22538495Y-20241401D01*
X22673652Y-20048377D01*
X22728229Y-20004752D01*
X22775227Y-19995500D01*
X23032257Y-19995500D01*
X23047877Y-19997224D01*
X23047904Y-19996939D01*
X23055660Y-19997671D01*
X23055667Y-19997673D01*
X23122873Y-19995561D01*
X23126768Y-19995500D01*
X23154346Y-19995500D01*
X23154350Y-19995500D01*
X23158324Y-19994997D01*
X23169963Y-19994080D01*
X23213627Y-19992709D01*
X23232869Y-19987117D01*
X23251912Y-19983174D01*
X23271792Y-19980664D01*
X23312401Y-19964585D01*
X23323444Y-19960803D01*
X23365390Y-19948618D01*
X23382629Y-19938422D01*
X23400103Y-19929862D01*
X23417704Y-19922893D01*
X23418732Y-19922486D01*
X23454069Y-19896810D01*
X23463830Y-19890400D01*
X23485192Y-19877767D01*
X23548311Y-19860500D01*
X25032746Y-19860500D01*
X25099785Y-19880185D01*
X25124895Y-19901527D01*
X25144128Y-19922887D01*
X25144135Y-19922893D01*
X25297265Y-20034148D01*
X25297270Y-20034151D01*
X25470192Y-20111142D01*
X25470197Y-20111144D01*
X25655354Y-20150500D01*
X25655355Y-20150500D01*
X25844644Y-20150500D01*
X25844646Y-20150500D01*
X26029803Y-20111144D01*
X26075065Y-20090991D01*
X26144312Y-20081706D01*
X26207589Y-20111334D01*
X26244804Y-20170468D01*
X26249500Y-20204271D01*
X26249500Y-40125500D01*
X26229815Y-40192539D01*
X26177011Y-40238294D01*
X26125500Y-40249500D01*
X-125500Y-40249500D01*
X-192539Y-40229815D01*
X-238294Y-40177011D01*
X-249500Y-40125500D01*
X-249500Y-28764000D01*
X-229815Y-28696961D01*
X-177011Y-28651206D01*
X-125500Y-28640000D01*
X-70000Y-28640000D01*
X-70000Y-10860000D01*
X-125500Y-10860000D01*
X-192539Y-10840315D01*
X-238294Y-10787511D01*
X-249500Y-10736000D01*
X-249500Y-3947844D01*
X75000Y-3947844D01*
X81401Y-4007372D01*
X81403Y-4007379D01*
X131645Y-4142086D01*
X131649Y-4142093D01*
X217809Y-4257187D01*
X217812Y-4257190D01*
X332906Y-4343350D01*
X332913Y-4343354D01*
X467620Y-4393596D01*
X467627Y-4393598D01*
X527155Y-4399999D01*
X527172Y-4400000D01*
X1225000Y-4400000D01*
X1225000Y-3374189D01*
X1277547Y-3410016D01*
X1407173Y-3450000D01*
X1508724Y-3450000D01*
X1609138Y-3434865D01*
X1725000Y-3379068D01*
X1725000Y-4400000D01*
X2422828Y-4400000D01*
X2422844Y-4399999D01*
X2482372Y-4393598D01*
X2482379Y-4393596D01*
X2617086Y-4343354D01*
X2617093Y-4343350D01*
X2732187Y-4257190D01*
X2732190Y-4257187D01*
X2818350Y-4142093D01*
X2818355Y-4142084D01*
X2847075Y-4065081D01*
X2888945Y-4009147D01*
X2954409Y-3984729D01*
X3022682Y-3999580D01*
X3054484Y-4024428D01*
X3063216Y-4033913D01*
X3063219Y-4033915D01*
X3063222Y-4033918D01*
X3246365Y-4176464D01*
X3246371Y-4176468D01*
X3246374Y-4176470D01*
X3450497Y-4286936D01*
X3564487Y-4326068D01*
X3670015Y-4362297D01*
X3670017Y-4362297D01*
X3670019Y-4362298D01*
X3898951Y-4400500D01*
X3898952Y-4400500D01*
X4131048Y-4400500D01*
X4131049Y-4400500D01*
X4359981Y-4362298D01*
X4579503Y-4286936D01*
X4783626Y-4176470D01*
X4929977Y-4062560D01*
X4994968Y-4036919D01*
X5063508Y-4050485D01*
X5113833Y-4098953D01*
X5122318Y-4117080D01*
X5131644Y-4142083D01*
X5131649Y-4142093D01*
X5217809Y-4257187D01*
X5217812Y-4257190D01*
X5332906Y-4343350D01*
X5332913Y-4343354D01*
X5467620Y-4393596D01*
X5467627Y-4393598D01*
X5527155Y-4399999D01*
X5527172Y-4400000D01*
X6225000Y-4400000D01*
X6225000Y-3374189D01*
X6277547Y-3410016D01*
X6407173Y-3450000D01*
X6508724Y-3450000D01*
X6609138Y-3434865D01*
X6725000Y-3379068D01*
X6725000Y-4400000D01*
X7422828Y-4400000D01*
X7422844Y-4399999D01*
X7482372Y-4393598D01*
X7482379Y-4393596D01*
X7617086Y-4343354D01*
X7617093Y-4343350D01*
X7732187Y-4257190D01*
X7732190Y-4257187D01*
X7818350Y-4142093D01*
X7818355Y-4142084D01*
X7847075Y-4065081D01*
X7888945Y-4009147D01*
X7954409Y-3984729D01*
X8022682Y-3999580D01*
X8054484Y-4024428D01*
X8063216Y-4033913D01*
X8063219Y-4033915D01*
X8063222Y-4033918D01*
X8246365Y-4176464D01*
X8246371Y-4176468D01*
X8246374Y-4176470D01*
X8450497Y-4286936D01*
X8564487Y-4326068D01*
X8670015Y-4362297D01*
X8670017Y-4362297D01*
X8670019Y-4362298D01*
X8898951Y-4400500D01*
X8898952Y-4400500D01*
X9131048Y-4400500D01*
X9131049Y-4400500D01*
X9359981Y-4362298D01*
X9579503Y-4286936D01*
X9783626Y-4176470D01*
X9929977Y-4062560D01*
X9994968Y-4036919D01*
X10063508Y-4050485D01*
X10113833Y-4098953D01*
X10122318Y-4117080D01*
X10131644Y-4142083D01*
X10131649Y-4142093D01*
X10217809Y-4257187D01*
X10217812Y-4257190D01*
X10332906Y-4343350D01*
X10332913Y-4343354D01*
X10467620Y-4393596D01*
X10467627Y-4393598D01*
X10527155Y-4399999D01*
X10527172Y-4400000D01*
X11225000Y-4400000D01*
X11225000Y-3374189D01*
X11277547Y-3410016D01*
X11407173Y-3450000D01*
X11508724Y-3450000D01*
X11609138Y-3434865D01*
X11725000Y-3379068D01*
X11725000Y-4400000D01*
X12422828Y-4400000D01*
X12422844Y-4399999D01*
X12482372Y-4393598D01*
X12482379Y-4393596D01*
X12617086Y-4343354D01*
X12617093Y-4343350D01*
X12732187Y-4257190D01*
X12732190Y-4257187D01*
X12818350Y-4142093D01*
X12818355Y-4142084D01*
X12847075Y-4065081D01*
X12888945Y-4009147D01*
X12954409Y-3984729D01*
X13022682Y-3999580D01*
X13054484Y-4024428D01*
X13063216Y-4033913D01*
X13063219Y-4033915D01*
X13063222Y-4033918D01*
X13246365Y-4176464D01*
X13246371Y-4176468D01*
X13246374Y-4176470D01*
X13450497Y-4286936D01*
X13564487Y-4326068D01*
X13670015Y-4362297D01*
X13670017Y-4362297D01*
X13670019Y-4362298D01*
X13898951Y-4400500D01*
X13898952Y-4400500D01*
X14131048Y-4400500D01*
X14131049Y-4400500D01*
X14359981Y-4362298D01*
X14579503Y-4286936D01*
X14783626Y-4176470D01*
X14929977Y-4062560D01*
X14994968Y-4036919D01*
X15063508Y-4050485D01*
X15113833Y-4098953D01*
X15122318Y-4117080D01*
X15131644Y-4142083D01*
X15131649Y-4142093D01*
X15217809Y-4257187D01*
X15217812Y-4257190D01*
X15332906Y-4343350D01*
X15332913Y-4343354D01*
X15467620Y-4393596D01*
X15467627Y-4393598D01*
X15527155Y-4399999D01*
X15527172Y-4400000D01*
X16225000Y-4400000D01*
X16225000Y-3374189D01*
X16277547Y-3410016D01*
X16407173Y-3450000D01*
X16508724Y-3450000D01*
X16609138Y-3434865D01*
X16725000Y-3379068D01*
X16725000Y-4400000D01*
X17422828Y-4400000D01*
X17422844Y-4399999D01*
X17482372Y-4393598D01*
X17482379Y-4393596D01*
X17617086Y-4343354D01*
X17617093Y-4343350D01*
X17732187Y-4257190D01*
X17732190Y-4257187D01*
X17818350Y-4142093D01*
X17818355Y-4142084D01*
X17847075Y-4065081D01*
X17888945Y-4009147D01*
X17954409Y-3984729D01*
X18022682Y-3999580D01*
X18054484Y-4024428D01*
X18063216Y-4033913D01*
X18063219Y-4033915D01*
X18063222Y-4033918D01*
X18246365Y-4176464D01*
X18246371Y-4176468D01*
X18246374Y-4176470D01*
X18450497Y-4286936D01*
X18564487Y-4326068D01*
X18670015Y-4362297D01*
X18670017Y-4362297D01*
X18670019Y-4362298D01*
X18898951Y-4400500D01*
X18898952Y-4400500D01*
X19131048Y-4400500D01*
X19131049Y-4400500D01*
X19359981Y-4362298D01*
X19579503Y-4286936D01*
X19783626Y-4176470D01*
X19966784Y-4033913D01*
X20123979Y-3863153D01*
X20250924Y-3668849D01*
X20344157Y-3456300D01*
X20401134Y-3231305D01*
X20406524Y-3166260D01*
X20420300Y-3000006D01*
X20420300Y-2999993D01*
X20401135Y-2768702D01*
X20401133Y-2768691D01*
X20344157Y-2543699D01*
X20250924Y-2331151D01*
X20123983Y-2136852D01*
X20123980Y-2136849D01*
X20123979Y-2136847D01*
X19966784Y-1966087D01*
X19966779Y-1966083D01*
X19966777Y-1966081D01*
X19783634Y-1823535D01*
X19783628Y-1823531D01*
X19579504Y-1713064D01*
X19579495Y-1713061D01*
X19359984Y-1637702D01*
X19172404Y-1606401D01*
X19131049Y-1599500D01*
X18898951Y-1599500D01*
X18857596Y-1606401D01*
X18670015Y-1637702D01*
X18450504Y-1713061D01*
X18450495Y-1713064D01*
X18246371Y-1823531D01*
X18246365Y-1823535D01*
X18063222Y-1966081D01*
X18063215Y-1966087D01*
X18054484Y-1975572D01*
X17994595Y-2011561D01*
X17924757Y-2009458D01*
X17867143Y-1969932D01*
X17847075Y-1934918D01*
X17818355Y-1857915D01*
X17818350Y-1857906D01*
X17732190Y-1742812D01*
X17732187Y-1742809D01*
X17617093Y-1656649D01*
X17617086Y-1656645D01*
X17482379Y-1606403D01*
X17482372Y-1606401D01*
X17422844Y-1600000D01*
X16725000Y-1600000D01*
X16725000Y-2625810D01*
X16672453Y-2589984D01*
X16542827Y-2550000D01*
X16441276Y-2550000D01*
X16340862Y-2565135D01*
X16225000Y-2620931D01*
X16225000Y-1600000D01*
X15527155Y-1600000D01*
X15467627Y-1606401D01*
X15467620Y-1606403D01*
X15332913Y-1656645D01*
X15332906Y-1656649D01*
X15217812Y-1742809D01*
X15217809Y-1742812D01*
X15131649Y-1857906D01*
X15131645Y-1857914D01*
X15122318Y-1882920D01*
X15080445Y-1938853D01*
X15014981Y-1963268D01*
X14946708Y-1948415D01*
X14929975Y-1937437D01*
X14783634Y-1823535D01*
X14783628Y-1823531D01*
X14579504Y-1713064D01*
X14579495Y-1713061D01*
X14359984Y-1637702D01*
X14172404Y-1606401D01*
X14131049Y-1599500D01*
X13898951Y-1599500D01*
X13857596Y-1606401D01*
X13670015Y-1637702D01*
X13450504Y-1713061D01*
X13450495Y-1713064D01*
X13246371Y-1823531D01*
X13246365Y-1823535D01*
X13063222Y-1966081D01*
X13063215Y-1966087D01*
X13054484Y-1975572D01*
X12994595Y-2011561D01*
X12924757Y-2009458D01*
X12867143Y-1969932D01*
X12847075Y-1934918D01*
X12818355Y-1857915D01*
X12818350Y-1857906D01*
X12732190Y-1742812D01*
X12732187Y-1742809D01*
X12617093Y-1656649D01*
X12617086Y-1656645D01*
X12482379Y-1606403D01*
X12482372Y-1606401D01*
X12422844Y-1600000D01*
X11725000Y-1600000D01*
X11725000Y-2625810D01*
X11672453Y-2589984D01*
X11542827Y-2550000D01*
X11441276Y-2550000D01*
X11340862Y-2565135D01*
X11225000Y-2620931D01*
X11225000Y-1600000D01*
X10527155Y-1600000D01*
X10467627Y-1606401D01*
X10467620Y-1606403D01*
X10332913Y-1656645D01*
X10332906Y-1656649D01*
X10217812Y-1742809D01*
X10217809Y-1742812D01*
X10131649Y-1857906D01*
X10131645Y-1857914D01*
X10122318Y-1882920D01*
X10080445Y-1938853D01*
X10014981Y-1963268D01*
X9946708Y-1948415D01*
X9929975Y-1937437D01*
X9783634Y-1823535D01*
X9783628Y-1823531D01*
X9579504Y-1713064D01*
X9579495Y-1713061D01*
X9359984Y-1637702D01*
X9172404Y-1606401D01*
X9131049Y-1599500D01*
X8898951Y-1599500D01*
X8857596Y-1606401D01*
X8670015Y-1637702D01*
X8450504Y-1713061D01*
X8450495Y-1713064D01*
X8246371Y-1823531D01*
X8246365Y-1823535D01*
X8063222Y-1966081D01*
X8063215Y-1966087D01*
X8054484Y-1975572D01*
X7994595Y-2011561D01*
X7924757Y-2009458D01*
X7867143Y-1969932D01*
X7847075Y-1934918D01*
X7818355Y-1857915D01*
X7818350Y-1857906D01*
X7732190Y-1742812D01*
X7732187Y-1742809D01*
X7617093Y-1656649D01*
X7617086Y-1656645D01*
X7482379Y-1606403D01*
X7482372Y-1606401D01*
X7422844Y-1600000D01*
X6725000Y-1600000D01*
X6725000Y-2625810D01*
X6672453Y-2589984D01*
X6542827Y-2550000D01*
X6441276Y-2550000D01*
X6340862Y-2565135D01*
X6225000Y-2620931D01*
X6225000Y-1600000D01*
X5527155Y-1600000D01*
X5467627Y-1606401D01*
X5467620Y-1606403D01*
X5332913Y-1656645D01*
X5332906Y-1656649D01*
X5217812Y-1742809D01*
X5217809Y-1742812D01*
X5131649Y-1857906D01*
X5131645Y-1857914D01*
X5122318Y-1882920D01*
X5080445Y-1938853D01*
X5014981Y-1963268D01*
X4946708Y-1948415D01*
X4929975Y-1937437D01*
X4783634Y-1823535D01*
X4783628Y-1823531D01*
X4579504Y-1713064D01*
X4579495Y-1713061D01*
X4359984Y-1637702D01*
X4172404Y-1606401D01*
X4131049Y-1599500D01*
X3898951Y-1599500D01*
X3857596Y-1606401D01*
X3670015Y-1637702D01*
X3450504Y-1713061D01*
X3450495Y-1713064D01*
X3246371Y-1823531D01*
X3246365Y-1823535D01*
X3063222Y-1966081D01*
X3063215Y-1966087D01*
X3054484Y-1975572D01*
X2994595Y-2011561D01*
X2924757Y-2009458D01*
X2867143Y-1969932D01*
X2847075Y-1934918D01*
X2818355Y-1857915D01*
X2818350Y-1857906D01*
X2732190Y-1742812D01*
X2732187Y-1742809D01*
X2617093Y-1656649D01*
X2617086Y-1656645D01*
X2482379Y-1606403D01*
X2482372Y-1606401D01*
X2422844Y-1600000D01*
X1725000Y-1600000D01*
X1725000Y-2625810D01*
X1672453Y-2589984D01*
X1542827Y-2550000D01*
X1441276Y-2550000D01*
X1340862Y-2565135D01*
X1225000Y-2620931D01*
X1225000Y-1600000D01*
X527155Y-1600000D01*
X467627Y-1606401D01*
X467620Y-1606403D01*
X332913Y-1656645D01*
X332906Y-1656649D01*
X217812Y-1742809D01*
X217809Y-1742812D01*
X131649Y-1857906D01*
X131645Y-1857913D01*
X81403Y-1992620D01*
X81401Y-1992627D01*
X75000Y-2052155D01*
X75000Y-2750000D01*
X1099722Y-2750000D01*
X1051375Y-2833740D01*
X1021190Y-2965992D01*
X1031327Y-3101265D01*
X1080887Y-3227541D01*
X1098797Y-3250000D01*
X75000Y-3250000D01*
X75000Y-3947844D01*
X-249500Y-3947844D01*
X-249500Y-374500D01*
X-229815Y-307461D01*
X-177011Y-261706D01*
X-125500Y-250500D01*
X26125500Y-250500D01*
X26192539Y-270185D01*
G37*
%TD.AperFunction*%
%TA.AperFunction,Conductor*%
G36*
X10766587Y-17145185D02*
G01*
X10787229Y-17161819D01*
X20159761Y-26534352D01*
X20193246Y-26595675D01*
X20191855Y-26654124D01*
X20164937Y-26754589D01*
X20164937Y-26754590D01*
X20144341Y-26989999D01*
X20144341Y-26990388D01*
X20144292Y-26990553D01*
X20143869Y-26995394D01*
X20142896Y-26995308D01*
X20124656Y-27057427D01*
X20071852Y-27103182D01*
X20002694Y-27113126D01*
X19939138Y-27084101D01*
X19932660Y-27078069D01*
X10720803Y-17866212D01*
X10710980Y-17853950D01*
X10710759Y-17854134D01*
X10705786Y-17848122D01*
X10656776Y-17802099D01*
X10653977Y-17799386D01*
X10634477Y-17779885D01*
X10634471Y-17779880D01*
X10631286Y-17777409D01*
X10622434Y-17769848D01*
X10590582Y-17739938D01*
X10590580Y-17739936D01*
X10590577Y-17739935D01*
X10573029Y-17730288D01*
X10556763Y-17719604D01*
X10540932Y-17707324D01*
X10500849Y-17689978D01*
X10490363Y-17684841D01*
X10452094Y-17663803D01*
X10452092Y-17663802D01*
X10432693Y-17658822D01*
X10414281Y-17652518D01*
X10395898Y-17644562D01*
X10395892Y-17644560D01*
X10352760Y-17637729D01*
X10341322Y-17635361D01*
X10299020Y-17624500D01*
X10299019Y-17624500D01*
X10278984Y-17624500D01*
X10259586Y-17622973D01*
X10252162Y-17621797D01*
X10239805Y-17619840D01*
X10239804Y-17619840D01*
X10196325Y-17623950D01*
X10184656Y-17624500D01*
X7720590Y-17624500D01*
X7653551Y-17604815D01*
X7607796Y-17552011D01*
X7597852Y-17482853D01*
X7626877Y-17419297D01*
X7685655Y-17381523D01*
X7694809Y-17379210D01*
X7725723Y-17372638D01*
X7779803Y-17361144D01*
X7952730Y-17284151D01*
X8105871Y-17172888D01*
X8108788Y-17169647D01*
X8111600Y-17166526D01*
X8171087Y-17129879D01*
X8203748Y-17125500D01*
X10699548Y-17125500D01*
X10766587Y-17145185D01*
G37*
%TD.AperFunction*%
%TA.AperFunction,Conductor*%
G36*
X12056587Y-15895185D02*
G01*
X12077229Y-15911819D01*
X20159762Y-23994352D01*
X20193247Y-24055675D01*
X20191856Y-24114126D01*
X20164938Y-24214586D01*
X20164936Y-24214596D01*
X20144341Y-24449999D01*
X20144341Y-24450388D01*
X20144292Y-24450553D01*
X20143869Y-24455394D01*
X20142896Y-24455308D01*
X20124656Y-24517427D01*
X20071852Y-24563182D01*
X20002694Y-24573126D01*
X19939138Y-24544101D01*
X19932660Y-24538069D01*
X11510803Y-16116212D01*
X11500980Y-16103950D01*
X11500759Y-16104134D01*
X11495787Y-16098123D01*
X11487022Y-16089893D01*
X11451627Y-16029652D01*
X11454419Y-15959838D01*
X11494512Y-15902617D01*
X11559177Y-15876155D01*
X11571905Y-15875500D01*
X11989548Y-15875500D01*
X12056587Y-15895185D01*
G37*
%TD.AperFunction*%
%TA.AperFunction,Conductor*%
G36*
X12846587Y-14145185D02*
G01*
X12867229Y-14161819D01*
X20159761Y-21454352D01*
X20193246Y-21515675D01*
X20191855Y-21574124D01*
X20164937Y-21674589D01*
X20164937Y-21674590D01*
X20144341Y-21909999D01*
X20144341Y-21910388D01*
X20144292Y-21910553D01*
X20143869Y-21915394D01*
X20142896Y-21915308D01*
X20124656Y-21977427D01*
X20071852Y-22023182D01*
X20002694Y-22033126D01*
X19939138Y-22004101D01*
X19932660Y-21998069D01*
X12800803Y-14866212D01*
X12790980Y-14853950D01*
X12790759Y-14854134D01*
X12785786Y-14848122D01*
X12736776Y-14802099D01*
X12733977Y-14799386D01*
X12714477Y-14779885D01*
X12714471Y-14779880D01*
X12711286Y-14777409D01*
X12702434Y-14769848D01*
X12670582Y-14739938D01*
X12670580Y-14739936D01*
X12670577Y-14739935D01*
X12653029Y-14730288D01*
X12636763Y-14719604D01*
X12620932Y-14707324D01*
X12580849Y-14689978D01*
X12570363Y-14684841D01*
X12532094Y-14663803D01*
X12532092Y-14663802D01*
X12512693Y-14658822D01*
X12494281Y-14652518D01*
X12475898Y-14644562D01*
X12475892Y-14644560D01*
X12432760Y-14637729D01*
X12421322Y-14635361D01*
X12379020Y-14624500D01*
X12379019Y-14624500D01*
X12358984Y-14624500D01*
X12339586Y-14622973D01*
X12332162Y-14621797D01*
X12319805Y-14619840D01*
X12319804Y-14619840D01*
X12276325Y-14623950D01*
X12264656Y-14624500D01*
X11720590Y-14624500D01*
X11653551Y-14604815D01*
X11607796Y-14552011D01*
X11597852Y-14482853D01*
X11626877Y-14419297D01*
X11685655Y-14381523D01*
X11694809Y-14379210D01*
X11725723Y-14372638D01*
X11779803Y-14361144D01*
X11952730Y-14284151D01*
X12105871Y-14172888D01*
X12108788Y-14169647D01*
X12111600Y-14166526D01*
X12171087Y-14129879D01*
X12203748Y-14125500D01*
X12779548Y-14125500D01*
X12846587Y-14145185D01*
G37*
%TD.AperFunction*%
%TD*%
M02*
